<?xml version="1.0" encoding="UTF-8"?>
<svg id="_レイヤー_2" data-name="レイヤー 2" xmlns="http://www.w3.org/2000/svg" viewBox="0 0 421.23 117.46">
  <defs>
    <style>
      .cls-1 {
        fill: #fff;
        stroke-width: 0px;
      }
    </style>
  </defs>
  <g id="_レイヤー_1-2" data-name="レイヤー 1">
    <g>
      <path class="cls-1" d="M18.19,7.38H6.39v7.71h11.31v5.8H6.39v9.42h11.8v5.8H0V1.58h18.19v5.8Z"/>
      <path class="cls-1" d="M57.69,28.85h-13.22l-2.9,7.25h-6.93L48.75,1.58h5.01l13.72,34.52h-6.88l-2.9-7.25ZM55.83,23.37l-4.67-12.42-4.67,12.42h9.34Z"/>
      <path class="cls-1" d="M92.82,7.38v28.72h-6.39V7.38h-7.37V1.58h21.14v5.8h-7.37Z"/>
      <path class="cls-1" d="M133.74,16.12c2.11,2.02,3.59,5.12,3.59,8.8s-1.47,6.73-3.59,8.75c-1.82,1.76-4.57,3.16-8.6,3.16s-6.78-1.4-8.6-3.16c-2.11-2.02-3.59-5.12-3.59-8.75s1.47-6.78,3.59-8.8c1.82-1.76,4.57-3.16,8.6-3.16s6.79,1.4,8.6,3.16ZM131.13,24.92c0-3.52-2.56-6.37-6-6.37s-6,2.85-6,6.37,2.51,6.31,6,6.31,6-2.9,6-6.31Z"/>
      <path class="cls-1" d="M170.81,12.97c-3.33,3.33-5.49,7.38-5.49,10.8,0,3.11,1.98,4.95,3.24,5.85,2.92,2.07,6.07,2.21,7.92,2.3l-1.75,5.49c-2.39-.4-7.43-1.35-11.07-5-2.16-2.11-3.33-5.04-3.33-8.1s1.12-6.03,3.06-8.96c2.12-3.29,4.37-5.4,5.94-6.84-6.03.5-12.64,1.04-17.14,1.67l-.77-5.04c9.72.09,23.67-.99,32.17-3.6v5.22c-2.11.13-7.06.45-12.78,6.21ZM180.21,20.66c-.99-1.22-1.93-2.12-3.69-3.47l1.84-2.16c1.49,1.12,2.61,2.07,3.74,3.46l-1.89,2.16ZM183.86,16.57c-1.17-1.35-2.25-2.34-3.74-3.42l1.89-2.16c1.89,1.4,2.79,2.34,3.73,3.42l-1.89,2.16Z"/>
      <path class="cls-1" d="M233.64,5.05c-.67.04-.76.13-1.39.81-2.25,2.57-4.77,4.91-7.42,7.02v23.98h-5.62v-19.8c-3.06,2.03-6.08,3.92-11.34,6.39l-3.92-4.01c9.4-3.69,19.3-11.07,26.1-19.12l3.92,3.24c.18.13.76.72.76,1.08,0,.32-.18.36-1.08.41Z"/>
      <path class="cls-1" d="M281.2,5.05c-.67.04-.76.13-1.4.81-2.25,2.57-4.77,4.91-7.42,7.02v23.98h-5.62v-19.8c-3.06,2.03-6.08,3.92-11.34,6.39l-3.92-4.01c9.41-3.69,19.3-11.07,26.1-19.12l3.92,3.24c.18.13.77.72.77,1.08,0,.32-.18.36-1.08.41Z"/>
      <path class="cls-1" d="M328.12,26.24c-3.33-3.1-7.83-6.75-13.23-9v19.44h-5.31V1.04l5.4.94c.13.04,1.08.18,1.08.72,0,.27-1.17.99-1.17,1.21v11.83l2.11-3.33c2.29.99,3.78,1.58,7.65,4.09,3.55,2.34,5.22,3.83,7.02,5.4l-3.55,4.32Z"/>
      <path class="cls-1" d="M372.94,22.96l2.48,14-5.22,1.03-2.43-14.35-14.62,1.89-.67-4.91,14.44-1.89-.99-5.8-10.89,1.44-.63-4.68,10.75-1.35-1.39-8.06,4.72-.27c.99-.04,1.35.09,1.35.45,0,.18-.77.99-.72,1.21l1.08,5.94,9.81-1.26.67,4.68-9.67,1.26,1.04,5.76,13.09-1.71.63,4.95-12.83,1.67Z"/>
      <path class="cls-1" d="M411.24,25.21c3.78,2.21,7.2,5.04,9.99,9.76l-4.68,3.74c-2.34-3.92-5.18-7.16-8.69-9.99l3.38-3.51Z"/>
      <path class="cls-1" d="M82.21,83.8c-.67.04-.76.13-1.4.81-2.25,2.57-4.77,4.91-7.42,7.02v23.98h-5.62v-19.8c-3.06,2.03-6.08,3.92-11.34,6.39l-3.92-4.01c9.41-3.69,19.3-11.07,26.1-19.12l3.92,3.24c.18.13.77.72.77,1.08,0,.32-.18.36-1.08.41Z"/>
      <path class="cls-1" d="M129.77,83.8c-.67.04-.76.13-1.39.81-2.25,2.57-4.77,4.91-7.42,7.02v23.98h-5.62v-19.8c-3.06,2.03-6.08,3.92-11.34,6.39l-3.92-4.01c9.4-3.69,19.3-11.07,26.1-19.12l3.92,3.24c.18.13.76.72.76,1.08,0,.32-.18.36-1.08.41Z"/>
      <path class="cls-1" d="M176.69,104.99c-3.33-3.1-7.83-6.75-13.23-9v19.44h-5.31v-35.64l5.4.94c.13.04,1.08.18,1.08.72,0,.27-1.17.99-1.17,1.21v11.83l2.12-3.33c2.29.99,3.78,1.58,7.65,4.09,3.56,2.34,5.22,3.83,7.02,5.4l-3.55,4.32Z"/>
      <path class="cls-1" d="M221.51,101.71l2.47,14-5.22,1.03-2.43-14.35-14.62,1.89-.67-4.91,14.45-1.89-.99-5.8-10.89,1.44-.63-4.68,10.75-1.35-1.4-8.06,4.73-.27c.99-.04,1.35.09,1.35.45,0,.18-.76.99-.72,1.21l1.08,5.94,9.81-1.26.67,4.68-9.67,1.26,1.04,5.76,13.09-1.71.63,4.95-12.82,1.67Z"/>
      <path class="cls-1" d="M279.6,85.82c-1.98,4.28-3.06,6.84-6.21,11.48,2.02,2.16,3.69,4,5.94,6.84l-4.09,3.96c-1.62-2.43-2.97-4.28-5.13-6.57-3.78,4.23-7.02,7.47-14.22,11.61l-4.37-4.05c8.82-4.59,12.1-8.28,14.85-11.38-1.08-1.12-2.88-2.97-7.25-5.76l3.06-4.18c3.2,1.98,5.35,3.92,7.33,5.71,2.61-3.96,3.92-7.02,5.26-11.29l5,2.25c.23.09.95.5.95.9,0,.27-.67.4-1.12.49Z"/>
      <path class="cls-1" d="M322.51,101.71l2.48,14-5.22,1.03-2.43-14.35-14.62,1.89-.67-4.91,14.44-1.89-.99-5.8-10.89,1.44-.63-4.68,10.75-1.35-1.39-8.06,4.72-.27c.99-.04,1.35.09,1.35.45,0,.18-.77.99-.72,1.21l1.08,5.94,9.81-1.26.67,4.68-9.67,1.26,1.04,5.76,13.09-1.71.63,4.95-12.83,1.67Z"/>
      <path class="cls-1" d="M371.33,110.48c0,3.83-3.11,6.93-6.93,6.98-3.83,0-6.98-3.15-6.98-6.98s3.15-6.93,6.98-6.93,6.93,3.06,6.93,6.93ZM359.59,110.48c0,2.66,2.16,4.82,4.82,4.77,2.65,0,4.77-2.12,4.77-4.77s-2.16-4.77-4.77-4.77-4.82,2.12-4.82,4.77Z"/>
    </g>
  </g>
</svg>