<?xml version="1.0" encoding="UTF-8"?>
<svg id="_レイヤー_2" data-name="レイヤー 2" xmlns="http://www.w3.org/2000/svg" viewBox="0 0 648.4 32.69">
  <defs>
    <style>
      .cls-1 {
        fill: #fff;
        stroke-width: 0px;
      }
    </style>
  </defs>
  <g id="_レイヤー_1-2" data-name="レイヤー 1">
    <g>
      <path class="cls-1" d="M15.36,6.23H5.4v6.51h9.55v4.89H5.4v7.95h9.96v4.89H0V1.34h15.36v4.89Z"/>
      <path class="cls-1" d="M48.8,24.36h-11.17l-2.45,6.12h-5.85L41.24,1.34h4.23l11.58,29.15h-5.81l-2.45-6.12ZM47.22,19.73l-3.94-10.49-3.94,10.49h7.89Z"/>
      <path class="cls-1" d="M78.55,6.23v24.25h-5.4V6.23h-6.23V1.34h17.85v4.89h-6.23Z"/>
      <path class="cls-1" d="M113.2,13.61c1.79,1.7,3.03,4.33,3.03,7.43s-1.25,5.68-3.03,7.39c-1.54,1.49-3.86,2.67-7.27,2.67s-5.73-1.18-7.27-2.67c-1.79-1.7-3.03-4.33-3.03-7.39s1.25-5.72,3.03-7.43c1.54-1.49,3.86-2.67,7.27-2.67s5.73,1.18,7.27,2.67ZM111,21.04c0-2.97-2.16-5.38-5.06-5.38s-5.06,2.4-5.06,5.38,2.12,5.33,5.06,5.33,5.06-2.45,5.06-5.33Z"/>
      <path class="cls-1" d="M144.65,10.95c-2.81,2.81-4.64,6.23-4.64,9.12,0,2.62,1.67,4.18,2.74,4.94,2.47,1.75,5.13,1.86,6.69,1.94l-1.48,4.64c-2.01-.34-6.27-1.14-9.35-4.22-1.82-1.79-2.81-4.26-2.81-6.84s.95-5.09,2.58-7.56c1.79-2.77,3.69-4.56,5.02-5.78-5.09.42-10.68.87-14.48,1.41l-.65-4.26c8.21.08,19.99-.84,27.17-3.04v4.41c-1.79.11-5.97.38-10.79,5.24ZM152.59,17.45c-.84-1.03-1.63-1.79-3.12-2.93l1.56-1.82c1.25.95,2.2,1.75,3.15,2.93l-1.6,1.82ZM155.67,13.99c-.99-1.14-1.9-1.98-3.15-2.89l1.6-1.82c1.6,1.18,2.36,1.98,3.15,2.89l-1.6,1.82Z"/>
      <path class="cls-1" d="M197.84,4.26c-.57.04-.65.11-1.18.68-1.9,2.17-4.03,4.14-6.27,5.93v20.25h-4.75V14.41c-2.58,1.71-5.13,3.31-9.58,5.4l-3.31-3.38c7.94-3.12,16.3-9.35,22.04-16.15l3.31,2.74c.15.11.65.61.65.91,0,.27-.15.3-.91.34Z"/>
      <path class="cls-1" d="M238.18,4.26c-.57.04-.65.11-1.18.68-1.9,2.17-4.03,4.14-6.27,5.93v20.25h-4.75V14.41c-2.58,1.71-5.13,3.31-9.58,5.4l-3.31-3.38c7.94-3.12,16.3-9.35,22.04-16.15l3.31,2.74c.15.11.65.61.65.91,0,.27-.15.3-.91.34Z"/>
      <path class="cls-1" d="M277.99,22.16c-2.81-2.62-6.61-5.7-11.17-7.6v16.42h-4.48V.88l4.56.8c.11.04.91.15.91.61,0,.23-.99.84-.99,1.03v9.99l1.79-2.81c1.94.84,3.19,1.33,6.46,3.46,3,1.98,4.41,3.23,5.93,4.56l-3,3.65Z"/>
      <path class="cls-1" d="M315.95,19.39l2.09,11.82-4.41.87-2.05-12.12-12.35,1.6-.57-4.14,12.2-1.6-.84-4.9-9.2,1.22-.53-3.95,9.08-1.14-1.18-6.8,3.99-.23c.84-.04,1.14.08,1.14.38,0,.15-.65.84-.61,1.03l.91,5.02,8.28-1.06.57,3.95-8.17,1.06.87,4.86,11.06-1.44.53,4.18-10.83,1.41Z"/>
      <path class="cls-1" d="M348.29,21.29c3.19,1.86,6.08,4.26,8.44,8.25l-3.95,3.15c-1.98-3.31-4.37-6.04-7.33-8.44l2.85-2.96Z"/>
      <path class="cls-1" d="M403.47,4.26c-.57.04-.65.11-1.18.68-1.9,2.17-4.03,4.14-6.27,5.93v20.25h-4.75V14.41c-2.58,1.71-5.13,3.31-9.58,5.4l-3.31-3.38c7.94-3.12,16.3-9.35,22.04-16.15l3.31,2.74c.15.11.65.61.65.91,0,.27-.15.3-.91.34Z"/>
      <path class="cls-1" d="M443.81,4.26c-.57.04-.65.11-1.18.68-1.9,2.17-4.03,4.14-6.27,5.93v20.25h-4.75V14.41c-2.58,1.71-5.13,3.31-9.58,5.4l-3.31-3.38c7.94-3.12,16.3-9.35,22.04-16.15l3.31,2.74c.15.11.65.61.65.91,0,.27-.15.3-.91.34Z"/>
      <path class="cls-1" d="M483.62,22.16c-2.81-2.62-6.61-5.7-11.17-7.6v16.42h-4.48V.88l4.56.8c.11.04.91.15.91.61,0,.23-.99.84-.99,1.03v9.99l1.79-2.81c1.94.84,3.19,1.33,6.46,3.46,3,1.98,4.41,3.23,5.93,4.56l-3,3.65Z"/>
      <path class="cls-1" d="M521.58,19.39l2.09,11.82-4.41.87-2.05-12.12-12.35,1.6-.57-4.14,12.2-1.6-.84-4.9-9.2,1.22-.53-3.95,9.08-1.14-1.18-6.8,3.99-.23c.84-.04,1.14.08,1.14.38,0,.15-.65.84-.61,1.03l.91,5.02,8.28-1.06.57,3.95-8.17,1.06.87,4.86,11.06-1.44.53,4.18-10.83,1.41Z"/>
      <path class="cls-1" d="M570.8,5.97c-1.67,3.61-2.58,5.78-5.24,9.69,1.71,1.82,3.12,3.38,5.02,5.78l-3.46,3.34c-1.37-2.05-2.51-3.61-4.33-5.55-3.19,3.57-5.93,6.31-12.01,9.8l-3.69-3.42c7.45-3.88,10.22-6.99,12.54-9.61-.91-.95-2.43-2.51-6.12-4.86l2.58-3.53c2.7,1.67,4.52,3.31,6.19,4.83,2.2-3.34,3.31-5.93,4.45-9.54l4.22,1.9c.19.08.8.42.8.76,0,.23-.57.34-.95.42Z"/>
      <path class="cls-1" d="M607.17,19.39l2.09,11.82-4.41.87-2.05-12.12-12.35,1.6-.57-4.14,12.2-1.6-.84-4.9-9.2,1.22-.53-3.95,9.08-1.14-1.18-6.8,3.99-.23c.84-.04,1.14.08,1.14.38,0,.15-.65.84-.61,1.03l.91,5.02,8.28-1.06.57,3.95-8.17,1.06.87,4.86,11.06-1.44.53,4.18-10.83,1.41Z"/>
      <path class="cls-1" d="M648.4,26.8c0,3.23-2.62,5.85-5.85,5.89-3.23,0-5.89-2.66-5.89-5.89s2.66-5.85,5.89-5.85,5.85,2.58,5.85,5.85ZM638.49,26.8c0,2.24,1.82,4.07,4.07,4.03,2.24,0,4.03-1.79,4.03-4.03s-1.82-4.03-4.03-4.03-4.07,1.79-4.07,4.03Z"/>
    </g>
  </g>
</svg>