<?xml version="1.0" encoding="UTF-8"?>
<svg id="_レイヤー_2" data-name="レイヤー 2" xmlns="http://www.w3.org/2000/svg" viewBox="0 0 588.93 46.5">
  <defs>
    <style>
      .cls-1 {
        fill: #281575;
        stroke-width: 0px;
      }
    </style>
  </defs>
  <g id="_レイヤー_1-2" data-name="レイヤー 1">
    <g>
      <path class="cls-1" d="M34.22,44.1c-3.94,2-7.14,2.4-9.81,2.4-8.21,0-13.74-2.8-17.48-6.47C2.94,36.16,0,30.29,0,23.15S2.94,10.27,6.94,6.4C10.87,2.6,16.61,0,23.55,0c2.94,0,6.34.6,10.67,2.47v11.88c-2.27-2.4-5.67-4.74-10.41-4.74-3.74,0-6.74,1.2-9.07,3.47-2.47,2.4-4.2,6-4.2,10.27,0,4.6,1.87,7.87,3.87,9.81.93.93,4.14,3.74,9.61,3.74,2.67,0,6.27-.73,10.21-4.6v11.81Z"/>
      <path class="cls-1" d="M88.52,6.47c4.2,4.07,6.94,9.94,6.94,16.81,0,5.94-2.13,12.01-6.94,16.68-4.14,4-9.74,6.54-17.21,6.54-8.34,0-14.01-3.34-17.34-6.54-4.27-4-6.94-10.01-6.94-16.54s2.87-12.88,6.87-16.88c3-3,8.54-6.54,17.41-6.54,6.94,0,12.74,2.13,17.21,6.47ZM61.5,13.28c-1.93,1.87-3.94,5.14-3.94,10.07,0,4.07,1.33,7.34,4.07,10.01,2.87,2.74,6.07,3.67,9.54,3.67,4.54,0,7.74-1.67,9.87-3.8,1.73-1.67,3.87-4.8,3.87-9.94,0-4.6-1.87-8.01-3.87-10.01-2.2-2.13-5.74-3.8-9.81-3.8s-7.34,1.4-9.74,3.8Z"/>
      <path class="cls-1" d="M109.8,45.5V1h8.94l24.15,28.69V1h10.27v44.5h-8.94l-24.15-28.82v28.82h-10.27Z"/>
      <path class="cls-1" d="M201.72,44.1c-3.94,2-7.14,2.4-9.81,2.4-8.21,0-13.74-2.8-17.48-6.47-4-3.87-6.94-9.74-6.94-16.88s2.94-12.88,6.94-16.74c3.94-3.8,9.67-6.4,16.61-6.4,2.94,0,6.34.6,10.67,2.47v11.88c-2.27-2.4-5.67-4.74-10.41-4.74-3.74,0-6.74,1.2-9.07,3.47-2.47,2.4-4.2,6-4.2,10.27,0,4.6,1.87,7.87,3.87,9.81.93.93,4.14,3.74,9.61,3.74,2.67,0,6.27-.73,10.21-4.6v11.81Z"/>
      <path class="cls-1" d="M241.74,9.67h-14.88v8.61h14.14v8.67h-14.14v9.87h14.88v8.67h-25.15V1h25.15v8.67Z"/>
      <path class="cls-1" d="M272.42,1c3.87,0,8.14.53,11.67,3.67,3.8,3.33,4.34,7.74,4.34,10.81,0,5.6-2.13,8.74-3.8,10.47-3.54,3.6-8.21,3.94-11.34,3.94h-6.27v15.61h-10.27V1h15.68ZM267.02,21.48h3.67c1.4,0,3.87-.07,5.54-1.67.93-.93,1.67-2.47,1.67-4.4s-.67-3.4-1.67-4.34c-1.53-1.47-3.74-1.67-5.74-1.67h-3.47v12.07Z"/>
      <path class="cls-1" d="M317.18,9.67v35.82h-10.27V9.67h-9.67V1h29.62v8.67h-9.67Z"/>
      <path class="cls-1" d="M401.83,28.69c-1.93,2.47-3.94,4.6-5.94,6.4l9.47,10.41h-12.54l-4-4.34c-1.67,1.67-3.74,3.2-5.67,4-2.54,1.07-5.4,1.33-8.34,1.33-3.67,0-7.81-.27-11.27-3.54-1.47-1.4-3.8-4.27-3.8-9.21,0-3.67,1.2-6.54,3.47-8.87,1.8-1.87,4.47-3.33,7.21-4.14-1.07-1.07-2.4-2.67-3.07-3.94-.87-1.67-1.2-3.4-1.2-5.2,0-3.8,1.47-6.34,3.14-8,1.93-1.87,5.07-3.6,9.81-3.6s7.87,1.53,9.94,3.6c1.8,1.8,3.07,4.54,3.07,7.6,0,2.6-1,5.47-3.4,7.81-1.27,1.2-3,2.33-4.8,3.07l6.47,7.14c2.2-2,4.07-4.14,5.67-6.2l5.8,5.67ZM375.41,26.08c-1.13.6-2.74,1.6-3.6,2.6-1.27,1.4-1.53,2.87-1.53,4,0,1.47.73,2.67,1.6,3.47,1.07.93,2.6,1.47,4.34,1.47,2.94,0,5.4-1.67,6.87-2.94l-7.67-8.61ZM376.81,14.14c1,1.47,2.47,2.87,2.54,2.94,1.07-.53,2.4-1.53,3.14-2.4.8-.93,1.4-2.27,1.4-3.67,0-1.2-.47-2.2-1.13-2.87-.53-.47-1.47-1.07-3-1.07-.8,0-1.87.13-2.8.93-.87.73-1.27,1.8-1.27,2.87,0,1.27.47,2.27,1.13,3.27Z"/>
      <path class="cls-1" d="M437.58,45.5l7.14-44.5h8.54l11.07,26.62,11.07-26.62h8.54l7.14,44.5h-10.27l-3.54-26.55-11.14,26.55h-3.6l-11.14-26.55-3.54,26.55h-10.27Z"/>
      <path class="cls-1" d="M531.57,37.09h-16.81l-3.4,8.41h-10.67l17.95-44.5h9.41l17.54,44.5h-10.67l-3.34-8.41ZM528.76,29.22l-5.47-14.94-5.54,14.94h11.01Z"/>
      <path class="cls-1" d="M572.92,1c3.87,0,8.14.53,11.67,3.67,3.8,3.33,4.34,7.74,4.34,10.81,0,5.6-2.13,8.74-3.8,10.47-3.54,3.6-8.21,3.94-11.34,3.94h-6.27v15.61h-10.27V1h15.68ZM567.52,21.48h3.67c1.4,0,3.87-.07,5.54-1.67.93-.93,1.67-2.47,1.67-4.4s-.67-3.4-1.67-4.34c-1.53-1.47-3.74-1.67-5.74-1.67h-3.47v12.07Z"/>
    </g>
  </g>
</svg>