<?xml version="1.0" encoding="UTF-8"?>
<svg id="_レイヤー_2" data-name="レイヤー 2" xmlns="http://www.w3.org/2000/svg" viewBox="0 0 526.63 33.97">
  <defs>
    <style>
      .cls-1 {
        fill: #281575;
        stroke-width: 0px;
      }
    </style>
  </defs>
  <g id="_レイヤー_1-2" data-name="レイヤー 1">
    <g>
      <path class="cls-1" d="M23.25,33.24H0l9.12-9.94c1.6-1.78,4.01-4.74,4.97-6.2.68-1.09,1.82-3.05,1.82-5.15,0-1.14-.46-2.33-1.18-3.01-.59-.55-1.6-.87-2.78-.87-1.32,0-2.19.46-2.78,1.09-.82.91-1.28,2.55-1.28,3.74H.87c.23-2.64,1.28-5.65,3.15-7.61,1.46-1.55,4.06-3.15,8.39-3.15s6.79,1.82,7.89,2.87c1.64,1.64,2.83,4.15,2.83,7.29,0,2.69-.82,4.65-2.28,6.7-1.32,1.82-2.92,3.37-4.88,5.24l-3.19,3.05h10.49v5.93Z"/>
      <path class="cls-1" d="M51.71,30.78c-1.78,1.73-4.42,3.15-8.16,3.15s-6.25-1.37-8.07-3.15c-2.96-2.92-4.38-7.52-4.38-12.72s1.41-9.89,4.38-12.77c1.82-1.78,4.42-3.15,8.07-3.15s6.38,1.41,8.16,3.15c2.96,2.87,4.38,7.52,4.38,12.77s-1.41,9.8-4.38,12.72ZM40.77,9.3c-2.23,2.19-2.55,6.57-2.55,8.71,0,2.37.41,6.66,2.55,8.75.82.78,1.64,1.14,2.83,1.14s2.01-.37,2.83-1.14c2.14-2.1,2.55-6.38,2.55-8.75,0-2.14-.32-6.52-2.55-8.71-.82-.78-1.64-1.14-2.83-1.14s-2.01.36-2.83,1.14Z"/>
      <path class="cls-1" d="M85.27,33.24h-23.25l9.12-9.94c1.6-1.78,4.01-4.74,4.97-6.2.68-1.09,1.82-3.05,1.82-5.15,0-1.14-.46-2.33-1.18-3.01-.59-.55-1.6-.87-2.78-.87-1.32,0-2.19.46-2.78,1.09-.82.91-1.28,2.55-1.28,3.74h-7.02c.23-2.64,1.28-5.65,3.15-7.61,1.46-1.55,4.06-3.15,8.39-3.15s6.79,1.82,7.89,2.87c1.64,1.64,2.83,4.15,2.83,7.29,0,2.69-.82,4.65-2.28,6.7-1.32,1.82-2.92,3.37-4.88,5.24l-3.19,3.05h10.49v5.93Z"/>
      <path class="cls-1" d="M114.41,21.93h3.65v5.56h-3.65v5.75h-6.75v-5.75h-14.86v-4.01l13.4-20.65h8.21v19.1ZM107.66,21.93v-11.81l-7.48,11.81h7.48Z"/>
      <path class="cls-1" d="M129.27,25.67c2.33,0,4.15,1.82,4.15,4.15s-1.82,4.15-4.15,4.15-4.15-1.82-4.15-4.15,1.82-4.15,4.15-4.15Z"/>
      <path class="cls-1" d="M161.74,21.93h3.65v5.56h-3.65v5.75h-6.75v-5.75h-14.86v-4.01l13.4-20.65h8.21v19.1ZM154.99,21.93v-11.81l-7.48,11.81h7.48Z"/>
      <path class="cls-1" d="M176.61,25.67c2.33,0,4.15,1.82,4.15,4.15s-1.82,4.15-4.15,4.15-4.15-1.82-4.15-4.15,1.82-4.15,4.15-4.15Z"/>
      <path class="cls-1" d="M197.12,8.75h-4.33V2.83h11.35v30.41h-7.02V8.75Z"/>
      <path class="cls-1" d="M233.65,8.75h-13.4V2.83h24.16l-18.01,31.09-6.52-1.6,13.77-23.57Z"/>
      <path class="cls-1" d="M262.92,33.24h-4.1l-10.12-20.33h7.2l5.24,10.81,5.15-11.08h3.46l5.15,11.08,5.24-10.81h7.2l-10.12,20.33h-4.1l-5.11-11.58-5.11,11.58Z"/>
      <path class="cls-1" d="M314.5,24.21h-15.18c0,1.09.41,2.55,1.23,3.46,1,1.09,2.37,1.28,3.37,1.28s1.96-.18,2.64-.59c.09-.04.87-.55,1.41-1.69l6.2.64c-.91,2.87-2.74,4.38-3.92,5.11-1.96,1.18-4.15,1.5-6.43,1.5-3.05,0-5.75-.55-8.12-2.92-1.78-1.78-3.05-4.47-3.05-7.84,0-2.92,1.05-5.93,3.1-8.02,2.46-2.46,5.52-2.92,7.8-2.92s5.56.41,8.07,3.05c2.42,2.55,2.87,5.75,2.87,8.25v.68ZM308.43,20.29c-.04-.18-.36-1.46-1.32-2.37-.73-.68-1.78-1.14-3.1-1.14-1.69,0-2.69.68-3.33,1.32-.5.55-.96,1.28-1.14,2.19h8.89Z"/>
      <path class="cls-1" d="M344.41,33.24h-6.57v-2.46c-1,1.46-2.83,3.15-6.43,3.15-3.01,0-5.2-.96-6.98-2.78-2.1-2.1-3.19-5.01-3.19-8.16,0-3.37,1.23-6.15,3.19-8.02,1.78-1.69,4.29-2.74,7.07-2.74,2.23,0,4.7.73,6.34,2.96V0h6.57v33.24ZM329.59,19.24c-.96.91-1.6,2.23-1.6,3.88,0,1.5.64,2.83,1.6,3.74,1,.96,2.28,1.41,3.42,1.41,1.23,0,2.69-.5,3.74-1.5.78-.73,1.5-1.96,1.5-3.65s-.68-2.92-1.46-3.74c-1.05-1.09-2.28-1.5-3.69-1.5-1.32,0-2.46.37-3.51,1.37Z"/>
      <path class="cls-1" d="M409.62,6.57c2.87,2.78,4.74,6.79,4.74,11.49,0,4.06-1.46,8.21-4.74,11.4-2.83,2.74-6.66,4.47-11.76,4.47-5.7,0-9.57-2.28-11.85-4.47-2.92-2.74-4.74-6.84-4.74-11.31s1.96-8.8,4.7-11.53c2.05-2.05,5.84-4.47,11.9-4.47,4.74,0,8.71,1.46,11.76,4.42ZM391.15,11.22c-1.32,1.28-2.69,3.51-2.69,6.88,0,2.78.91,5.01,2.78,6.84,1.96,1.87,4.15,2.51,6.52,2.51,3.1,0,5.29-1.14,6.75-2.6,1.19-1.14,2.64-3.28,2.64-6.79,0-3.15-1.28-5.47-2.64-6.84-1.5-1.46-3.92-2.6-6.7-2.6s-5.01.96-6.66,2.6Z"/>
      <path class="cls-1" d="M433.97,2.83c2.64,0,5.56.37,7.98,2.51,2.6,2.28,2.96,5.29,2.96,7.39,0,3.83-1.46,5.97-2.6,7.16-2.42,2.46-5.61,2.69-7.75,2.69h-4.29v10.67h-7.02V2.83h10.71ZM430.27,16.82h2.51c.96,0,2.64-.05,3.78-1.14.64-.64,1.14-1.69,1.14-3.01s-.46-2.33-1.14-2.96c-1.05-1-2.55-1.14-3.92-1.14h-2.37v8.25Z"/>
      <path class="cls-1" d="M470.17,8.75h-10.17v5.88h9.67v5.93h-9.67v6.75h10.17v5.93h-17.19V2.83h17.19v5.93Z"/>
      <path class="cls-1" d="M479.52,33.24V2.83h6.11l16.5,19.61V2.83h7.02v30.41h-6.11l-16.5-19.7v19.7h-7.02Z"/>
      <path class="cls-1" d="M522.48,25.67c2.33,0,4.15,1.82,4.15,4.15s-1.82,4.15-4.15,4.15-4.15-1.82-4.15-4.15,1.82-4.15,4.15-4.15ZM519.1,23.43V2.83h6.75v20.61h-6.75Z"/>
    </g>
  </g>
</svg>