<?xml version="1.0" encoding="UTF-8"?>
<svg id="_レイヤー_2" data-name="レイヤー 2" xmlns="http://www.w3.org/2000/svg" viewBox="0 0 95.45 40">
  <defs>
    <style>
      .cls-1 {
        fill: #fff;
        stroke-width: 0px;
      }
    </style>
  </defs>
  <g id="_レイヤー_1-2" data-name="レイヤー 1">
    <g>
      <rect class="cls-1" x="0" y="39.03" width="95.45" height=".97"/>
      <polygon class="cls-1" points="95.45 16.7 95.45 15.66 72.17 8.14 72.17 0 24.75 15.32 24.75 8.7 24.79 8.69 48.46 1.04 48.46 0 0 15.66 0 16.7 23.71 9.03 23.71 16.7 47.42 9.03 47.42 16.7 48.46 16.7 48.46 8.7 48.5 8.69 71.13 1.37 71.13 16.7 72.17 16.7 72.17 9.17 72.24 9.19 95.45 16.7"/>
      <g>
        <path class="cls-1" d="M29.56,26.83c-1.82,0-3.3,1.48-3.3,3.3s1.48,3.3,3.3,3.3,3.3-1.48,3.3-3.3-1.48-3.3-3.3-3.3ZM29.56,32.45c-1.28,0-2.32-1.04-2.32-2.32s1.04-2.32,2.32-2.32,2.32,1.04,2.32,2.32-1.04,2.32-2.32,2.32Z"/>
        <polygon class="cls-1" points="95.45 23.49 95.45 22.53 90.34 22.53 90.34 33.2 95.45 33.2 95.45 32.23 91.38 32.23 91.38 27.94 94.98 27.94 94.98 26.98 91.38 26.98 91.38 23.49 95.45 23.49"/>
        <polygon class="cls-1" points="0 33.2 5.11 33.2 5.11 32.23 1.04 32.23 1.04 27.94 4.64 27.94 4.64 26.98 1.04 26.98 1.04 23.49 5.11 23.49 5.11 22.53 0 22.53 0 33.2"/>
        <polygon class="cls-1" points="18.45 23.49 21.1 23.49 21.1 33.2 22.14 33.2 22.14 23.49 24.79 23.49 24.79 22.53 18.45 22.53 18.45 23.49"/>
        <polygon class="cls-1" points="41.4 22.53 40.36 22.53 40.36 33.2 45.48 33.2 45.48 32.23 41.4 32.23 41.4 22.53"/>
        <rect class="cls-1" x="73.17" y="22.53" width="1.04" height="10.67"/>
        <polygon class="cls-1" points="64.49 26.11 61.14 22.54 61.13 22.53 60.03 22.53 60.03 33.2 61.07 33.2 61.07 23.88 64.49 27.55 67.91 23.91 67.91 33.2 68.95 33.2 68.95 22.53 67.85 22.53 64.49 26.11"/>
        <path class="cls-1" d="M54.85,29.86c0,1.44-1.16,2.57-2.63,2.57h0c-1.47,0-2.63-1.13-2.63-2.57v-7.34h-1.04v7.31c0,2.01,1.61,3.59,3.67,3.59h0c2.06,0,3.67-1.58,3.67-3.59v-7.31h-1.04v7.34Z"/>
        <polygon class="cls-1" points="85.09 26.63 79.47 22.53 78.44 22.53 78.44 33.2 79.47 33.2 79.47 23.73 85.09 27.86 85.09 33.2 86.12 33.2 86.12 22.53 85.09 22.53 85.09 26.63"/>
        <path class="cls-1" d="M11.82,22.53l-3.99,10.63-.02.04h1.1l.93-2.5h5.04l.93,2.5h1.1l-4-10.67h-1.1ZM10.21,29.74l2.16-5.81,2.16,5.81h-4.33Z"/>
      </g>
    </g>
  </g>
</svg>