<?xml version="1.0" encoding="UTF-8"?><svg id="_レイヤー_1" xmlns="http://www.w3.org/2000/svg" viewBox="0 0 1399.9992 93.7277"><defs><style>.cls-1{fill:none;}.cls-2{fill:#fff;}.cls-3{opacity:.2;}</style></defs><g class="cls-3"><polygon class="cls-2" points="124.9999 34.3638 124.9999 33.0064 94.5107 23.1547 94.5107 12.5 32.4143 32.5648 32.4143 23.8897 32.4626 23.874 63.4626 13.8574 63.4626 12.5 0 33.0064 0 34.3638 31.0482 24.3313 31.0482 34.3638 62.0963 24.3313 62.0963 34.3638 63.4626 34.3638 63.4626 23.8897 63.5109 23.874 93.1444 14.299 93.1444 34.3638 94.5107 34.3638 94.5107 24.5121 94.6018 24.5414 124.9999 34.3638"/><polygon class="cls-2" points="274.9998 34.3638 274.9998 33.0064 244.5106 23.1547 244.5106 12.5 182.4142 32.5648 182.4142 23.8897 182.4625 23.874 213.4625 13.8574 213.4625 12.5 149.9999 33.0064 149.9999 34.3638 181.0482 24.3313 181.0482 34.3638 212.0963 24.3313 212.0963 34.3638 213.4625 34.3638 213.4625 23.8897 213.5108 23.874 243.1443 14.299 243.1443 34.3638 244.5106 34.3638 244.5106 24.5121 244.6017 24.5414 274.9998 34.3638"/><polygon class="cls-2" points="424.9997 34.3638 424.9997 33.0064 394.5105 23.1547 394.5105 12.5 332.4142 32.5648 332.4142 23.8897 332.4624 23.874 363.4624 13.8574 363.4624 12.5 299.9998 33.0064 299.9998 34.3638 331.0481 24.3313 331.0481 34.3638 362.0962 24.3313 362.0962 34.3638 363.4624 34.3638 363.4624 23.8897 363.5107 23.874 393.1443 14.299 393.1443 34.3638 394.5105 34.3638 394.5105 24.5121 394.6016 24.5414 424.9997 34.3638"/><polygon class="cls-2" points="574.9996 34.3638 574.9996 33.0064 544.5104 23.1547 544.5104 12.5 482.4141 32.5648 482.4141 23.8897 482.4623 23.874 513.4623 13.8574 513.4623 12.5 449.9997 33.0064 449.9997 34.3638 481.048 24.3313 481.048 34.3638 512.0961 24.3313 512.0961 34.3638 513.4623 34.3638 513.4623 23.8897 513.5106 23.874 543.1442 14.299 543.1442 34.3638 544.5104 34.3638 544.5104 24.5121 544.6015 24.5414 574.9996 34.3638"/><polygon class="cls-2" points="724.9996 34.3638 724.9996 33.0064 694.5103 23.1547 694.5103 12.5 632.414 32.5648 632.414 23.8897 632.4623 23.874 663.4623 13.8574 663.4623 12.5 599.9996 33.0064 599.9996 34.3638 631.0479 24.3313 631.0479 34.3638 662.096 24.3313 662.096 34.3638 663.4623 34.3638 663.4623 23.8897 663.5105 23.874 693.1441 14.299 693.1441 34.3638 694.5103 34.3638 694.5103 24.5121 694.6015 24.5414 724.9996 34.3638"/><polygon class="cls-2" points="874.9995 34.3638 874.9995 33.0064 844.5103 23.1547 844.5103 12.5 782.4139 32.5648 782.4139 23.8897 782.4622 23.874 813.4622 13.8574 813.4622 12.5 749.9996 33.0064 749.9996 34.3638 781.0478 24.3313 781.0478 34.3638 812.0959 24.3313 812.0959 34.3638 813.4622 34.3638 813.4622 23.8897 813.5104 23.874 843.144 14.299 843.144 34.3638 844.5103 34.3638 844.5103 24.5121 844.6014 24.5414 874.9995 34.3638"/><polygon class="cls-2" points="1024.9994 34.3638 1024.9994 33.0064 994.5102 23.1547 994.5102 12.5 932.4138 32.5648 932.4138 23.8897 932.4621 23.874 963.4621 13.8574 963.4621 12.5 899.9995 33.0064 899.9995 34.3638 931.0477 24.3313 931.0477 34.3638 962.0958 24.3313 962.0958 34.3638 963.4621 34.3638 963.4621 23.8897 963.5104 23.874 993.1439 14.299 993.1439 34.3638 994.5102 34.3638 994.5102 24.5121 994.6013 24.5414 1024.9994 34.3638"/><polygon class="cls-2" points="1174.9993 34.3638 1174.9993 33.0064 1144.5101 23.1547 1144.5101 12.5 1082.4137 32.5648 1082.4137 23.8897 1082.462 23.874 1113.462 13.8574 1113.462 12.5 1049.9994 33.0064 1049.9994 34.3638 1081.0476 24.3313 1081.0476 34.3638 1112.0957 24.3313 1112.0957 34.3638 1113.462 34.3638 1113.462 23.8897 1113.5103 23.874 1143.1438 14.299 1143.1438 34.3638 1144.5101 34.3638 1144.5101 24.5121 1144.6012 24.5414 1174.9993 34.3638"/><polygon class="cls-2" points="1324.9992 34.3638 1324.9992 33.0064 1294.51 23.1547 1294.51 12.5 1232.4136 32.5648 1232.4136 23.8897 1232.4619 23.874 1263.4619 13.8574 1263.4619 12.5 1199.9993 33.0064 1199.9993 34.3638 1231.0476 24.3313 1231.0476 34.3638 1262.0957 24.3313 1262.0957 34.3638 1263.4619 34.3638 1263.4619 23.8897 1263.5102 23.874 1293.1437 14.299 1293.1437 34.3638 1294.51 34.3638 1294.51 24.5121 1294.6011 24.5414 1324.9992 34.3638"/><polygon class="cls-2" points="199.9999 81.2277 199.9999 79.8703 169.5107 70.0185 169.5107 59.3638 107.4143 79.4287 107.4143 70.7535 107.4626 70.7379 138.4626 60.7213 138.4626 59.3638 75 79.8703 75 81.2277 106.0482 71.1951 106.0482 81.2277 137.0963 71.1951 137.0963 81.2277 138.4626 81.2277 138.4626 70.7535 138.5109 70.7379 168.1444 61.1629 168.1444 81.2277 169.5107 81.2277 169.5107 71.376 169.6018 71.4052 199.9999 81.2277"/><polygon class="cls-2" points="349.9998 81.2277 349.9998 79.8703 319.5106 70.0185 319.5106 59.3638 257.4142 79.4287 257.4142 70.7535 257.4625 70.7379 288.4625 60.7213 288.4625 59.3638 224.9999 79.8703 224.9999 81.2277 256.0482 71.1951 256.0482 81.2277 287.0963 71.1951 287.0963 81.2277 288.4625 81.2277 288.4625 70.7535 288.5108 70.7379 318.1443 61.1629 318.1443 81.2277 319.5106 81.2277 319.5106 71.376 319.6017 71.4052 349.9998 81.2277"/><polygon class="cls-2" points="499.9997 81.2277 499.9997 79.8703 469.5105 70.0185 469.5105 59.3638 407.4142 79.4287 407.4142 70.7535 407.4624 70.7379 438.4624 60.7213 438.4624 59.3638 374.9998 79.8703 374.9998 81.2277 406.0481 71.1951 406.0481 81.2277 437.0962 71.1951 437.0962 81.2277 438.4624 81.2277 438.4624 70.7535 438.5107 70.7379 468.1443 61.1629 468.1443 81.2277 469.5105 81.2277 469.5105 71.376 469.6016 71.4052 499.9997 81.2277"/><polygon class="cls-2" points="649.9996 81.2277 649.9996 79.8703 619.5104 70.0185 619.5104 59.3638 557.4141 79.4287 557.4141 70.7535 557.4623 70.7379 588.4623 60.7213 588.4623 59.3638 524.9997 79.8703 524.9997 81.2277 556.048 71.1951 556.048 81.2277 587.0961 71.1951 587.0961 81.2277 588.4623 81.2277 588.4623 70.7535 588.5106 70.7379 618.1442 61.1629 618.1442 81.2277 619.5104 81.2277 619.5104 71.376 619.6015 71.4052 649.9996 81.2277"/><polygon class="cls-2" points="799.9996 81.2277 799.9996 79.8703 769.5103 70.0185 769.5103 59.3638 707.414 79.4287 707.414 70.7535 707.4623 70.7379 738.4623 60.7213 738.4623 59.3638 674.9996 79.8703 674.9996 81.2277 706.0479 71.1951 706.0479 81.2277 737.096 71.1951 737.096 81.2277 738.4623 81.2277 738.4623 70.7535 738.5105 70.7379 768.1441 61.1629 768.1441 81.2277 769.5103 81.2277 769.5103 71.376 769.6015 71.4052 799.9996 81.2277"/><polygon class="cls-2" points="949.9995 81.2277 949.9995 79.8703 919.5103 70.0185 919.5103 59.3638 857.4139 79.4287 857.4139 70.7535 857.4622 70.7379 888.4622 60.7213 888.4622 59.3638 824.9996 79.8703 824.9996 81.2277 856.0478 71.1951 856.0478 81.2277 887.0959 71.1951 887.0959 81.2277 888.4622 81.2277 888.4622 70.7535 888.5104 70.7379 918.144 61.1629 918.144 81.2277 919.5103 81.2277 919.5103 71.376 919.6014 71.4052 949.9995 81.2277"/><polygon class="cls-2" points="1099.9994 81.2277 1099.9994 79.8703 1069.5102 70.0185 1069.5102 59.3638 1007.4138 79.4287 1007.4138 70.7535 1007.4621 70.7379 1038.4621 60.7213 1038.4621 59.3638 974.9995 79.8703 974.9995 81.2277 1006.0477 71.1951 1006.0477 81.2277 1037.0958 71.1951 1037.0958 81.2277 1038.4621 81.2277 1038.4621 70.7535 1038.5104 70.7379 1068.1439 61.1629 1068.1439 81.2277 1069.5102 81.2277 1069.5102 71.376 1069.6013 71.4052 1099.9994 81.2277"/><polygon class="cls-2" points="1249.9993 81.2277 1249.9993 79.8703 1219.5101 70.0185 1219.5101 59.3638 1157.4137 79.4287 1157.4137 70.7535 1157.462 70.7379 1188.462 60.7213 1188.462 59.3638 1124.9994 79.8703 1124.9994 81.2277 1156.0476 71.1951 1156.0476 81.2277 1187.0957 71.1951 1187.0957 81.2277 1188.462 81.2277 1188.462 70.7535 1188.5103 70.7379 1218.1438 61.1629 1218.1438 81.2277 1219.5101 81.2277 1219.5101 71.376 1219.6012 71.4052 1249.9993 81.2277"/><polygon class="cls-2" points="1399.9992 81.2277 1399.9992 79.8703 1369.51 70.0185 1369.51 59.3638 1307.4136 79.4287 1307.4136 70.7535 1307.4619 70.7379 1338.4619 60.7213 1338.4619 59.3638 1274.9993 79.8703 1274.9993 81.2277 1306.0476 71.1951 1306.0476 81.2277 1337.0957 71.1951 1337.0957 81.2277 1338.4619 81.2277 1338.4619 70.7535 1338.5102 70.7379 1368.1437 61.1629 1368.1437 81.2277 1369.51 81.2277 1369.51 71.376 1369.6011 71.4052 1399.9992 81.2277"/></g><rect class="cls-1" width="1399.9992" height="93.7277"/></svg>