<?xml version="1.0" encoding="UTF-8"?><svg id="_レイヤー_2" xmlns="http://www.w3.org/2000/svg" viewBox="0 0 672.0376 103.4533"><defs><style>.cls-1{fill:#1f2b88;}</style></defs><g id="_レイヤー_1-2"><g><path class="cls-1" d="M18.7817,40.5733c-.8799-.3738-1.5732-.86-2.0801-1.4601-.5068-.6-.7598-1.22-.7598-1.86,0-.6669,.2061-1.1937,.6201-1.58,.4131-.3868,.8857-.58,1.4199-.58,.7461,0,1.4795,.3199,2.1992,.96,.5068,.4531,1.0537,1.0663,1.6406,1.84,.3994,.5062,.7256,.8732,.9795,1.1,.2529,.2263,.5137,.3401,.7803,.3401,.1865,0,.373-.0669,.5596-.2001l.3203-.24c.5859-.5068,1.0205-1.5537,1.2998-3.14,.2803-1.5862,.4199-3.9531,.4199-7.1V9.0933c0-1.3601-.3262-2.2732-.9795-2.74-.6543-.4663-1.4473-.7001-2.3799-.7001h-.4805c-.1865,0-.2793-.16-.2793-.48s.0928-.48,.2793-.48h13.5205c.1855,0,.2793,.16,.2793,.48s-.0938,.48-.2793,.48h-.4404c-.9336,0-1.7197,.2338-2.3594,.7001-.6406,.4668-.9609,1.3799-.9609,2.74V29.1733c0,2.9337-.5791,5.2931-1.7393,7.08-1.1602,1.7863-2.5342,3.0463-4.1201,3.78-1.5869,.7332-3.1006,1.1-4.54,1.1-1.0674,0-2.04-.1869-2.9199-.5599Z"/><path class="cls-1" d="M69.0054,33.8133c0,.3199-.0938,.48-.2803,.48h-9.3994c-.1875,0-.3203-.08-.4004-.24-1.1201-2.2131-2.4336-4.7063-3.9404-7.48-1.5068-2.7732-2.8193-4.9331-3.9395-6.48h-2.3203v9.84c0,2.3199,1.1201,3.48,3.3604,3.48h.4395c.1865,0,.2803,.1338,.2803,.4,0,.3199-.0938,.48-.2803,.48h-13.3594c-.1875,0-.2803-.16-.2803-.48,0-.2662,.0928-.4,.2803-.4h.4795c2.2129,0,3.3203-1.16,3.3203-3.48V9.0533c0-2.2931-1.1074-3.4401-3.3203-3.4401h-.4795c-.1875,0-.2803-.1599-.2803-.48,0-.2931,.0928-.4399,.2803-.4399,3.5459-.0801,6.8926-.12,10.04-.12,1.4658,0,3.1855,.0269,5.1602,.08,1.7861,.0537,3.4795,.3868,5.0791,1,1.6006,.6138,2.8936,1.4869,3.8809,2.62,.9854,1.1338,1.4795,2.46,1.4795,3.98,0,1.8669-.7334,3.38-2.2002,4.54s-3.3193,2.02-5.5596,2.58c.6133,.8,1.7598,2.6138,3.4395,5.4401,1.7607,2.9868,3.04,5.04,3.8408,6.16,.1055,.1337,.3457,.4738,.7197,1.0199,.373,.5469,.8398,.92,1.3994,1.12,.5605,.2001,1.3203,.3,2.2803,.3,.1865,0,.2803,.1338,.2803,.4Zm-20.2803-14.84h1.2402c3.5195,0,5.8203-.6932,6.9004-2.0801,1.0791-1.3862,1.6191-3,1.6191-4.84,0-1.0663-.2461-2.0731-.7393-3.02-.4941-.9463-1.2207-1.7131-2.1807-2.3-.96-.5862-2.1201-.8799-3.4795-.8799-1.1201,0-1.96,.1937-2.5205,.58-.5596,.3868-.8398,1.0337-.8398,1.9399v10.6001Z"/><path class="cls-1" d="M107.9731,12.5933c1.1729,1.0537,1.8799,1.7937,2.1201,2.22,.0527,.1068,.0801,.1737,.0801,.2,0,.1869-.1074,.3401-.3203,.4601-.2139,.12-.4541,.1799-.7197,.1799h-3.2002v11.28c.0527,3.3337,.1602,6.3868,.3203,9.16,0,.1599-.0537,.2931-.1602,.3999-.2939,.3201-.7734,.62-1.4404,.9s-1.4531,.42-2.3594,.42c-.374,0-.6738-.0801-.9004-.24-.2266-.16-.3398-.3469-.3398-.5601,.1064-1.5737,.2002-3.1,.2803-4.58s.1328-3.42,.1592-5.8201V15.6532h-3.6396v1.4401c0,2.9337-.2139,5.5737-.6396,7.9199-.4268,2.3469-1.334,4.6338-2.7207,6.86-1.3867,2.2269-3.4395,4.1532-6.1592,5.78-.1602,.1063-.3076,.0931-.4404-.04-.1602-.1599-.1738-.3199-.04-.48,1.5732-1.7869,2.7734-3.7531,3.6006-5.9,.8262-2.1462,1.373-4.34,1.6396-6.58s.3994-4.7863,.3994-7.64v-1.6c-.1592,.3469-.4932,.52-1,.52h-12.1191c-1.707,.0269-3.6143,.2-5.7207,.52h-.1201c-.1064,0-.1992-.0663-.2793-.2001l-.7207-1.3999c-.0264-.0264-.04-.0801-.04-.16,0-.1332,.0938-.2001,.2803-.2001,1.4668,.1338,3.0938,.2269,4.8799,.28h5.2002c.7197-2.4263,1.293-5.04,1.7197-7.84h-4.5596c-1.4141,.0537-2.4805,.12-3.2002,.2,1.4404,.7201,2.5,1.5269,3.1797,2.42,.6807,.8938,1.0205,1.7538,1.0205,2.58,0,.6669-.1934,1.2269-.5801,1.6801-.3867,.4537-.8467,.6799-1.3799,.6799-.5605,0-1.0801-.2262-1.5605-.6799-.1064-.1063-.1592-.24-.1592-.4,.0264-1.6801-.4141-3.7462-1.3203-6.2-1.0674,.1337-1.6396,.2137-1.7197,.24h-.1201c-.1074,0-.2002-.0663-.2803-.2001l-.7197-1.36c-.0273-.0262-.04-.08-.04-.16,0-.1331,.1064-.2,.3203-.2,1.2529,.1338,2.666,.2269,4.2393,.28h2.2002c0-1.8932-.1064-3.6262-.3203-5.2001,0-.2662,.1201-.373,.3604-.3199,2.0264,.4269,3.4199,.7738,4.1797,1.04,.7607,.2668,1.1406,.4937,1.1406,.6799,0,.0801-.0938,.1869-.2803,.3201l-.6396,.4399v3.04h1.3193l.8799-1.4c.0801-.1332,.2139-.34,.4004-.62s.3398-.4862,.46-.62c.1201-.1332,.2334-.2,.3398-.2,.2129,0,.7998,.4199,1.7598,1.2599,.9609,.8401,1.5469,1.4601,1.7607,1.8601,.0264,.0537,.04,.12,.04,.2,0,.1869-.1006,.34-.3008,.46-.1992,.12-.4463,.1801-.7393,.1801h-5.2803c2.9863,.8538,4.4805,1.4399,4.4805,1.76,0,.08-.1201,.1737-.3604,.28l-.7197,.24c-1.4141,2-2.9473,3.8538-4.6006,5.5599h2.8799l1.9199-2.6799c.1338-.1863,.2803-.2001,.4404-.04,1.6797,1.4669,2.8398,2.5337,3.4795,3.2v-3.6799c0-2.9062-.1465-5.5062-.4395-7.8v-.08c0-.2131,.1064-.28,.3203-.2001l4.5996,1.5601c1.2002-.6663,2.3936-1.4131,3.5801-2.24,1.1865-.8263,2.1797-1.6,2.9795-2.3201,.1338-.1331,.2803-.1331,.4404,0l4.2002,3.4801c.0801,.08,.126,.1669,.1396,.2599,.0137,.0938-.0332,.1538-.1396,.1801-.2139,.1069-.4805,.16-.7998,.16-.3203,0-.7471-.0801-1.2803-.24-1.1738,.3999-2.5869,.7869-4.2402,1.1599-1.6533,.3738-3.3203,.6669-5,.88V14.4932h5.4805l1.1201-1.72c.1055-.16,.2725-.4062,.5-.74,.2256-.3331,.4131-.5862,.5596-.76,.1465-.1731,.2734-.26,.3799-.26,.2129,0,.9062,.5269,2.0801,1.5801Zm-22.8398,15.5399c.0801,3.5737,.1729,6.2662,.2803,8.0801,0,.1599-.04,.2799-.1201,.36-.2676,.3199-.7744,.613-1.5205,.88-.7471,.2662-1.4668,.4-2.1602,.4-.373,0-.6465-.0801-.8193-.2401-.1738-.1599-.2607-.3468-.2607-.5599,.1064-1.3337,.2002-3.1462,.2803-5.4401v-3.12c-1.9199,2.3201-4.1201,4.28-6.5996,5.88-.1602,.1332-.3066,.1063-.4404-.08l-.04-.04c-.1064-.1599-.0938-.3062,.04-.4399,1.3066-1.52,2.4805-3.3,3.5205-5.34,1.04-2.04,1.8799-4.14,2.5195-6.3h-1.8398c-.9873,.0269-1.96,.1869-2.9199,.48h-.1201c-.1064,0-.2002-.0663-.2803-.2l-.7197-1.36c-.0264-.0262-.04-.0801-.04-.16,0-.1332,.1064-.2001,.3203-.2001,1.2793,.1338,2.7197,.2269,4.3193,.28h2.2803c0-1.5731-.0801-3-.2402-4.28,0-.2662,.1201-.373,.3604-.3199,1.9199,.4537,3.2402,.8069,3.96,1.0601,.7197,.2537,1.0801,.4738,1.0801,.6599,0,.1338-.0801,.24-.2402,.3201l-.5996,.4v2.1599h1.96l.9199-1.36c.1064-.1331,.2461-.3331,.4199-.6,.1729-.2662,.3203-.4663,.4404-.6,.1191-.1332,.2324-.2001,.3398-.2001,.2129,0,.7725,.4069,1.6797,1.2201,.9062,.8137,1.4668,1.4337,1.6797,1.86,.0264,.1337,.0137,.2668-.04,.3999-.1592,.2938-.4668,.4401-.9199,.4401h-6.4795v1.36c.1328-.08,.2656-.1062,.3994-.08,2,.4537,3.4805,1.12,4.4404,2s1.4404,1.7737,1.4404,2.6799c0,.6138-.1943,1.1338-.5801,1.5601-.3877,.4269-.8604,.64-1.4199,.64-.5068,0-.9873-.1732-1.4404-.52-.1064-.0531-.1865-.1731-.2402-.36-.1064-.9062-.4062-1.86-.8994-2.86-.4941-1-1.0605-1.9-1.7002-2.7001v4.24Z"/><path class="cls-1" d="M147.7456,10.4533c1.0527,.8268,1.6855,1.4399,1.8994,1.84l.0801,.16c0,.1869-.1064,.34-.3203,.46-.2129,.12-.4531,.1801-.7197,.1801h-9.0801c-1.0137,1.6537-2.0938,3.2137-3.2402,4.6799h5.4004l.96-1.2c.1064-.1332,.2529-.3131,.4404-.54,.1855-.2262,.3398-.3931,.46-.5,.1201-.1062,.2324-.16,.3398-.16,.2402,0,.9131,.4401,2.0195,1.3201s1.7803,1.5337,2.0205,1.96c.0801,.1069,.0527,.2269-.0801,.36-.2666,.2668-.7334,.48-1.4004,.64v7c.0537,3.3337,.1602,6.3868,.3203,9.16,0,.16-.0537,.2931-.1602,.4-.3203,.2931-.8799,.58-1.6797,.86s-1.5068,.4199-2.1201,.4199c-.5068,0-.8135-.2-.9199-.6,0-.16,.0127-.2937,.04-.4,.0264-.1068,.04-.2336,.04-.38,0-.1469,.0264-.3536,.0801-.62v-1.0399h-9.4404v1.84c0,.16-.1865,.3662-.5596,.62-.374,.2532-.8477,.4663-1.4199,.64-.5742,.1731-1.1543,.26-1.7402,.26-.3203,0-.5742-.0801-.7598-.24-.1875-.16-.2803-.3469-.2803-.5601,.1865-2.5868,.3057-5.4263,.3604-8.52v-4.6799c0-3.1462-.1475-5.7332-.4404-7.76v-.08c0-.2131,.1064-.28,.3203-.2001l4.7197,2h1.3203c.1855-1.4662,.333-3.0262,.4395-4.6799h-2.6797c-1.6006,.0269-3.1074,.2-4.5205,.5199h-.1201c-.1064,0-.1992-.0662-.2793-.2l-.8398-1.5599c-.9346,1.6537-2,3.2537-3.2002,4.7999l1.2002,.4401c.1055,.0537,.1729,.1136,.1992,.1799,.0264,.0669,.0137,.14-.04,.22-.2393,.24-.5996,.4-1.0791,.4801v9.08c.0527,3.3337,.1592,6.3868,.3193,9.16,0,.1599-.0537,.2931-.1602,.3999-.3193,.2932-.833,.5731-1.54,.8401-.7061,.2662-1.4062,.4-2.0996,.4-.374,0-.6738-.0801-.9004-.2401-.2266-.1599-.3398-.3468-.3398-.5599,.1064-1.5737,.2002-3.1,.2803-4.58,.0801-1.4801,.1328-3.42,.1602-5.8201v-5.64c-1.6006,1.4138-3.0938,2.5338-4.4805,3.36-.1602,.1069-.3066,.0938-.4395-.0399-.1074-.1063-.1074-.24,0-.4,1.7861-2.0262,3.4795-4.6,5.0801-7.72,.5859-1.12,1.166-2.4531,1.7393-4,.5732-1.5463,.9531-2.8663,1.1406-3.9601,.0801-.24,.2256-.3199,.4395-.24,3.4932,1.3069,5.2402,2.1469,5.2402,2.52,0,.08-.1201,.1737-.3604,.28l-.7197,.24c-.1602,.2668-.2666,.48-.3203,.64,1.4932,.1337,3.2002,.2268,5.1201,.28h12l1.04-1.3601c.1338-.1862,.2803-.3862,.4404-.6,.1602-.2131,.3203-.4,.4795-.5599,.1602-.16,.2939-.24,.4004-.24,.2402,0,.8867,.4137,1.9404,1.24Zm-32.8604,1.5c-.4805-.4132-.7197-.9932-.7197-1.74,0-.9863,.5859-1.8131,1.7598-2.4801,.7461-.373,1.4395-.993,2.0801-1.86,.6396-.8662,1-1.7931,1.0801-2.7799,0-.1063,.0264-.1931,.0801-.26,.0527-.0663,.1201-.1001,.1992-.1001,.1865,0,.2939,.0938,.3203,.28,.2402,.6669,.4404,1.52,.6006,2.5601h9.3594c0-1.8663-.1064-3.6132-.3203-5.24,0-.2662,.1201-.3732,.3604-.3201,2.1328,.4537,3.6006,.8137,4.4004,1.0801,.7998,.2668,1.2002,.4937,1.2002,.6799,0,.1069-.1074,.2269-.3203,.36l-.6797,.4401v3h9.1992l1.04-1.16c.1064-.1062,.2666-.2731,.4805-.5,.2129-.2262,.3857-.4,.5195-.52s.2529-.1799,.3604-.1799c.2129,0,.8262,.4937,1.8398,1.48,1.0137,.9868,1.6533,1.72,1.9199,2.2,.0801,.16,.04,.2938-.1201,.4-.2393,.1869-.6797,.2937-1.3193,.3199-.7471,.507-1.6943,1.0338-2.8408,1.5801-1.1465,.5469-2.2129,.98-3.1992,1.2999-.1602,.0538-.2939,.04-.4004-.0399-.1338-.0801-.1465-.2131-.04-.4,.6133-.9862,1.1865-2.0931,1.7197-3.3201h-23.0801c.0264,1.28-.166,2.38-.5791,3.3-.4141,.92-.9678,1.62-1.6602,2.1-.4004,.2938-.9072,.4401-1.5205,.4401-.667,0-1.2402-.2063-1.7197-.62Zm27.2402,13.2999v-6.3199h-9.4404v6.3199h9.4404Zm-9.4404,8.04h9.4404v-6.88h-9.4404v6.88Z"/><path class="cls-1" d="M156.397,24.8133c.2129,0,.333,.0938,.3604,.28,.5596,1.76,.8398,3.3737,.8398,4.84,0,1.3337-.2266,2.3269-.6797,2.98-.4541,.6538-.9736,.98-1.5605,.98-.373,0-.6865-.1331-.9395-.4-.2539-.2662-.3799-.613-.3799-1.0399,0-.4531,.1729-.9731,.5195-1.5601,.4531-.5862,.8135-1.3862,1.0801-2.4,.2666-1.0131,.4258-2.1331,.4795-3.36,0-.2131,.0938-.3199,.2803-.3199Zm11.8398-11.36c.0801-.1063,.1934-.2732,.3408-.5,.1455-.2263,.2725-.4,.3799-.52,.1055-.12,.2129-.1801,.3193-.1801,.2139,0,.7207,.3538,1.5205,1.0601,.7998,.7069,1.293,1.2468,1.4795,1.62,.0264,.1338,.0137,.2668-.04,.4-.1592,.2937-.4668,.4399-.9199,.4399h-5.2002v4.4h1.5605l.8799-.96c.1064-.1063,.293-.3,.5596-.5801,.2666-.2799,.4805-.4199,.6406-.4199,.2402,0,.7998,.3668,1.6797,1.1,.8799,.7338,1.4404,1.2999,1.6797,1.7,.0801,.1069,.0537,.2269-.0791,.36-.3203,.267-.7871,.4401-1.4004,.52-.2666,4.0269-.6797,7.0938-1.2402,9.2001-.5596,2.1068-1.3066,3.5331-2.2402,4.2799-.96,.8-2.2129,1.2263-3.7598,1.28-.2139,0-.3193-.1068-.3193-.3199-.0547-1.0669-.2402-1.8138-.5605-2.24-.3467-.4801-1.0264-.8531-2.04-1.12-.1865-.0801-.2803-.2001-.2803-.3601,0-.24,.1064-.3331,.3203-.2799,1.3867,.1068,2.3867,.1599,3,.1599,.3203,0,.5664-.0262,.7402-.08,.1729-.0531,.3525-.1462,.54-.28,.666-.5862,1.2129-2.2662,1.6396-5.0399-.2139,.3468-.5332,.5199-.96,.5199-.2402,0-.4668-.0662-.6797-.2-.1074-.0531-.1875-.1731-.2402-.36-.1602-.6132-.46-1.2662-.9004-1.96-.4395-.6931-.9131-1.2932-1.4199-1.8-.1592-.16-.1738-.2931-.04-.4,.1338-.1331,.2803-.1731,.4404-.12,1.2002,.3201,2.126,.7469,2.7803,1.28,.6523,.5337,1.0596,1.0938,1.2197,1.6799,.1328-1.0662,.2666-2.5331,.4004-4.3999h-8.1201v1.24c0,.1068-.127,.2537-.3799,.4399-.2539,.1869-.6006,.3469-1.04,.48-.4404,.1338-.9404,.2001-1.5,.2001-.2939,0-.5273-.0801-.7002-.24-.1738-.16-.2598-.3463-.2598-.5601,.1855-2.5331,.3057-5.3462,.3594-8.4399v-4.64c0-3.1462-.1465-5.7332-.4395-7.76v-.08c0-.1063,.0264-.1801,.0801-.2201,.0527-.0399,.1328-.0331,.2393,.02l4.1201,1.72h7.1602l.9199-1.3199c.0801-.1062,.2129-.2931,.4004-.5601,.1855-.2662,.3398-.4662,.46-.6,.1201-.1331,.2324-.2,.3398-.2,.2402,0,.8398,.4069,1.7998,1.22,.96,.8137,1.5332,1.4069,1.7197,1.78,.0801,.1338,.0801,.2668,0,.4-.1592,.2937-.4795,.4399-.96,.4399h-6.1201v4.36h1.4004l.7598-1.1599c.0801-.1063,.1934-.2732,.3398-.5,.1465-.2263,.2734-.4,.3809-.52,.1055-.12,.2129-.1801,.3193-.1801,.2139,0,.7207,.3469,1.5205,1.04,.7998,.6937,1.293,1.2268,1.4795,1.6,.0264,.1338,.0137,.2668-.04,.4-.1602,.2937-.4668,.4399-.9199,.4399h-5.2402v4.48h1.3604l.7598-1.1599Zm-9.8398,11.2799c0-.1599,.0664-.2662,.2002-.3199h.1602c.1064,0,.2002,.0537,.2803,.16,.7998,.88,1.3799,1.76,1.7393,2.64,.3604,.88,.54,1.7068,.54,2.48,0,.7468-.1465,1.3538-.4395,1.8199-.2939,.4669-.6543,.7001-1.0801,.7001-.2666,0-.5742-.1462-.9199-.4401-.1074-.16-.1475-.3063-.1201-.4399,.0801-.6132,.1201-1.2532,.1201-1.92,0-1.5463-.1602-3.08-.4805-4.6v-.0801Zm4.1602-15.72V4.6532h-2.6396v4.36h2.6396Zm-2.6396,5.6h2.6396v-4.48h-2.6396v4.48Zm2.6396,1.16h-2.6396v4.4h2.6396v-4.4Zm-1.7197,8.14c.0264-.0663,.0801-.1262,.1602-.1801,.1855-.0531,.333-.0262,.4395,.0801,1.1465,.7999,1.9932,1.6268,2.54,2.48,.5459,.8538,.8203,1.6538,.8203,2.4,0,.5068-.1201,.9199-.3604,1.24-.2402,.3199-.5332,.48-.8799,.48-.2939,0-.5869-.1062-.8799-.3199-.1074-.1063-.1602-.24-.1602-.4-.0801-.8263-.2734-1.7462-.5801-2.76-.3066-1.0132-.6602-1.9463-1.0596-2.8-.0537-.08-.0674-.1531-.04-.22ZM184.9976,2.6132c.1055-.1331,.2461-.3062,.4199-.5199,.1729-.2131,.3193-.3732,.4395-.4801,.1201-.1062,.2334-.1599,.3398-.1599,.2402,0,.8936,.4199,1.96,1.26,1.0664,.84,1.7207,1.46,1.96,1.86,.0801,.1068,.0664,.2268-.0391,.36-.374,.3738-.8545,.6138-1.4404,.72v4.52c.0801,3.76,.1729,6.6,.2803,8.52,0,.16-.0537,.2937-.1602,.4-.3467,.24-.8936,.4868-1.6406,.74-.7461,.2537-1.3994,.38-1.96,.38-.4795,0-.7734-.2001-.8799-.6001,0-.1599,.0137-.2931,.04-.3999l.1201-.8v-.92h-4.04c.7734,3.6001,2.0537,6.7201,3.8398,9.3601,1.7861,2.6399,3.9463,4.5469,6.4805,5.72,.1328,.08,.2002,.1599,.2002,.24,0,.2137-.0938,.3468-.2803,.4-.7471,.2937-1.4004,.7869-1.96,1.48-.5605,.6931-.9873,1.5862-1.2803,2.6799-.0801,.24-.2266,.28-.4395,.12-2.1875-2-3.8203-4.5662-4.9004-7.7-1.0801-3.1332-1.8467-7.2332-2.2998-12.3h-1.5205c-.0537,2.7469-.293,5.2738-.7197,7.5801-.4268,2.3069-1.2266,4.5599-2.4004,6.76-1.1729,2.2-2.8398,4.14-5,5.8199-.1328,.1063-.293,.1063-.4795,0-.1602-.08-.1738-.2268-.04-.4399,1.8662-2.8,3.0928-5.9401,3.6797-9.42s.8799-7.58,.8799-12.3v-6.7999c0-2.5062-.1191-4.6801-.3594-6.52v-.08c0-.2131,.1064-.28,.3193-.2001l4.7607,1.88h5.2002l.9199-1.16Zm-6.7607,2.28v11.4401h6.2002V4.8932h-6.2002Z"/><path class="cls-1" d="M208.1567,33.8533c0-.2932,.0928-.4401,.2803-.4401h.4395c.96,0,1.7529-.24,2.3799-.72s.9404-1.4,.9404-2.76V9.0132c0-1.36-.3203-2.2731-.96-2.74-.6396-.4662-1.4268-.7-2.3604-.7h-.4395c-.1875,0-.2803-.1462-.2803-.4401,0-.2931,.0928-.4399,.2803-.4399l9.5596-.04c3.1465,0,5.293,.0138,6.4404,.04,1.7324,0,3.3525,.2869,4.8594,.86,1.5068,.5737,2.7139,1.3868,3.6201,2.4399,.9062,1.0538,1.3604,2.2738,1.3604,3.66,0,1.7869-.7402,3.24-2.2197,4.36-1.4805,1.12-3.3408,1.9469-5.5801,2.48,2.6396,.5601,4.8799,1.4601,6.7197,2.7001s2.7598,2.8868,2.7598,4.9399c0,1.6801-.5195,3.1338-1.5596,4.36-1.04,1.2269-2.4268,2.1669-4.1602,2.8201-1.7334,.6537-3.6143,.98-5.6396,.98l-6.8408,.04-9.3193-.04c-.1875,0-.2803-.1462-.2803-.4399Zm10.9199-15.9601c2.3467,0,4.1533-.2931,5.4199-.88,1.2666-.5862,2.1133-1.34,2.54-2.26,.4268-.9199,.6396-2.0062,.6396-3.26,0-1.6531-.4932-3.0062-1.4795-4.0599-.9873-1.0531-2.5596-1.58-4.7197-1.58-1.1738,0-2.0205,.1937-2.54,.58-.5205,.3868-.7803,1.0337-.7803,1.9399v9.52h.9199Zm3.4805,15.2001c2.1055,0,3.7656-.5931,4.9795-1.78,1.2129-1.1863,1.8203-2.9263,1.8203-5.22,0-2.16-.7275-3.8663-2.1807-5.12-1.4531-1.2532-4.1533-1.88-8.0996-1.88h-.9199v11.48c0,.96,.2529,1.62,.7598,1.98s1.3604,.54,2.5605,.54h1.0801Z"/><path class="cls-1" d="M240.9966,34.2932c-.1875,0-.2803-.16-.2803-.48,0-.2931,.0928-.4401,.2803-.4401h.4795c3.4932,0,5.2402-1.1462,5.2402-3.4399V13.0132c0-1.1462-.127-1.98-.3799-2.5-.2539-.52-.6406-.8462-1.1602-.98-.5205-.1331-1.3398-.2-2.46-.2h-1.5605c-.1865,0-.2793-.16-.2793-.48,0-.2932,.0928-.4401,.2793-.4401,3.8408-.4531,7.4404-1.76,10.8008-3.92l.1592-.0399c.1602,0,.2402,.0938,.2402,.2799V29.9333c0,1.36,.5068,2.2737,1.5205,2.74,1.0127,.4669,2.2529,.7,3.7197,.7h.4404c.1855,0,.2793,.147,.2793,.4401,0,.3199-.0938,.48-.2793,.48h-17.04Z"/><path class="cls-1" d="M283.8472,5.3732c.1064-.1599,.2471-.373,.4209-.64,.1729-.2662,.3125-.4662,.4199-.6,.1055-.1331,.2129-.2,.3193-.2,.2139,0,.7266,.4137,1.54,1.24,.8135,.8269,1.3135,1.4537,1.5,1.88,.0264,.1338,.0137,.2668-.04,.4-.1602,.2937-.4795,.4399-.96,.4399h-5.1201v5.04l2.1201-.36c1.0664-.1332,2.0801-.2932,3.04-.48h.0801c.1328,0,.2266,.0668,.2803,.2v.08c0,.1338-.0674,.24-.2002,.3201-2.1064,1.3069-5.2139,2.9868-9.3203,5.0399-.1064,.3738-.333,.6538-.6797,.8401-.0264,.0269-.0664,.0399-.1201,.0399-.1338,0-.2266-.0662-.2803-.2l-1.96-4.16c-.0264-.0262-.04-.08-.04-.1599,0-.1332,.0801-.2131,.2402-.24l2.8398-.3601V5.3732c-.293,.1069-.7197,.16-1.2793,.16-2.2139,4.0269-4.0938,6.9869-5.6406,8.88,1.8936,1.2538,3.3008,2.7538,4.2207,4.5,.9199,1.7468,1.3799,3.5,1.3799,5.26,0,1.8938-.4004,3.3337-1.2002,4.3199-.7998,.9869-2.1465,1.5338-4.04,1.64-.2139,0-.3203-.1062-.3203-.3199-.0264-.6132-.0869-1.2263-.1797-1.84-.0938-.6132-.207-1.04-.3398-1.28-.2666-.3732-.6807-.6663-1.2402-.88v3.5599c.0801,2.9069,.1602,5.1462,.2402,6.7201,0,.1599-.04,.2799-.1201,.36-.2402,.3462-.6738,.6731-1.2998,.98-.627,.3063-1.3545,.46-2.1807,.46-.3467,0-.627-.08-.8398-.24-.2139-.16-.3193-.3468-.3193-.5599,.1055-1.5739,.1992-3.1001,.2793-4.5801s.1338-3.4199,.1602-5.8199V9.3732c0-2.9062-.1465-5.493-.4395-7.76v-.08c0-.1062,.0254-.1799,.0791-.22s.1338-.0332,.2402,.02l4.6807,1.88h2.1191l2.04-2.04c.0537-.0531,.1338-.08,.2402-.08s.1865,.0269,.2402,.08l3.5195,3.48c0-1.3063-.0664-2.5862-.1992-3.84,0-.2662,.1191-.3732,.3594-.3201,1.7861,.4269,3.0205,.767,3.7002,1.02,.6797,.2538,1.0205,.4738,1.0205,.66,0,.1068-.0938,.2137-.2803,.3199l-.6006,.4v3.88h1.0801l.8398-1.4Zm-14.5596-1.0399V25.2133h1.6797c.373,0,.667-.0801,.8799-.24,.5068-.2664,.7607-1,.7607-2.2001,0-3.04-.8145-5.72-2.4404-8.04-.0801-.1599-.1064-.2931-.0801-.3999,.6934-2.48,1.4004-5.8131,2.1201-10h-2.9199Zm23.9199,15.4399c.1064-.1331,.2529-.3131,.4404-.54,.1855-.2262,.3398-.3931,.46-.5,.1201-.1062,.2324-.1599,.3398-.1599,.2402,0,.8525,.38,1.8398,1.14,.9863,.76,1.5996,1.34,1.8398,1.74,.0801,.1068,.0537,.2268-.0801,.36-.2939,.2937-.7471,.4938-1.3594,.6v4.72c.0527,3.28,.1592,6.267,.3193,8.9601,0,.1599-.0537,.2931-.1602,.3999-.293,.2664-.7598,.5132-1.3994,.74-.6396,.2263-1.3867,.3401-2.2402,.3401-.5068,0-.8135-.2001-.9199-.6,0-.0538,.0264-.1869,.0801-.4l.0801-.4v-.72h-9.7998v1.3199c0,.1063-.1475,.2462-.4404,.42-.2939,.1731-.7002,.3262-1.2197,.46-.5205,.1332-1.1006,.2001-1.7402,.2001-.3467,0-.6064-.0801-.7803-.2401-.1738-.1599-.2598-.3468-.2598-.5599,.1602-2.08,.2666-4.1863,.3203-6.3201v-3.5599c0-2.9062-.1475-5.4932-.4404-7.76v-.08c0-.2131,.1064-.28,.3203-.2001l4.6396,1.8h1c.2139-1.6,.3203-2.9062,.3203-3.92,0-.4531-.0137-.7731-.04-.96v-.08c0-.1063,.0332-.1801,.0996-.2201,.0664-.0399,.1533-.0331,.2607,.02,3.5996,.9337,5.3994,1.5869,5.3994,1.96,0,.1069-.1201,.2139-.3594,.3201l-.7607,.36-2.8398,2.52h6.1602l.9199-1.16Zm-.7598,7.72v-5.3999h-9.7998v5.3999h9.7998Zm-9.7998,1.16v5.64h9.7998v-5.64h-9.7998Zm9.5195-21.08c1.1465-1.2532,2.333-2.7063,3.5605-4.36,.1328-.1863,.2793-.2001,.4395-.04l3.2402,3.16c.0801,.08,.126,.1669,.1396,.26,.0137,.0938-.0332,.1537-.1396,.1799-.0537,.0269-.1465,.04-.2803,.04-.1865,0-.4395-.0663-.7598-.2001-.6934,.3469-1.627,.7338-2.7998,1.16-1.1738,.4269-2.3066,.7738-3.4004,1.04v3.84c0,.24,.0537,.4069,.1602,.5,.1064,.0938,.333,.14,.6797,.14h3.0801c.3467-.0531,.6006-.16,.7598-.3199,.2666-.2664,.6406-1.1063,1.1201-2.52,.0264-.1863,.1201-.28,.2803-.28,.1328,0,.2002,.1068,.2002,.3199l.1602,2.5601c.4795,.2137,.8125,.4469,1,.7,.1855,.2538,.2793,.5538,.2793,.9,0,.8538-.4336,1.46-1.2998,1.8201-.8662,.36-2.3398,.5399-4.4199,.5399h-2.4395c-1.0137,0-1.7744-.1062-2.2803-.3199-.5068-.2131-.8467-.5601-1.0205-1.04s-.2598-1.1863-.2598-2.12V7.0533c0-2.4263-.1201-4.52-.3594-6.28,0-.2662,.1191-.36,.3594-.28,1.8398,.4269,3.1133,.7738,3.8203,1.04,.7061,.2668,1.0596,.48,1.0596,.64,0,.08-.0938,.1869-.2793,.3199l-.6006,.4V7.5733Z"/><path class="cls-1" d="M328.687,3.2932c.1064-.1332,.2529-.3,.4404-.5,.1855-.2,.3398-.3531,.46-.46,.1201-.1063,.2324-.16,.3398-.16,.2402,0,.8926,.4069,1.96,1.22,1.0664,.8137,1.7334,1.4337,2,1.86,.0801,.1069,.0527,.2269-.0801,.36-.3203,.3201-.7471,.5338-1.2803,.64v3.48c.0801,2.8269,.1602,5,.2402,6.52,0,.1069-.04,.2269-.1201,.36-.2939,.2938-.8398,.5938-1.6396,.9-.7998,.3069-1.5068,.4601-2.1201,.4601-.4805,0-.7734-.2001-.8799-.6001,0-.0531,.0264-.1862,.0801-.3999,0-.0262,.0264-.1732,.0801-.4401v-.76h-5.0801v11.4c0,.2937,.0801,.4938,.2402,.6,.1592,.1069,.4922,.16,1,.16h5.4795c.2666-.0262,.46-.0731,.5801-.14,.1201-.0663,.2461-.2063,.3799-.42,.2666-.48,.7861-2.0662,1.5605-4.76,.0254-.1862,.1328-.2799,.3193-.2799,.1338,0,.2002,.1068,.2002,.3199l.1201,4.96c.5596,.2137,.9326,.4669,1.1201,.76,.1855,.2938,.2793,.6669,.2793,1.12,0,1.0138-.5596,1.7738-1.6797,2.28-1.1201,.5068-3.0664,.76-5.8398,.76h-3.5996c-1.2539,0-2.2002-.1132-2.8408-.34-.6396-.2263-1.0791-.6262-1.3193-1.2001-.2402-.5731-.3604-1.4199-.3604-2.5399v-7.88c0-3.12-.1465-5.6663-.4395-7.64v-.08c0-.1063,.0254-.1801,.0791-.2201,.0537-.0399,.1338-.0331,.2402,.02l5,2h4.5605V5.5733h-3.2002c-1.6543,.0269-3.5342,.2-5.6396,.52h-.0801c-.1338,0-.2402-.0663-.3203-.2001l-.7197-1.4-.04-.1599c0-.1332,.0928-.2001,.2793-.2001,1.4404,.1338,3.0537,.2269,4.8408,.28h4.4795l.9199-1.12Zm19.6406,4.64c.1328-.1863,.3057-.4263,.5195-.72,.2129-.2932,.3867-.5132,.5195-.66,.1338-.1462,.2539-.22,.3604-.22,.2402,0,.9199,.48,2.04,1.4399s1.7998,1.6538,2.04,2.0801c.0801,.1337,.0801,.2668,0,.3999-.1602,.2938-.4941,.4401-1,.4401h-2.5195c-.4004,3.36-1.0674,6.4137-2,9.16-.9346,2.7468-2.2002,5.2268-3.8008,7.4399,2.5605,2.6138,5.7334,4.5601,9.5205,5.84,.0801,.0269,.1465,.0669,.2002,.12,.0527,.0538,.0654,.1069,.04,.16-.0273,.1338-.1338,.24-.3203,.3199-1.8398,.5601-3.0137,1.8132-3.5205,3.76-.0264,.2131-.1592,.28-.3994,.2001-3.334-1.7869-5.9873-4.3201-7.96-7.6-3.4404,3.4399-8.1074,6-14,7.6799-.1875,.0262-.3203-.0137-.4004-.12-.0801-.16-.0264-.28,.1602-.36,5.5459-2.6669,9.7461-6.1731,12.5996-10.52-1.333-3.2262-2.3193-7.24-2.96-12.04-1.4668,2.1338-3.1064,3.9869-4.9199,5.5601-.1602,.1338-.3066,.1338-.4395,0-.1875-.08-.2139-.2262-.0801-.4399,1.7061-3.1201,3.1201-6.7732,4.2402-10.9601,.3457-1.2531,.6396-2.6799,.8799-4.28,.2393-1.6,.3594-2.973,.3594-4.12,0-.24,.1338-.3331,.4004-.2799,2.2666,.5599,3.8262,.9868,4.6797,1.2799,.8535,.2938,1.2803,.5338,1.2803,.7201,0,.08-.1064,.1737-.3203,.2799l-.7197,.3601c-.8271,2.6399-1.6533,4.8668-2.4795,6.6799h6.9199l1.0801-1.6Zm-8.5605,2.76c-.7471,1.4399-1.334,2.48-1.7598,3.12,.8525,4.1068,2.1602,7.5337,3.9199,10.28,1.7861-3.6532,2.9199-8.12,3.4004-13.4h-5.5605Z"/><path class="cls-1" d="M366.2114,21.0933c-1.8945,2.9868-4.1738,5.5469-6.8398,7.6799-.1602,.1338-.3076,.1338-.4404,0l-.04-.04c-.1338-.1331-.1338-.2799,0-.4399,1.626-2.16,3-4.7063,4.1201-7.64,1.1201-2.9331,1.9863-6.04,2.5996-9.3199h-2c-1.0664,.0269-2.1201,.1869-3.1602,.48-.2129,.0537-.3467,0-.3994-.16l-.7197-1.4c-.0273-.0262-.04-.08-.04-.1599,0-.1332,.1055-.2001,.3193-.2001,1.2803,.1338,2.7207,.2269,4.3203,.28h2.2803v-1.8c0-3.0399-.1602-5.64-.4805-7.7999,0-.2662,.1201-.3732,.3604-.3201,2.1328,.48,3.5859,.8538,4.3594,1.12,.7734,.267,1.1602,.507,1.1602,.7201,0,.1068-.1064,.2268-.3193,.36l-.6807,.48v7.24h1l.96-1.52c.1064-.16,.2607-.3862,.46-.6799,.2002-.2932,.3604-.5132,.4805-.66,.1201-.1462,.2334-.22,.3398-.22,.2129,0,.8262,.46,1.8398,1.38,1.0137,.9199,1.6406,1.5938,1.8799,2.0199l.04,.16c0,.2137-.0996,.38-.2998,.5s-.4473,.1801-.7402,.1801h-5.96v3.4399c2.1602,.64,3.7529,1.48,4.7803,2.52,1.0264,1.04,1.54,2.08,1.54,3.12,0,.6937-.207,1.2738-.6201,1.74-.4141,.4669-.9268,.7001-1.54,.7001-.5596,0-1.1064-.2131-1.6396-.64-.1338-.1063-.2002-.24-.2002-.4-.1064-.96-.374-1.98-.7998-3.0601-.4268-1.08-.9336-2.0862-1.5205-3.02v11.16c.0537,3.3069,.1602,6.3738,.3203,9.2001,0,.1331-.04,.2531-.1201,.36-.2939,.3199-.8066,.6331-1.54,.9399-.7334,.3063-1.46,.4601-2.1797,.4601-.4268,0-.7471-.0801-.96-.2401-.2139-.1599-.3203-.3468-.3203-.5599,.1064-1.5469,.1934-3.08,.2598-4.6s.1133-3.4401,.1406-5.76v-5.6Zm12.7598-12.0801c0-3.0131-.1602-5.613-.4805-7.7999,0-.2662,.1201-.3732,.3604-.3201,2.2129,.5338,3.7197,.9337,4.5205,1.2001,.7998,.2668,1.1992,.5068,1.1992,.72,0,.08-.1064,.2-.3193,.36l-.6807,.4399V30.9333c0,.48,.1064,.8137,.3203,1,.2129,.1869,.626,.28,1.2402,.28h2.7998c.9863,0,1.7734-.0262,2.3604-.0801,.2656-.0262,.4727-.08,.6191-.1599,.1465-.0801,.2734-.2401,.3809-.4801,.373-.6663,.9863-2.853,1.8398-6.5599,.0264-.1863,.1328-.28,.3193-.28,.1338,0,.2002,.1069,.2002,.3201l.1602,6.88c.5859,.2937,.9932,.5868,1.2197,.8799,.2266,.2938,.3408,.6538,.3408,1.0801,0,.6931-.2402,1.2332-.7207,1.62-.4795,.3862-1.2871,.6663-2.4199,.84-1.1338,.1731-2.7266,.26-4.7803,.26h-3.4395c-1.3066,0-2.3203-.1338-3.04-.4-.7197-.2668-1.2334-.7137-1.54-1.34s-.46-1.5262-.46-2.7V9.0132Z"/><path class="cls-1" d="M414.4673,21.8333c-1.6543,1.7737-3.9199,3.3268-6.7998,4.6599-.1875,.0801-.334,.04-.4404-.12l-.0801-.12c-.1338-.1862-.1201-.3331,.04-.4399,2.5605-2.1332,4.3936-4.5262,5.5-7.1801,1.1064-2.6531,1.8066-5.8331,2.1006-9.5399h-8.2002V26.4533c.0527,3.3069,.1602,6.3737,.3193,9.2,0,.16-.0264,.2931-.0801,.4-.293,.4263-.8262,.8199-1.5996,1.1799-.7734,.3601-1.5732,.54-2.4004,.54-.3467,0-.626-.08-.8398-.24s-.3193-.3469-.3193-.5599c.1055-1.5739,.1992-3.1001,.2793-4.5801s.1338-3.4199,.1602-5.8199V13.8533c0-3.1464-.1465-5.7332-.4395-7.76v-.0801c0-.2131,.1055-.28,.3193-.2l4.96,2.12h7.9199c.0537-1.0132,.0801-1.8131,.0801-2.4,0-1.8931-.1064-3.5862-.3193-5.08,0-.2662,.1201-.3732,.3594-.3201,3.8135,.2938,5.7207,.627,5.7207,1,0,.1069-.0938,.2269-.2803,.36l-.6797,.4401c-.1074,2.64-.2002,4.64-.2803,6h8.96l.96-1.24c.1328-.16,.2734-.3331,.4199-.52,.1465-.1863,.293-.3531,.4404-.5,.1455-.1462,.2725-.22,.3799-.22,.2129,0,.8926,.4537,2.04,1.36,1.1455,.9069,1.8662,1.5737,2.1592,2,.0801,.16,.04,.2937-.1191,.4-.4277,.3199-.8672,.5199-1.3203,.6v22.3199c0,1.1738-.1465,2.127-.4404,2.86-.293,.7332-.8867,1.3401-1.7793,1.8201-.8945,.48-2.1943,.8131-3.9004,1h-.0801c-.1338,0-.2266-.0938-.2803-.28-.1338-.8-.2861-1.4337-.46-1.9-.1738-.4668-.4336-.86-.7793-1.1799-.4541-.4-.9736-.7332-1.5605-1-.5869-.2662-1.3994-.4932-2.4395-.6801-.2139-.0531-.3203-.16-.3203-.3199,0-.0801,.0264-.1462,.0801-.2001,.0527-.0531,.1328-.0662,.2402-.0399,3.1992,.2137,5.2529,.3199,6.1592,.3199,.374,0,.627-.0731,.7607-.22,.1328-.1462,.2002-.38,.2002-.7001V9.0933h-9.4404c-.1865,2.1868-.4805,3.96-.8799,5.3199,2.96,1.1469,5.1396,2.5269,6.54,4.14,1.3994,1.6138,2.0996,3.1537,2.0996,4.62,0,.7738-.1865,1.4069-.5596,1.9-.374,.4938-.8672,.74-1.4805,.74-.5068,0-1.0264-.1863-1.5596-.5601-.1338-.0531-.2139-.1599-.2402-.3199-.374-1.4663-1.0342-3.0062-1.9795-4.62-.9473-1.6132-2.0205-3.1532-3.2207-4.62-.7471,2.3199-1.9463,4.3668-3.5996,6.14Z"/><path class="cls-1" d="M451.1392,37.2052c-.71-.448-1.5869-1.1996-2.6318-2.254-1.0459-1.0543-2.04-2.5524-2.9824-4.494-.9424-1.9412-1.4141-4.2091-1.4141-6.804s.4717-4.8623,1.4141-6.804c.9424-1.9412,1.9365-3.4392,2.9824-4.494,1.0449-1.0544,1.9219-1.806,2.6318-2.254,.1494-.0931,.2607-.14,.3359-.14,.0371,0,.0791,.0281,.126,.084,.0469,.056,.0703,.1029,.0703,.14,0,.0936-.0654,.2057-.1963,.3361-.7842,.8217-1.5117,1.7268-2.1836,2.7159-.6729,.9896-1.2695,2.3617-1.792,4.1161-.5234,1.7548-.7842,3.8547-.7842,6.2999s.2607,4.5457,.7842,6.3c.5225,1.7548,1.1191,3.1268,1.792,4.116,.6719,.9891,1.3994,1.8944,2.1836,2.7159,.1309,.1493,.1963,.2704,.1963,.364,0,.0372-.0234,.0792-.0703,.1261-.0469,.0463-.0889,.0699-.126,.0699-.0752,0-.1865-.0469-.3359-.14Z"/><path class="cls-1" d="M477.0669,12.0332c.1123-.1304,.252-.3124,.4199-.546,.168-.2332,.3037-.406,.4062-.5179,.1025-.1121,.1914-.168,.2656-.168,.168,0,.7051,.3639,1.6104,1.0919s1.4512,1.2417,1.6377,1.54c.0566,.0936,.0566,.1868,0,.28-.1113,.2056-.3457,.308-.7002,.308h-8.1191v4.564h4.0312l.7002-.924c.0938-.1121,.21-.2565,.3506-.4341,.1396-.1771,.252-.308,.3359-.392s.1631-.126,.2373-.126c.168,0,.6299,.2988,1.3867,.896,.7559,.5977,1.2178,1.0457,1.3857,1.344,.0557,.0748,.0371,.1588-.0557,.252-.2432,.2428-.5791,.4016-1.0088,.4761v9.2679c.0371,2.3336,.1123,4.4708,.2246,6.412,0,.1121-.0381,.2052-.1123,.28-.2432,.224-.6064,.4292-1.0918,.616-.4854,.1864-1.0459,.28-1.6797,.28-.4482,0-.6729-.1868-.6729-.5599,.0371-.3361,.0566-.5697,.0566-.7001l.0557-.588v-.952h-15.5684v.7001l.084,1.092,.0283,.1119c0,.1121-.1162,.2472-.3496,.406-.2344,.1583-.5508,.2983-.9521,.42-.4014,.1211-.8545,.182-1.3584,.182-.2617,0-.4668-.056-.6162-.1681-.1494-.1119-.2236-.2428-.2236-.392,.0742-1.1016,.1396-2.17,.1963-3.2059,.0557-1.036,.0928-2.394,.1123-4.0741v-5.964c0-2.0343-.1035-3.8452-.3086-5.432v-.0559c0-.1493,.0742-.196,.2236-.14l3.4727,1.3719h2.9961v-4.564h-3.2207c-1.1943,.0188-2.5293,.14-4.0039,.364h-.084c-.0742,0-.1396-.0464-.1953-.14l-.5039-.952c-.0195-.0184-.0283-.056-.0283-.1121,0-.0931,.0742-.1399,.2236-.1399,1.0078,.0936,2.1377,.1588,3.3887,.1959h16.1279l.8955-1.204Zm-15.9043,20.916h15.5684v-13.58h-4.1436v5.292c0,.1868,.0225,.3127,.0693,.3779,.0469,.0657,.1543,.098,.3223,.098h.5322c.2979,0,.4941-.0092,.5879-.028,.2051,0,.3643-.0745,.4756-.224,.1865-.2985,.457-1.1481,.8125-2.5481,.0186-.1304,.0928-.1959,.2236-.1959,.0938,0,.1406,.0748,.1406,.224l.1113,2.632c.3174,.1497,.5322,.3268,.6445,.532,.1113,.2057,.168,.4576,.168,.756,0,.5977-.2666,1.0409-.7979,1.3301-.5322,.2896-1.4238,.434-2.6748,.434h-1.2314c-.6719,0-1.167-.0792-1.4844-.238-.3174-.1583-.5322-.4103-.6436-.756-.1123-.3451-.168-.8632-.168-1.554v-6.132h-2.2959c-.0195,1.4376-.168,2.772-.4482,4.0039-.2803,1.2321-.8496,2.4269-1.708,3.584-.8594,1.1577-2.1006,2.1656-3.7246,3.024-.1299,.056-.2334,.028-.3076-.084l-.0283-.028v3.08Zm0-3.248c1.2881-1.3623,2.1562-2.8883,2.6045-4.578,.4482-1.6891,.6807-3.6072,.7002-5.7539h-3.3047v10.3319Zm6.2168-15.6799v4.564h2.2959v-4.564h-2.2959Z"/><path class="cls-1" d="M492.7466,12.5933c.0752-.0933,.1777-.2101,.3086-.3501,.1299-.1399,.2383-.2472,.3223-.3219,.084-.0745,.1631-.1121,.2373-.1121,.168,0,.626,.2848,1.3721,.854,.7471,.5696,1.2139,1.0037,1.4004,1.302,.0557,.0748,.0371,.1588-.0557,.252-.2246,.224-.5234,.3737-.8965,.448v2.436c.0557,1.9789,.1123,3.5,.168,4.564,0,.0748-.0283,.1588-.084,.2521-.2061,.2056-.5879,.4156-1.1484,.63-.5596,.2148-1.0547,.322-1.4834,.322-.3359,0-.542-.14-.6162-.42,0-.0372,.0186-.1304,.0557-.28,0-.0183,.0186-.1212,.0566-.308v-.532h-3.5566v7.98c0,.2057,.0566,.3456,.168,.42,.1123,.0748,.3457,.1119,.7002,.1119h3.8359c.1865-.0183,.3223-.0511,.4062-.098,.084-.0464,.1729-.1443,.2656-.2939,.1865-.3361,.5508-1.4464,1.0928-3.332,.0176-.1304,.0928-.1959,.2236-.1959,.0928,0,.1396,.0747,.1396,.224l.084,3.4719c.3926,.1497,.6533,.3268,.7842,.532,.1309,.2057,.1963,.4668,.1963,.7841,0,.7096-.3916,1.2416-1.1758,1.5959-.7842,.3549-2.1475,.532-4.0879,.532h-2.5205c-.8779,0-1.54-.0791-1.9883-.2379-.4473-.1584-.7559-.4384-.9238-.8401-.168-.4011-.252-.9939-.252-1.778v-5.516c0-2.184-.1025-3.9664-.3076-5.348v-.056c0-.0743,.0186-.126,.0557-.1539s.0938-.0232,.168,.014l3.5,1.3999h3.1924v-6.356h-2.2402c-1.1572,.0188-2.4736,.14-3.9482,.364h-.0557c-.0938,0-.168-.0464-.2236-.14l-.5049-.98-.0273-.1121c0-.0931,.0654-.14,.1953-.14,1.0088,.0936,2.1377,.1588,3.3887,.196h3.1357l.6436-.7839Zm13.748,3.2479c.0938-.1304,.2148-.2983,.3643-.504,.1494-.2051,.2705-.3591,.3643-.4619,.0928-.1024,.1768-.1541,.252-.1541,.168,0,.6436,.3361,1.4277,1.0081s1.2598,1.1576,1.4287,1.4559c.0557,.0936,.0557,.1869,0,.28-.1123,.2057-.3457,.308-.7002,.308h-1.7646c-.2793,2.3521-.7461,4.4896-1.3994,6.412-.6543,1.9229-1.54,3.6588-2.6602,5.208,1.792,1.8296,4.0127,3.192,6.6641,4.088,.0557,.0188,.1025,.0469,.1396,.084,.0371,.0376,.0469,.0748,.0283,.1121-.0186,.0936-.0938,.168-.2236,.224-1.2881,.392-2.1104,1.2692-2.4648,2.632-.0186,.1492-.1113,.196-.2793,.14-2.334-1.2509-4.1914-3.024-5.5723-5.3199-2.4082,2.408-5.6748,4.2-9.7998,5.376-.1309,.0183-.2246-.0096-.2803-.084-.0557-.1121-.0186-.196,.1123-.2521,3.8818-1.8668,6.8223-4.3212,8.8193-7.364-.9336-2.2583-1.624-5.068-2.0713-8.428-1.0273,1.4937-2.1748,2.7908-3.4443,3.892-.1123,.0936-.2148,.0936-.3076,0-.1309-.0559-.1504-.1583-.0566-.308,1.1943-2.184,2.1846-4.7412,2.9688-7.672,.2422-.8772,.4473-1.876,.6152-2.996s.252-2.0812,.252-2.884c0-.168,.0938-.2332,.2803-.1959,1.5869,.392,2.6787,.6908,3.2764,.896,.5967,.2056,.8955,.3735,.8955,.5039,0,.056-.0742,.1217-.2236,.196l-.5039,.252c-.5791,1.848-1.1582,3.4069-1.7363,4.676h4.8438l.7559-1.12Zm-5.9912,1.932c-.5234,1.0081-.9336,1.736-1.2324,2.184,.5977,2.8749,1.5117,5.2737,2.7441,7.196,1.25-2.5571,2.0439-5.684,2.3799-9.38h-3.8916Z"/><path class="cls-1" d="M519.1206,25.0533c-1.3262,2.0908-2.9219,3.8828-4.7881,5.376-.1123,.0936-.2148,.0936-.3086,0l-.0273-.028c-.0938-.0933-.0938-.196,0-.308,1.1387-1.5121,2.0996-3.2944,2.8838-5.348,.7842-2.0532,1.3906-4.228,1.8203-6.524h-1.4004c-.7471,.0188-1.4844,.1309-2.2119,.3361-.1494,.0376-.2432,0-.2803-.1121l-.5039-.98c-.0186-.0184-.0273-.056-.0273-.1119,0-.0933,.0742-.14,.2236-.14,.8955,.0936,1.9043,.1588,3.0234,.1959h1.5967v-1.26c0-2.1279-.1123-3.948-.3359-5.46,0-.1864,.084-.2612,.252-.224,1.4932,.3361,2.5098,.5977,3.0518,.7841,.541,.1868,.8125,.3547,.8125,.5039,0,.0748-.0752,.1588-.2246,.2521l-.4756,.3359v5.068h.7002l.6719-1.064c.0742-.1121,.1816-.2704,.3213-.476,.1406-.2052,.252-.3593,.3359-.462,.084-.1024,.1641-.1541,.2383-.1541,.1494,0,.5781,.322,1.2881,.9661,.709,.6439,1.1484,1.1156,1.3164,1.4139l.0273,.1121c0,.1497-.0693,.266-.21,.35-.1396,.084-.3125,.126-.5176,.126h-4.1719v2.4081c1.5117,.448,2.627,1.0359,3.3457,1.7639s1.0781,1.4561,1.0781,2.1841c0,.4856-.1445,.8916-.4346,1.2179-.2891,.3269-.6484,.49-1.0771,.49-.3926,0-.7754-.1492-1.1484-.448-.0938-.0743-.1396-.168-.1396-.2799-.0752-.672-.2617-1.386-.5605-2.1421-.2988-.756-.6533-1.4603-1.0635-2.1139v7.8119c.0371,2.3148,.1113,4.4617,.2236,6.4401,0,.0931-.0283,.1771-.084,.252-.2051,.224-.5645,.4432-1.0781,.6581-.5137,.2144-1.0215,.3219-1.5254,.3219-.2988,0-.5234-.0559-.6729-.168-.1494-.1119-.2236-.2428-.2236-.392,.0742-1.0828,.1357-2.156,.1816-3.22,.0469-1.0641,.0801-2.4081,.0986-4.032v-3.92Zm8.9316-8.4561c0-2.1091-.1123-3.9292-.3359-5.46,0-.1864,.084-.2612,.252-.224,1.5498,.3737,2.6045,.6537,3.1641,.84,.5605,.1869,.8398,.3549,.8398,.504,0,.056-.0742,.14-.2236,.252l-.4766,.3081V31.9412c0,.3361,.0752,.5697,.2246,.7001,.1494,.1307,.4385,.1959,.8682,.1959h1.96c.6904,0,1.2412-.0183,1.6514-.0559,.1865-.0184,.3311-.056,.4346-.1121,.1025-.056,.1914-.168,.2656-.3359,.2617-.4664,.6904-1.9972,1.2881-4.592,.0186-.1304,.0928-.196,.2236-.196,.0938,0,.1406,.0748,.1406,.224l.1113,4.816c.4111,.2057,.6953,.4108,.8545,.616,.1582,.2057,.2383,.4576,.2383,.756,0,.4852-.168,.8633-.5039,1.134-.3359,.2704-.9014,.4664-1.6943,.588-.7939,.1212-1.9092,.182-3.3457,.182h-2.4082c-.915,0-1.624-.0936-2.1279-.28-.5039-.1868-.8643-.4996-1.0781-.938-.2148-.4384-.3223-1.0684-.3223-1.89V16.5972Z"/><path class="cls-1" d="M560.9331,20.9373c.1123-.1121,.2754-.2844,.4902-.5181,.2139-.2332,.3779-.35,.4893-.35,.1494,0,.6025,.3268,1.3584,.98,.7559,.6537,1.2275,1.1296,1.4141,1.428,.0557,.0936,.0371,.1869-.0557,.28-.2246,.2057-.5703,.3456-1.0361,.42-.2246,3.5468-.5508,6.328-.9805,8.344s-1.0264,3.3503-1.792,4.004c-.4854,.4103-1.0215,.7091-1.6094,.896-.5889,.1863-1.2842,.2799-2.0869,.2799-.1494,0-.2236-.0748-.2236-.224-.0371-.9519-.2617-1.6239-.6719-2.016-.4668-.4663-1.4561-.8772-2.9678-1.2319-.1309-.0184-.1963-.0933-.1963-.224,0-.0372,.0186-.0745,.0557-.1121,.0371-.0371,.0938-.0464,.168-.028,2.2217,.168,3.6406,.252,4.2568,.252,.2607,0,.4619-.0183,.6016-.056,.1396-.0371,.2842-.1211,.4336-.252,.4297-.3732,.7988-1.4603,1.1064-3.262,.3076-1.8013,.5361-4.1204,.6855-6.958h-6.4961c-.6152,3.3228-1.75,6.1556-3.4014,8.4979-1.6523,2.3429-4.0928,4.2141-7.3223,5.614-.1309,.056-.2236,.0372-.2803-.0559-.0557-.1121-.0273-.2057,.084-.28,2.0352-1.5497,3.6309-3.3271,4.7881-5.334,1.1572-2.0065,1.9746-4.1624,2.4502-6.468,.4766-2.3052,.7422-4.8763,.7979-7.714h-3.668c-1.1943,.0188-2.5293,.14-4.0039,.364h-.084c-.0742,0-.1396-.0464-.1963-.14l-.4756-.9241c-.0186-.0183-.0283-.0559-.0283-.1119,0-.0933,.0654-.14,.1963-.14,1.0264,.0936,2.165,.1588,3.416,.196h7.3643v-.056c0-2.1281-.1123-3.948-.3359-5.46,0-.1864,.084-.2612,.252-.224,1.5117,.2987,2.5566,.5415,3.1357,.7279,.5781,.1869,.8682,.3457,.8682,.4761,0,.0559-.0752,.14-.2246,.252l-.4756,.308v3.9761h5.8799l.8398-1.2321c.0742-.1119,.1963-.2844,.3643-.5179,.168-.2333,.3076-.4104,.4199-.5321,.1123-.1211,.2051-.182,.2803-.182,.168,0,.7002,.3689,1.5957,1.1061,.8965,.7375,1.4277,1.2556,1.5957,1.554,.0566,.0936,.0566,.1869,0,.28-.1113,.1868-.3447,.28-.6992,.28h-12.46c-.1123,1.8108-.29,3.4628-.5322,4.9559h6.1318l.7842-.8679Z"/><path class="cls-1" d="M591.3716,17.1573c.0742-.0743,.1865-.2052,.3359-.392,.1494-.1864,.2705-.3264,.3643-.42,.0928-.0931,.1768-.14,.252-.14,.168,0,.6299,.3036,1.3857,.91,.7559,.6068,1.2275,1.0596,1.4141,1.358,.0557,.0747,.0371,.1588-.0557,.252-.2432,.2428-.5977,.4016-1.0645,.476v9.576c.0371,2.3336,.1123,4.4708,.2236,6.412,0,.1121-.0371,.2052-.1113,.28-.2061,.224-.5557,.434-1.0498,.63-.4951,.1959-1.0781,.2939-1.75,.2939-.3555,0-.5703-.14-.6445-.4199,0-.1121,.0098-.2057,.0283-.28,.0186-.0748,.0273-.1588,.0273-.2521,0-.0936,.0186-.224,.0566-.392v-.7h-14.8398v1.4c0,.0931-.1084,.21-.3223,.35-.2148,.14-.5186,.2611-.9102,.364-.3916,.1023-.8311,.1539-1.3154,.1539-.2617,0-.4678-.056-.6162-.168-.1494-.1121-.2246-.2428-.2246-.392,.0752-1.1017,.1406-2.17,.1963-3.2061s.0928-2.394,.1123-4.074v-6.412c0-2.0344-.1035-3.8452-.3086-5.432v-.056c0-.1492,.0752-.196,.2246-.14l3.5,1.3721h4.3115c.168-1.4,.3086-2.7812,.4199-4.144h-5.376c-1.1943,.0188-2.5293,.14-4.0039,.364h-.084c-.0742,0-.1396-.0464-.1963-.14l-.4756-.952c-.0186-.0183-.0283-.056-.0283-.1119,0-.0933,.0654-.14,.1963-.14,1.0264,.0936,2.165,.1588,3.416,.1959h16.3242l.8682-1.204c.1113-.1304,.252-.3124,.4199-.546,.168-.2332,.3027-.4059,.4053-.5179,.1025-.1119,.1914-.168,.2666-.168,.168,0,.709,.364,1.624,1.0919,.9141,.728,1.4648,1.2417,1.6514,1.54,.0566,.0936,.0566,.1868,0,.28-.1113,.2056-.3447,.308-.6992,.308h-10.0527c-1.1387,1.4749-2.3613,2.856-3.668,4.144h9.0166l.7559-.952Zm-12.5723,1.736h-2.8555v14.672h2.8555v-14.672Zm2.9121,4.2841h3.248v-4.2841h-3.248v4.2841Zm3.248,.7839h-3.248v4.396h3.248v-4.396Zm0,5.208h-3.248v4.396h3.248v-4.396Zm5.8242,4.396v-14.672h-2.9121v14.672h2.9121Z"/><path class="cls-1" d="M600.8911,36.7852c.7842-.8215,1.5127-1.7268,2.1846-2.7159s1.2686-2.3612,1.792-4.116c.5225-1.7544,.7842-3.8544,.7842-6.3s-.2617-4.5452-.7842-6.2999c-.5234-1.7544-1.1201-3.1265-1.792-4.1161-.6719-.9891-1.4004-1.8943-2.1846-2.7159-.1309-.1304-.1953-.2424-.1953-.3361,0-.0371,.0225-.084,.0693-.14,.0469-.0559,.0889-.084,.126-.084,.0742,0,.1865,.0469,.3359,.14,.71,.448,1.5869,1.1996,2.6328,2.254,1.0449,1.0548,2.0391,2.5529,2.9814,4.494,.9424,1.9417,1.4141,4.2096,1.4141,6.804s-.4717,4.8628-1.4141,6.804c-.9424,1.9417-1.9365,3.4397-2.9814,4.494-1.0459,1.0544-1.9229,1.806-2.6328,2.254-.1494,.0931-.2617,.14-.3359,.14-.0371,0-.0791-.0237-.126-.0699-.0469-.0469-.0693-.0889-.0693-.1261,0-.0936,.0645-.2147,.1953-.364Z"/><path class="cls-1" d="M623.687,33.5533c-.7197-.6531-1.3066-1.46-1.7598-2.42-.667-1.4131-1.1338-2.8063-1.4004-4.1799-.2666-1.3732-.3994-2.7932-.3994-4.26,0-1.7332,.1328-3.2332,.3994-4.5,.2666-1.2662,.6406-2.6462,1.1201-4.14,.373-1.2,.6465-2.1531,.8203-2.86,.1729-.7063,.2598-1.4863,.2598-2.34,0-.7201-.1133-1.4332-.3398-2.14-.2266-.7063-.5938-1.26-1.0996-1.66-.0801-.08-.2002-.1731-.3604-.28-.1602-.1062-.2402-.2-.2402-.28,0-.1062,.1201-.1599,.3604-.1599,.1602,0,.4004,.0399,.7197,.12,1.627,.3468,3,1.0068,4.1201,1.98,1.1201,.9738,1.6797,2.2869,1.6797,3.9399,0,.9338-.1729,1.7338-.5195,2.4-.3467,.6669-.8799,1.4938-1.5996,2.48-.5342,.6669-.9473,1.2469-1.2402,1.74-.2939,.4938-.5342,1.0338-.7197,1.62-.2939,.9601-.4404,1.8669-.4404,2.7201,0,.6138,.0928,1.1599,.2803,1.64,.1855,.48,.3994,.72,.6396,.72,.1064,0,.2129-.0663,.3203-.2001,.1064-.1331,.2256-.3331,.3594-.6,.373-.6931,.8467-1.6132,1.4199-2.76,.5732-1.1462,.9932-2.0131,1.2607-2.6,.1602-.3732,.3193-.5599,.4795-.5599,.0801,0,.1201,.0537,.1201,.1599,0,.0801-.04,.24-.1201,.48-.5068,1.4138-1,3.0338-1.4795,4.8601-.4805,1.8268-.7207,3.2599-.7207,4.2999,0,.8,.0869,1.4669,.2607,2,.1729,.5338,.4326,1.12,.7793,1.76,.2666,.5068,.46,.92,.5801,1.24,.1201,.3201,.1807,.6937,.1807,1.12,0,.5338-.1602,.9401-.4805,1.22-.3203,.28-.7197,.42-1.2002,.42-.6396,0-1.3193-.3263-2.04-.98Zm11.0205-1.7c-1.5605-.9332-2.6875-2.4401-3.3799-4.52-.2402-.7201-.3604-1.2263-.3604-1.52,0-.16,.0527-.24,.1602-.24,.0801,0,.2002,.08,.3604,.24,.1592,.16,.293,.2937,.3994,.4,.5605,.48,1.1201,.8538,1.6797,1.12,.5605,.2668,1.3066,.4937,2.2402,.6799,.7998,.16,1.666,.24,2.6006,.24,.7725,0,2.0928-.08,3.96-.24,1.1992-.1331,2.04-.2,2.5195-.2,1.0928,0,1.9199,.2468,2.4805,.74,.5596,.4938,.8398,1.1268,.8398,1.9,0,1.2-.6807,1.9668-2.04,2.2999-1.3604,.3337-3.04,.5-5.04,.5-2.7197,0-4.8604-.4662-6.4199-1.3999Zm.2998-20.6801c-1.2803-.6663-2.2266-1.7332-2.8398-3.2-.1338-.3201-.2002-.5332-.2002-.64,0-.1332,.04-.2001,.1201-.2001,.0527,0,.1865,.0601,.4004,.1801,.2129,.12,.3857,.22,.5195,.2999,.5332,.2137,1.126,.38,1.7803,.5,.6533,.12,1.2598,.1801,1.8193,.1801,.6934,0,1.5264-.0931,2.5-.28,.9736-.1863,1.9004-.4263,2.7803-.72,.5332-.16,1.1064-.24,1.7197-.24,1.0137,0,1.8135,.2069,2.4004,.62,.5859,.4137,.8799,1.02,.8799,1.8199,0,1.0938-.6797,1.8469-2.04,2.26-1.3594,.4138-2.8271,.62-4.3994,.62-2.1338,0-3.9473-.3999-5.4404-1.2Z"/><path class="cls-1" d="M14.3921,91.5492l-.6445,2.548c-.0186,.1309-.1025,.196-.252,.196H.3921c-.1309,0-.2246-.056-.2803-.168l-.084-.1681c-.0371-.0559-.0371-.1492,0-.2799,.373-.9705,.9141-1.946,1.624-2.926,.709-.98,1.4043-1.834,2.0859-2.562s1.6104-1.6801,2.7861-2.856c1.0635-1.0641,1.8623-1.9224,2.3936-2.576,.5322-.6532,.9385-1.33,1.2188-2.03,.2793-.7,.4199-1.4979,.4199-2.3939,0-1.2693-.3359-2.2493-1.0078-2.9401-.6729-.6903-1.6152-1.036-2.8281-1.036-.8398,0-1.5596,.1681-2.1562,.504-.5977,.3361-.8965,.8029-.8965,1.4,0,.28,.0605,.504,.1826,.672,.1211,.168,.3125,.364,.5742,.588,.2793,.2616,.4893,.4948,.6299,.7,.1396,.2057,.21,.4856,.21,.84,0,.6161-.2061,1.1017-.6162,1.4561-.4111,.3549-.9336,.532-1.5684,.532-.3174,0-.6533-.1072-1.0078-.322-.3545-.2144-.6533-.5271-.8955-.938-.2432-.4104-.3643-.8864-.3643-1.428,0-.8584,.2803-1.6752,.8398-2.45,.5596-.7744,1.3438-1.4,2.3516-1.8761,1.0088-.476,2.1562-.714,3.4443-.714,1.4561,0,2.7305,.2289,3.8223,.686,1.0918,.4576,1.9365,1.1156,2.5342,1.974,.5967,.8588,.8955,1.8577,.8955,2.996,0,1.0829-.2383,2.0117-.7139,2.786-.4756,.7749-1.0547,1.4237-1.7363,1.946-.6816,.5228-1.6289,1.1388-2.8418,1.848l-1.6514,1.0079c-1.083,.672-1.9883,1.3768-2.7168,2.114-.7275,.7377-1.4092,1.5356-2.0439,2.394H7.4761c1.5674,0,2.7812-.084,3.6396-.2521,.8584-.168,1.5498-.4663,2.0723-.896,.5225-.4292,1.0166-1.0919,1.4844-1.9879,.0557-.0933,.1211-.14,.1953-.14,.0371,0,.0938,.0188,.168,.056,.0742,.0376,.1357,.0699,.1826,.0979,.0459,.0281,.0693,.0701,.0693,.1261l-.0557,.224c-.1309,.5975-.4111,1.6799-.8398,3.2479Z"/><path class="cls-1" d="M23.189,93.4392c-1.2129-.812-2.207-2.0251-2.9814-3.64-.7754-1.6144-1.1621-3.5603-1.1621-5.838s.3867-4.2231,1.1621-5.838c.7744-1.6144,1.7686-2.828,2.9814-3.64,1.2139-.8119,2.4736-1.2179,3.7803-1.2179s2.5664,.406,3.7803,1.2179c1.2129,.812,2.207,2.0256,2.9814,3.64,.7744,1.6149,1.1621,3.5609,1.1621,5.838s-.3877,4.2236-1.1621,5.838c-.7744,1.6149-1.7686,2.828-2.9814,3.64-1.2139,.812-2.4736,1.218-3.7803,1.218s-2.5664-.406-3.7803-1.218Zm6.6367-2.17c.6533-1.6051,.9795-4.0411,.9795-7.308s-.3262-5.698-.9795-7.2939c-.6543-1.5961-1.6055-2.394-2.8564-2.394-2.5576,0-3.8359,3.2296-3.8359,9.688,0,6.4777,1.2783,9.7161,3.8359,9.7161,1.251,0,2.2021-.8024,2.8564-2.4081Z"/><path class="cls-1" d="M52.5044,91.5492l-.6436,2.548c-.0186,.1309-.1025,.196-.252,.196h-13.1045c-.1309,0-.2236-.056-.2793-.168l-.084-.1681c-.0381-.0559-.0381-.1492,0-.2799,.373-.9705,.9141-1.946,1.624-2.926,.709-.98,1.4043-1.834,2.0859-2.562,.6807-.728,1.6094-1.6801,2.7852-2.856,1.0645-1.0641,1.8623-1.9224,2.3945-2.576,.5322-.6532,.9375-1.33,1.2178-2.03,.2803-.7,.4199-1.4979,.4199-2.3939,0-1.2693-.3359-2.2493-1.0078-2.9401-.6719-.6903-1.6152-1.036-2.8281-1.036-.8398,0-1.5586,.1681-2.1562,.504-.5977,.3361-.8955,.8029-.8955,1.4,0,.28,.0605,.504,.1816,.672s.3125,.364,.5742,.588c.2803,.2616,.4902,.4948,.6299,.7,.1406,.2057,.21,.4856,.21,.84,0,.6161-.2051,1.1017-.6162,1.4561-.4102,.3549-.9336,.532-1.5674,.532-.3174,0-.6543-.1072-1.0078-.322-.3555-.2144-.6543-.5271-.8965-.938-.2432-.4104-.3643-.8864-.3643-1.428,0-.8584,.2803-1.6752,.8408-2.45,.5596-.7744,1.3438-1.4,2.3516-1.8761,1.0078-.476,2.1562-.714,3.4443-.714,1.4561,0,2.7295,.2289,3.8213,.686,1.0928,.4576,1.9365,1.1156,2.5342,1.974,.5977,.8588,.8965,1.8577,.8965,2.996,0,1.0829-.2383,2.0117-.7139,2.786-.4766,.7749-1.0557,1.4237-1.7363,1.946-.6816,.5228-1.6289,1.1388-2.8418,1.848l-1.6523,1.0079c-1.083,.672-1.9883,1.3768-2.7158,2.114-.7285,.7377-1.4102,1.5356-2.0439,2.394h4.4795c1.5684,0,2.7812-.084,3.6406-.2521,.8584-.168,1.5488-.4663,2.0713-.896,.5225-.4292,1.0176-1.0919,1.4844-1.9879,.0557-.0933,.1211-.14,.1963-.14,.0371,0,.0928,.0188,.168,.056,.0742,.0376,.1348,.0699,.1816,.0979,.0469,.0281,.0703,.0701,.0703,.1261l-.0566,.224c-.1309,.5975-.4102,1.6799-.8398,3.2479Z"/><path class="cls-1" d="M73.4966,88.9733v.5599c0,.1497-.0752,.224-.2246,.224h-3.4434v1.624c0,1.512,.7461,2.2679,2.2393,2.2679h.3086c.1299,0,.1953,.1029,.1953,.308,0,.224-.0654,.3361-.1953,.3361h-9.1006c-.1309,0-.1953-.1121-.1953-.3361,0-.2051,.0645-.308,.1953-.308h.3086c1.4736,0,2.2207-.756,2.2393-2.2679v-1.624h-8.54c-.1494,0-.2236-.0743-.2236-.224v-.616c0-.1121,.0283-.2052,.084-.28l11.4521-15.176c.0742-.1119,.168-.1492,.2803-.1119l.7832,.168c.1309,.0376,.1963,.1216,.1963,.252l-.0273,14.9801h3.4434c.1494,0,.2246,.0747,.2246,.224Zm-7.5605-10.248l-7.5322,10.024h7.4482l.084-10.024Z"/><path class="cls-1" d="M78.0796,94.0833c-.4014-.4012-.6016-.8912-.6016-1.4701,0-.5599,.2002-1.0403,.6016-1.4419,.4014-.4012,.8818-.6021,1.4424-.6021,.5781,0,1.0684,.2008,1.4697,.6021,.4014,.4016,.6025,.882,.6025,1.4419,0,.5789-.2012,1.0688-.6025,1.4701-.4014,.4011-.8916,.6019-1.4697,.6019-.5605,0-1.041-.2008-1.4424-.6019Z"/><path class="cls-1" d="M90.4058,93.0733c-1.7334-1.16-3.1533-2.8932-4.2598-5.2001-1.1074-2.3062-1.6602-5.0862-1.6602-8.34s.5527-6.0331,1.6602-8.34c1.1064-2.3063,2.5264-4.04,4.2598-5.2001,1.7334-1.1599,3.5332-1.74,5.4004-1.74,1.8662,0,3.666,.5801,5.3994,1.74,1.7334,1.16,3.1533,2.8938,4.2598,5.2001,1.1064,2.3069,1.6602,5.0868,1.6602,8.34s-.5537,6.0338-1.6602,8.34c-1.1064,2.3069-2.5264,4.04-4.2598,5.2001-1.7334,1.1599-3.5332,1.74-5.3994,1.74-1.8672,0-3.667-.5801-5.4004-1.74Zm9.4805-3.1c.9326-2.2932,1.3994-5.7732,1.3994-10.4401s-.4668-8.14-1.3994-10.42c-.9346-2.2799-2.2939-3.4199-4.0801-3.4199-3.6543,0-5.4805,4.6138-5.4805,13.84,0,9.2538,1.8262,13.88,5.4805,13.88,1.7861,0,3.1455-1.1462,4.0801-3.4399Z"/><path class="cls-1" d="M135.2134,86.6933v.7999c0,.2137-.1074,.3201-.3203,.3201h-4.9199v2.3199c0,2.16,1.0664,3.24,3.2002,3.24h.4404c.1855,0,.2793,.147,.2793,.4401,0,.3199-.0938,.48-.2793,.48h-13c-.1875,0-.2803-.16-.2803-.48,0-.2931,.0928-.4401,.2803-.4401h.4395c2.1064,0,3.1729-1.08,3.2002-3.24v-2.3199h-12.2002c-.2139,0-.3203-.1063-.3203-.3201v-.88c0-.1599,.04-.2931,.1201-.3999l16.3604-21.6801c.1064-.16,.2402-.2131,.4004-.16l1.1191,.24c.1865,.0538,.2803,.1738,.2803,.3601l-.04,21.3999h4.9199c.2129,0,.3203,.1069,.3203,.3201Zm-10.7998-14.64l-10.7607,14.3199h10.6406l.1201-14.3199Z"/><path class="cls-1" d="M141.6138,93.9932c-.5742-.5731-.8604-1.2731-.8604-2.1,0-.7999,.2861-1.4862,.8604-2.0599,.5723-.5731,1.2598-.86,2.0596-.86,.8262,0,1.5264,.2869,2.0996,.86,.5732,.5737,.8604,1.26,.8604,2.0599,0,.8269-.2871,1.5269-.8604,2.1s-1.2734,.8601-2.0996,.8601c-.7998,0-1.4873-.287-2.0596-.8601Z"/><path class="cls-1" d="M153.3647,94.2932c-.1865,0-.2803-.16-.2803-.48,0-.2931,.0938-.4401,.2803-.4401h.4805c3.4932,0,5.2393-1.1462,5.2393-3.4399v-16.92c0-1.1462-.127-1.98-.3799-2.5-.2539-.52-.6396-.8462-1.1602-.98-.5195-.1331-1.3398-.2-2.46-.2h-1.5596c-.1865,0-.2803-.16-.2803-.48,0-.2932,.0938-.4401,.2803-.4401,3.8398-.4531,7.4395-1.76,10.7998-3.92l.1602-.0399c.1602,0,.2402,.0938,.2402,.2799v25.2001c0,1.36,.5059,2.2737,1.5195,2.74,1.0137,.4669,2.2529,.7,3.7197,.7h.4404c.1865,0,.2803,.147,.2803,.4401,0,.3199-.0938,.48-.2803,.48h-17.04Z"/><path class="cls-1" d="M180.1606,93.5733c-.4805-.8263-.7197-1.7332-.7197-2.72,0-1.9731,.4658-3.9932,1.3994-6.0601,.9336-2.0663,2.0264-3.9663,3.2803-5.7,1.2529-1.7332,2.8535-3.8,4.7998-6.2001,.293-.373,.7334-.9131,1.3203-1.62,.5859-.7062,1.0527-1.2999,1.3994-1.78h-9.7598c-1.4668,0-2.6533,.1738-3.5596,.52-.9072,.3469-1.6338,.8938-2.1807,1.64-.5469,.7469-1.0732,1.7869-1.5791,3.12-.0537,.16-.1602,.24-.3203,.24l-.2402-.0399c-.2139-.0532-.3203-.16-.3203-.3201l.0801-.4,2.1201-9.3199c.0264-.1863,.1465-.28,.3604-.28h18.9199c.1865,0,.3203,.08,.4004,.24l.1592,.4c.0801,.1869,.0664,.3337-.04,.4399-2.4531,3.5739-4.333,6.6538-5.6396,9.2401-1.3066,2.5868-2.2539,5.0537-2.8398,7.3999-.5869,2.3469-1.0137,5.0938-1.2803,8.24-.1064,1.3601-.4795,2.4-1.1201,3.12-.6396,.7201-1.4268,1.0801-2.3594,1.0801-1.04,0-1.8008-.4138-2.2803-1.24Z"/><path class="cls-1" d="M205.436,97.2892c-1.2881-.9148-2.4688-2.0768-3.542-3.486-1.0742-1.4092-1.9326-2.9912-2.5762-4.746-.6445-1.7544-.9658-3.556-.9658-5.4041s.3213-3.6492,.9658-5.4039c.6436-1.7544,1.502-3.3364,2.5762-4.7461,1.0732-1.4092,2.2539-2.5712,3.542-3.486,.0742-.056,.168-.084,.2793-.084,.0938,0,.1729,.028,.2383,.084s.0986,.1309,.0986,.224c0,.0936-.0381,.1776-.1123,.252-1.2695,1.344-2.2773,3.2528-3.0244,5.7261-.7461,2.4736-1.1201,4.9517-1.1201,7.434s.374,4.9608,1.1201,7.434c.7471,2.4736,1.7549,4.3821,3.0244,5.7261,.0742,.0743,.1123,.1583,.1123,.252,0,.0933-.0332,.168-.0986,.224s-.1543,.084-.2656,.084c-.0752,0-.1592-.028-.252-.084Z"/><path class="cls-1" d="M230.2661,80.6573c.1299,0,.1963,.1028,.1963,.308,0,.1309-.0283,.21-.084,.238-.0566,.028-.1963,.0699-.4209,.126-.4473,.0748-.8916,.2988-1.3291,.672-.4395,.3737-.7988,.8776-1.0781,1.512-.1504,.3549-.7383,1.9088-1.7646,4.662-1.0264,2.7537-1.8018,4.858-2.3232,6.3141-.0195,.1119-.1035,.168-.2529,.168h-1.4551c-.1309,0-.2148-.056-.2529-.168l-3.0234-8.2321-3.248,8.2321c-.0381,.1119-.1221,.168-.252,.168h-1.4277c-.1309,0-.2148-.056-.252-.168l-4.3408-11.7881c-.4297-.8583-1.0732-1.3252-1.9316-1.3999-.1299-.0184-.1963-.1304-.1963-.3361,0-.2052,.0664-.308,.1963-.308h7.0557c.1309,0,.1963,.1028,.1963,.308,0,.224-.0742,.3361-.2236,.3361-.3926,0-.7002,.0699-.9238,.21-.2246,.14-.3369,.3408-.3369,.6019,0,.224,.0381,.4388,.1123,.644l2.7158,8.204,2.3525-6.0759-.8398-2.296c-.3926-.7841-1.0273-1.2133-1.9043-1.288-.1309-.0184-.1963-.1304-.1963-.3361,0-.2052,.0654-.308,.1963-.308h7.0557c.1309,0,.1963,.1028,.1963,.308,0,.224-.0752,.3361-.2236,.3361-.3926,0-.7002,.0656-.9248,.1959-.2236,.1309-.3359,.3361-.3359,.616,0,.0936,.0371,.2897,.1123,.588l2.7158,8.1481c.4854-1.2881,.999-2.7112,1.54-4.27,.541-1.5583,.9238-2.674,1.1484-3.3461,.0742-.2611,.1113-.448,.1113-.5599,0-.392-.1396-.6904-.4199-.896-.2793-.2052-.5273-.3264-.7412-.364-.2148-.0372-.5186-.084-.9102-.14-.1309-.0183-.1963-.1212-.1963-.308,0-.2052,.0654-.308,.1963-.308h5.7119Z"/><path class="cls-1" d="M245.0698,90.9893l-.0283,.168c-.4297,.9148-1.125,1.7268-2.0859,2.436-.9619,.7091-2.1514,1.064-3.5703,1.064-1.3994,0-2.665-.322-3.7939-.9661-1.1299-.6439-2.0068-1.5071-2.6318-2.59-.626-1.0824-.9385-2.2491-.9385-3.5,0-1.1383,.2754-2.2679,.8262-3.3879s1.3584-2.0441,2.4219-2.7721c1.0645-.7279,2.3242-1.0919,3.7803-1.0919,1.0078,0,1.9551,.2336,2.8418,.7,.8867,.4668,1.624,1.134,2.2119,2.0021,.5889,.8679,.957,1.8899,1.1064,3.0659v.056c0,.1309-.0654,.196-.1963,.196l-9.0713,.0559c-.0195,.1869-.0283,.504-.0283,.952,0,1.5868,.3496,2.9636,1.0498,4.13,.7002,1.1669,1.7783,1.75,3.2344,1.75,1.7354,0,3.1641-.8212,4.2832-2.464,.0566-.0931,.1406-.14,.2529-.14,.0371,0,.0928,.0188,.168,.056,.1113,.0748,.168,.168,.168,.28Zm-7.8545-9.016c-.6064,.5975-1.0039,1.7639-1.1895,3.5l5.5156-.056v-.532c0-1.1572-.252-2.0812-.7559-2.7721-.5039-.6903-1.1113-1.0359-1.8203-1.0359-.5596,0-1.1436,.2987-1.75,.896Z"/><path class="cls-1" d="M264.8628,93.7052c0,.1497-.0664,.2428-.1963,.28-.4854,.0748-1.2793,.1776-2.3799,.308-1.1016,.1304-2.1279,.2424-3.0801,.3361h-.0557c-.1123,0-.168-.0657-.168-.196v-1.428c-1.2139,1.1016-2.6416,1.652-4.2842,1.652-1.0645,0-2.0488-.3176-2.9541-.952-.9062-.6344-1.6289-1.5164-2.1699-2.646-.542-1.1292-.8125-2.4124-.8125-3.85,0-1.288,.2666-2.4543,.7979-3.5,.5322-1.0452,1.2412-1.8663,2.1289-2.464,.8857-.5972,1.8428-.896,2.8691-.896,1.6611,0,3.1172,.588,4.3682,1.7639l-.0273-5.5719c0-.5973-.1221-.994-.3643-1.1901-.2432-.1959-.6816-.3124-1.3164-.35-.0938,0-.1582-.0511-.1953-.1541-.0381-.1023-.0566-.1912-.0566-.266,0-.1119,.0566-.1771,.168-.1959,.0938-.0372,.751-.1772,1.9746-.42,1.2217-.2424,2.291-.448,3.2061-.616h.0557c.1299,0,.1963,.0656,.1963,.1959v18.4241c0,.392,.1016,.6956,.3076,.91,.2051,.2147,.5225,.35,.9521,.4059,.168,.0189,.3916,.0281,.6719,.0281,.2422,0,.3643,.1307,.3643,.392Zm-7.3359-.63c.541-.2704,1.0264-.6392,1.4561-1.106l-.0566-8.792c-.4297-.4852-.9287-.8821-1.498-1.1901s-1.125-.4619-1.666-.4619c-.4854,0-.9609,.1727-1.4277,.5179-.4668,.3456-.8633,.9476-1.1904,1.806-.3262,.8588-.4893,2.0068-.4893,3.444,0,1.7737,.3027,3.248,.9102,4.424,.6055,1.176,1.4229,1.764,2.4492,1.764,.4668,0,.9707-.1351,1.5127-.406Z"/><path class="cls-1" d="M267.3657,97.2892c-.0654-.056-.0977-.1307-.0977-.224,0-.0936,.0371-.1776,.1113-.252,1.2881-1.344,2.3008-3.248,3.0381-5.712s1.1064-4.9464,1.1064-7.448-.3691-4.984-1.1064-7.448-1.75-4.368-3.0381-5.712c-.0742-.0743-.1113-.1583-.1113-.252,0-.0931,.0322-.168,.0977-.224s.1445-.084,.2383-.084c.1113,0,.2051,.028,.2793,.084,1.2881,.9148,2.4688,2.0768,3.542,3.486,1.0732,1.4097,1.9326,2.9917,2.5762,4.7461,.6445,1.7548,.9658,3.5559,.9658,5.4039s-.3213,3.6497-.9658,5.4041c-.6436,1.7548-1.5029,3.3368-2.5762,4.746s-2.2539,2.5712-3.542,3.486c-.0928,.056-.1768,.084-.252,.084-.1113,0-.2002-.028-.2656-.084Z"/><path class="cls-1" d="M294.5229,94.2932c-.1865,0-.2803-.16-.2803-.48,0-.2931,.0938-.4401,.2803-.4401h.4805c3.4932,0,5.2393-1.1462,5.2393-3.4399v-16.92c0-1.1462-.127-1.98-.3799-2.5-.2539-.52-.6396-.8462-1.1602-.98-.5195-.1331-1.3398-.2-2.46-.2h-1.5596c-.1865,0-.2803-.16-.2803-.48,0-.2932,.0938-.4401,.2803-.4401,3.8398-.4531,7.4395-1.76,10.7998-3.92l.1602-.0399c.1602,0,.2402,.0938,.2402,.2799v25.2001c0,1.36,.5059,2.2737,1.5195,2.74,1.0137,.4669,2.2529,.7,3.7197,.7h.4404c.1865,0,.2803,.147,.2803,.4401,0,.3199-.0938,.48-.2803,.48h-17.04Z"/><path class="cls-1" d="M315.9624,94.2932c-.1865,0-.2803-.16-.2803-.48,0-.2931,.0938-.4401,.2803-.4401h.4805c3.4932,0,5.2393-1.1462,5.2393-3.4399v-16.92c0-1.1462-.127-1.98-.3799-2.5-.2539-.52-.6396-.8462-1.1602-.98-.5195-.1331-1.3398-.2-2.46-.2h-1.5596c-.1865,0-.2803-.16-.2803-.48,0-.2932,.0938-.4401,.2803-.4401,3.8398-.4531,7.4395-1.76,10.7998-3.92l.1602-.0399c.1602,0,.2402,.0938,.2402,.2799v25.2001c0,1.36,.5059,2.2737,1.5195,2.74,1.0137,.4669,2.2529,.7,3.7197,.7h.4404c.1865,0,.2803,.147,.2803,.4401,0,.3199-.0938,.48-.2803,.48h-17.04Z"/><path class="cls-1" d="M340.4019,79.3932c-.5732-.5731-.8604-1.26-.8604-2.0599,0-.8263,.2871-1.52,.8604-2.0801,.5732-.5599,1.2598-.84,2.0605-.84,.8262,0,1.5254,.28,2.0996,.84,.5732,.5601,.8604,1.2538,.8604,2.0801,0,.7999-.2871,1.4868-.8604,2.0599-.5742,.5737-1.2734,.86-2.0996,.86-.8008,0-1.4873-.2863-2.0605-.86Zm0,14.6c-.5732-.5731-.8604-1.2731-.8604-2.1,0-.7999,.2871-1.4862,.8604-2.0599,.5732-.5731,1.2598-.86,2.0605-.86,.8262,0,1.5254,.2869,2.0996,.86,.5732,.5737,.8604,1.26,.8604,2.0599,0,.8269-.2871,1.5269-.8604,2.1-.5742,.5731-1.2734,.8601-2.0996,.8601-.8008,0-1.4873-.287-2.0605-.8601Z"/><path class="cls-1" d="M357.1655,93.0733c-1.7334-1.16-3.1533-2.8932-4.2598-5.2001-1.1074-2.3062-1.6602-5.0862-1.6602-8.34s.5527-6.0331,1.6602-8.34c1.1064-2.3063,2.5264-4.04,4.2598-5.2001,1.7334-1.1599,3.5332-1.74,5.4004-1.74,1.8662,0,3.666,.5801,5.3994,1.74,1.7334,1.16,3.1533,2.8938,4.2598,5.2001,1.1064,2.3069,1.6602,5.0868,1.6602,8.34s-.5537,6.0338-1.6602,8.34c-1.1064,2.3069-2.5264,4.04-4.2598,5.2001-1.7334,1.1599-3.5332,1.74-5.3994,1.74-1.8672,0-3.667-.5801-5.4004-1.74Zm9.4805-3.1c.9326-2.2932,1.3994-5.7732,1.3994-10.4401s-.4668-8.14-1.3994-10.42c-.9346-2.2799-2.2939-3.4199-4.0801-3.4199-3.6543,0-5.4805,4.6138-5.4805,13.84,0,9.2538,1.8262,13.88,5.4805,13.88,1.7861,0,3.1455-1.1462,4.0801-3.4399Z"/><path class="cls-1" d="M385.3618,93.0733c-1.7344-1.16-3.1543-2.8932-4.2607-5.2001-1.1064-2.3062-1.6602-5.0862-1.6602-8.34s.5537-6.0331,1.6602-8.34c1.1064-2.3063,2.5264-4.04,4.2607-5.2001,1.7324-1.1599,3.5322-1.74,5.3994-1.74,1.8662,0,3.666,.5801,5.4004,1.74,1.7324,1.16,3.1533,2.8938,4.2598,5.2001,1.1064,2.3069,1.6602,5.0868,1.6602,8.34s-.5537,6.0338-1.6602,8.34c-1.1064,2.3069-2.5273,4.04-4.2598,5.2001-1.7344,1.1599-3.5342,1.74-5.4004,1.74-1.8672,0-3.667-.5801-5.3994-1.74Zm9.4795-3.1c.9336-2.2932,1.4004-5.7732,1.4004-10.4401s-.4668-8.14-1.4004-10.42c-.9336-2.2799-2.2939-3.4199-4.0801-3.4199-3.6533,0-5.4795,4.6138-5.4795,13.84,0,9.2538,1.8262,13.88,5.4795,13.88,1.7861,0,3.1465-1.1462,4.0801-3.4399Z"/><path class="cls-1" d="M427.7808,93.2133c-2.2002-1.0663-4.1006-2.7063-5.7002-4.92-1.5996-2.2131-2.4004-4.9331-2.4004-8.16,0-2.1062,.4805-4.3931,1.4404-6.86,.96-2.4662,2.5195-4.5862,4.6797-6.36,2.1602-1.7731,4.9062-2.66,8.2402-2.66,.8262,0,1.5859,.0801,2.2803,.24,.6934,.16,1.4395,.387,2.2402,.6801,1.1191,.3738,1.8926,.5599,2.3193,.5599,.7998,0,1.4932-.2662,2.0801-.7999,.1064-.1063,.1934-.1532,.2598-.14,.0664,.0138,.1133,.0869,.1406,.22l.96,4.4,.4795,2.16c.0264,.1068,.04,.2268,.04,.36,0,.1068-.0664,.2-.2002,.28-.0537,.0537-.1338,.08-.2393,.08-.1875,0-.334-.08-.4404-.24-.8535-1.2532-1.7002-2.3263-2.54-3.22-.8398-.8932-1.8594-1.6462-3.0596-2.26-1.2002-.6132-2.5742-.92-4.1201-.92-3.3867,0-5.6201,1.6737-6.7002,5.02-1.0801,3.3469-1.6201,6.6469-1.6201,9.9,0,1.6537,.2666,3.4868,.7998,5.5,.5332,2.0137,1.3799,3.76,2.54,5.24s2.6064,2.22,4.3398,2.22c1.7607,0,3.0869-.3662,3.9805-1.1,.8936-.7332,1.46-1.6863,1.7002-2.86,.1865-.8531,.2803-1.7732,.2803-2.76,0-.4-.0273-.8662-.0801-1.4-.0801-.72-.3809-1.3-.9004-1.74-.5195-.4401-1.5664-.66-3.1396-.66-.2139,0-.3203-.1462-.3203-.4399,0-.2932,.1064-.4401,.3203-.4401h13c.1855,0,.2793,.1469,.2793,.4401,0,.2937-.0938,.4399-.2793,.4399-.96,0-1.7676,.2137-2.4199,.64-.6543,.4269-1.0469,1.0537-1.1807,1.88-.0537,.3738-.0801,1.0138-.0801,1.92,0,1.7068,.04,3.4399,.1201,5.2,0,.2137-.1064,.3201-.3193,.3201h-.4404c-1.0938,0-2.0273,.08-2.7998,.24-.7744,.1599-1.6543,.3999-2.6406,.72-.9336,.2937-1.7529,.5131-2.46,.66-.7061,.1462-1.5537,.22-2.54,.22-1.7334,0-3.6992-.5332-5.8994-1.6Z"/><path class="cls-1" d="M468.2759,75.2932c.707,.64,1.0605,1.3738,1.0605,2.2,0,.64-.2197,1.1738-.6602,1.6001-.4404,.4269-.9941,.6399-1.6602,.6399-.4531,0-.8535-.1-1.2002-.2999-.3467-.2001-.7461-.4862-1.1992-.86-.374-.3463-.707-.6063-1-.78-.2939-.1731-.6143-.26-.96-.26-.6143,0-1.1738,.3337-1.6807,1-.5068,.6669-.9463,1.5469-1.3193,2.64v10.2c0,.8269,.1855,1.3669,.5596,1.62,.373,.2538,.9326,.38,1.6797,.38h.4404c.1865,0,.2803,.16,.2803,.4801,0,.2937-.0938,.4399-.2803,.4399h-10.5205c-.1865,0-.2793-.1462-.2793-.4399,0-.3201,.0928-.4801,.2793-.4801h.4004c.7461,0,1.3066-.1262,1.6797-.38,.373-.2531,.5605-.7931,.5605-1.62v-12.36c0-.8531-.1875-1.4199-.5605-1.7s-1-.4331-1.8799-.46c-.1338-.0264-.2266-.1063-.2803-.2401-.0537-.1331-.0791-.2662-.0791-.3999,0-.16,.0791-.2532,.2393-.28,.1865-.08,2.3604-.52,6.5205-1.3201l.8799-.1599h.0801c.1865,0,.2803,.0938,.2803,.2799v4.28c.7197-1.4399,1.5928-2.58,2.6191-3.4199,1.0264-.8401,2.1006-1.26,3.2207-1.26,1.1455,0,2.0732,.3199,2.7793,.96Z"/><path class="cls-1" d="M494.0161,90.7332c.0664,.0538,.1006,.1338,.1006,.2401l-.04,.2c-.3203,1.0138-.9199,1.86-1.7998,2.54-.8799,.6799-1.8271,1.0199-2.8408,1.0199-2,0-3.3066-.8799-3.9199-2.6399-1.04,.9069-2.2129,1.5938-3.5195,2.0599-1.3066,.4663-2.5742,.7001-3.7998,.7001-1.6807,0-2.9941-.3938-3.9404-1.1801s-1.4199-1.8732-1.4199-3.26c0-2.08,1.1729-3.7332,3.5205-4.96,.6396-.3201,1.333-.5731,2.0791-.76,.7471-.1863,1.7471-.4,3-.64,1.4141-.24,2.6533-.5062,3.7207-.8v-1.7999c0-1.6263-.04-2.7662-.1201-3.42-.0801-.6531-.2803-1.1931-.6006-1.62-.5332-.64-1.2393-.96-2.1191-.96-.667,0-1.2471,.2137-1.7402,.64-.4941,.4269-.9004,1.3199-1.2197,2.6799-.2402,.9869-.6201,1.72-1.1406,2.2001-.5195,.48-1.1133,.72-1.7803,.72-.666,0-1.2529-.1931-1.7598-.5801-.5068-.3862-.7598-.9261-.7598-1.62,0-.5331,.2061-1.1931,.6201-1.98,.4131-.7863,1.2402-1.5062,2.4795-2.1599,1.2402-.6532,2.9805-.9801,5.2207-.9801,3.1455,0,5.4531,.8,6.9199,2.4,.4795,.5338,.8057,1.127,.9795,1.78,.1738,.6537,.2607,1.46,.2607,2.42l-.04,4.3999c-.0273,.88-.04,2.24-.04,4.0801,0,1.1737,.1191,1.9269,.3594,2.26,.2402,.3337,.5605,.5,.96,.5,.3203,0,.6465-.1132,.9805-.3401,.333-.2262,.6328-.5662,.8994-1.0199,.0801-.1332,.1738-.2001,.2803-.2001,.0801,0,.1533,.0269,.2197,.08Zm-10.7197,1.4601c.6797-.2532,1.3262-.6332,1.9404-1.14-.1074-.6663-.1602-1.4531-.1602-2.36l.04-4.4c-2.4268,.64-4.1875,1.4337-5.2803,2.38-1.0938,.9469-1.6396,2.1-1.6396,3.46,0,.7469,.2793,1.3401,.8398,1.78,.5596,.4401,1.3057,.66,2.2402,.66,.666,0,1.3398-.1262,2.0195-.38Z"/><path class="cls-1" d="M520.9595,93.3732c.1865,0,.2803,.16,.2803,.4801,0,.2937-.0938,.4399-.2803,.4399h-10.4795c-.1875,0-.2803-.1462-.2803-.4399,0-.3201,.0928-.4801,.2803-.4801h.4395c.7207,0,1.2666-.1262,1.6406-.38,.373-.2531,.5596-.7931,.5596-1.62,.0527-2.64,.0801-4.9462,.0801-6.9199,0-1.3862-.0273-2.5863-.0801-3.6-.0801-1.3864-.3535-2.4801-.8203-3.28-.4668-.8-1.2598-1.2001-2.3799-1.2001-1.5996,0-3.0264,1.0801-4.2793,3.24v11.76c0,.8269,.1855,1.3669,.5596,1.62,.373,.2538,.9326,.38,1.6797,.38h.4404c.1865,0,.2803,.16,.2803,.4801,0,.2937-.0938,.4399-.2803,.4399h-10.5205c-.2139,0-.3193-.1462-.3193-.4399,0-.3201,.1055-.4801,.3193-.4801h.4004c.7461,0,1.3066-.1262,1.6797-.38,.373-.2531,.5605-.7931,.5605-1.62v-12.3199c0-.88-.1875-1.46-.5605-1.74s-1-.4331-1.8799-.46c-.2402-.0264-.3594-.2401-.3594-.64,0-.16,.0791-.2532,.2393-.28,.1865-.08,2.3604-.52,6.5205-1.3201l.8799-.1599h.0801c.1865,0,.2803,.0938,.2803,.2799v3.16c.7197-1.0663,1.5859-1.9199,2.5996-2.5599,1.0127-.64,2.1602-.9601,3.4395-.9601,1.4404,0,2.6533,.3,3.6406,.9,.9863,.6,1.7266,1.3669,2.2197,2.3,.4932,.9337,.7529,1.9199,.7803,2.96v10.84c0,.8269,.1865,1.3669,.5596,1.62,.373,.2538,.9336,.38,1.6807,.38h.3994Z"/><path class="cls-1" d="M547.7515,93.4533c0,.2137-.0938,.3468-.2803,.4-.6934,.1068-1.8271,.2537-3.4004,.4399s-3.04,.3462-4.3994,.48h-.0801c-.1602,0-.2402-.0938-.2402-.28v-2.0399c-1.7334,1.5737-3.7734,2.36-6.1201,2.36-1.5195,0-2.9268-.4537-4.2197-1.36-1.2939-.9062-2.3271-2.1663-3.0996-3.78-.7744-1.6132-1.1602-3.4463-1.1602-5.5,0-1.84,.3799-3.5062,1.1396-5,.7598-1.4932,1.7734-2.6663,3.04-3.52,1.2666-.8531,2.6328-1.28,4.0996-1.28,2.374,0,4.4531,.8401,6.2402,2.52l-.04-7.96c0-.8531-.1738-1.42-.5195-1.7001-.3467-.2799-.9736-.4462-1.8799-.5-.1338,0-.2275-.0731-.2803-.22-.0537-.1462-.0801-.2731-.0801-.38,0-.1599,.0801-.2531,.2402-.2799,.1328-.0532,1.0732-.2532,2.8193-.6001,1.7471-.3462,3.2734-.64,4.5801-.88h.0801c.1865,0,.2803,.0938,.2803,.28v26.3201c0,.5599,.1465,.9937,.4404,1.2999,.293,.3069,.7461,.5,1.3594,.5801,.2402,.0269,.5605,.0399,.96,.0399,.3467,0,.5205,.1869,.5205,.5601Zm-10.4805-.9c.7734-.3862,1.4668-.9131,2.0801-1.58l-.0801-12.5601c-.6133-.6931-1.3271-1.26-2.1396-1.7-.8135-.4401-1.6074-.66-2.3799-.66-.6943,0-1.374,.2468-2.04,.74-.667,.4938-1.2344,1.3538-1.7002,2.58-.4668,1.2269-.7002,2.8669-.7002,4.92,0,2.5337,.4336,4.64,1.2998,6.3199,.8662,1.6801,2.0332,2.52,3.5,2.52,.667,0,1.3867-.1931,2.1602-.58Z"/><path class="cls-1" d="M572.27,93.0533c-2.2139-1.1731-4.0332-2.9131-5.46-5.22-1.4268-2.3063-2.1396-5.0731-2.1396-8.3,0-3.2,.7129-5.9531,2.1396-8.26,1.4268-2.3063,3.2461-4.0531,5.46-5.24,2.2139-1.1863,4.4668-1.78,6.7607-1.78,2.2656,0,4.5059,.5938,6.7197,1.78,2.2129,1.1869,4.0332,2.9337,5.46,5.24,1.4258,2.3069,2.1396,5.0601,2.1396,8.26,0,3.2269-.7139,5.9938-2.1396,8.3-1.4268,2.3069-3.2471,4.0469-5.46,5.22-2.2139,1.1737-4.4541,1.76-6.7197,1.76-2.2939,0-4.5469-.5863-6.7607-1.76Zm10.8799-1c1.2002-1.04,2.1465-2.6132,2.8408-4.72,.6924-2.1063,1.04-4.6931,1.04-7.76s-.3408-5.6532-1.0205-7.76c-.6797-2.1063-1.6201-3.6801-2.8203-4.72-1.1992-1.04-2.5732-1.5601-4.1191-1.5601-1.5742,0-2.9609,.52-4.1602,1.5601-1.2002,1.0399-2.1475,2.6136-2.8398,4.72-.6943,2.1068-1.04,4.6937-1.04,7.76s.3398,5.6537,1.0195,7.76c.6797,2.1068,1.626,3.6799,2.8398,4.72,1.2129,1.04,2.5938,1.5599,4.1406,1.5599,1.5459,0,2.9199-.5199,4.1191-1.5599Z"/><path class="cls-1" d="M616.6304,75.6532c1.2666,.8538,2.2734,2.0338,3.0195,3.54,.7471,1.5068,1.1201,3.1937,1.1201,5.0599,0,2.0269-.3535,3.8401-1.0596,5.4401-.707,1.6-1.7002,2.8538-2.9805,3.76-1.2793,.9062-2.7461,1.36-4.3994,1.36-2.2666,0-4.2939-.7863-6.0801-2.36v8.08c0,.8263,.1865,1.3662,.5596,1.62,.373,.2532,.9336,.38,1.6807,.38h.3994c.1865,0,.2803,.1462,.2803,.4401,0,.3199-.0938,.48-.2803,.48h-10.5195c-.1875,0-.2803-.16-.2803-.48,0-.2938,.0928-.4401,.2803-.4401h.3994c.7471,0,1.3135-.1268,1.7002-.38,.3867-.2538,.5801-.7937,.5801-1.62l-.04-21.48c0-.88-.1797-1.4531-.54-1.72-.3594-.2662-.9932-.4263-1.8994-.48-.1338,0-.2275-.0663-.2803-.2001-.0537-.1331-.0801-.2662-.0801-.4,0-.1862,.0801-.2931,.2402-.3199l7.4395-1.48h.0801c.1865,0,.2803,.0938,.2803,.2799v2.1201c1.8135-1.6532,3.8799-2.4801,6.2002-2.4801,1.5195,0,2.9131,.4269,4.1797,1.28Zm-3.6201,16.34c.7197-.733,1.2803-1.7799,1.6797-3.1399,.4004-1.3601,.6006-2.92,.6006-4.6801,0-2.4263-.4141-4.3862-1.2402-5.88-.8271-1.4932-1.9473-2.24-3.3604-2.24-.7197,0-1.4795,.2137-2.2793,.64-.7998,.4269-1.5205,.9738-2.1602,1.64v12.5599c.6396,.64,1.3604,1.1669,2.1602,1.5801,.7998,.4137,1.5332,.62,2.2002,.62,.8799,0,1.6797-.3663,2.3994-1.1001Z"/><path class="cls-1" d="M644.2661,89.5733l-.04,.24c-.6143,1.3069-1.6074,2.4668-2.9805,3.48-1.374,1.0132-3.0732,1.52-5.0996,1.52-2,0-3.8076-.46-5.4199-1.38-1.6143-.92-2.8672-2.1532-3.7607-3.7001-.8936-1.5461-1.3398-3.213-1.3398-5,0-1.6262,.3936-3.24,1.1807-4.84,.7861-1.6,1.9395-2.9199,3.46-3.96,1.5195-1.04,3.3193-1.5601,5.3994-1.5601,1.4404,0,2.793,.3337,4.0605,1,1.2656,.6669,2.3193,1.62,3.1592,2.86,.8408,1.2401,1.3662,2.7001,1.5801,4.38v.0801c0,.1869-.0938,.28-.2793,.28l-12.96,.08c-.0273,.2668-.04,.72-.04,1.36,0,2.2668,.5,4.2338,1.5,5.9,1,1.6669,2.54,2.5,4.6201,2.5,2.4795,0,4.5195-1.1731,6.1191-3.52,.0801-.1332,.2002-.2,.3604-.2,.0527,0,.1328,.0269,.2402,.08,.1602,.1068,.2402,.24,.2402,.4Zm-11.2207-12.88c-.8662,.8538-1.4336,2.52-1.7002,5l7.8809-.0801v-.7599c0-1.6532-.3604-2.9731-1.0801-3.9601-.7207-.9862-1.5869-1.48-2.6006-1.48-.7998,0-1.6338,.4269-2.5,1.28Z"/><path class="cls-1" d="M671.7573,93.3732c.1865,0,.2803,.16,.2803,.4801,0,.2937-.0938,.4399-.2803,.4399h-10.4795c-.1875,0-.2803-.1462-.2803-.4399,0-.3201,.0928-.4801,.2803-.4801h.4395c.7207,0,1.2666-.1262,1.6406-.38,.373-.2531,.5596-.7931,.5596-1.62,.0527-2.64,.0801-4.9462,.0801-6.9199,0-1.3862-.0273-2.5863-.0801-3.6-.0801-1.3864-.3535-2.4801-.8203-3.28-.4668-.8-1.2598-1.2001-2.3799-1.2001-1.5996,0-3.0264,1.0801-4.2793,3.24v11.76c0,.8269,.1855,1.3669,.5596,1.62,.373,.2538,.9326,.38,1.6797,.38h.4404c.1865,0,.2803,.16,.2803,.4801,0,.2937-.0938,.4399-.2803,.4399h-10.5205c-.2139,0-.3193-.1462-.3193-.4399,0-.3201,.1055-.4801,.3193-.4801h.4004c.7461,0,1.3066-.1262,1.6797-.38,.373-.2531,.5605-.7931,.5605-1.62v-12.3199c0-.88-.1875-1.46-.5605-1.74s-1-.4331-1.8799-.46c-.2402-.0264-.3594-.2401-.3594-.64,0-.16,.0791-.2532,.2393-.28,.1865-.08,2.3604-.52,6.5205-1.3201l.8799-.1599h.0801c.1865,0,.2803,.0938,.2803,.2799v3.16c.7197-1.0663,1.5859-1.9199,2.5996-2.5599,1.0127-.64,2.1602-.9601,3.4395-.9601,1.4404,0,2.6533,.3,3.6406,.9,.9863,.6,1.7266,1.3669,2.2197,2.3,.4932,.9337,.7529,1.9199,.7803,2.96v10.84c0,.8269,.1865,1.3669,.5596,1.62,.373,.2538,.9336,.38,1.6807,.38h.3994Z"/></g></g></svg>