<?xml version="1.0" encoding="UTF-8"?>
<svg id="_レイヤー_2" data-name="レイヤー 2" xmlns="http://www.w3.org/2000/svg" viewBox="0 0 100 33.42">
  <defs>
    <style>
      .cls-1 {
        fill: #fff;
        stroke-width: 0px;
      }
    </style>
  </defs>
  <g id="_レイヤー_1-2" data-name="レイヤー 1">
    <g>
      <g>
        <path class="cls-1" d="M29.51,11.48c-.56,0-1.14-.14-1.14-.14.12,3.42.14,11.39.14,13.61,0,3.85-1.69,7.42-6.31,7.42-2.43,0-4.27-.96-5.23-2.2-1.08-1.41-1.34-3.38-1.39-4.94-.2-7.32.27-11.12.37-13.89,0,0-.73.26-1.68.26s-2.02-.26-2.02-.26c.11,2.37.21,6.68.17,9.83l-.04,3.95c0,2.1.86,4.12,2.42,5.68,1.74,1.73,4.13,2.66,6.71,2.63,2.31-.03,4.43-.76,5.95-2.05,1.71-1.46,2.49-3.52,2.63-6.2.15-2.68.12-2.99.17-4.66.06-2.32.21-7.77.33-9.18,0,0-.45.14-1.08.14Z"/>
        <path class="cls-1" d="M85.09,11.49c-.42,0-1.01-.16-1.01-.16.2,5.72.42,12.57.34,16.49-3.94-3.51-12.12-12.2-16-16.83h-1.27c.46,6.97.18,16.81-.08,21.96,0,0,.5-.14,1.04-.14s1.03.14,1.03.14c-.12-2.23-.33-6.54-.41-10.24-.06-2.06-.08-4.46-.04-6.23,6.27,6.17,14.62,15.31,15.83,16.69h1.38c-.18-3.82-.17-8.25-.11-12,.06-3.75.16-7.22.31-9.84,0,0-.56.16-1,.16Z"/>
        <path class="cls-1" d="M63.2,24.72c0-1.86,0-3.71.02-5.53.03-2.49.11-5.97.17-7.86,0,0-.7.24-1.8.24s-1.77-.24-1.77-.24c.09,1.77.2,5.3.23,7.86.02,1.75.02,3.66,0,5.53-.02,3.03-.14,5.69-.22,8.24,0,0,.99-.2,1.79-.2s1.79.2,1.79.2c-.09-2.17-.2-5.09-.21-8.24Z"/>
        <path class="cls-1" d="M53.92,10.99h-1.21c-2.14,5.46-5.76,12.56-7.91,16.94-2.55-4.53-5.88-11.35-8.31-16.94h-1.35c-.85,6.7-1.83,15.3-3.23,21.96,0,0,.5-.12,1.06-.12s.94.12.94.12c.4-5.11,1.51-13.52,2.04-16.61,2.7,5.88,5.73,11.6,7.82,16.42h.19c2.46-5.56,5.51-11.93,7.49-16.42,1.09,4.89,2.5,16.61,2.5,16.61.43-.11,1.07-.22,1.75-.22.89,0,1.85.22,1.85.22-1.05-4.65-2.67-15.01-3.64-21.96Z"/>
        <path class="cls-1" d="M11.62,32.03c0-.51.17-.88.17-.88-1.7.25-5.09.87-8.18.74-.42-5.57-.35-15.04.1-20.55h0c-.44.1-1.1.19-1.85.19-.71,0-1.38-.1-1.86-.19,0,0,.25,6.1.25,10.83C.25,25.86,0,32.95,0,32.95c2.04-.04,4.05-.05,5.81-.05,3.46,0,5.97.05,5.97.05,0,0-.17-.43-.17-.93Z"/>
        <path class="cls-1" d="M99.88,32.09c0-.51.09-.86.09-.86,0,0-3.25.59-7.18.59-.11-2.64-.1-6.31-.1-9.75,2.66.02,4.08.18,6.29.31-.05-.23-.1-.39-.1-.83s.1-.9.1-.9c-1.94.12-3.14.27-6.28.27-.08-2.62.03-6.62.1-8.54,2.82,0,5.12.22,7.21.53,0,0-.1-.32-.1-.8,0-.41.1-.83.1-.83-1.35.05-3.94.15-5.18.15-3.86,0-5.27-.11-5.27-.11.1,1.48.17,3.8.2,6.4.03,2.43.01,5.36.01,7.61,0,2.61-.1,5.88-.21,7.61,0,0,1.7-.1,5.04-.1,1.63,0,3.56,0,5.38.1,0,0-.09-.37-.09-.86Z"/>
      </g>
      <g>
        <path class="cls-1" d="M2.27,1.47l.21-.08.26.43c-.25.18-.42.3-.51.38v.42c.57-.39,1-.64,1.3-.75.3-.11.59-.17.89-.17.58,0,1.02.19,1.35.58.33.39.49.85.49,1.39,0,.45-.12.85-.37,1.2-.25.36-.61.64-1.1.85-.38.16-.92.29-1.63.39-.04-.17-.12-.39-.25-.67.78,0,1.38-.12,1.79-.35.55-.32.82-.8.82-1.42,0-.42-.11-.75-.33-.99-.22-.24-.49-.36-.82-.36-.28,0-.6.08-.94.23-.18.08-.36.18-.56.3-.2.13-.42.28-.66.46,0,1.11,0,1.7,0,1.79.01.4.02.8.04,1.2l-.68.02c0-.12,0-.31,0-.55,0-.24,0-.42,0-.54,0-.42,0-.85.01-1.31-.11.12-.23.25-.34.37-.11.12-.22.25-.34.38-.06.07-.19.23-.38.49l-.51-.53c.23-.24.48-.48.72-.72.25-.24.53-.5.84-.79,0-.09,0-.41.03-.96-.54.09-.94.14-1.21.15v-.67c.21,0,.36.01.44.01.26,0,.52-.02.77-.06,0-.47.03-.94.06-1.41l.73.05c0,.06-.01.12-.02.18,0,.06-.02.12-.02.18,0,.06-.02.12-.03.19-.01.12-.03.34-.04.66Z"/>
        <path class="cls-1" d="M14.63,2.3c-.58,0-1.01,0-1.29.03-.21.01-.62.07-1.21.15l.1.59.89-.11c.35-.03.66-.04.92-.04.12,0,.45,0,1,.02l.03-.64h-.43ZM11.61,5.18c.06.21.17.39.33.54.17.16.42.27.73.35.33.08.82.12,1.48.12.12,0,.51-.02,1.16-.07v-.69c-.62.07-1.07.11-1.35.11-.42,0-.75-.02-1.02-.07-.27-.04-.45-.11-.55-.19-.07-.06-.14-.16-.19-.32-.02-.04-.02-.21-.02-.51l-.64-.05c0,.36.02.61.06.77ZM12.02.47l-.71-.22c-.13.53-.24.97-.36,1.34-.25,0-.46.01-.63.01-.21,0-.45-.01-.74-.04v.65c.16.01.31.01.44.01.1,0,.34-.01.74-.03-.15.42-.29.82-.43,1.19-.14.37-.25.67-.35.92-.09.22-.18.41-.25.59-.08.17-.15.32-.21.44-.06.12-.17.35-.33.69l.61.28c.38-.81.67-1.46.87-1.97.16-.39.3-.76.43-1.12.13-.36.25-.72.36-1.07.33-.04.64-.08.92-.13.28-.05.56-.11.85-.18l-.04-.66c-.52.15-1.03.26-1.53.33.09-.25.2-.59.34-1.03Z"/>
        <path class="cls-1" d="M23.4,3.49c.2.17.39.3.57.39-.16.25-.31.49-.46.7-.15.21-.28.37-.39.49-.31.33-.68.61-1.11.81-.42.21-.86.31-1.31.31-.35,0-.65-.07-.91-.22-.25-.14-.44-.34-.55-.59-.11-.25-.17-.66-.17-1.22v-.15s0-.12,0-.22c0-.1,0-.18,0-.24.01-.5.03-1.25.04-2.27,0-.1,0-.22,0-.35,0-.14,0-.29,0-.46l.82.02c-.03.34-.06.72-.1,1.13-.03.41-.06.73-.07.95-.01.22-.02.46-.03.71-.01.25-.02.51-.02.78,0,.51.03.84.09.98.06.14.17.26.32.36.16.09.36.14.61.14.53,0,1.02-.17,1.45-.52.44-.35.83-.87,1.19-1.55Z"/>
        <path class="cls-1" d="M27.84,3.74c.49-.33.9-.55,1.24-.67.35-.12.72-.18,1.1-.18.56,0,.99.14,1.29.41.31.27.46.61.46,1.03,0,.55-.24,1-.72,1.35-.62.46-1.66.71-3.11.74,0-.11,0-.19-.01-.25,0-.04-.05-.19-.12-.45.22,0,.39,0,.49,0,.35,0,.68-.02.98-.06.29-.04.56-.1.79-.18.18-.07.33-.15.46-.24.13-.09.24-.19.33-.31.14-.19.22-.39.22-.6,0-.25-.1-.46-.29-.63-.19-.17-.47-.26-.85-.26-.31,0-.62.06-.93.17-.31.11-.61.29-.9.52-.18.14-.37.34-.58.61l-.54-.22c.08-.82.16-1.48.24-1.99.06-.39.12-.73.18-1.02l.73.22c-.14.45-.24.79-.29,1.03-.06.27-.11.59-.15.98ZM30.52.77l-.21.64c-.5-.11-.88-.22-1.16-.31-.35-.12-.75-.28-1.17-.49l.27-.61c.36.16.7.3,1.01.41.06.02.14.05.24.08.1.03.17.05.24.07.06.02.17.05.31.09.15.04.3.08.48.13Z"/>
        <path class="cls-1" d="M40.25,3.49c.2.17.39.3.58.39-.16.25-.31.49-.46.7-.15.21-.28.37-.39.49-.31.33-.68.61-1.11.81-.42.21-.85.31-1.31.31-.34,0-.65-.07-.91-.22-.26-.14-.45-.34-.56-.59-.11-.25-.17-.66-.17-1.22v-.15s0-.12,0-.22c0-.1,0-.18,0-.24.01-.5.03-1.25.05-2.27,0-.1,0-.22,0-.35,0-.14,0-.29,0-.46l.82.02c-.03.34-.07.72-.1,1.13-.03.41-.06.73-.07.95-.01.22-.02.46-.04.71,0,.25-.01.51-.01.78,0,.51.03.84.09.98.06.14.17.26.33.36.16.09.36.14.61.14.53,0,1.02-.17,1.45-.52.44-.35.83-.87,1.19-1.55Z"/>
        <path class="cls-1" d="M47.54.31l.49.61c-.84.61-1.46,1.05-1.86,1.3-.21.14-.44.27-.68.41-.24.14-.48.27-.72.39-.07.04-.11.08-.11.12,0,.05.05.1.14.15.14.07.4.25.79.53.17.12.36.26.56.42.2.16.39.33.58.5.29.26.72.69,1.28,1.27l-.61.5c-.62-.72-1.14-1.26-1.54-1.63-.16-.15-.32-.29-.47-.41-.15-.13-.28-.23-.39-.31-.11-.08-.22-.17-.34-.26-.13-.09-.27-.19-.44-.31-.13-.08-.21-.15-.25-.21-.04-.06-.06-.13-.06-.21,0-.11.03-.21.1-.3.07-.09.25-.22.53-.38.23-.13.46-.28.69-.43.23-.15.47-.32.72-.5.25-.18.51-.38.79-.59.28-.22.54-.44.8-.66Z"/>
        <path class="cls-1" d="M55.32.43l-.47.78c.35-.03.67-.07.95-.12.11-.02.36-.07.77-.17l.04.64c-.14.02-.32.04-.56.07-.24.03-.46.06-.66.09-.05,0-.35.03-.88.06l-.43.66c.22-.05.39-.07.49-.07.14,0,.27.02.39.06.11.04.21.1.31.18.05.05.11.14.18.27,0,.01.03.12.06.33.66-.25,1.32-.49,1.97-.73l.23.7c-.25.05-.43.09-.53.12-.14.04-.29.07-.43.11-.15.04-.29.08-.42.13-.18.06-.31.11-.4.14-.09.03-.22.08-.4.14,0,.29,0,.64.01,1.04h-.65v-.81c-.57.25-.93.46-1.08.62-.11.11-.16.23-.16.36,0,.09.03.18.1.26.09.11.25.2.46.26.21.06.59.09,1.12.09.29,0,.56,0,.8-.03.25-.02.58-.06,1-.12v.69c-.84.06-1.42.08-1.7.08-.93,0-1.58-.14-1.97-.41-.28-.2-.43-.47-.43-.8,0-.18.06-.36.16-.53.13-.2.35-.39.64-.57.2-.13.55-.3,1.05-.52,0-.21-.04-.36-.11-.44-.07-.08-.18-.12-.33-.12-.29,0-.56.09-.81.27-.17.12-.57.54-1.21,1.26l-.5-.49c.45-.41.8-.76,1.05-1.05.25-.29.52-.64.79-1.05-.36.02-.7.03-1.02.03-.07,0-.16,0-.26-.01l-.02-.61c.74.03,1.3.04,1.65,0,.13-.26.29-.63.49-1.1l.72.29Z"/>
        <path class="cls-1" d="M62.14,5.41c-.12.07-.23.11-.31.11-.07,0-.14-.03-.18-.09-.07-.08-.1-.21-.1-.37,0-.19.04-.38.13-.57.09-.19.22-.38.39-.56.13-.14.34-.31.62-.51.01.38.05.85.13,1.44-.26.26-.49.45-.69.55ZM63.73,3.03c.14-.02.31-.04.48-.06-.09.14-.17.28-.26.42-.08.13-.17.27-.27.41-.09.14-.2.29-.32.45-.04-.32-.05-.7-.05-1.12.14-.04.28-.07.41-.1ZM63.91,2.47c-.13.02-.32.05-.58.11,0-.23.03-.49.08-.79.78-.06,1.49-.18,2.16-.36l-.03-.63c-.48.13-.83.22-1.05.26-.19.04-.52.09-.98.14.03-.18.09-.48.2-.91l-.73-.13c-.06.42-.1.78-.13,1.09-.15,0-.23,0-.26,0-.43,0-.81-.02-1.17-.07v.63c.09,0,.16.01.24.02.08,0,.16,0,.24.01.09,0,.17,0,.27,0l.6-.02c-.03.37-.05.69-.05.97-.38.19-.66.36-.84.52-.28.25-.5.53-.66.83-.17.32-.25.66-.25,1.01,0,.29.07.52.22.69.14.17.31.25.5.25s.37-.04.54-.12c.17-.07.41-.24.71-.49l.07.32.63-.22c-.05-.14-.1-.34-.15-.61.44-.53.72-.87.83-1.02.18-.24.37-.55.59-.92.26.07.46.15.58.23.18.12.32.27.41.44.09.18.14.37.14.58,0,.25-.08.48-.24.71-.15.22-.39.39-.7.53-.21.09-.59.18-1.15.26.1.18.18.38.24.61.46-.08.86-.19,1.19-.32.32-.13.58-.29.77-.48.38-.36.56-.79.56-1.29,0-.32-.07-.6-.2-.83-.13-.23-.32-.43-.56-.59-.15-.11-.42-.22-.78-.33l.11-.23-.62-.25-.17.36c-.26,0-.46.02-.59.04Z"/>
        <path class="cls-1" d="M75.35,2.3c-.57,0-1,0-1.29.03-.21.01-.62.07-1.21.15l.1.59.89-.11c.35-.03.66-.04.91-.04.12,0,.45,0,1,.02l.03-.64h-.43ZM72.33,5.18c.06.21.17.39.33.54.17.16.41.27.72.35.33.08.83.12,1.49.12.12,0,.51-.02,1.16-.07v-.69c-.63.07-1.07.11-1.34.11-.42,0-.76-.02-1.02-.07-.27-.04-.45-.11-.55-.19-.08-.06-.14-.16-.19-.32-.02-.04-.02-.21-.02-.51l-.63-.05c0,.36.02.61.06.77ZM72.74.47l-.71-.22c-.13.53-.25.97-.36,1.34-.25,0-.45.01-.62.01-.21,0-.46-.01-.74-.04v.65c.16.01.32.01.44.01.1,0,.34-.01.74-.03-.14.42-.28.82-.42,1.19-.14.37-.26.67-.35.92-.09.22-.18.41-.25.59-.08.17-.15.32-.21.44-.06.12-.17.35-.33.69l.61.28c.38-.81.67-1.46.87-1.97.15-.39.3-.76.43-1.12.13-.36.25-.72.36-1.07.34-.04.64-.08.91-.13.28-.05.56-.11.85-.18l-.04-.66c-.52.15-1.03.26-1.53.33.09-.25.21-.59.35-1.03Z"/>
        <path class="cls-1" d="M82.35.64c-.15-.04-.25-.07-.31-.09-.06-.02-.14-.04-.23-.07-.1-.03-.18-.05-.24-.08-.31-.11-.65-.25-1.01-.41l-.28.61c.43.2.82.37,1.17.49.28.09.66.2,1.16.31l.21-.64c-.17-.04-.33-.09-.48-.13ZM80.3,2.77c.05-.23.15-.57.29-1.03l-.73-.22c-.05.29-.11.63-.18,1.02-.07.5-.16,1.16-.24,1.99l.54.22c.21-.26.4-.47.58-.61.29-.23.59-.41.9-.52.31-.11.62-.17.93-.17.37,0,.66.09.85.26.19.17.28.38.28.63,0,.22-.07.42-.21.6-.09.12-.2.22-.32.31-.13.09-.28.17-.46.24-.23.08-.5.14-.79.18-.3.04-.62.06-.97.06-.11,0-.27,0-.49,0,.07.26.11.41.12.45,0,.05.01.14.01.25,1.45-.03,2.49-.28,3.11-.74.48-.35.72-.8.72-1.35,0-.41-.15-.76-.46-1.03-.3-.27-.73-.41-1.29-.41-.38,0-.75.06-1.1.18-.34.12-.75.34-1.24.67.04-.38.09-.71.15-.98Z"/>
        <path class="cls-1" d="M92.43,3.49c.2.17.39.3.57.39-.15.25-.31.49-.46.7-.15.21-.28.37-.39.49-.31.33-.68.61-1.11.81-.41.21-.85.31-1.31.31-.35,0-.65-.07-.91-.22-.26-.14-.45-.34-.56-.59-.11-.25-.17-.66-.17-1.22v-.15s0-.12,0-.22c0-.1,0-.18,0-.24.01-.5.03-1.25.04-2.27,0-.1,0-.22,0-.35,0-.14,0-.29,0-.46l.82.02c-.03.34-.06.72-.1,1.13-.03.41-.05.73-.07.95-.01.22-.02.46-.03.71,0,.25-.02.51-.02.78,0,.51.03.84.09.98.06.14.17.26.33.36.16.09.36.14.6.14.53,0,1.02-.17,1.46-.52.44-.35.83-.87,1.19-1.55Z"/>
        <path class="cls-1" d="M99.4.31l.49.61c-.84.61-1.46,1.05-1.86,1.3-.22.14-.44.27-.68.41-.24.14-.48.27-.72.39-.07.04-.11.08-.11.12,0,.05.05.1.14.15.13.07.4.25.79.53.17.12.36.26.56.42.2.16.39.33.58.5.29.26.72.69,1.28,1.27l-.62.5c-.63-.72-1.13-1.26-1.53-1.63-.17-.15-.32-.29-.47-.41-.15-.13-.28-.23-.38-.31-.1-.08-.22-.17-.35-.26-.12-.09-.27-.19-.44-.31-.13-.08-.21-.15-.24-.21-.04-.06-.06-.13-.06-.21,0-.11.04-.21.1-.3.07-.09.25-.22.53-.38.23-.13.45-.28.69-.43.23-.15.47-.32.73-.5.25-.18.51-.38.78-.59.28-.22.55-.44.8-.66Z"/>
      </g>
    </g>
  </g>
</svg>