<?xml version="1.0" encoding="utf-8"?>
<!-- Generator: Adobe Illustrator 28.1.0, SVG Export Plug-In . SVG Version: 6.00 Build 0)  -->
<svg version="1.1" id="_レイヤー_2" xmlns="http://www.w3.org/2000/svg" xmlns:xlink="http://www.w3.org/1999/xlink" x="0px"
	 y="0px" viewBox="0 0 455.5 578.1" style="enable-background:new 0 0 455.5 578.1;" xml:space="preserve">
<style type="text/css">
	.st0{fill:none;}
	.st1{clip-path:url(#SVGID_00000127009453303955760660000014628311692696496540_);}
	.st2{fill:#FFFFFF;}
	.st3{fill:none;stroke:#CCCDCC;stroke-width:12;stroke-miterlimit:10;}
	.st4{clip-path:url(#SVGID_00000098208100052498650970000010182504265096709029_);}
	.st5{fill:#FFFFFF;stroke:#160058;stroke-miterlimit:10;}
	.st6{fill:#F2F3F3;}
	.st7{clip-path:url(#SVGID_00000079474729925530682910000011032924646992488350_);}
	.st8{opacity:0.4;}
	.st9{clip-path:url(#SVGID_00000158006254487654451800000007975328981536972422_);}
	.st10{fill:url(#SVGID_00000078726426351187674230000013203984942450513318_);}
	.st11{fill:#DCDDDD;}
	.st12{fill:none;stroke:#160058;stroke-width:1.37;stroke-miterlimit:10;}
	.st13{clip-path:url(#SVGID_00000023243516771933391070000010886408716344491711_);}
	.st14{clip-path:url(#SVGID_00000170252870397293721890000007600795864355045565_);}
	.st15{fill:none;stroke:#160058;stroke-width:1.82;stroke-miterlimit:10;}
	.st16{clip-path:url(#SVGID_00000134235599743415984020000016642894717925452933_);}
	.st17{fill:#221815;}
	.st18{clip-path:url(#SVGID_00000127007681476793766560000013879986895864199567_);}
	.st19{fill:#160058;}
	.st20{clip-path:url(#SVGID_00000153698233672075897960000017553255374426287008_);}
	.st21{fill:none;stroke:#160058;stroke-miterlimit:10;}
	.st22{fill:#281575;}
	.st23{fill:none;stroke:#281575;stroke-width:2;stroke-miterlimit:10;}
</style>
<pattern  x="-288.6" y="468.6" width="45" height="45" patternUnits="userSpaceOnUse" id="Unnamed_Pattern" viewBox="0 -45 45 45" style="overflow:visible;">
	<g>
		<rect y="-45" class="st0" width="45" height="45"/>
		<g>
			<rect y="-45" class="st0" width="45" height="45"/>
			<g>
				<defs>
					<rect id="SVGID_1_" y="-45" width="45" height="45"/>
				</defs>
				<clipPath id="SVGID_00000037676403232798789880000005304781751598667688_">
					<use xlink:href="#SVGID_1_"  style="overflow:visible;"/>
				</clipPath>
				<g style="clip-path:url(#SVGID_00000037676403232798789880000005304781751598667688_);">
					<rect y="-45" class="st2" width="45" height="45"/>
					<line class="st3" x1="0" y1="-22.5" x2="45" y2="-22.5"/>
				</g>
			</g>
		</g>
	</g>
</pattern>
<g id="_レイヤー_1-2">
	<g>
		<g>
			<defs>
				<path id="SVGID_00000031914080215244137910000005160724762818372488_" d="M40.3,0h374.2c22.1,0,40,17.9,40,40v498.1
					c0,22.1-17.9,40-40,40H40.3c-22.1,0-40-17.9-40-40V40C0.3,17.9,18.2,0,40.3,0z"/>
			</defs>
			<clipPath id="SVGID_00000075159734076704157140000004418752275923700352_">
				<use xlink:href="#SVGID_00000031914080215244137910000005160724762818372488_"  style="overflow:visible;"/>
			</clipPath>
			<g style="clip-path:url(#SVGID_00000075159734076704157140000004418752275923700352_);">
				<g>
					<rect x="0.3" y="0" class="st5" width="454.2" height="578.1"/>
					<rect x="94.3" y="43.7" class="st6" width="360.3" height="534.5"/>
					<rect x="365.6" y="0" class="st6" width="88.9" height="44.6"/>
					<rect x="372.5" y="143.7" class="st2" width="38.9" height="16.1"/>
					<polygon class="st2" points="0.3,16.3 0.3,407.4 46,407.4 46,432.3 0.3,432.3 0.3,455 31.2,455 34.6,496.2 93.8,496.2 
						93.8,460.1 165.4,460.1 186.7,460.1 186.7,496.2 365.6,496.2 365.6,44.6 151.4,16.3 					"/>
					<g>
						<defs>
							<rect id="SVGID_00000072976525538329356360000015634128897068178059_" x="0.3" y="0" width="454.2" height="578.1"/>
						</defs>
						<clipPath id="SVGID_00000156568296748616142080000015895757533720344479_">
							<use xlink:href="#SVGID_00000072976525538329356360000015634128897068178059_"  style="overflow:visible;"/>
						</clipPath>
						<g style="clip-path:url(#SVGID_00000156568296748616142080000015895757533720344479_);">
							<g class="st8">
								<g>
									<defs>
										
											<rect id="SVGID_00000029734048942907340700000010407918946140924091_" x="-177.2" y="16.3" width="542.8" height="479.9"/>
									</defs>
									<clipPath id="SVGID_00000121278474074973936680000002273036771486635960_">
										<use xlink:href="#SVGID_00000029734048942907340700000010407918946140924091_"  style="overflow:visible;"/>
									</clipPath>
									<g style="clip-path:url(#SVGID_00000121278474074973936680000002273036771486635960_);">
										
											<pattern  id="SVGID_00000068636967925914581230000007605144258605018278_" xlink:href="#Unnamed_Pattern" patternTransform="matrix(7.778174e-02 -7.778174e-02 7.778174e-02 7.778174e-02 -13126.4609 1225.2123)">
										</pattern>
										<polygon style="fill:url(#SVGID_00000068636967925914581230000007605144258605018278_);" points="365.6,44.6 151.4,16.3 
											-98.3,16.3 -3.2,317.6 -177.2,317.6 -177.2,407.4 46,407.4 46,432.3 -177.2,432.3 -177.2,455 31.2,455 34.6,496.2 
											93.8,496.2 93.8,460.1 165.4,460.1 186.7,460.1 186.7,496.2 365.6,496.2 										"/>
									</g>
								</g>
							</g>
						</g>
					</g>
					<polygon class="st11" points="93.9,448.7 93.9,517.4 35.6,508.2 31.2,455 					"/>
					<polygon class="st12" points="93.9,448.7 93.9,517.4 35.6,508.2 31.2,455 					"/>
					<polygon class="st11" points="365.6,448.7 365.6,496.2 186.7,497.4 186.7,460.1 165.4,460.1 165.4,448.2 					"/>
					<polygon class="st12" points="365.6,448.7 365.6,496.2 186.7,497.4 186.7,460.1 165.4,460.1 165.4,448.2 					"/>
					<polygon class="st11" points="305,396.7 365.6,396.7 365.6,217.2 321.3,217.2 321.3,235.4 301.9,235.4 301.9,296 306.2,296 
											"/>
					<polygon class="st12" points="305,396.7 365.6,396.7 365.6,217.2 321.3,217.2 321.3,235.4 301.9,235.4 301.9,296 306.2,296 
											"/>
					<polygon class="st11" points="39.9,15.9 39.9,25 72,25 72,15.8 					"/>
					<polygon class="st12" points="39.9,15.9 39.9,25 72,25 72,15.8 					"/>
					<polygon class="st11" points="87.6,307.4 87.6,315.8 121.7,315.8 121.7,332.3 87.9,332.3 87.9,379.6 160.2,401.2 253.5,401.2 
						253.5,335.6 227.6,335.6 227.6,321 253.1,321 253.1,308 					"/>
					<polygon class="st12" points="87.6,307.4 87.6,315.8 121.7,315.8 121.7,332.3 87.9,332.3 87.9,379.6 160.2,401.2 253.5,401.2 
						253.5,335.6 227.6,335.6 227.6,321 253.1,321 253.1,308 					"/>
					<polygon class="st11" points="93.9,517.8 93.9,578.1 388.2,578.1 388.2,545.8 267.1,545.8 267.1,564.2 207,564.2 207,532.2 
						142.8,532.2 133.6,517.8 					"/>
					<g>
						<defs>
							<rect id="SVGID_00000082355527717076175360000006489383695294256274_" x="0.3" y="0" width="454.2" height="578.1"/>
						</defs>
						<clipPath id="SVGID_00000168113828958491290300000003666484414527737506_">
							<use xlink:href="#SVGID_00000082355527717076175360000006489383695294256274_"  style="overflow:visible;"/>
						</clipPath>
						<g style="clip-path:url(#SVGID_00000168113828958491290300000003666484414527737506_);">
							<polygon class="st12" points="388.2,600.9 388.2,545.8 267.1,545.8 267.1,564.2 207,564.2 207,532.2 142.8,532.2 
								133.6,517.8 93.9,517.8 93.9,600.9 							"/>
						</g>
					</g>
					<polyline class="st12" points="113.4,387.1 113.4,341.3 208.5,341.3 208.5,401.4 					"/>
					<polygon class="st11" points="151.4,16.3 365.5,44.6 364.9,85.4 351.7,85.4 351.7,66.3 237.8,48.6 237.8,65.8 182.9,65.8 
						182.9,44.5 151.3,44.5 					"/>
					<polygon class="st12" points="151.4,16.3 365.5,44.6 364.9,85.4 351.7,85.4 351.7,66.3 237.8,48.6 237.8,65.8 182.9,65.8 
						182.9,44.5 151.3,44.5 					"/>
					<line class="st12" x1="365.6" y1="408.6" x2="352.4" y2="408.6"/>
					<line class="st12" x1="365.6" y1="418.4" x2="352.4" y2="418.4"/>
					<line class="st12" x1="365.6" y1="428.1" x2="352.4" y2="428.1"/>
					<line class="st12" x1="365.6" y1="437.9" x2="352.4" y2="437.9"/>
					<line class="st12" x1="365.6" y1="93.5" x2="352.3" y2="93.5"/>
					<line class="st12" x1="365.6" y1="102.9" x2="352.3" y2="102.9"/>
					<line class="st12" x1="365.6" y1="112.3" x2="352.3" y2="112.3"/>
					<line class="st12" x1="365.6" y1="121.7" x2="352.3" y2="121.7"/>
					<line class="st12" x1="365.6" y1="131.1" x2="352.3" y2="131.1"/>
					<line class="st12" x1="365.6" y1="170.8" x2="352.4" y2="170.8"/>
					<line class="st12" x1="365.6" y1="180.2" x2="352.4" y2="180.2"/>
					<line class="st12" x1="365.6" y1="189.6" x2="352.4" y2="189.6"/>
					<line class="st12" x1="365.6" y1="199" x2="352.4" y2="199"/>
					<line class="st12" x1="365.6" y1="208.4" x2="352.4" y2="208.4"/>
					<line class="st12" x1="104.6" y1="447.1" x2="104.6" y2="460.3"/>
					<line class="st12" x1="114.9" y1="447.1" x2="114.9" y2="460.3"/>
					<line class="st12" x1="125.2" y1="447.1" x2="125.2" y2="460.3"/>
					<line class="st12" x1="135.5" y1="447.1" x2="135.5" y2="460.3"/>
					<line class="st12" x1="145.8" y1="447.1" x2="145.8" y2="460.3"/>
					<line class="st12" x1="156.1" y1="447.1" x2="156.1" y2="460.3"/>
					<g>
						<defs>
							<rect id="SVGID_00000041993933046221253010000007766011970228229278_" x="0.3" y="0" width="454.2" height="578.1"/>
						</defs>
						<clipPath id="SVGID_00000161631375348964717800000008552427780745849501_">
							<use xlink:href="#SVGID_00000041993933046221253010000007766011970228229278_"  style="overflow:visible;"/>
						</clipPath>
						<g style="clip-path:url(#SVGID_00000161631375348964717800000008552427780745849501_);">
							<polyline class="st15" points="-101.5,6.2 -3.2,317.6 -167.1,317.6 							"/>
							<polyline class="st15" points="-150.7,407.4 46,407.4 46,432.3 -36,432.3 							"/>
							<line class="st15" x1="31.1" y1="455.3" x2="-36" y2="455.3"/>
						</g>
					</g>
					<rect x="409.7" y="545.8" class="st11" width="27.5" height="32.3"/>
					<g>
						<defs>
							<rect id="SVGID_00000163031030373801414880000004047738997242920834_" x="0.3" y="0" width="454.2" height="578.1"/>
						</defs>
						<clipPath id="SVGID_00000003788612933573525300000018201920618993558956_">
							<use xlink:href="#SVGID_00000163031030373801414880000004047738997242920834_"  style="overflow:visible;"/>
						</clipPath>
						<g style="clip-path:url(#SVGID_00000003788612933573525300000018201920618993558956_);">
							<rect x="409.7" y="545.8" class="st12" width="27.5" height="55.1"/>
						</g>
					</g>
					<polygon class="st11" points="72,15.8 72,39.6 98.5,39.6 98.5,62.2 151.4,62.2 151.4,16.3 					"/>
					<polygon class="st12" points="72,15.8 72,39.6 98.5,39.6 98.5,62.2 151.4,62.2 151.4,16.3 					"/>
					<g>
						<path class="st17" d="M408.6,288.1c-1.8-0.9-2.8-1.7-4.2-3.1v3.4h-1.7v-3.4c-0.8,0.8-1.9,2-4.3,3.2l-1.3-1.2
							c1.6-0.6,2.7-1.2,4.4-3h-2.7v-4.8h3.8v-0.8h-5.3V277h5.3v-1.2l1.8,0.1c0.2,0,0.2,0.1,0.2,0.2c0,0-0.1,0.1-0.1,0.1
							c-0.1,0.1-0.2,0.1-0.2,0.2v0.6h5.3v1.4h-5.3v0.8h3.8v4.8h-2.8c1,1,2,1.7,4.3,2.8L408.6,288.1L408.6,288.1z M402.6,280.3h-2.1
							v0.7h2.1V280.3z M402.6,282.1h-2.1v0.7h2.1V282.1z M406.5,280.3h-2.2v0.7h2.2V280.3z M406.5,282.1h-2.2v0.7h2.2V282.1z"/>
						<path class="st17" d="M420.1,277.8v1.8h3.5v8.7H422v-0.5h-7.9v0.6h-1.6v-8.8h3.4v-1.8h-4v-1.5h12.5v1.5H420.1L420.1,277.8z
							 M422,283.4c-0.2,0.8-0.8,1.2-1.3,1.2h-1.3c-0.8,0-1-0.7-1-1.2V281h-1c0,0.8,0,1.6-0.5,2.7c-0.4,0.8-0.8,1.2-1.3,1.7l-1.5-1
							c0.4-0.3,0.9-0.6,1.3-1.2c0.4-0.8,0.5-1.5,0.5-2.1h-1.8v5.2h7.9V283.4L422,283.4z M418.5,277.8h-1v1.8h1V277.8z M422,281h-1.9
							v1.8c0,0.2,0.1,0.3,0.3,0.3c0.3,0,0.4-0.2,0.5-1l1.1,0.5L422,281L422,281z"/>
					</g>
					<g>
						<path class="st17" d="M392.2,306.5v-0.8H386v0.8h-1.7v-10.8h2.7c0.3-0.8,0.5-1.3,0.5-1.7l2,0.2c0.1,0,0.2,0.1,0.2,0.2
							s-0.1,0.1-0.1,0.2c-0.3,0.2-0.3,0.2-0.4,0.3c0,0-0.3,0.8-0.4,0.9h5.1v10.8H392.2L392.2,306.5z M392.2,297.2H386v1.3h6.2V297.2
							z M392.2,299.9H386v1.4h6.2V299.9z M392.2,302.7H386v1.6h6.2V302.7z"/>
						<path class="st17" d="M406.9,306.5v-0.5h-8.1v0.5h-1.6v-9.8h4.8v-2.6l1.8,0.1c0.1,0,0.3,0,0.3,0.2c0,0.1,0,0.1-0.2,0.2
							c-0.2,0.1-0.2,0.2-0.2,0.3v1.8h4.9v9.8L406.9,306.5L406.9,306.5z M402,298.2h-3.2v2.3h3.2V298.2z M402,302h-3.2v2.5h3.2V302z
							 M406.9,298.2h-3.2v2.3h3.2V298.2z M406.9,302h-3.2v2.5h3.2V302z"/>
						<path class="st17" d="M423.4,306.3h-6.5c-2.3,0-3-0.8-3.5-1.4c-0.5,0.5-0.8,0.8-1.5,1.3c-0.1,0.2-0.2,0.4-0.2,0.4
							c-0.1,0-0.1-0.1-0.2-0.2l-0.8-1.5c0.5-0.2,1.3-0.6,1.8-1v-3.1h-1.4v-1.5h3v4.2c0,1.5,2.1,1.5,3.2,1.5c2.2,0,4.4-0.1,6.6-0.3
							L423.4,306.3L423.4,306.3z M413.4,297.1c-0.4-0.4-1.1-1.1-2-1.7l1-1.1c0.8,0.5,1.4,1,2,1.7L413.4,297.1L413.4,297.1z
							 M421.6,304.5h-0.8l-0.5-1.2c0.9,0,1,0,1-0.3v-0.5h-1.5v1.8h-1.5v-1.8h-1.4v1.9h-1.5v-6.8h3c-0.6-0.3-1.2-0.7-1.9-1l0.4-0.8
							h-1.5v-1.4h6.7l0.5,0.6c-0.3,0.3-1,1-2.1,2c0.1,0,0.4,0.2,0.5,0.2l-0.2,0.3h2.1v5.7C422.8,303.9,422.4,304.5,421.6,304.5
							L421.6,304.5z M418.3,298.7h-1.4v0.8h1.4V298.7z M418.3,300.5h-1.4v0.8h1.4V300.5z M418,295.8c0.2,0.1,1,0.5,1.2,0.5
							c0.2-0.2,0.4-0.4,0.5-0.5H418z M421.3,298.7h-1.5v0.8h1.5V298.7z M421.3,300.5h-1.5v0.8h1.5V300.5z"/>
						<path class="st17" d="M437.8,302.2c-0.2-0.1-0.2-0.1-0.5-0.2v4.5h-1.6v-0.3h-2.3v0.4h-1.6v-4.4c-0.1,0-0.1,0-0.2,0.1l-0.9-0.9
							v0.7h-1.4v1.9c1.1-0.3,1.5-0.4,1.8-0.5l-0.1,1.5c-0.8,0.3-2.1,0.7-3.2,1c-0.2,0.1-1,0.3-1.2,0.3c-0.2,0.1-0.5,0.1-0.6,0.3
							c-0.2,0.2-0.2,0.2-0.2,0.2s-0.2,0-0.3-0.4l-0.3-1.5c0.1,0,0.5-0.1,0.6-0.1v-5.2l1.4,0.1c0.2,0,0.4,0,0.4,0.2
							c0,0.1,0,0.1-0.2,0.2c-0.2,0.1-0.2,0.1-0.2,0.2v4.2c0.2,0,0.2,0,0.5-0.1V299h-1.7v-4.8h4.6v3.3c1-1,1.6-2.3,2-3.6l1.4,0.2
							c0.2,0,0.3,0.1,0.3,0.2c0,0,0,0.1-0.1,0.1c0,0-0.2,0.1-0.2,0.1c-0.1,0-0.1,0-0.2,0.3h2.9l0.6,0.6c-0.6,1.7-1.5,2.8-2,3.5
							c0.5,0.4,1.4,1.2,3.4,1.7L437.8,302.2L437.8,302.2z M429.1,295.7h-1.5v2.1h1.5V295.7z M432.6,297.7c-0.5,0.9-0.8,1.1-1,1.3
							l-1-0.7v0.7h-1.5v1.4h1.4v0.5c1-0.5,1.9-1,2.8-1.9C433.1,298.6,432.9,298.2,432.6,297.7L432.6,297.7z M434.6,300.2
							c-0.4,0.4-0.8,0.8-1.5,1.3h3.2C435.7,301,435.2,300.7,434.6,300.2z M435.7,302.9h-2.3v1.9h2.3V302.9z M433.7,296.4
							c0.3,0.8,0.5,1.2,0.8,1.6c0.2-0.3,0.5-0.7,0.8-1.6H433.7L433.7,296.4z"/>
					</g>
					<g>
						<path class="st17" d="M34.1,286.1v-0.6h-3.4v4.1H29v-4.1h-3.3v0.6H24v-6.5h5v-2.5l1.8,0.2c0.1,0,0.2,0,0.2,0.2
							c0,0.1-0.1,0.2-0.2,0.2c-0.1,0.1-0.2,0.1-0.2,0.2v1.7h5v6.5L34.1,286.1L34.1,286.1z M29,281.2h-3.3v2.7H29V281.2z M34.1,281.2
							h-3.4v2.7h3.4V281.2z"/>
						<path class="st17" d="M49.6,290c-3.8-1.3-4.8-3.5-5.2-4.3c-0.4,1.1-1.4,3.2-5.2,4.2l-1.1-1.6c1.1-0.1,2.2-0.4,3.1-1
							c1.2-0.8,1.6-1.8,1.7-2.2h-4.8v-1.5h1.1v-4.2h4.3c0-1.2,0-1.7-0.1-2.3l1.6,0.1c0.3,0,0.5,0,0.5,0.2c0,0.1-0.1,0.2-0.2,0.2
							c-0.2,0.1-0.2,0.2-0.2,0.2c0,0.4,0,1.1,0,1.5h4.4v4.2h1.1v1.5H46c0.8,1.7,2.6,2.9,5,3.3L49.6,290L49.6,290z M40.8,280.9v2.8
							h2.6c0.2-1,0.2-1.6,0.2-2.8H40.8z M48,280.9h-2.8c0,0.5,0,1.7-0.2,2.8h3V280.9z"/>
					</g>
					<g>
						<path class="st17" d="M35.9,307.6h-6.5c-2.3,0-3-0.8-3.4-1.4c-0.5,0.5-0.8,0.8-1.5,1.3c-0.1,0.2-0.1,0.4-0.2,0.4
							c-0.1,0-0.1-0.1-0.2-0.2l-0.8-1.5c0.6-0.2,1.3-0.6,1.8-1v-3.1h-1.4v-1.5h3v4.2c0,1.5,2.1,1.5,3.2,1.5c2.2,0,4.4-0.1,6.6-0.3
							L35.9,307.6L35.9,307.6z M26,298.5c-0.4-0.4-1.1-1.1-2-1.7l1-1.1c0.8,0.5,1.4,1,2.1,1.7L26,298.5z M34.1,305.8h-0.8l-0.5-1.2
							c0.9,0,1,0,1-0.3v-0.5h-1.5v1.8h-1.5v-1.8h-1.4v1.9h-1.5v-6.8h3c-0.6-0.3-1.2-0.7-1.9-1l0.4-0.8H28v-1.4h6.7l0.4,0.6
							c-0.3,0.3-0.9,1-2.1,2c0.1,0,0.4,0.2,0.5,0.2l-0.2,0.3h2.1v5.7C35.3,305.2,34.9,305.8,34.1,305.8L34.1,305.8z M30.8,300h-1.4
							v0.8h1.4V300z M30.8,301.8h-1.4v0.8h1.4V301.8z M30.5,297.1c0.2,0.1,1,0.5,1.2,0.5c0.2-0.2,0.4-0.4,0.4-0.5H30.5z M33.8,300
							h-1.5v0.8h1.5V300z M33.8,301.8h-1.5v0.8h1.5V301.8z"/>
						<path class="st17" d="M50.4,303.5c-0.2-0.1-0.2-0.1-0.5-0.2v4.5h-1.6v-0.3h-2.3v0.4h-1.6v-4.4c-0.1,0-0.1,0-0.2,0.1l-0.9-0.9
							v0.7h-1.4v1.9c1.1-0.3,1.5-0.4,1.8-0.5l-0.1,1.5c-0.8,0.3-2.1,0.7-3.2,1c-0.2,0.1-1.1,0.3-1.2,0.3c-0.2,0.1-0.5,0.1-0.6,0.3
							c-0.2,0.2-0.2,0.2-0.2,0.2s-0.2,0-0.3-0.4l-0.3-1.5c0.1,0,0.6-0.1,0.6-0.1v-5.2l1.4,0.1c0.2,0,0.4,0,0.4,0.2
							c0,0.1,0,0.1-0.1,0.2c-0.2,0.1-0.2,0.1-0.2,0.2v4.2c0.1,0,0.2,0,0.5-0.1v-5.2h-1.7v-4.8h4.6v3.3c1-1,1.6-2.3,2-3.6l1.4,0.2
							c0.2,0,0.4,0.1,0.4,0.2c0,0,0,0.1-0.1,0.1c0,0-0.2,0.1-0.2,0.1c-0.1,0-0.1,0-0.2,0.3h2.9l0.6,0.6c-0.6,1.7-1.5,2.8-2,3.5
							c0.5,0.4,1.4,1.2,3.4,1.7L50.4,303.5L50.4,303.5z M41.6,297h-1.5v2.1h1.5V297z M45.2,299c-0.6,0.9-0.8,1.1-1,1.3l-0.9-0.7v0.7
							h-1.5v1.4h1.4v0.5c1-0.5,1.9-1,2.8-1.9C45.7,300,45.4,299.6,45.2,299L45.2,299z M47.1,301.5c-0.4,0.4-0.8,0.8-1.5,1.3h3.2
							C48.2,302.4,47.7,302,47.1,301.5z M48.2,304.2h-2.3v1.9h2.3V304.2z M46.3,297.7c0.3,0.8,0.5,1.2,0.8,1.6
							c0.2-0.3,0.5-0.7,0.8-1.6H46.3L46.3,297.7z"/>
					</g>
					<g>
						<path class="st17" d="M139.5,372.3c-0.2,0.5-0.3,1.1-0.5,1.6c0.1-0.1,0.2-0.1,0.4-0.2v1.4c-1.9,0.6-3.1,0.9-4.8,1.3
							c-0.1,0-0.1,0-0.1,0.1c-0.1,0.1-0.1,0.2-0.2,0.2c-0.2,0-0.2-0.3-0.2-0.4l-0.2-1.4c0.8,0,1.6-0.2,2.1-0.3v-3.2h-2V370h2v-0.7
							h-1v-1.1c-0.1,0.1-0.1,0.1-0.4,0.3l-1.2-1.1c0.5-0.3,1-0.5,1.7-1.2c0.8-0.8,1-1.3,1.1-1.8l1.5,0.5c0.1,0,0.2,0.1,0.2,0.2
							c0,0.1,0,0.1-0.1,0.2c0.4,0.5,1.2,1,1.8,1.4l-1,1.1c-0.8-0.5-1.3-1-1.7-1.5c-0.6,0.8-1,1.2-1.5,1.6h3.4v1.5h-1.3v0.7h1.6v1.4
							h-1.6v2.9c0.4-0.1,0.7-0.2,1.2-0.3l-1.1-0.4c0.3-0.5,0.5-1.1,0.7-2l1.3,0.3c0.2,0.1,0.2,0.2,0.2,0.2
							C139.8,372.2,139.6,372.3,139.5,372.3L139.5,372.3z M134.4,374.5c-0.1-0.7-0.3-1.4-0.7-2.3l1.4-0.3c0.3,0.8,0.5,1.5,0.7,2.3
							L134.4,374.5z M145.6,377c-1.2-1.1-2.1-2.4-2.7-3.8c-0.5,1-1.2,2.4-3,3.9l-1.6-1.1c2-0.9,3.1-2.6,3.6-4.4h-2.5V370h2.7
							c0-0.6,0-0.8,0-1.5h-1.1c-0.1,0.3-0.3,0.9-0.6,1.4l-1.5-0.6c0.5-0.8,1-1.8,1-4.2l1.4,0.3c0.1,0,0.4,0.1,0.4,0.2
							c0,0.1,0,0.1-0.1,0.2c0,0-0.1,0.1-0.1,0.2c0,0.5-0.1,0.7-0.1,0.9h0.8c0-0.6,0-1.7,0-2.5l1.6,0.1c0.1,0,0.4,0.1,0.4,0.2
							c0,0.1,0,0.1-0.2,0.2c-0.1,0.1-0.1,0.1-0.1,0.4c0,0,0,1.3,0,1.5h2.4v1.5h-2.4c0,0.3,0,1.2,0,1.5h2.8v1.5h-2.5
							c0.3,1.5,1.3,3.1,3.3,4.4L145.6,377L145.6,377z"/>
						<path class="st17" d="M160.6,376.7h-6c-0.9,0-1.9-0.1-2.6-0.3c-0.8-0.3-1.1-0.8-1.2-1c-0.2,0.2-0.5,0.5-1.1,1
							c-0.5,0.4-0.5,0.4-0.5,0.5c-0.1,0.2-0.1,0.2-0.1,0.2c0,0-0.1,0-0.2-0.2l-0.8-1.5c1.2-0.5,1.6-0.7,1.9-0.9v-3.2h-1.5v-1.6h3.2
							v4.5c0,0.9,0.8,1.1,3,1.1s4.5-0.1,6.7-0.3L160.6,376.7L160.6,376.7z M150.5,367.6c-0.7-0.8-1.2-1.3-2-1.8l1.2-1.2
							c0.7,0.4,1.2,0.9,2,1.8L150.5,367.6L150.5,367.6z M157.2,367.2c-0.3,0.4-0.5,0.6-0.7,0.9h3.4v6.5h-1.6v-0.3h-3.5v0.3h-1.6
							v-6.5h1.8c0.2-0.3,0.3-0.5,0.5-0.9h-3.2V366h1.8c-0.3-0.6-0.5-0.9-0.7-1.2l1.4-0.6c0.4,0.5,0.7,1,0.9,1.6l-0.5,0.2h2
							c0.3-0.6,0.5-1,0.8-1.7l1.6,0.4c0,0,0.2,0.1,0.2,0.2c0,0,0,0.1-0.1,0.1c-0.1,0-0.1,0-0.2,0.1c-0.2,0.3-0.4,0.5-0.7,0.9h2.2
							v1.2L157.2,367.2L157.2,367.2z M158.3,369.1h-3.5v0.7h3.5V369.1z M158.3,370.8h-3.5v0.7h3.5V370.8z M158.3,372.4h-3.5v0.7h3.5
							V372.4z"/>
						<path class="st17" d="M174.6,366.3c-0.4,1.2-1,1.7-1.3,2c0.9,0.5,1.6,0.7,2,0.8l-0.9,1.2c-1-0.3-1.8-0.9-2.2-1.2
							c-0.7,0.4-1,0.5-1.8,0.8h3v0.8h-8.3v-0.8h5l-0.8-1.2c0.5,0,1.2-0.2,2-0.5c-0.3-0.4-0.4-0.8-0.5-0.9c-0.3,0.4-0.4,0.5-0.6,0.8
							l-0.9-0.4c-0.1,0.9-0.4,2.1-1.7,2.1l-0.4-0.8v0.5h-3v-1.5c-0.2,0.2-0.3,0.3-0.4,0.4l-1.1-0.7c0.6-0.5,1.1-1,1.6-1.9l0.7,0.4
							h0.1v-0.5h-1.9v-1h1.9v-0.6l1.1,0.1c0.3,0,0.4,0,0.4,0.2c0,0.1,0,0.1-0.2,0.2c-0.1,0.1-0.1,0.2-0.1,0.2h0.7v-0.5l1.2,0.1
							c0.2,0,0.3,0,0.3,0.1c0,0.1,0,0.1-0.1,0.2c-0.1,0-0.1,0.1-0.1,0.2h1.5v1h-1.5v0.5h1l0.2,0.3c0.4-0.5,0.8-1,1.2-2.3l1.2,0.2
							c0.2,0.1,0.4,0.1,0.4,0.2c0,0.1,0,0.1-0.2,0.2c0,0-0.1,0-0.1,0.1c0,0.1-0.1,0.1-0.1,0.2h3.4v1.1L174.6,366.3L174.6,366.3z
							 M163.2,371.9v-0.9h12.2v0.9H163.2z M172.3,377v-0.4h-6.1v0.4h-1.6v-2.6h9.3v2.6H172.3z M165.1,367.1
							c-0.1,0.1-0.1,0.2-0.3,0.3h2.4v0.9c0.1,0.1,0.1,0.1,0.2,0.1c0.7,0,0.7-1,0.7-1.3L165.1,367.1L165.1,367.1z M165,373v-0.7h8.4
							v0.7H165z M165,374v-0.7h8.4v0.7H165z M166.3,368.2h-1v0.6h1V368.2z M172.3,375.2h-6.1v0.5h6.1V375.2z M167.1,365.8h-0.7v0.5
							h0.7V365.8z M171.6,366.3c0.1,0.6,0.6,1,0.7,1.2c0.4-0.4,0.7-0.8,0.8-1.2H171.6L171.6,366.3z"/>
						<path class="st17" d="M185.8,367.6h2.4v-1h-8.8v1.4h-1.5v-2.7h5.1v-1l1.7,0.1c0.2,0,0.4,0,0.4,0.2c0,0.1-0.2,0.2-0.3,0.4v0.4
							h5v2.6h-0.8l0.3,0.3c-0.3,0.5-0.6,0.8-1.5,2.2c0.7,0.5,1.4,0.9,2.7,1.3l-1.1,1.3c-0.3-0.1-0.5-0.2-0.8-0.4v1.1h-3.6v2.3
							c0,0.7-0.7,0.8-2.3,1l-0.7-1.7c0.7,0,0.8,0,1,0c0.4,0,0.5-0.1,0.5-0.4v-1.3h-3.8v-1c-0.5,0.2-0.7,0.3-0.8,0.3l-1-1.2
							c0.7-0.1,1.3-0.2,2.1-0.7c-0.2-0.2-0.4-0.4-0.7-0.7c-0.1,0.1-0.3,0.2-0.4,0.3l-1-1.1c1.9-1,2.4-1.9,2.9-2.9l0.8,0.2
							c0.2,0.1,0.7,0.2,0.7,0.4c0,0.1-0.1,0.2-0.3,0.2h1.9l0.3,0.4c-0.5,1.2-1.1,2-1.5,2.5h3.3c-0.6-0.8-1.2-1.5-2-3.2l1.4-0.6
							c0.3,1,0.7,1.6,0.8,1.8L185.8,367.6L185.8,367.6z M181.6,374.6c0,0,0.4,0.2,0.4,0.4c0,0.1-0.1,0.1-0.2,0.1
							c-0.2,0-0.2,0-0.4,0.3c-0.8,1-1.4,1.4-1.8,1.8l-1.2-1.1c1.2-0.8,1.6-1.3,2.3-2.1L181.6,374.6L181.6,374.6z M179.9,369.5
							c-0.2,0.2-0.2,0.2-0.3,0.3c0.3,0.2,0.5,0.5,0.8,0.7c0.1-0.1,0.2-0.2,0.3-0.3C180.3,369.8,180.1,369.7,179.9,369.5L179.9,369.5
							z M181.7,371.2c-0.7,0.6-1.1,0.9-1.7,1.3h8.1c-0.6-0.4-1.2-0.8-2-1.5v0.8h-4.5L181.7,371.2L181.7,371.2z M180.7,368.7
							l-0.1,0.1c0.2,0.2,0.4,0.3,0.8,0.7c0.2-0.3,0.4-0.5,0.5-0.8H180.7L180.7,368.7z M187.9,376.9c-0.9-1-1.4-1.5-2.1-2.1l1.2-0.9
							c1,0.8,1.6,1.4,2.2,2L187.9,376.9z M186,368.7c0.2,0.3,0.4,0.5,0.6,0.7c0.2-0.2,0.3-0.4,0.5-0.7H186L186,368.7z"/>
					</g>
					<g>
						<path class="st17" d="M107.5,548.8c-0.1,0.1-0.1,0.1-0.1,0.2c0,2.7,0,2.9-0.1,3.6c-0.4,3-2.1,4.4-3.1,5.3l-1.6-1.2
							c1.4-0.8,3.1-2,3.1-5.7c0-1.3-0.1-2.3-0.2-2.8l1.8,0.1c0.3,0,0.4,0.1,0.4,0.2C107.7,548.7,107.7,548.7,107.5,548.8
							L107.5,548.8z M110.2,557.9l-1.2-1v-8.8l1.7,0.2c0.1,0,0.4,0,0.4,0.2c0,0.1,0,0.1-0.2,0.2c0,0-0.2,0.2-0.2,0.2v6.4
							c1.2-0.7,2.9-2.3,3.9-3.7l1,1.5C114.1,554.9,111.9,556.9,110.2,557.9L110.2,557.9z"/>
						<path class="st17" d="M123.8,559.5c-2.2-1.4-4.5-2.5-7.2-3.3l0.4-1.6c3.4,0.9,5.6,2,7.2,3.1L123.8,559.5z M123.3,550.6
							c-1.8-1.2-3.9-1.8-6-2.2l0.3-1.7c2.2,0.4,4.6,1.3,6.2,2.1L123.3,550.6z M122.7,554.5c-1.7-1.1-3.9-1.8-5-2.1l0.4-1.6
							c1.6,0.4,3.9,1.3,5,2L122.7,554.5L122.7,554.5z"/>
						<path class="st17" d="M134.5,551.6c-0.7,0.8-1.2,1.4-2.6,2.5v5.3h-1.7v-4.1c-1.2,0.7-2,1.2-3.5,1.7l-1-1.4
							c3.2-0.9,5.8-2.9,6.8-4.3H127v-1.5h6.8c0.2,0,0.4-0.1,0.5-0.2l1.2,1.3C134.9,551.2,134.6,551.5,134.5,551.6L134.5,551.6z
							 M132.1,549.5c-0.8-0.5-1.6-1-3-1.5l0.7-1.4c1.1,0.4,2.1,0.9,3.1,1.6L132.1,549.5L132.1,549.5z M135.4,557.2
							c-0.8-1-1.6-1.6-2.8-2.3l1-1.1c1.6,0.7,2.4,1.5,3,2.1L135.4,557.2L135.4,557.2z"/>
						<path class="st17" d="M138,557.7v-1.7h4.4v-5.9h-3.3v-1.7h8.5v1.7h-3.4v5.9h4.4v1.7H138L138,557.7z"/>
						<path class="st17" d="M160.2,558.3c-1.3-1.6-2.4-2.7-3.5-3.6c-1.2,1.3-2.2,2.4-5,3.7l-1.3-1.3c1-0.4,2.8-1.2,4.6-3.2
							c1.6-1.7,2.1-3.2,2.5-4H152v-1.7h6.3c0.3,0,0.5-0.2,0.8-0.3l1.1,1.2c-0.3,0.2-0.6,0.5-0.8,0.9c-0.5,1.2-0.8,1.8-1.7,3.3
							c1.4,1.1,2.7,2.3,3.9,3.6L160.2,558.3L160.2,558.3z"/>
						<path class="st17" d="M170.3,555.4c-1.1-1-2.5-2.2-4.3-2.9v6.3h-1.7v-11.5l1.8,0.3c0,0,0.4,0.1,0.4,0.2c0,0.1-0.4,0.3-0.4,0.4
							v3.8l0.7-1.1c0.7,0.3,1.2,0.5,2.5,1.3c1.1,0.8,1.7,1.2,2.3,1.8L170.3,555.4L170.3,555.4z"/>
						<path class="st17" d="M177.5,552.3v1h1.9v1.4h-1.9c0.5,0.7,1.2,1.4,1.7,1.7l-0.9,1.1c-0.4-0.2-0.6-0.5-0.7-0.7v2.6h-1.6v-2.8
							c-0.4,0.7-1,1.5-1.6,2l-1.3-0.8c1-0.8,1.8-1.7,2.3-3h-1.7v-1.4h2.3v-1h-2.5v-1.3h1.5c-0.1-0.3-0.3-1.1-0.5-1.6h-0.7V548h2.3
							v-1.2l1.6,0.2c0.2,0,0.3,0.1,0.3,0.1s-0.1,0.2-0.1,0.2c0,0-0.1,0.1-0.1,0.2v0.6h1.9v1.3h-0.5c-0.2,0.6-0.3,1-0.6,1.6h1.2v1.3
							L177.5,552.3L177.5,552.3z M176,549.3c0.2,0.5,0.4,1,0.5,1.6h0.5c0.1-0.3,0.3-1,0.5-1.6H176L176,549.3z M185.5,548.5
							c-0.1,0-0.5,0.1-0.6,0.1c-0.1,0-1.7,0.4-3.2,0.5c0,0.5,0,0.7,0,1.8h4.1v1.6h-1.3v6.7h-1.5v-6.7h-1.3c-0.2,3.6-0.5,5-1.8,6.8
							l-1.5-0.5c0.5-0.5,0.8-0.9,1.1-1.7c0.6-1.5,0.7-3.2,0.7-5.5c0-1.3,0-2.6-0.1-3.9l0.9,0.1c0.2,0,0.4,0,0.4,0
							c2.3-0.5,2.6-0.5,3.4-0.8l0.9,1c0,0.1,0.1,0.2,0.1,0.3C185.9,548.5,185.8,548.5,185.5,548.5L185.5,548.5z"/>
						<path class="st17" d="M196.8,552l-0.4,0.8h3.2v6.5H198v-0.6h-3.7v0.6h-1.7v-6.6h2l0.4-0.8h-3.3v-1.1c-0.5,0.8-0.6,1-0.9,1.4
							c0.3,0.1,0.5,0.2,0.5,0.4c0,0.1-0.1,0.2-0.2,0.3c-0.1,0.1-0.2,0.2-0.2,0.2v6.2h-1.6v-5.1c-0.1,0.1-0.2,0.3-0.6,0.7l-1.3-1.1
							c1.1-1.2,2.2-2.5,3.1-4.4l1.2,0.5c0.2,0.1,0.5,0.2,0.5,0.3c0,0.1-0.1,0.2-0.2,0.2c-0.2,0.1-0.2,0.1-0.3,0.2h8.2v1.3H196.8
							L196.8,552z M198.6,550.3v-0.9h-8.8v1h-1.7v-2.3h5.1v-1.3l1.2,0.1c0.1,0,0.9,0,0.9,0.2c0,0.2-0.1,0.2-0.2,0.3v0.7h5.1v2.2
							L198.6,550.3L198.6,550.3z M198,554.2h-3.7v1h3.7V554.2z M198,556.5h-3.7v1h3.7V556.5z"/>
					</g>
					<g>
						<path class="st17" d="M382.7,148.9v1.3h2.7v6.5h-1.2v-0.4h-5.9v0.4H377v-6.6h2.6v-1.3h-3v-1.1h9.4v1.1L382.7,148.9
							L382.7,148.9z M384.2,153.1c-0.2,0.6-0.6,0.9-1,0.9h-1c-0.6,0-0.7-0.5-0.7-0.9v-1.8h-0.8c0,0.6,0,1.2-0.4,2
							c-0.3,0.6-0.6,0.9-1,1.2l-1.1-0.7c0.3-0.2,0.7-0.4,1-0.9c0.3-0.6,0.3-1.1,0.4-1.5h-1.4v3.9h5.9V153.1L384.2,153.1z
							 M381.5,148.9h-0.8v1.3h0.8V148.9z M384.2,151.4h-1.5v1.3c0,0.2,0,0.2,0.2,0.2c0.2,0,0.3-0.1,0.4-0.7l0.8,0.4V151.4z"/>
						<path class="st17" d="M396.2,156.9c-1-0.5-1.5-0.9-2.2-1.7c-0.8,0.8-1.5,1.2-2.5,1.7l-1-0.9c1.1-0.4,1.9-0.8,2.8-1.8
							c-0.5-0.8-0.6-1.3-0.8-2.1c-0.1,0.2-0.3,0.5-0.4,0.5l-1.1-0.5c0.1-0.2,0.2-0.2,0.3-0.4h-2.4v2c0,0.4,0.1,0.5,0.4,0.5h1.1
							c0.3,0,0.3,0,0.4-0.3c0.1-0.3,0.1-0.4,0.2-0.8l1,0.4c-0.3,1.3-0.6,1.8-1.6,1.8h-1.6c-0.6,0-1.1-0.5-1.1-1.3v-3.4h2.6v-1.3
							h-2.6v-1.1h3.8v3.2c0.3-0.5,0.5-1,0.8-2c0.2-0.8,0.3-1.4,0.4-1.9l1.2,0.3c0.1,0,0.2,0.1,0.2,0.1c0,0,0,0.1-0.1,0.1
							c-0.1,0.1-0.1,0.1-0.2,0.2c-0.1,0.4-0.1,0.5-0.2,0.9h3.2v1.2H396c-0.3,2-0.7,3-1.3,4c0.7,0.9,1.8,1.5,2.4,1.8L396.2,156.9
							L396.2,156.9z M393.2,150.2c0.1,1,0.2,2.1,0.8,3c0.6-1,0.8-2,0.9-3H393.2z"/>
						<path class="st17" d="M402.4,153.7c-0.3-0.3-0.6-0.6-0.9-1v4.2h-1.2v-3.7c-0.3,0.7-0.7,1.3-1.2,2l-1.1-0.7c1.1-1.3,1.7-3,2-4
							h-1.5v-1.3h1.9v-1.7l1.2,0.1c0.2,0,0.3,0,0.3,0.1c0,0,0,0.1-0.1,0.1c-0.1,0.1-0.2,0.1-0.2,0.2v1.2h1.7v1.3h-1.7
							c0.2,0.7,0.7,1.6,1.7,2.4L402.4,153.7L402.4,153.7z M406.7,156.8h-2.1c-1,0-1-0.9-1-1.2v-8.2l1.2,0.1c0.2,0,0.3,0,0.3,0.1
							c0,0,0,0.1-0.1,0.1c-0.1,0.1-0.1,0.1-0.1,0.2v7.1c0,0.4,0.1,0.5,0.5,0.5h0.9c0.4,0,0.6-0.2,0.7-1.3l1.2,0.5
							C408,156.6,407.5,156.8,406.7,156.8L406.7,156.8z"/>
					</g>
					<g>
						<path class="st17" d="M405.1,54.5v1.8h3.5V65H407v-0.5h-7.9v0.6h-1.6v-8.8h3.4v-1.8h-4V53h12.5v1.5H405.1L405.1,54.5z
							 M407,60.1c-0.2,0.8-0.8,1.2-1.3,1.2h-1.3c-0.8,0-1-0.7-1-1.2v-2.3h-1c0,0.8,0,1.6-0.5,2.7c-0.4,0.8-0.8,1.2-1.3,1.6l-1.5-1
							c0.4-0.3,0.9-0.6,1.3-1.2c0.4-0.8,0.5-1.5,0.5-2.1h-1.8V63h7.9V60.1L407,60.1z M403.5,54.5h-1v1.8h1V54.5z M407,57.8h-1.9v1.8
							c0,0.2,0.1,0.3,0.3,0.3c0.3,0,0.4-0.2,0.5-1l1.1,0.5L407,57.8L407,57.8z"/>
						<path class="st17" d="M421.1,63.9V63h-7.3V64h-1.8v-9.9H423v9.8H421.1L421.1,63.9z M421.1,55.7h-7.3v5.7h7.3V55.7z"/>
					</g>
					<g>
						<path class="st17" d="M408.1,476.7c-1.8-0.9-2.8-1.7-4.2-3.1v3.4h-1.7v-3.4c-0.8,0.8-1.9,2-4.3,3.2l-1.3-1.2
							c1.6-0.6,2.7-1.2,4.4-3h-2.7v-4.8h3.8V467h-5.3v-1.4h5.3v-1.2l1.8,0.1c0.2,0,0.2,0.1,0.2,0.2c0,0-0.1,0.1-0.1,0.1
							c-0.1,0.1-0.2,0.1-0.2,0.2v0.6h5.3v1.4h-5.3v0.8h3.8v4.8H405c1,1,2,1.7,4.3,2.8L408.1,476.7L408.1,476.7z M402.2,468.9h-2.1
							v0.7h2.1V468.9z M402.2,470.7h-2.1v0.7h2.1V470.7z M406.1,468.9H404v0.7h2.2V468.9z M406.1,470.7H404v0.7h2.2V470.7z"/>
						<path class="st17" d="M421.1,475.7v-0.8h-7.3v0.9h-1.8v-9.9H423v9.8L421.1,475.7L421.1,475.7z M421.1,467.6h-7.3v5.7h7.3
							V467.6z"/>
					</g>
					<rect x="372.5" y="418.3" class="st2" width="38.9" height="16.1"/>
					<rect x="108.4" y="469.4" class="st2" width="61.9" height="16.1"/>
					<g>
						<path class="st17" d="M385,431.3c-1.3-0.7-2.1-1.2-3.1-2.3v2.5h-1.3v-2.6c-0.6,0.6-1.4,1.5-3.2,2.4l-1-0.9
							c1.2-0.4,2-0.9,3.3-2.2h-2v-3.6h2.8V424h-4v-1h4v-0.9l1.3,0.1c0.1,0,0.2,0.1,0.2,0.1c0,0,0,0.1-0.1,0.1
							c-0.1,0.1-0.1,0.1-0.1,0.2v0.5h4v1h-4v0.6h2.9v3.6h-2.1c0.7,0.7,1.5,1.3,3.2,2.1L385,431.3L385,431.3z M380.5,425.4h-1.6v0.5
							h1.6V425.4z M380.5,426.8h-1.6v0.5h1.6V426.8z M383.5,425.4h-1.6v0.5h1.6V425.4z M383.5,426.8h-1.6v0.5h1.6V426.8z"/>
						<path class="st17" d="M396.2,431.5c-1-0.5-1.5-0.9-2.2-1.7c-0.8,0.8-1.5,1.2-2.5,1.7l-1-0.9c1.1-0.4,1.9-0.8,2.8-1.8
							c-0.5-0.8-0.6-1.3-0.8-2.1c-0.1,0.2-0.3,0.5-0.4,0.5l-1.1-0.5c0.1-0.2,0.2-0.2,0.3-0.4h-2.4v2c0,0.4,0.1,0.5,0.4,0.5h1.1
							c0.3,0,0.3,0,0.4-0.3c0.1-0.3,0.1-0.4,0.2-0.8l1,0.4c-0.3,1.3-0.6,1.8-1.6,1.8h-1.6c-0.6,0-1.1-0.5-1.1-1.3v-3.4h2.6V424h-2.6
							v-1.1h3.8v3.2c0.3-0.5,0.5-1,0.8-2c0.2-0.8,0.3-1.4,0.4-1.9l1.2,0.3c0.1,0,0.2,0.1,0.2,0.1c0,0,0,0.1-0.1,0.1
							c-0.1,0.1-0.1,0.1-0.2,0.2c-0.1,0.4-0.1,0.5-0.2,0.9h3.2v1.2H396c-0.3,2-0.7,3-1.3,4c0.7,0.9,1.8,1.5,2.4,1.8L396.2,431.5
							L396.2,431.5z M393.2,424.9c0.1,1,0.2,2.1,0.8,3c0.6-1,0.8-2,0.9-3H393.2z"/>
						<path class="st17" d="M402.4,428.4c-0.3-0.3-0.6-0.6-0.9-1v4.2h-1.2v-3.7c-0.3,0.7-0.7,1.3-1.2,2l-1.1-0.7c1.1-1.3,1.7-3,2-4
							h-1.5v-1.3h1.9V422l1.2,0.1c0.2,0,0.3,0,0.3,0.1c0,0,0,0.1-0.1,0.1c-0.1,0.1-0.2,0.1-0.2,0.2v1.2h1.7v1.3h-1.7
							c0.2,0.7,0.7,1.6,1.7,2.4L402.4,428.4L402.4,428.4z M406.7,431.4h-2.1c-1,0-1-0.9-1-1.2v-8.2l1.2,0.1c0.2,0,0.3,0,0.3,0.1
							c0,0,0,0.1-0.1,0.1c-0.1,0.1-0.1,0.1-0.1,0.2v7.1c0,0.4,0.1,0.5,0.5,0.5h0.9c0.4,0,0.6-0.2,0.7-1.3l1.2,0.5
							C408,431.2,407.5,431.4,406.7,431.4L406.7,431.4z"/>
					</g>
					<g>
						<path class="st17" d="M120.5,479.4V479H118v3.1h-1.3V479h-2.5v0.5H113v-4.9h3.8v-1.9l1.4,0.1c0.1,0,0.2,0,0.2,0.1
							c0,0.1-0.1,0.1-0.1,0.2c-0.1,0-0.1,0.1-0.1,0.2v1.3h3.8v4.9L120.5,479.4L120.5,479.4z M116.7,475.7h-2.5v2h2.5V475.7z
							 M120.5,475.7H118v2h2.5V475.7z"/>
						<path class="st17" d="M132.2,482.3c-2.8-1-3.6-2.6-3.9-3.2c-0.3,0.8-1,2.4-3.9,3.2l-0.9-1.2c0.8-0.1,1.6-0.3,2.3-0.8
							c0.9-0.6,1.2-1.3,1.3-1.6h-3.6v-1.1h0.8v-3.2h3.2c0-0.9,0-1.2,0-1.7l1.2,0c0.2,0,0.4,0,0.4,0.2c0,0.1,0,0.1-0.1,0.2
							c-0.1,0.1-0.1,0.1-0.1,0.2c0,0.3,0,0.8,0,1.1h3.3v3.2h0.8v1.1h-3.5c0.6,1.3,1.9,2.2,3.7,2.5L132.2,482.3L132.2,482.3z
							 M125.6,475.5v2.1h1.9c0.1-0.8,0.1-1.2,0.1-2.1H125.6z M131,475.5h-2.1c0,0.4,0,1.3-0.1,2.1h2.2V475.5z"/>
						<path class="st17" d="M143,481.9c-1.4-0.7-2.1-1.2-3.1-2.3v2.5h-1.3v-2.6c-0.6,0.6-1.4,1.5-3.2,2.4l-1-0.9
							c1.2-0.4,2-0.9,3.3-2.2h-2v-3.6h2.9v-0.6h-4v-1h4v-0.9l1.3,0.1c0.1,0,0.2,0.1,0.2,0.1c0,0,0,0.1-0.1,0.1
							c-0.1,0.1-0.1,0.1-0.1,0.2v0.5h4v1h-4v0.6h2.9v3.6h-2.1c0.7,0.7,1.5,1.3,3.2,2.1L143,481.9L143,481.9z M138.5,476h-1.6v0.5
							h1.6V476z M138.5,477.4h-1.6v0.5h1.6V477.4z M141.5,476h-1.6v0.5h1.6V476z M141.5,477.4h-1.6v0.5h1.6V477.4z"/>
						<path class="st17" d="M154.1,482.1c-1-0.5-1.5-0.9-2.2-1.7c-0.8,0.8-1.5,1.2-2.5,1.7l-1-0.9c1.1-0.4,1.9-0.8,2.8-1.8
							c-0.5-0.8-0.6-1.3-0.8-2.1c-0.1,0.2-0.3,0.5-0.4,0.5l-1.1-0.5c0.1-0.2,0.2-0.2,0.3-0.4h-2.4v2c0,0.4,0.1,0.5,0.4,0.5h1.1
							c0.3,0,0.4,0,0.4-0.3c0.1-0.3,0.1-0.4,0.2-0.8l1,0.4c-0.3,1.3-0.6,1.8-1.6,1.8h-1.6c-0.6,0-1.1-0.5-1.1-1.3v-3.4h2.6v-1.3
							h-2.6v-1.1h3.8v3.2c0.3-0.5,0.5-1,0.9-2c0.2-0.8,0.3-1.4,0.4-1.9l1.2,0.3c0.1,0,0.2,0.1,0.2,0.1c0,0,0,0.1-0.1,0.1
							c-0.1,0.1-0.1,0.1-0.2,0.2c-0.1,0.4-0.1,0.5-0.2,0.9h3.2v1.2H154c-0.3,2-0.7,3-1.3,4c0.7,0.9,1.9,1.5,2.4,1.8L154.1,482.1
							L154.1,482.1z M151.2,475.5c0.1,1,0.2,2.1,0.8,3c0.6-1,0.8-2,0.9-3H151.2L151.2,475.5z"/>
						<path class="st17" d="M160.3,479c-0.3-0.3-0.6-0.6-0.9-1v4.2h-1.2v-3.7c-0.3,0.7-0.7,1.3-1.2,2l-1.1-0.7c1.1-1.3,1.7-3,2-4
							h-1.5v-1.3h1.9v-1.7l1.2,0.1c0.2,0,0.3,0,0.3,0.1c0,0,0,0.1-0.1,0.1c-0.1,0.1-0.1,0.1-0.1,0.2v1.2h1.6v1.3h-1.6
							c0.2,0.7,0.7,1.6,1.7,2.4L160.3,479L160.3,479z M164.7,482h-2.1c-1,0-1-0.9-1-1.2v-8.2l1.2,0.1c0.2,0,0.3,0,0.3,0.1
							c0,0,0,0.1-0.1,0.1c-0.1,0.1-0.1,0.1-0.1,0.2v7.1c0,0.4,0.1,0.5,0.5,0.5h0.9c0.4,0,0.6-0.2,0.7-1.3l1.1,0.5
							C165.9,481.8,165.5,482,164.7,482L164.7,482z"/>
					</g>
					<g>
						<defs>
							<rect id="SVGID_00000036218617515167639650000003600022212606227120_" x="0.3" y="0" width="454.2" height="578.1"/>
						</defs>
						<clipPath id="SVGID_00000106832959912723576750000008925212512778962577_">
							<use xlink:href="#SVGID_00000036218617515167639650000003600022212606227120_"  style="overflow:visible;"/>
						</clipPath>
						<g style="clip-path:url(#SVGID_00000106832959912723576750000008925212512778962577_);">
							<line class="st12" x1="39.9" y1="15.9" x2="-37.7" y2="15.9"/>
							<polyline class="st12" points="267.1,564.2 277.1,564.2 277.1,600.9 							"/>
						</g>
					</g>
					<line class="st15" x1="115.7" y1="316.5" x2="115.7" y2="332.2"/>
					<line class="st15" x1="109.7" y1="316.5" x2="109.7" y2="332.2"/>
					<line class="st15" x1="103.7" y1="316.5" x2="103.7" y2="332.2"/>
					<line class="st15" x1="97.8" y1="316.5" x2="97.8" y2="332.2"/>
					<line class="st15" x1="91.8" y1="316.5" x2="91.8" y2="332.2"/>
					<line class="st12" x1="93.5" y1="46.8" x2="93.5" y2="62.6"/>
					<line class="st12" x1="88.2" y1="46.8" x2="88.2" y2="62.6"/>
					<line class="st12" x1="83" y1="46.8" x2="83" y2="62.6"/>
					<line class="st12" x1="227.8" y1="328" x2="254" y2="328"/>
					<line class="st12" x1="78.9" y1="62.2" x2="98.5" y2="62.2"/>
					<line class="st12" x1="71" y1="46.9" x2="98.5" y2="46.9"/>
					<polygon class="st11" points="351.9,163 364.9,163 364.9,138.4 351.7,138.4 					"/>
					<polygon class="st12" points="351.9,163 364.9,163 364.9,138.4 351.7,138.4 					"/>
					<line class="st12" x1="346.4" y1="144.4" x2="346.4" y2="157.3"/>
					<line class="st12" x1="340.4" y1="144.4" x2="340.4" y2="157.3"/>
					<line class="st12" x1="334.5" y1="144.4" x2="334.5" y2="157.3"/>
					<line class="st12" x1="328.5" y1="144.4" x2="328.5" y2="157.3"/>
					<line class="st12" x1="322.6" y1="144.4" x2="322.6" y2="157.3"/>
					<line class="st12" x1="317.4" y1="144.9" x2="351.5" y2="144.9"/>
					<line class="st12" x1="317.4" y1="157.8" x2="351.5" y2="157.8"/>
					<line class="st12" x1="345.8" y1="70" x2="345.8" y2="82.9"/>
					<line class="st12" x1="339.9" y1="70" x2="339.9" y2="82.9"/>
					<line class="st12" x1="333.9" y1="70" x2="333.9" y2="82.9"/>
					<line class="st12" x1="328" y1="70" x2="328" y2="82.9"/>
					<line class="st12" x1="322" y1="70" x2="322" y2="82.9"/>
					<line class="st12" x1="316.8" y1="70.5" x2="351" y2="70.5"/>
					<line class="st12" x1="316.8" y1="83.5" x2="351" y2="83.5"/>
					<rect x="103.1" y="111.7" class="st19" width="29.7" height="26.4"/>
					<rect x="103.1" y="111.7" class="st12" width="29.7" height="26.4"/>
					<rect x="212.6" y="111.7" class="st19" width="40.5" height="44.7"/>
					<rect x="212.6" y="111.7" class="st12" width="40.5" height="44.7"/>
					<line class="st12" x1="235.7" y1="252.3" x2="235.7" y2="270.3"/>
					<line class="st12" x1="229.8" y1="252.3" x2="229.8" y2="270.3"/>
					<line class="st12" x1="223.8" y1="252.3" x2="223.8" y2="270.3"/>
					<line class="st12" x1="217.9" y1="252.3" x2="217.9" y2="270.3"/>
					<line class="st12" x1="211.9" y1="252.3" x2="211.9" y2="270.3"/>
					<line class="st12" x1="97.9" y1="111.7" x2="97.9" y2="123.7"/>
					<line class="st12" x1="92.4" y1="111.7" x2="92.4" y2="123.7"/>
					<line class="st12" x1="86.8" y1="111.7" x2="86.8" y2="123.7"/>
					<line class="st12" x1="82.9" y1="111.7" x2="103.1" y2="111.7"/>
					<line class="st12" x1="74.3" y1="123" x2="103.1" y2="123"/>
					<line class="st12" x1="207.5" y1="111.7" x2="207.5" y2="123.7"/>
					<line class="st12" x1="201.9" y1="111.7" x2="201.9" y2="123.7"/>
					<line class="st12" x1="196.4" y1="111.7" x2="196.4" y2="123.7"/>
					<line class="st12" x1="192.5" y1="111.7" x2="212.6" y2="111.7"/>
					<line class="st12" x1="183.9" y1="123" x2="212.6" y2="123"/>
					<line class="st12" x1="243.4" y1="171.3" x2="243.4" y2="184.1"/>
					<line class="st12" x1="237.4" y1="171.3" x2="237.4" y2="184.1"/>
					<line class="st12" x1="231.4" y1="171.3" x2="231.4" y2="184.1"/>
					<line class="st12" x1="225.5" y1="171.3" x2="225.5" y2="184.1"/>
					<line class="st12" x1="219.5" y1="171.3" x2="219.5" y2="184.1"/>
					<line class="st12" x1="92.1" y1="171.3" x2="92.1" y2="184.1"/>
					<line class="st12" x1="86.1" y1="171.3" x2="86.1" y2="184.1"/>
					<line class="st12" x1="80.1" y1="171.3" x2="80.1" y2="184.1"/>
					<line class="st12" x1="74.2" y1="171.3" x2="74.2" y2="184.1"/>
					<line class="st12" x1="68.2" y1="171.3" x2="68.2" y2="184.1"/>
					<line class="st12" x1="206.3" y1="270.4" x2="254.3" y2="270.4"/>
					<polygon class="st19" points="225.6,184 225.6,171.3 253.1,171.3 253.1,130 37,130 48.7,171.3 92.1,171.3 92.1,184 52.3,184 
						87.5,307.4 253.1,307.4 253.1,276.3 205.6,276.3 205.6,253 253.1,253 253.1,184 					"/>
					<polygon class="st12" points="225.6,184 225.6,171.3 253.1,171.3 253.1,130 37,130 48.7,171.3 92.1,171.3 92.1,184 52.3,184 
						87.5,307.4 253.1,307.4 253.1,276.3 205.6,276.3 205.6,253 253.1,253 253.1,184 					"/>
					<rect x="206.3" y="270.4" class="st19" width="16.7" height="5.5"/>
					<rect x="206.3" y="270.4" class="st15" width="16.7" height="5.5"/>
					<rect x="94.1" y="233.8" class="st2" width="129.9" height="1.3"/>
					<polygon class="st2" points="224,203.5 224,202.1 192.3,191.8 192.3,180.7 127.8,201.6 127.8,192.6 127.8,192.6 160,182.2 
						160,180.7 94.1,202.1 94.1,203.5 126.3,193 126.3,203.5 158.6,193 158.6,203.5 160,203.5 160,192.6 160.1,192.6 190.9,182.6 
						190.9,203.5 192.3,203.5 192.3,193.2 192.4,193.3 					"/>
					<g>
						<defs>
							<rect id="SVGID_00000092423170000704898110000014349091593808527784_" x="0.3" y="0" width="454.2" height="578.1"/>
						</defs>
						<clipPath id="SVGID_00000067223839613478423100000000554426628444494246_">
							<use xlink:href="#SVGID_00000092423170000704898110000014349091593808527784_"  style="overflow:visible;"/>
						</clipPath>
						<g style="clip-path:url(#SVGID_00000067223839613478423100000000554426628444494246_);">
							<path class="st2" d="M134.3,217.2c-2.5,0-4.5,2-4.5,4.5s2,4.5,4.5,4.5s4.5-2,4.5-4.5S136.8,217.2,134.3,217.2 M134.3,224.9
								c-1.7,0-3.2-1.4-3.2-3.2s1.4-3.2,3.2-3.2s3.2,1.4,3.2,3.2S136,224.9,134.3,224.9"/>
							<polygon class="st2" points="224,212.7 224,211.4 217,211.4 217,225.9 224,225.9 224,224.6 218.4,224.6 218.4,218.8 
								223.3,218.8 223.3,217.4 218.4,217.4 218.4,212.7 							"/>
							<polygon class="st2" points="94.1,225.9 101,225.9 101,224.6 95.5,224.6 95.5,218.8 100.4,218.8 100.4,217.5 95.5,217.5 
								95.5,212.7 101,212.7 101,211.4 94.1,211.4 							"/>
							<polygon class="st2" points="119.2,212.7 122.8,212.7 122.8,225.9 124.2,225.9 124.2,212.7 127.8,212.7 127.8,211.4 
								119.2,211.4 							"/>
							<polygon class="st2" points="150.4,211.4 149,211.4 149,225.9 156,225.9 156,224.6 150.4,224.6 							"/>
							<rect x="193.6" y="211.4" class="st2" width="1.4" height="14.5"/>
							<polygon class="st2" points="181.8,216.3 177.3,211.4 177.3,211.4 175.8,211.4 175.8,225.9 177.2,225.9 177.2,213.2 
								181.8,218.2 186.5,213.3 186.5,225.9 187.9,225.9 187.9,211.4 186.4,211.4 							"/>
							<path class="st2" d="M168.7,221.4c0,2-1.6,3.5-3.6,3.5l0,0c-2,0-3.6-1.5-3.6-3.5v-10h-1.4v10c0,2.7,2.2,4.9,5,4.9l0,0
								c2.8,0,5-2.2,5-4.9v-10h-1.4L168.7,221.4L168.7,221.4z"/>
							<polygon class="st2" points="209.9,217 202.2,211.4 200.8,211.4 200.8,225.9 202.2,225.9 202.2,213 209.9,218.7 209.9,225.9 
								211.3,225.9 211.3,211.4 209.9,211.4 							"/>
							<path class="st2" d="M110.2,211.4l-5.4,14.5l0,0.1h1.5l1.3-3.4h6.9l1.3,3.4h1.5l-5.5-14.5H110.2L110.2,211.4z M108,221.2
								l2.9-7.9l3,7.9H108z"/>
							<line class="st12" x1="365.6" y1="44.6" x2="365.6" y2="-275.1"/>
							<polygon class="st19" points="259.1,149.4 266.6,154.8 266.6,144 							"/>
							<polygon class="st19" points="147,122.1 152.4,114.6 141.6,114.6 							"/>
							<polygon class="st19" points="259.1,216.3 266.6,221.6 266.6,210.9 							"/>
							<polygon class="st19" points="65.1,256.5 57.6,261.9 57.6,251.2 							"/>
							<line class="st15" x1="409.9" y1="34.3" x2="409.9" y2="47.9"/>
							<polyline class="st15" points="415.4,38.6 409.9,34.3 404.4,38.6 							"/>
							<line class="st15" x1="409.9" y1="495.7" x2="409.9" y2="482"/>
							<polyline class="st15" points="415.4,491.4 409.9,495.7 404.4,491.4 							"/>
						</g>
					</g>
					<g>
						<path class="st17" d="M8.7-30.2c-0.2,0-0.2,0-0.4,0.3c-0.7,0.8-1.5,1.6-2.4,2.3v7.8H4v-6.4c-1,0.7-2,1.3-3.7,2.1l-1.3-1.3
							c3-1.2,6.2-3.6,8.4-6.2l1.3,1c0.1,0,0.2,0.2,0.2,0.4C9.1-30.2,9-30.2,8.7-30.2L8.7-30.2z"/>
						<path class="st17" d="M20.6-30.2c-0.2,0-0.2,0-0.4,0.3c-0.7,0.8-1.5,1.6-2.4,2.3v7.8h-1.8v-6.4c-1,0.7-2,1.3-3.7,2.1L11-25.5
							c3-1.2,6.2-3.6,8.4-6.2l1.3,1c0.1,0,0.2,0.2,0.2,0.4C20.9-30.2,20.9-30.2,20.6-30.2L20.6-30.2z"/>
						<path class="st17" d="M30.1-23.3c-1.1-1-2.5-2.2-4.3-2.9v6.3h-1.7v-11.5l1.8,0.3c0,0,0.4,0.1,0.4,0.2c0,0.1-0.4,0.3-0.4,0.4
							v3.8l0.7-1.1c0.7,0.3,1.2,0.5,2.5,1.3c1.1,0.8,1.7,1.2,2.3,1.8L30.1-23.3z"/>
						<path class="st17" d="M37.4-29.9c-0.1,0.1-0.1,0.1-0.1,0.2c0,2.7,0,2.9-0.1,3.6c-0.4,3-2.1,4.4-3.1,5.3l-1.6-1.2
							c1.4-0.8,3.1-2,3.1-5.7c0-1.4-0.1-2.3-0.2-2.8l1.8,0.1c0.3,0,0.4,0.1,0.4,0.2C37.6-30.1,37.6-30.1,37.4-29.9L37.4-29.9z
							 M40.1-20.9l-1.2-1v-8.8l1.7,0.2c0.1,0,0.4,0,0.4,0.2c0,0.1,0,0.1-0.2,0.2c0,0-0.2,0.2-0.2,0.2v6.4c1.2-0.7,2.9-2.3,3.9-3.7
							l1,1.5C44.1-23.9,41.9-21.8,40.1-20.9L40.1-20.9z"/>
						<path class="st17" d="M53.7-19.2c-2.2-1.4-4.5-2.5-7.2-3.3l0.4-1.6c3.4,0.9,5.6,2,7.2,3.1L53.7-19.2z M53.2-28.2
							c-1.8-1.2-3.9-1.8-6-2.2l0.3-1.7c2.2,0.4,4.6,1.3,6.2,2.1L53.2-28.2L53.2-28.2z M52.7-24.3c-1.7-1.1-3.9-1.8-5-2.1l0.4-1.6
							c1.6,0.4,3.9,1.3,5.1,2L52.7-24.3L52.7-24.3z"/>
						<path class="st17" d="M64.4-27.1c-0.7,0.8-1.2,1.4-2.6,2.5v5.3h-1.7v-4.1c-1.2,0.7-2,1.2-3.5,1.7l-1-1.4
							c3.2-0.9,5.8-2.9,6.8-4.3h-5.5v-1.5h6.8c0.2,0,0.4-0.1,0.5-0.2l1.2,1.3C64.9-27.5,64.6-27.2,64.4-27.1L64.4-27.1z M62-29.3
							c-0.8-0.5-1.6-1-3-1.5l0.7-1.4c1.1,0.4,2.1,0.9,3.1,1.6L62-29.3L62-29.3z M65.3-21.6c-0.8-1-1.6-1.6-2.8-2.3l1-1.1
							c1.6,0.7,2.3,1.5,3,2.1L65.3-21.6L65.3-21.6z"/>
						<path class="st17" d="M77.3-19.4l-0.5-1.7H73v0.7h-1.6V-25h5.8v3.9h0.5c0.4,0,0.5-0.1,0.5-0.5v-8.7h-7.6v4.1
							c0,2.9-0.3,4-0.5,5c-0.2,0.7-0.4,1.1-0.7,1.7l-1.7-0.4c1-1.8,1.4-2.9,1.4-7.1c0-1.6,0-3.2-0.1-4.9h10.9v11.1
							C79.8-19.5,78.6-19.4,77.3-19.4L77.3-19.4z M71-25.7V-27h2.5v-1h-1.9v-1.3h1.9v-0.9l1.6,0.1c0.1,0,0.3,0,0.3,0.2
							c0,0.1-0.2,0.1-0.3,0.2v0.4h1.9v1.3h-1.9v1h2.4v1.3H71L71-25.7z M75.5-23.7H73v1.4h2.6V-23.7z"/>
						<path class="st17" d="M94.9-19.6h-6.3c-2.3,0-2.9-0.7-3.7-1.4c-0.8,0.7-1,0.8-1.3,1.1c-0.1,0.1-0.1,0.1-0.1,0.2
							c0,0.1-0.1,0.2-0.2,0.2c-0.1,0-0.2-0.1-0.3-0.3l-0.8-1.5c0.7-0.3,1.5-0.7,2.1-1.1v-3.1h-1.9v-1.6H86v3.9
							c2.3-1.7,2.8-3,2.9-6.9h-2.6v-1.7h8.6c0,1.9,0,6.1-0.6,8.2c-0.4,1.3-1.2,1.4-3.3,1.5l-0.7-1.9c0.9,0.1,1.5,0.2,1.6,0.2
							c0.5,0,0.8-0.2,1-1.2c0.3-1.8,0.3-4.2,0.3-5.1h-2.6c0,1.2,0,2.4-0.4,4c-0.5,2-1.4,2.9-2.5,4L86-23v0.3c0,1.1,0.2,1.7,3.6,1.7
							c1.7,0,4.5-0.2,6.2-0.5L94.9-19.6L94.9-19.6z M84.6-28.6c-0.5-0.9-1.5-1.7-2-2l1.2-1.2c0.8,0.6,1.5,1.3,2,2.2L84.6-28.6
							L84.6-28.6z"/>
						<path class="st17" d="M98.7-31.3h1.5l2.8,7.1l3-7.1h1.5l1.8,11.2h-2.1l-1-6.9l-2.9,6.9h-0.7L99.9-27l-1.1,6.9h-2.1L98.7-31.3
							L98.7-31.3z"/>
						<path class="st17" d="M117.4-22.5h-4.3l-0.9,2.4h-2.2l4.6-11.2h1.6l4.4,11.2h-2.2L117.4-22.5z M116.8-24.2l-1.5-4l-1.5,4
							H116.8L116.8-24.2z"/>
						<path class="st17" d="M124.9-31.3c1.2,0,2,0.1,2.8,0.9c0.9,0.8,1.1,1.9,1.1,2.7c0,0.4-0.1,1.6-0.9,2.5c-0.6,0.6-1.5,1-2.7,1
							h-1.3v4.1h-2.1v-11.2L124.9-31.3L124.9-31.3z M123.9-26.1h0.8c0.4,0,0.9,0,1.4-0.4c0.4-0.3,0.6-0.8,0.6-1.3
							c0-0.6-0.3-1-0.6-1.3c-0.4-0.3-1-0.4-1.5-0.4h-0.7L123.9-26.1L123.9-26.1z"/>
					</g>
					<path class="st21" d="M40.3,0h374.2c22.1,0,40,17.9,40,40v498.1c0,22.1-17.9,40-40,40H40.3c-22.1,0-40-17.9-40-40V40
						C0.3,17.9,18.2,0,40.3,0z"/>
				</g>
				<path class="st2" d="M134.3,217.2c-2.5,0-4.5,2-4.5,4.5s2,4.5,4.5,4.5s4.5-2,4.5-4.5S136.8,217.2,134.3,217.2 M134.3,224.9
					c-1.7,0-3.2-1.4-3.2-3.2s1.4-3.2,3.2-3.2s3.2,1.4,3.2,3.2S136,224.9,134.3,224.9"/>
				<polygon class="st2" points="224,212.7 224,211.4 217,211.4 217,225.9 224,225.9 224,224.6 218.4,224.6 218.4,218.8 
					223.3,218.8 223.3,217.4 218.4,217.4 218.4,212.7 				"/>
				<polygon class="st2" points="94.1,225.9 101,225.9 101,224.6 95.5,224.6 95.5,218.8 100.4,218.8 100.4,217.5 95.5,217.5 
					95.5,212.7 101,212.7 101,211.4 94.1,211.4 				"/>
				<polygon class="st2" points="119.2,212.7 122.8,212.7 122.8,225.9 124.2,225.9 124.2,212.7 127.8,212.7 127.8,211.4 
					119.2,211.4 				"/>
				<polygon class="st2" points="150.4,211.4 149,211.4 149,225.9 156,225.9 156,224.6 150.4,224.6 				"/>
				<rect x="193.6" y="211.4" class="st2" width="1.4" height="14.5"/>
				<polygon class="st2" points="181.8,216.3 177.3,211.4 177.3,211.4 175.8,211.4 175.8,225.9 177.2,225.9 177.2,213.2 
					181.8,218.2 186.5,213.3 186.5,225.9 187.9,225.9 187.9,211.4 186.4,211.4 				"/>
				<path class="st2" d="M168.7,221.4c0,2-1.6,3.5-3.6,3.5l0,0c-2,0-3.6-1.5-3.6-3.5v-10h-1.4v10c0,2.7,2.2,4.9,5,4.9l0,0
					c2.8,0,5-2.2,5-4.9v-10h-1.4L168.7,221.4L168.7,221.4z"/>
				<polygon class="st2" points="209.9,217 202.2,211.4 200.8,211.4 200.8,225.9 202.2,225.9 202.2,213 209.9,218.7 209.9,225.9 
					211.3,225.9 211.3,211.4 209.9,211.4 				"/>
				<path class="st2" d="M110.2,211.4l-5.4,14.5l0,0.1h1.5l1.3-3.4h6.9l1.3,3.4h1.5l-5.5-14.5H110.2L110.2,211.4z M108,221.2
					l2.9-7.9l3,7.9H108z"/>
				<line class="st12" x1="365.6" y1="44.6" x2="365.6" y2="-422.1"/>
				<polygon class="st19" points="259.1,149.4 266.6,154.8 266.6,144 				"/>
				<polygon class="st19" points="147,122.1 152.4,114.6 141.6,114.6 				"/>
				<polygon class="st19" points="259.1,216.3 266.6,221.6 266.6,210.9 				"/>
				<polygon class="st19" points="65.1,256.5 57.6,261.9 57.6,251.2 				"/>
				<line class="st15" x1="409.9" y1="34.3" x2="409.9" y2="47.9"/>
				<polyline class="st15" points="415.4,38.6 409.9,34.3 404.4,38.6 				"/>
				<line class="st15" x1="409.9" y1="495.7" x2="409.9" y2="482"/>
				<polyline class="st15" points="415.4,491.4 409.9,495.7 404.4,491.4 				"/>
			</g>
		</g>
		<g>
			<path class="st22" d="M148.5,263.6l-1.5,2l-1.5-2H148.5 M152.4,261.6h-10.7l5.4,7.5L152.4,261.6L152.4,261.6L152.4,261.6z"/>
			<line class="st23" x1="409.9" y1="181.3" x2="409.9" y2="194.9"/>
			<polyline class="st23" points="415.4,185.6 409.9,181.3 404.4,185.6 			"/>
		</g>
		<path class="st22" d="M414.5,2c21,0,38,17,38,38v498.1c0,21-17,38-38,38H40.3c-20.9,0-38-17-38-38V40c0-21,17.1-38,38-38L414.5,2
			 M414.5,0H40.3c-22.1,0-40,17.9-40,40v498.1c0,22.1,17.9,40,40,40h374.2c22.1,0,40-17.9,40-40V40C454.5,17.9,436.6,0,414.5,0
			L414.5,0L414.5,0z"/>
	</g>
</g>
</svg>
