<?xml version="1.0" encoding="UTF-8"?>
<svg id="_レイヤー_2" data-name="レイヤー 2" xmlns="http://www.w3.org/2000/svg" xmlns:xlink="http://www.w3.org/1999/xlink" viewBox="0 0 370.61 500">
  <defs>
    <style>
      .cls-1 {
        stroke: #cbcccb;
        stroke-width: 12px;
      }

      .cls-1, .cls-2, .cls-3, .cls-4, .cls-5 {
        fill: none;
      }

      .cls-1, .cls-2, .cls-4, .cls-5 {
        stroke-miterlimit: 10;
      }

      .cls-2 {
        stroke-width: 1.09px;
      }

      .cls-2, .cls-4 {
        stroke: #160058;
      }

      .cls-6 {
        clip-path: url(#clippath);
      }

      .cls-3, .cls-7, .cls-8, .cls-9, .cls-10, .cls-11, .cls-12 {
        stroke-width: 0px;
      }

      .cls-13, .cls-12 {
        fill: #fff;
      }

      .cls-14 {
        clip-path: url(#clippath-1);
      }

      .cls-15 {
        clip-path: url(#clippath-2);
      }

      .cls-4 {
        stroke-width: 1.45px;
      }

      .cls-7 {
        fill: url(#Unnamed_Pattern);
      }

      .cls-5 {
        stroke: #281575;
        stroke-width: 1.6px;
      }

      .cls-16 {
        opacity: .4;
      }

      .cls-8 {
        fill: #281575;
      }

      .cls-9 {
        fill: #160058;
      }

      .cls-10 {
        fill: #221815;
      }

      .cls-11 {
        fill: #dbdcdc;
      }
    </style>
    <clipPath id="clippath">
      <rect class="cls-12" width="370.61" height="500"/>
    </clipPath>
    <clipPath id="clippath-1">
      <rect class="cls-3" x="-137.47" y="13.76" width="433.57" height="383.31"/>
    </clipPath>
    <clipPath id="clippath-2">
      <rect class="cls-3" width="45" height="45"/>
    </clipPath>
    <pattern id="Unnamed_Pattern" data-name="Unnamed Pattern" x="0" y="0" width="45" height="45" patternTransform="translate(-5264.87 -5576.49) rotate(-45) scale(.09 -.09)" patternUnits="userSpaceOnUse" viewBox="0 0 45 45">
      <g>
        <rect class="cls-3" width="45" height="45"/>
        <g class="cls-15">
          <rect class="cls-12" width="45" height="45"/>
          <line class="cls-1" y1="22.5" x2="45" y2="22.5"/>
        </g>
      </g>
    </pattern>
  </defs>
  <g id="_レイヤー_1-2" data-name="レイヤー 1">
    <g>
      <rect class="cls-13" width="370.61" height="500"/>
      <g class="cls-6">
        <g>
          <rect class="cls-12" x="301.57" y="115.52" width="31.1" height="12.83"/>
          <polygon class="cls-12" points="4.31 13.76 4.31 326.15 40.78 326.15 40.78 346.03 4.31 346.03 4.31 364.18 29.01 364.18 31.73 397.08 78.95 397.08 78.95 368.21 136.2 368.21 153.16 368.21 153.16 397.08 296.09 397.08 296.09 36.37 124.99 13.76 4.31 13.76"/>
          <g class="cls-16">
            <g class="cls-14">
              <polygon class="cls-7" points="296.09 36.37 124.99 13.77 -74.47 13.77 1.51 254.4 -137.48 254.4 -137.48 326.15 40.78 326.15 40.78 346.03 -137.48 346.03 -137.48 364.18 29.01 364.18 31.73 397.07 78.95 397.07 78.95 368.21 136.2 368.21 153.16 368.21 153.16 397.07 296.09 397.07 296.09 36.37"/>
            </g>
          </g>
          <polygon class="cls-11" points="79.07 359.12 79.07 414 32.53 406.68 29.01 364.18 79.07 359.12"/>
          <polygon class="cls-2" points="79.07 359.12 79.07 414 32.53 406.68 29.01 364.18 79.07 359.12"/>
          <polygon class="cls-11" points="296.09 359.12 296.09 397.07 153.16 398.04 153.16 368.21 136.2 368.21 136.2 358.73 296.09 359.12"/>
          <polygon class="cls-2" points="296.09 359.12 296.09 397.07 153.16 398.04 153.16 368.21 136.2 368.21 136.2 358.73 296.09 359.12"/>
          <polygon class="cls-11" points="247.64 317.61 296.09 317.61 296.09 174.2 260.72 174.2 260.72 188.73 245.22 188.73 245.22 237.18 248.61 237.18 247.64 317.61"/>
          <polygon class="cls-2" points="247.64 317.61 296.09 317.61 296.09 174.2 260.72 174.2 260.72 188.73 245.22 188.73 245.22 237.18 248.61 237.18 247.64 317.61"/>
          <polygon class="cls-11" points="35.91 13.47 35.91 20.74 61.59 20.74 61.59 13.33 35.91 13.47"/>
          <polygon class="cls-2" points="35.91 13.47 35.91 20.74 61.59 20.74 61.59 13.33 35.91 13.47"/>
          <polygon class="cls-11" points="74.04 246.27 74.04 253 101.31 253 101.31 266.16 74.27 266.16 74.27 303.89 132.02 321.15 206.52 321.15 206.52 268.79 185.84 268.79 185.84 257.09 206.23 257.09 206.23 246.72 74.04 246.27"/>
          <polygon class="cls-2" points="74.04 246.27 74.04 253 101.31 253 101.31 266.16 74.27 266.16 74.27 303.89 132.02 321.15 206.52 321.15 206.52 268.79 185.84 268.79 185.84 257.09 206.23 257.09 206.23 246.72 74.04 246.27"/>
          <polygon class="cls-11" points="79.07 414.29 79.07 462.49 314.12 462.49 314.12 436.67 217.41 436.67 217.41 451.4 169.38 451.4 169.38 425.78 118.14 425.78 110.77 414.29 79.07 414.29"/>
          <polygon class="cls-2" points="314.12 480.68 314.12 436.67 217.41 436.67 217.41 451.4 169.38 451.4 169.38 425.78 118.14 425.78 110.77 414.29 79.07 414.29 79.07 480.68 314.12 480.68"/>
          <polyline class="cls-2" points="94.67 309.9 94.67 273.34 170.63 273.34 170.63 321.36"/>
          <polygon class="cls-11" points="124.99 13.74 296 36.37 295.52 68.98 284.95 68.98 284.95 53.66 194 39.52 194 53.29 150.13 53.29 150.13 36.31 124.95 36.31 124.99 13.74"/>
          <polygon class="cls-2" points="124.99 13.74 296 36.37 295.52 68.98 284.95 68.98 284.95 53.66 194 39.52 194 53.29 150.13 53.29 150.13 36.31 124.95 36.31 124.99 13.74"/>
          <line class="cls-2" x1="296.08" y1="327.12" x2="285.51" y2="327.12"/>
          <line class="cls-2" x1="296.08" y1="334.9" x2="285.51" y2="334.9"/>
          <line class="cls-2" x1="296.08" y1="342.68" x2="285.51" y2="342.68"/>
          <line class="cls-2" x1="296.08" y1="350.46" x2="285.51" y2="350.46"/>
          <line class="cls-2" x1="296.05" y1="75.41" x2="285.48" y2="75.41"/>
          <line class="cls-2" x1="296.05" y1="82.93" x2="285.48" y2="82.93"/>
          <line class="cls-2" x1="296.05" y1="90.44" x2="285.48" y2="90.44"/>
          <line class="cls-2" x1="296.05" y1="97.96" x2="285.48" y2="97.96"/>
          <line class="cls-2" x1="296.05" y1="105.48" x2="285.48" y2="105.48"/>
          <line class="cls-2" x1="296.08" y1="137.15" x2="285.51" y2="137.15"/>
          <line class="cls-2" x1="296.08" y1="144.67" x2="285.51" y2="144.67"/>
          <line class="cls-2" x1="296.08" y1="152.19" x2="285.51" y2="152.19"/>
          <line class="cls-2" x1="296.08" y1="159.7" x2="285.51" y2="159.7"/>
          <line class="cls-2" x1="296.08" y1="167.22" x2="285.51" y2="167.22"/>
          <line class="cls-2" x1="87.62" y1="357.84" x2="87.62" y2="368.41"/>
          <line class="cls-2" x1="95.84" y1="357.84" x2="95.84" y2="368.41"/>
          <line class="cls-2" x1="104.06" y1="357.84" x2="104.06" y2="368.41"/>
          <line class="cls-2" x1="112.28" y1="357.84" x2="112.28" y2="368.41"/>
          <line class="cls-2" x1="120.51" y1="357.84" x2="120.51" y2="368.41"/>
          <line class="cls-2" x1="128.73" y1="357.84" x2="128.73" y2="368.41"/>
          <g>
            <polyline class="cls-4" points="-77.02 5.69 1.52 254.4 -129.38 254.4"/>
            <polyline class="cls-4" points="-116.29 326.15 40.78 326.15 40.78 346.03 -24.66 346.03"/>
            <line class="cls-4" x1="28.93" y1="364.37" x2="-24.66" y2="364.37"/>
          </g>
          <rect class="cls-11" x="331.27" y="436.67" width="21.93" height="25.82"/>
          <rect class="cls-2" x="331.27" y="436.67" width="21.93" height="43.98"/>
          <polygon class="cls-11" points="61.59 13.33 61.59 32.4 82.73 32.4 82.73 50.38 124.99 50.38 124.99 13.74 61.59 13.33"/>
          <polygon class="cls-2" points="61.59 13.33 61.59 32.4 82.73 32.4 82.73 50.38 124.99 50.38 124.99 13.74 61.59 13.33"/>
          <g>
            <path class="cls-10" d="M330.38,230.85c-1.44-.72-2.27-1.32-3.34-2.48v2.7h-1.38v-2.75c-.6.66-1.52,1.64-3.41,2.57l-1.01-.93c1.27-.45,2.13-.95,3.5-2.38h-2.12v-3.84h3.04v-.62h-4.25v-1.1h4.25v-.97l1.41.09c.14.01.17.07.17.12,0,.04-.05.08-.07.11-.1.08-.13.1-.13.16v.49h4.25v1.1h-4.25v.62h3.07v3.84h-2.26c.77.79,1.56,1.37,3.44,2.27l-.92,1ZM325.66,224.62h-1.71v.54h1.71v-.54ZM325.66,226.08h-1.71v.56h1.71v-.56ZM328.78,224.62h-1.73v.54h1.73v-.54ZM328.78,226.08h-1.73v.56h1.73v-.56Z"/>
            <path class="cls-10" d="M339.6,222.59v1.41h2.84v6.98h-1.29v-.44h-6.33v.46h-1.29v-7h2.72v-1.41h-3.23v-1.19h9.98v1.19h-3.4ZM341.15,227.09c-.16.67-.68.93-1.04.93h-1.01c-.63,0-.78-.56-.78-.98v-1.86h-.8c-.01.62-.03,1.29-.43,2.13-.31.67-.66.99-1.05,1.31l-1.2-.79c.34-.22.72-.45,1.04-1,.35-.62.37-1.17.38-1.65h-1.44v4.17h6.33v-2.26ZM338.32,222.59h-.8v1.41h.8v-1.41ZM341.15,225.18h-1.55v1.42c0,.16.06.23.26.23.27,0,.31-.13.42-.77l.87.44v-1.33Z"/>
          </g>
          <g>
            <path class="cls-10" d="M317.35,245.53v-.61h-4.99v.61h-1.35v-8.61h2.18c.28-.62.36-1.07.41-1.34l1.58.15c.1.01.17.06.17.13s-.07.1-.1.13c-.21.12-.24.13-.3.22-.02.03-.27.6-.33.71h4.07v8.61h-1.34ZM317.35,238.1h-4.99v1.05h4.99v-1.05ZM317.35,240.28h-4.99v1.15h4.99v-1.15ZM317.35,242.55h-4.99v1.25h4.99v-1.25Z"/>
            <path class="cls-10" d="M329.06,245.54v-.44h-6.5v.43h-1.28v-7.83h3.85v-2.08l1.4.07c.1,0,.27.03.27.17,0,.06-.02.09-.13.16-.13.08-.17.14-.17.22v1.45h3.89v7.84h-1.31ZM325.12,238.92h-2.57v1.83h2.57v-1.83ZM325.12,241.98h-2.57v1.98h2.57v-1.98ZM329.06,238.92h-2.57v1.83h2.57v-1.83ZM329.06,241.98h-2.57v1.98h2.57v-1.98Z"/>
            <path class="cls-10" d="M342.24,245.37h-5.19c-1.81,0-2.39-.67-2.76-1.14-.38.41-.63.6-1.17,1.06-.07.15-.12.3-.17.3-.07,0-.1-.08-.14-.14l-.63-1.22c.44-.19,1.01-.49,1.43-.77v-2.5h-1.14v-1.16h2.38v3.36c0,1.16,1.66,1.16,2.6,1.16,1.76,0,3.51-.08,5.26-.25l-.47,1.29ZM334.27,238.07c-.31-.35-.86-.91-1.6-1.37l.78-.89c.6.38,1.1.79,1.64,1.38l-.81.89ZM340.77,243.92h-.62l-.41-.99c.72.01.8.01.8-.28v-.41h-1.18v1.43h-1.2v-1.43h-1.15v1.55h-1.21v-5.43h2.39c-.49-.28-.98-.54-1.49-.77l.34-.61h-1.19v-1.12h5.35l.36.45c-.27.28-.76.78-1.68,1.62.06.02.31.16.37.2l-.16.22h1.65v4.58c0,.48-.34.98-.99.98ZM338.18,239.32h-1.15v.61h1.15v-.61ZM338.18,240.74h-1.15v.63h1.15v-.63ZM337.92,236.98c.15.06.79.36.93.42.19-.19.3-.34.36-.42h-1.29ZM340.55,239.32h-1.18v.61h1.18v-.61ZM340.55,240.74h-1.18v.63h1.18v-.63Z"/>
            <path class="cls-10" d="M353.77,242.07c-.15-.06-.17-.07-.43-.17v3.6h-1.29v-.22h-1.85v.34h-1.27v-3.51s-.06.01-.15.06l-.72-.72v.55h-1.14v1.5c.9-.23,1.18-.33,1.43-.41l-.05,1.22c-.64.25-1.7.57-2.55.84-.14.05-.84.22-1,.27-.19.05-.4.11-.47.21-.14.17-.14.19-.19.19s-.15-.03-.21-.3l-.27-1.22c.1-.02.44-.09.51-.11v-4.14l1.15.08c.19.01.3.04.3.14,0,.06-.04.09-.12.14-.14.08-.14.09-.14.12v3.39c.12-.02.14-.03.38-.09v-4.19h-1.33v-3.82h3.69v2.65c.8-.79,1.26-1.84,1.61-2.9l1.15.2c.15.02.28.07.28.19,0,.04-.01.06-.05.08-.01.01-.13.06-.15.07-.05.02-.05.04-.13.23h2.28l.47.45c-.51,1.33-1.2,2.27-1.57,2.78.42.34,1.14.92,2.69,1.35l-.88,1.18ZM346.79,236.88h-1.16v1.65h1.16v-1.65ZM349.62,238.51c-.44.7-.6.86-.78,1.04l-.76-.54v.59h-1.16v1.14h1.14v.37c.83-.42,1.49-.78,2.27-1.49-.3-.37-.52-.7-.71-1.12ZM351.16,240.48c-.29.3-.6.63-1.16,1.02h2.59c-.54-.33-.92-.59-1.43-1.02ZM352.05,242.65h-1.85v1.52h1.85v-1.52ZM350.5,237.44c.21.65.4.95.65,1.27.15-.21.4-.55.65-1.27h-1.3Z"/>
          </g>
          <g>
            <path class="cls-10" d="M31.26,229.27v-.47h-2.68v3.3h-1.34v-3.3h-2.65v.51h-1.34v-5.22h3.99v-1.98l1.45.13c.07.01.17.02.17.13,0,.08-.08.13-.13.16-.09.06-.16.1-.16.17v1.38h4.01v5.18h-1.34ZM27.25,225.36h-2.65v2.19h2.65v-2.19ZM31.26,225.36h-2.68v2.19h2.68v-2.19Z"/>
            <path class="cls-10" d="M43.7,232.33c-3.02-1.05-3.82-2.76-4.12-3.43-.34.88-1.08,2.57-4.15,3.39l-.92-1.25c.86-.1,1.72-.34,2.46-.81.93-.61,1.26-1.4,1.38-1.72h-3.84v-1.21h.86v-3.39h3.44c-.02-.99-.03-1.33-.06-1.84l1.3.05c.27.01.42.04.42.19,0,.09-.06.15-.13.2-.13.08-.15.13-.15.2,0,.34.01.87.01,1.21h3.51v3.39h.84v1.21h-3.78c.62,1.35,2.07,2.34,3.97,2.64l-1.05,1.19ZM36.66,225.08v2.27h2.04c.14-.83.14-1.28.13-2.27h-2.16ZM42.42,225.08h-2.23c0,.42-.01,1.37-.14,2.27h2.37v-2.27Z"/>
          </g>
          <g>
            <path class="cls-10" d="M32.76,246.43h-5.19c-1.81,0-2.39-.67-2.76-1.14-.38.41-.63.6-1.17,1.06-.07.15-.12.3-.17.3-.07,0-.1-.08-.14-.14l-.63-1.22c.44-.19,1.01-.49,1.43-.77v-2.5h-1.14v-1.16h2.38v3.36c0,1.16,1.66,1.16,2.6,1.16,1.76,0,3.51-.08,5.26-.25l-.47,1.29ZM24.79,239.13c-.31-.35-.86-.91-1.6-1.37l.78-.89c.6.38,1.1.79,1.64,1.38l-.81.89ZM31.3,244.98h-.62l-.41-.99c.72.01.8.01.8-.28v-.41h-1.18v1.43h-1.2v-1.43h-1.15v1.55h-1.21v-5.43h2.39c-.49-.28-.98-.54-1.49-.77l.34-.61h-1.19v-1.12h5.35l.36.45c-.27.28-.76.78-1.68,1.62.06.02.31.16.37.2l-.16.22h1.65v4.58c0,.48-.34.98-.99.98ZM28.7,240.38h-1.15v.61h1.15v-.61ZM28.7,241.8h-1.15v.63h1.15v-.63ZM28.44,238.04c.15.06.79.36.93.42.19-.19.3-.34.36-.42h-1.29ZM31.07,240.38h-1.18v.61h1.18v-.61ZM31.07,241.8h-1.18v.63h1.18v-.63Z"/>
            <path class="cls-10" d="M44.29,243.13c-.15-.06-.17-.07-.43-.17v3.6h-1.29v-.22h-1.85v.34h-1.27v-3.51s-.06.01-.15.06l-.72-.72v.55h-1.14v1.5c.9-.23,1.18-.33,1.43-.41l-.05,1.22c-.64.25-1.7.57-2.55.84-.14.05-.84.22-1,.27-.19.05-.4.11-.47.21-.14.17-.14.19-.19.19s-.15-.03-.21-.3l-.27-1.22c.1-.02.44-.09.51-.11v-4.14l1.15.08c.19.01.3.04.3.14,0,.06-.04.09-.12.14-.14.08-.14.09-.14.12v3.39c.12-.02.14-.03.38-.09v-4.19h-1.33v-3.82h3.69v2.65c.8-.79,1.26-1.84,1.61-2.9l1.15.2c.15.02.28.07.28.19,0,.04-.01.06-.05.08-.01.01-.13.06-.15.07-.05.02-.05.04-.13.23h2.28l.47.45c-.51,1.33-1.2,2.27-1.57,2.78.42.34,1.14.92,2.69,1.35l-.88,1.18ZM37.31,237.94h-1.16v1.65h1.16v-1.65ZM40.14,239.57c-.44.7-.6.86-.78,1.04l-.76-.54v.59h-1.16v1.14h1.14v.37c.83-.42,1.49-.78,2.27-1.49-.3-.37-.52-.7-.71-1.12ZM41.69,241.54c-.29.3-.6.63-1.16,1.02h2.59c-.54-.33-.92-.59-1.43-1.02ZM42.57,243.71h-1.85v1.52h1.85v-1.52ZM41.02,238.5c.21.65.4.95.65,1.27.15-.21.4-.55.65-1.27h-1.3Z"/>
          </g>
          <g>
            <path class="cls-10" d="M115.47,298.11c-.13.43-.27.86-.44,1.28.1-.05.17-.07.31-.13v1.14c-1.5.48-2.5.73-3.84,1.06-.07.01-.09.03-.12.07-.1.1-.1.12-.16.12-.13,0-.17-.23-.19-.31l-.14-1.1c.62-.01,1.29-.13,1.71-.22v-2.59h-1.57v-1.15h1.57v-.56h-.78v-.87c-.1.07-.12.08-.3.22l-.94-.87c.42-.23.8-.44,1.33-.98.62-.63.78-1.04.92-1.42l1.2.37c.09.04.16.1.16.17,0,.05-.02.09-.05.14.35.44.94.84,1.43,1.1l-.77.86c-.62-.4-1.05-.81-1.36-1.21-.51.66-.8.94-1.22,1.3h2.69v1.18h-1.05v.56h1.26v1.15h-1.26v2.32c.35-.09.59-.16.97-.28l-.92-.34c.22-.44.4-.88.54-1.57l1.07.27c.19.05.19.14.19.15,0,.07-.12.1-.23.15ZM111.42,299.83c-.09-.54-.23-1.11-.54-1.86l1.09-.23c.26.62.42,1.2.52,1.84l-1.08.26ZM120.36,301.89c-.93-.86-1.7-1.9-2.18-3.07-.37.83-.94,1.9-2.39,3.09l-1.31-.88c1.61-.69,2.51-2.08,2.9-3.55h-2.02v-1.22h2.13c.02-.51.02-.65.02-1.18h-.92c-.08.28-.22.75-.47,1.14l-1.23-.45c.36-.62.79-1.41.83-3.33l1.13.24c.07.01.3.07.3.2,0,.05-.04.08-.1.14-.02.01-.08.08-.1.14-.02.36-.06.56-.08.7h.65c0-.5,0-1.31-.02-1.98l1.26.09c.06,0,.31.05.31.16,0,.05-.01.05-.16.2-.07.08-.07.1-.07.34,0,.04-.02,1.06-.02,1.19h1.9v1.22h-1.93c0,.27-.02.95-.01,1.18h2.21v1.22h-2.04c.27,1.22,1.05,2.5,2.64,3.51l-1.21.9Z"/>
            <path class="cls-10" d="M132.35,301.59h-4.76c-.73,0-1.49-.06-2.07-.27-.63-.23-.86-.6-.99-.81-.15.15-.41.42-.86.77-.36.29-.38.31-.42.41-.05.16-.06.19-.1.19-.02,0-.09-.04-.15-.14l-.61-1.22c.95-.37,1.27-.57,1.48-.7v-2.59h-1.2v-1.25h2.52v3.63c0,.72.66.87,2.41.87s3.56-.06,5.32-.27l-.57,1.38ZM124.25,294.36c-.52-.66-.98-1.05-1.57-1.4l.93-.94c.52.34.98.69,1.61,1.43l-.97.91ZM129.6,294.02c-.23.34-.36.51-.52.69h2.72v5.21h-1.28v-.28h-2.82v.28h-1.27v-5.21h1.41c.17-.22.27-.38.41-.69h-2.57v-.98h1.44c-.23-.48-.43-.73-.59-.94l1.09-.49c.34.44.56.78.74,1.24l-.42.19h1.62c.27-.49.42-.8.6-1.31l1.31.35s.19.05.19.13c0,.02-.01.06-.1.08-.1.02-.12.03-.14.06-.19.26-.29.4-.55.7h1.73v.98h-3.01ZM130.52,295.52h-2.82v.54h2.82v-.54ZM130.52,296.87h-2.82v.54h2.82v-.54ZM130.52,298.18h-2.82v.56h2.82v-.56Z"/>
            <path class="cls-10" d="M143.51,293.31c-.34.97-.78,1.33-1.07,1.57.73.43,1.25.56,1.61.64l-.7.95c-.83-.22-1.44-.7-1.73-.92-.58.33-.81.41-1.47.64h2.37v.65h-6.61v-.65h4l-.62-.95c.41-.04,1-.12,1.58-.43-.24-.35-.35-.62-.4-.72-.23.35-.31.44-.45.6l-.7-.29c-.1.72-.29,1.66-1.37,1.69l-.35-.61v.44h-2.36v-1.21c-.16.16-.21.21-.34.3l-.87-.57c.49-.4.87-.83,1.25-1.5l.54.32h.08s0-.36,0-.36h-1.51v-.75h1.51v-.45l.9.06c.22.01.35.03.35.13,0,.05-.02.07-.13.13-.1.07-.1.12-.1.14h.58v-.44l.93.06c.15.01.23.04.23.11,0,.05-.02.06-.12.13-.05.03-.05.05-.05.15h1.16v.75h-1.16v.37h.83l.17.26c.34-.37.64-.84.98-1.84l.94.2c.2.05.31.08.31.17,0,.08-.03.09-.15.14-.04.01-.06.04-.07.06q-.04.08-.07.16h2.68v.88h-.6ZM134.37,297.82v-.69h9.77v.69h-9.77ZM141.69,301.82v-.29h-4.86v.29h-1.28v-2.07h7.45v2.07h-1.3ZM135.96,293.97c-.06.07-.1.12-.23.28h1.88v.72c.09.05.12.06.19.06.52,0,.55-.79.55-1.06h-2.39ZM135.84,298.63v-.53h6.7v.53h-6.7ZM135.84,299.46v-.54h6.69v.54h-6.69ZM136.85,294.84h-.81v.49h.81v-.49ZM141.69,300.42h-4.86v.4h4.86v-.4ZM137.49,292.91h-.58v.37h.58v-.37ZM141.13,293.31c.1.45.45.84.59.99.29-.29.52-.62.67-.99h-1.27Z"/>
            <path class="cls-10" d="M152.47,294.34h1.93v-.77h-7.04v1.14h-1.21v-2.16h4.05v-.77l1.38.06c.16.01.28.04.28.12,0,.11-.13.2-.26.31v.29h4v2.07h-.67l.24.26c-.27.39-.45.67-1.21,1.73.55.38,1.1.75,2.13,1.05l-.91,1.05c-.24-.1-.4-.19-.65-.33v.91h-2.87v1.86c0,.57-.54.65-1.84.79l-.58-1.31c.58.02.64.04.76.04.29,0,.4-.05.4-.31v-1.06h-3.06v-.79c-.36.16-.55.22-.67.25l-.84-1c.56-.09,1.01-.2,1.66-.57-.13-.14-.29-.33-.57-.56-.07.05-.21.15-.35.24l-.77-.86c1.5-.83,1.92-1.49,2.3-2.29l.67.19c.16.05.56.17.56.29,0,.1-.1.14-.21.16h1.5l.22.31c-.36.94-.9,1.63-1.16,1.97h2.62c-.51-.61-.98-1.2-1.56-2.57l1.09-.45c.23.79.57,1.3.63,1.41v-.67ZM149.08,299.91s.31.2.31.31c0,.08-.09.08-.2.08-.17,0-.19.04-.35.22-.65.79-1.12,1.13-1.47,1.41l-.99-.85c.94-.65,1.31-1.01,1.85-1.69l.84.51ZM147.77,295.9c-.16.15-.2.19-.27.26.23.19.43.36.65.56.12-.09.15-.14.26-.23-.35-.35-.52-.48-.64-.58ZM149.15,297.23c-.52.49-.9.75-1.34,1.01h6.49c-.51-.32-.97-.62-1.59-1.19v.6h-3.56v-.43ZM148.36,295.23l-.09.1c.19.15.28.22.65.55.2-.26.29-.42.43-.65h-.99ZM154.12,301.74c-.73-.83-1.15-1.23-1.7-1.69l.94-.71c.78.66,1.27,1.13,1.73,1.63l-.98.77ZM152.61,295.21c.19.28.31.42.45.57.17-.2.26-.33.4-.57h-.85Z"/>
          </g>
          <g>
            <path class="cls-10" d="M89.93,439.08c-.08.07-.08.09-.08.15,0,2.18,0,2.35-.06,2.86-.28,2.41-1.66,3.55-2.51,4.22l-1.29-.94c1.12-.65,2.49-1.64,2.49-4.54,0-1.08-.08-1.85-.13-2.2l1.41.09c.21.01.34.05.34.17,0,.05-.02.06-.16.17ZM92.08,446.33l-.99-.77v-7.06l1.35.16c.1.01.33.03.33.15,0,.05-.02.08-.13.17,0,.01-.14.13-.14.14v5.08c1-.55,2.33-1.85,3.07-2.98l.79,1.17c-1.14,1.54-2.89,3.14-4.28,3.92Z"/>
            <path class="cls-10" d="M102.92,447.66c-1.73-1.13-3.56-1.98-5.72-2.61l.35-1.29c2.71.71,4.44,1.63,5.79,2.44l-.42,1.46ZM102.53,440.51c-1.44-.94-3.12-1.45-4.81-1.77l.22-1.33c1.77.31,3.64,1.04,4.92,1.71l-.34,1.38ZM102.08,443.6c-1.36-.85-3.14-1.42-4.03-1.66l.29-1.26c1.28.31,3.14,1.01,4.04,1.58l-.3,1.34Z"/>
            <path class="cls-10" d="M111.49,441.35c-.54.6-.99,1.11-2.09,2.04v4.22h-1.34v-3.26c-.95.59-1.61.94-2.83,1.35l-.8-1.15c2.58-.69,4.62-2.32,5.45-3.46h-4.4v-1.19h5.4c.17,0,.29-.08.42-.16l.97,1.04c-.43.24-.69.48-.77.57ZM109.54,439.62c-.65-.43-1.3-.81-2.41-1.23l.57-1.13c.87.31,1.71.7,2.5,1.28l-.66,1.08ZM112.18,445.78c-.66-.78-1.26-1.24-2.26-1.84l.77-.88c1.26.59,1.87,1.19,2.37,1.7l-.88,1.02Z"/>
            <path class="cls-10" d="M114.26,446.19v-1.31h3.54v-4.71h-2.63v-1.32h6.81v1.32h-2.7v4.71h3.55v1.31h-8.56Z"/>
            <path class="cls-10" d="M132.05,446.63c-1.06-1.3-1.88-2.14-2.84-2.91-.93,1.04-1.79,1.92-3.98,2.99l-1.02-1.06c.76-.33,2.23-.94,3.71-2.51,1.26-1.34,1.71-2.51,1.98-3.18h-4.43v-1.35h5.01c.22,0,.4-.12.6-.26l.9.99c-.23.16-.49.36-.63.7-.4.93-.62,1.47-1.35,2.61,1.13.85,2.13,1.84,3.08,2.87l-1.04,1.11Z"/>
            <path class="cls-10" d="M140.1,444.38c-.86-.8-2.02-1.75-3.42-2.33v5.03h-1.37v-9.21l1.4.24s.28.05.28.19c0,.07-.3.26-.3.31v3.06l.55-.86c.59.26.98.41,1.98,1.06.92.61,1.35.99,1.81,1.4l-.92,1.12Z"/>
            <path class="cls-10" d="M145.82,441.85v.81h1.55v1.11h-1.55c.42.58,1,1.08,1.34,1.35l-.74.86c-.29-.2-.45-.36-.59-.55v2.07h-1.26v-2.21c-.34.54-.81,1.16-1.26,1.58l-1.04-.67c.78-.65,1.4-1.38,1.85-2.43h-1.37v-1.11h1.81v-.81h-1.97v-1.07h1.2c-.07-.24-.23-.86-.4-1.28h-.57v-1.04h1.82v-1l1.28.12c.17.01.24.05.24.1s-.06.12-.1.15c-.02.02-.12.1-.12.17v.45h1.51v1.04h-.37c-.13.48-.24.82-.47,1.28h.95v1.07h-1.76ZM144.6,439.5c.15.38.29.83.41,1.28h.43c.09-.27.27-.77.37-1.28h-1.21ZM152.24,438.86c-.1,0-.38.07-.51.1-.06.01-1.35.31-2.56.41.01.37,0,.55-.01,1.44h3.25v1.25h-1.05v5.38h-1.21v-5.38h-1.01c-.13,2.86-.43,3.97-1.41,5.47l-1.23-.41c.38-.43.63-.72.88-1.35.47-1.16.57-2.54.57-4.35,0-1.04-.01-2.07-.06-3.11l.72.05c.13.01.3-.02.35-.02,1.87-.36,2.08-.41,2.73-.65l.7.84s.12.16.12.24c0,.09-.07.09-.27.09Z"/>
            <path class="cls-10" d="M161.27,441.66l-.29.62h2.56v5.23h-1.33v-.45h-2.94v.49h-1.35v-5.27h1.61l.3-.62h-2.63v-.88c-.37.6-.5.8-.7,1.09.22.09.4.19.4.33,0,.09-.08.16-.14.22-.06.05-.13.12-.13.17v4.94h-1.27v-4.08c-.07.09-.2.28-.45.55l-1.07-.85c.91-.94,1.73-2,2.44-3.51l1,.38c.13.05.4.15.4.27,0,.09-.1.13-.15.15-.13.05-.15.07-.21.16h6.56v1.06h-2.61ZM162.66,440.24v-.69h-7v.77h-1.33v-1.83h4.07v-1.04l.99.05c.12,0,.72-.01.72.19,0,.13-.08.16-.2.28v.52h4.07v1.74h-1.33ZM162.22,443.35h-2.94v.8h2.94v-.8ZM162.22,445.19h-2.94v.8h2.94v-.8Z"/>
          </g>
          <g>
            <path class="cls-10" d="M309.74,119.69v1.06h2.13v5.24h-.97v-.33h-4.75v.35h-.97v-5.25h2.04v-1.06h-2.43v-.89h7.49v.89h-2.55ZM310.9,123.05c-.12.51-.51.7-.78.7h-.76c-.47,0-.58-.42-.58-.73v-1.4h-.6c0,.46-.03.97-.32,1.6-.24.5-.5.74-.79.99l-.9-.59c.25-.17.54-.34.78-.75.26-.46.28-.87.29-1.24h-1.08v3.12h4.75v-1.69ZM308.78,119.69h-.6v1.06h.6v-1.06ZM310.9,121.62h-1.16v1.07c0,.12.04.17.19.17.2,0,.24-.1.31-.58l.65.33v-1Z"/>
            <path class="cls-10" d="M320.48,126.05c-.78-.41-1.23-.75-1.79-1.36-.65.65-1.18.99-2.03,1.39l-.8-.74c.91-.31,1.52-.66,2.27-1.43-.36-.63-.51-1.07-.67-1.71-.1.15-.26.37-.31.42l-.9-.38c.11-.12.17-.2.25-.31h-1.9v1.58c0,.3.08.4.32.4h.86c.21,0,.28-.04.35-.25.07-.22.1-.33.15-.63l.78.35c-.23,1.04-.48,1.44-1.25,1.44h-1.27c-.46,0-.89-.36-.89-1.01v-2.71h2.06v-1.07h-2.06v-.9h3.02v2.54c.22-.38.44-.76.68-1.57.2-.67.26-1.13.31-1.54l.99.22c.1.02.15.06.15.11,0,.04-.03.07-.1.11-.1.05-.11.09-.13.14-.07.34-.1.43-.18.7h2.56v.92h-.59c-.22,1.64-.56,2.38-1.07,3.19.59.72,1.48,1.18,1.89,1.4l-.71.72ZM318.12,120.74c.06.83.2,1.66.61,2.38.48-.79.67-1.56.73-2.38h-1.34Z"/>
            <path class="cls-10" d="M325.43,123.53c-.27-.23-.49-.49-.72-.82v3.33h-1v-2.92c-.25.58-.53,1.03-.99,1.57l-.85-.58c.91-1.02,1.36-2.38,1.57-3.23h-1.23v-1.06h1.5v-1.32l.95.06c.18,0,.24.04.24.11,0,.04-.02.05-.07.09-.1.06-.12.08-.12.13v.93h1.32v1.06h-1.32c.16.55.59,1.26,1.36,1.89l-.65.76ZM328.92,126h-1.67c-.76,0-.79-.72-.79-.97v-6.54l.94.05c.14,0,.24.04.24.11,0,.04-.02.06-.07.09-.1.08-.11.09-.11.13v5.68c0,.31.09.4.36.4h.74c.32,0,.46-.17.53-1.01l.92.4c-.11,1.48-.46,1.65-1.09,1.65Z"/>
          </g>
          <g>
            <path class="cls-10" d="M327.63,44.28v1.41h2.84v6.98h-1.29v-.44h-6.33v.46h-1.29v-7h2.72v-1.41h-3.23v-1.19h9.98v1.19h-3.4ZM329.18,48.78c-.16.67-.68.93-1.04.93h-1.01c-.63,0-.78-.56-.78-.98v-1.86h-.8c-.01.62-.03,1.29-.43,2.13-.31.67-.66.99-1.05,1.31l-1.2-.79c.34-.22.72-.45,1.04-1,.35-.62.37-1.17.38-1.65h-1.44v4.17h6.33v-2.26ZM326.35,44.28h-.8v1.41h.8v-1.41ZM329.18,46.87h-1.55v1.42c0,.16.06.23.26.23.27,0,.31-.13.42-.77l.87.44v-1.33Z"/>
            <path class="cls-10" d="M340.44,51.74v-.65h-5.83v.73h-1.4v-7.9h8.69v7.82h-1.47ZM340.44,45.24h-5.83v4.54h5.83v-4.54Z"/>
          </g>
          <g>
            <path class="cls-10" d="M330.05,381.5c-1.44-.72-2.27-1.32-3.34-2.48v2.7h-1.38v-2.75c-.6.66-1.52,1.64-3.41,2.57l-1.01-.93c1.27-.45,2.13-.95,3.5-2.38h-2.12v-3.84h3.04v-.62h-4.25v-1.1h4.25v-.97l1.41.09c.14.01.17.07.17.12,0,.04-.05.08-.07.11-.1.08-.13.1-.13.16v.49h4.25v1.1h-4.25v.62h3.07v3.84h-2.26c.77.79,1.56,1.37,3.44,2.27l-.92,1ZM325.32,375.26h-1.71v.54h1.71v-.54ZM325.32,376.73h-1.71v.56h1.71v-.56ZM328.44,375.26h-1.73v.54h1.73v-.54ZM328.44,376.73h-1.73v.56h1.73v-.56Z"/>
            <path class="cls-10" d="M340.44,380.7v-.65h-5.83v.73h-1.4v-7.9h8.69v7.82h-1.47ZM340.44,374.19h-5.83v4.54h5.83v-4.54Z"/>
          </g>
          <rect class="cls-12" x="301.57" y="334.85" width="31.1" height="12.83"/>
          <rect class="cls-12" x="90.61" y="375.69" width="49.47" height="12.83"/>
          <g>
            <path class="cls-10" d="M311.56,345.22c-1.08-.54-1.7-.99-2.5-1.86v2.02h-1.04v-2.06c-.45.5-1.14,1.23-2.56,1.93l-.76-.7c.95-.34,1.6-.71,2.63-1.79h-1.59v-2.88h2.28v-.46h-3.19v-.83h3.19v-.72l1.06.07c.1,0,.13.05.13.09,0,.03-.03.06-.05.08-.08.06-.1.08-.1.12v.37h3.19v.83h-3.19v.46h2.3v2.88h-1.69c.58.59,1.17,1.03,2.58,1.7l-.69.75ZM308.01,340.54h-1.28v.4h1.28v-.4ZM308.01,341.64h-1.28v.42h1.28v-.42ZM310.35,340.54h-1.3v.4h1.3v-.4ZM310.35,341.64h-1.3v.42h1.3v-.42Z"/>
            <path class="cls-10" d="M320.48,345.38c-.78-.41-1.23-.75-1.79-1.36-.65.65-1.18.99-2.03,1.39l-.8-.74c.91-.31,1.52-.66,2.27-1.43-.36-.63-.51-1.07-.67-1.71-.1.15-.26.37-.31.42l-.9-.38c.11-.12.17-.2.25-.31h-1.9v1.58c0,.3.08.4.32.4h.86c.21,0,.28-.04.35-.25.07-.22.1-.33.15-.63l.78.35c-.23,1.04-.48,1.44-1.25,1.44h-1.27c-.46,0-.89-.36-.89-1.01v-2.71h2.06v-1.07h-2.06v-.9h3.02v2.54c.22-.38.44-.76.68-1.57.2-.67.26-1.13.31-1.54l.99.22c.1.02.15.06.15.11,0,.04-.03.07-.1.11-.1.05-.11.09-.13.14-.07.34-.1.43-.18.7h2.56v.92h-.59c-.22,1.64-.56,2.38-1.07,3.19.59.72,1.48,1.18,1.89,1.4l-.71.72ZM318.12,340.08c.06.83.2,1.66.61,2.38.48-.79.67-1.56.73-2.38h-1.34Z"/>
            <path class="cls-10" d="M325.43,342.87c-.27-.23-.49-.49-.72-.82v3.33h-1v-2.92c-.25.58-.53,1.03-.99,1.57l-.85-.58c.91-1.02,1.36-2.38,1.57-3.23h-1.23v-1.06h1.5v-1.32l.95.06c.18,0,.24.04.24.11,0,.04-.02.05-.07.09-.1.06-.12.08-.12.13v.93h1.32v1.06h-1.32c.16.55.59,1.26,1.36,1.89l-.65.76ZM328.92,345.34h-1.67c-.76,0-.79-.72-.79-.97v-6.54l.94.05c.14,0,.24.04.24.11,0,.04-.02.06-.07.09-.1.08-.11.09-.11.13v5.68c0,.31.09.4.36.4h.74c.32,0,.46-.17.53-1.01l.92.4c-.11,1.48-.46,1.65-1.09,1.65Z"/>
          </g>
          <g>
            <path class="cls-10" d="M100.31,383.65v-.35h-2.01v2.48h-1v-2.48h-1.99v.38h-1v-3.92h2.99v-1.48l1.09.1c.05,0,.13.02.13.1,0,.06-.06.1-.1.12-.07.04-.12.08-.12.13v1.04h3.01v3.88h-1ZM97.29,380.72h-1.99v1.64h1.99v-1.64ZM100.31,380.72h-2.01v1.64h2.01v-1.64Z"/>
            <path class="cls-10" d="M109.63,385.95c-2.27-.79-2.86-2.07-3.09-2.57-.25.66-.81,1.93-3.12,2.54l-.69-.93c.65-.08,1.29-.25,1.84-.61.7-.45.94-1.05,1.04-1.29h-2.88v-.91h.65v-2.54h2.58c-.02-.74-.03-1-.04-1.38l.98.04c.2,0,.31.03.31.14,0,.07-.04.11-.1.15-.1.06-.11.1-.11.15,0,.25,0,.65,0,.91h2.64v2.54h.63v.91h-2.84c.46,1.01,1.55,1.75,2.98,1.98l-.79.89ZM104.35,380.51v1.7h1.53c.1-.62.1-.96.1-1.7h-1.62ZM108.67,380.51h-1.68c0,.31,0,1.03-.1,1.7h1.78v-1.7Z"/>
            <path class="cls-10" d="M118.26,385.63c-1.08-.54-1.7-.99-2.5-1.86v2.02h-1.04v-2.06c-.45.5-1.14,1.23-2.56,1.93l-.76-.7c.95-.34,1.6-.71,2.63-1.79h-1.59v-2.88h2.28v-.46h-3.19v-.83h3.19v-.72l1.06.07c.1,0,.13.05.13.09,0,.03-.03.06-.05.08-.08.06-.1.08-.1.12v.37h3.19v.83h-3.19v.46h2.3v2.88h-1.69c.58.59,1.17,1.03,2.58,1.7l-.69.75ZM114.71,380.95h-1.28v.4h1.28v-.4ZM114.71,382.05h-1.28v.42h1.28v-.42ZM117.05,380.95h-1.3v.4h1.3v-.4ZM117.05,382.05h-1.3v.42h1.3v-.42Z"/>
            <path class="cls-10" d="M127.17,385.8c-.78-.41-1.23-.75-1.79-1.36-.65.65-1.18.99-2.03,1.39l-.8-.74c.91-.31,1.52-.66,2.27-1.43-.36-.63-.51-1.07-.67-1.71-.1.15-.26.37-.31.42l-.9-.38c.11-.12.17-.2.25-.31h-1.9v1.58c0,.3.08.4.32.4h.86c.21,0,.28-.04.35-.25.07-.22.1-.33.15-.63l.78.35c-.23,1.04-.48,1.44-1.25,1.44h-1.27c-.46,0-.89-.36-.89-1.01v-2.71h2.06v-1.07h-2.06v-.9h3.02v2.54c.22-.38.44-.76.68-1.57.2-.67.26-1.13.31-1.54l.99.22c.1.02.15.06.15.11,0,.04-.03.07-.1.11-.1.05-.11.09-.13.14-.07.34-.1.43-.18.7h2.56v.92h-.59c-.22,1.64-.56,2.38-1.07,3.19.59.72,1.48,1.18,1.89,1.4l-.71.72ZM124.82,380.49c.06.83.2,1.66.61,2.38.48-.79.67-1.56.73-2.38h-1.34Z"/>
            <path class="cls-10" d="M132.13,383.28c-.27-.23-.49-.49-.72-.82v3.33h-1v-2.92c-.25.58-.53,1.03-.99,1.57l-.85-.58c.91-1.02,1.36-2.38,1.57-3.23h-1.23v-1.06h1.5v-1.32l.95.06c.18,0,.24.04.24.11,0,.04-.02.05-.07.09-.1.06-.12.08-.12.13v.93h1.32v1.06h-1.32c.16.55.59,1.26,1.36,1.89l-.65.76ZM135.62,385.75h-1.67c-.76,0-.79-.72-.79-.97v-6.54l.94.05c.14,0,.24.04.24.11,0,.04-.02.06-.07.09-.1.08-.11.09-.11.13v5.68c0,.31.09.4.36.4h.74c.32,0,.46-.17.53-1.01l.92.4c-.11,1.48-.46,1.65-1.09,1.65Z"/>
          </g>
          <g>
            <line class="cls-2" x1="35.91" y1="13.47" x2="5.19" y2="13.47"/>
            <polyline class="cls-2" points="217.41 451.4 225.36 451.4 225.36 480.68"/>
          </g>
          <line class="cls-4" x1="96.44" y1="253.49" x2="96.44" y2="266.07"/>
          <line class="cls-4" x1="91.68" y1="253.49" x2="91.68" y2="266.07"/>
          <line class="cls-4" x1="86.93" y1="253.49" x2="86.93" y2="266.07"/>
          <line class="cls-4" x1="82.17" y1="253.49" x2="82.17" y2="266.07"/>
          <line class="cls-4" x1="77.42" y1="253.49" x2="77.42" y2="266.07"/>
          <line class="cls-2" x1="78.72" y1="38.15" x2="78.72" y2="50.73"/>
          <line class="cls-2" x1="74.52" y1="38.15" x2="74.52" y2="50.73"/>
          <line class="cls-2" x1="70.32" y1="38.15" x2="70.32" y2="50.73"/>
          <line class="cls-2" x1="186.01" y1="262.74" x2="206.94" y2="262.74"/>
          <line class="cls-2" x1="67.1" y1="50.38" x2="82.73" y2="50.38"/>
          <line class="cls-2" x1="60.79" y1="38.21" x2="82.73" y2="38.21"/>
          <polygon class="cls-11" points="285.1 130.91 295.52 130.91 295.52 111.29 284.95 111.29 285.1 130.91"/>
          <polygon class="cls-2" points="285.1 130.91 295.52 130.91 295.52 111.29 284.95 111.29 285.1 130.91"/>
          <line class="cls-2" x1="280.73" y1="116.06" x2="280.73" y2="126.36"/>
          <line class="cls-2" x1="275.97" y1="116.06" x2="275.97" y2="126.36"/>
          <line class="cls-2" x1="271.21" y1="116.06" x2="271.21" y2="126.36"/>
          <line class="cls-2" x1="266.46" y1="116.06" x2="266.46" y2="126.36"/>
          <line class="cls-2" x1="261.7" y1="116.06" x2="261.7" y2="126.36"/>
          <line class="cls-2" x1="257.58" y1="116.46" x2="284.85" y2="116.46"/>
          <line class="cls-2" x1="257.58" y1="126.79" x2="284.85" y2="126.79"/>
          <line class="cls-2" x1="280.27" y1="56.68" x2="280.27" y2="66.99"/>
          <line class="cls-2" x1="275.51" y1="56.68" x2="275.51" y2="66.99"/>
          <line class="cls-2" x1="270.76" y1="56.68" x2="270.76" y2="66.99"/>
          <line class="cls-2" x1="266" y1="56.68" x2="266" y2="66.99"/>
          <line class="cls-2" x1="261.25" y1="56.68" x2="261.25" y2="66.99"/>
          <line class="cls-2" x1="257.13" y1="57.08" x2="284.39" y2="57.08"/>
          <line class="cls-2" x1="257.13" y1="67.41" x2="284.39" y2="67.41"/>
          <rect class="cls-9" x="86.37" y="89.93" width="23.72" height="21.09"/>
          <rect class="cls-2" x="86.37" y="89.93" width="23.72" height="21.09"/>
          <rect class="cls-9" x="173.9" y="89.94" width="32.33" height="35.73"/>
          <rect class="cls-2" x="173.9" y="89.94" width="32.33" height="35.73"/>
          <line class="cls-2" x1="192.36" y1="202.27" x2="192.36" y2="216.6"/>
          <line class="cls-2" x1="187.6" y1="202.27" x2="187.6" y2="216.6"/>
          <line class="cls-2" x1="182.85" y1="202.27" x2="182.85" y2="216.6"/>
          <line class="cls-2" x1="178.09" y1="202.27" x2="178.09" y2="216.6"/>
          <line class="cls-2" x1="173.34" y1="202.27" x2="173.34" y2="216.6"/>
          <line class="cls-2" x1="82.25" y1="89.96" x2="82.25" y2="99.56"/>
          <line class="cls-2" x1="77.83" y1="89.96" x2="77.83" y2="99.56"/>
          <line class="cls-2" x1="73.41" y1="89.96" x2="73.41" y2="99.56"/>
          <line class="cls-2" x1="70.31" y1="89.94" x2="86.37" y2="89.94"/>
          <line class="cls-2" x1="63.39" y1="99.01" x2="86.37" y2="99.01"/>
          <line class="cls-2" x1="169.78" y1="89.96" x2="169.78" y2="99.56"/>
          <line class="cls-2" x1="165.36" y1="89.96" x2="165.36" y2="99.56"/>
          <line class="cls-2" x1="160.94" y1="89.96" x2="160.94" y2="99.56"/>
          <line class="cls-2" x1="157.83" y1="89.94" x2="173.9" y2="89.94"/>
          <line class="cls-2" x1="150.92" y1="99.02" x2="173.9" y2="99.02"/>
          <line class="cls-2" x1="198.43" y1="137.52" x2="198.43" y2="147.82"/>
          <line class="cls-2" x1="193.68" y1="137.52" x2="193.68" y2="147.82"/>
          <line class="cls-2" x1="188.92" y1="137.52" x2="188.92" y2="147.82"/>
          <line class="cls-2" x1="184.17" y1="137.52" x2="184.17" y2="147.82"/>
          <line class="cls-2" x1="179.41" y1="137.52" x2="179.41" y2="147.82"/>
          <line class="cls-2" x1="77.59" y1="137.52" x2="77.59" y2="147.82"/>
          <line class="cls-2" x1="72.83" y1="137.52" x2="72.83" y2="147.82"/>
          <line class="cls-2" x1="68.08" y1="137.52" x2="68.08" y2="147.82"/>
          <line class="cls-2" x1="63.32" y1="137.52" x2="63.32" y2="147.82"/>
          <line class="cls-2" x1="58.57" y1="137.52" x2="58.57" y2="147.82"/>
          <line class="cls-2" x1="168.82" y1="216.74" x2="207.15" y2="216.74"/>
          <polygon class="cls-9" points="184.28 147.69 184.28 137.54 206.23 137.54 206.23 104.58 33.6 104.58 42.98 137.54 77.62 137.54 77.62 147.69 45.87 147.69 73.95 246.27 206.23 246.27 206.23 221.39 168.31 221.39 168.31 202.83 206.23 202.83 206.23 147.69 184.28 147.69"/>
          <polygon class="cls-2" points="184.28 147.69 184.28 137.54 206.23 137.54 206.23 104.58 33.6 104.58 42.98 137.54 77.62 137.54 77.62 147.69 45.87 147.69 73.95 246.27 206.23 246.27 206.23 221.39 168.31 221.39 168.31 202.83 206.23 202.83 206.23 147.69 184.28 147.69"/>
          <rect class="cls-9" x="168.82" y="216.74" width="13.32" height="4.41"/>
          <rect class="cls-4" x="168.82" y="216.74" width="13.32" height="4.41"/>
          <rect class="cls-12" x="79.2" y="187.51" width="103.75" height="1.06"/>
          <polygon class="cls-12" points="182.95 163.24 182.95 162.12 157.65 153.94 157.65 145.1 106.11 161.75 106.11 154.55 106.15 154.54 131.88 146.22 131.88 145.1 79.2 162.12 79.2 163.24 104.97 154.92 104.97 163.24 130.74 154.92 130.74 163.24 131.88 163.24 131.88 154.55 131.92 154.54 156.51 146.59 156.51 163.24 157.65 163.24 157.65 155.07 157.72 155.09 182.95 163.24"/>
          <g>
            <path class="cls-12" d="M111.33,174.26c-1.98,0-3.59,1.61-3.59,3.59s1.61,3.59,3.59,3.59,3.59-1.61,3.59-3.59-1.61-3.59-3.59-3.59M111.33,180.37c-1.39,0-2.52-1.13-2.52-2.52s1.13-2.52,2.52-2.52,2.52,1.13,2.52,2.52-1.13,2.52-2.52,2.52"/>
            <polygon class="cls-12" points="182.95 170.62 182.95 169.58 177.4 169.58 177.4 181.18 182.95 181.18 182.95 180.13 178.53 180.13 178.53 175.46 182.44 175.46 182.44 174.42 178.53 174.42 178.53 170.62 182.95 170.62"/>
            <polygon class="cls-12" points="79.2 181.18 84.76 181.18 84.76 180.13 80.33 180.13 80.33 175.46 84.25 175.46 84.25 174.42 80.33 174.42 80.33 170.63 84.76 170.63 84.76 169.58 79.2 169.58 79.2 181.18"/>
            <polygon class="cls-12" points="99.26 170.62 102.14 170.62 102.14 181.18 103.27 181.18 103.27 170.62 106.15 170.62 106.15 169.58 99.26 169.58 99.26 170.62"/>
            <polygon class="cls-12" points="124.2 169.58 123.07 169.58 123.07 181.18 128.64 181.18 128.64 180.13 124.2 180.13 124.2 169.58"/>
            <rect class="cls-12" x="158.73" y="169.58" width="1.13" height="11.6"/>
            <polygon class="cls-12" points="149.3 173.48 145.66 169.59 145.65 169.58 144.45 169.58 144.45 181.18 145.58 181.18 145.58 171.06 149.3 175.04 153.02 171.09 153.02 181.18 154.15 181.18 154.15 169.58 152.95 169.58 149.3 173.48"/>
            <path class="cls-12" d="M138.82,177.56c0,1.57-1.26,2.8-2.86,2.8h0c-1.6,0-2.86-1.23-2.86-2.8v-7.98h-1.13v7.94c0,2.19,1.75,3.91,3.99,3.91h0c2.24,0,3.99-1.71,3.99-3.91v-7.94h-1.13v7.98Z"/>
            <polygon class="cls-12" points="171.69 174.04 165.58 169.58 164.46 169.58 164.46 181.18 165.58 181.18 165.58 170.89 171.69 175.38 171.69 181.18 172.81 181.18 172.81 169.58 171.69 169.58 171.69 174.04"/>
            <path class="cls-12" d="M92.05,169.58l-4.33,11.55-.02.05h1.2l1.01-2.72h5.48l1.01,2.72h1.19l-4.35-11.6h-1.19ZM90.3,177.42l2.35-6.32,2.35,6.32h-4.71Z"/>
            <polygon class="cls-9" points="211.02 120.07 216.99 124.36 216.99 115.79 211.02 120.07"/>
            <polygon class="cls-9" points="121.48 98.25 125.76 92.29 117.19 92.29 121.48 98.25"/>
            <polygon class="cls-9" points="211.02 173.48 216.99 177.77 216.99 169.2 211.02 173.48"/>
            <polygon class="cls-9" points="56.07 205.63 50.1 209.91 50.1 201.34 56.07 205.63"/>
            <line class="cls-4" x1="331.48" y1="28.16" x2="331.48" y2="39.03"/>
            <polyline class="cls-4" points="335.87 31.59 331.48 28.16 327.09 31.59"/>
            <line class="cls-4" x1="331.48" y1="396.62" x2="331.48" y2="385.75"/>
            <polyline class="cls-4" points="335.87 393.19 331.48 396.62 327.09 393.19"/>
          </g>
          <path class="cls-12" d="M111.33,174.26c-1.98,0-3.59,1.61-3.59,3.59s1.61,3.59,3.59,3.59,3.59-1.61,3.59-3.59-1.61-3.59-3.59-3.59M111.33,180.37c-1.39,0-2.52-1.13-2.52-2.52s1.13-2.52,2.52-2.52,2.52,1.13,2.52,2.52-1.13,2.52-2.52,2.52"/>
          <polygon class="cls-12" points="182.95 170.62 182.95 169.58 177.4 169.58 177.4 181.18 182.95 181.18 182.95 180.13 178.53 180.13 178.53 175.46 182.44 175.46 182.44 174.42 178.53 174.42 178.53 170.62 182.95 170.62"/>
          <polygon class="cls-12" points="79.2 181.18 84.76 181.18 84.76 180.13 80.33 180.13 80.33 175.46 84.25 175.46 84.25 174.42 80.33 174.42 80.33 170.63 84.76 170.63 84.76 169.58 79.2 169.58 79.2 181.18"/>
          <polygon class="cls-12" points="99.26 170.62 102.14 170.62 102.14 181.18 103.27 181.18 103.27 170.62 106.15 170.62 106.15 169.58 99.26 169.58 99.26 170.62"/>
          <polygon class="cls-12" points="124.2 169.58 123.07 169.58 123.07 181.18 128.64 181.18 128.64 180.13 124.2 180.13 124.2 169.58"/>
          <rect class="cls-12" x="158.73" y="169.58" width="1.13" height="11.6"/>
          <polygon class="cls-12" points="149.3 173.48 145.66 169.59 145.65 169.58 144.45 169.58 144.45 181.18 145.58 181.18 145.58 171.06 149.3 175.04 153.02 171.09 153.02 181.18 154.15 181.18 154.15 169.58 152.95 169.58 149.3 173.48"/>
          <path class="cls-12" d="M138.82,177.56c0,1.57-1.26,2.8-2.86,2.8h0c-1.6,0-2.86-1.23-2.86-2.8v-7.98h-1.13v7.94c0,2.19,1.75,3.91,3.99,3.91h0c2.24,0,3.99-1.71,3.99-3.91v-7.94h-1.13v7.98Z"/>
          <polygon class="cls-12" points="171.69 174.04 165.58 169.58 164.46 169.58 164.46 181.18 165.58 181.18 165.58 170.89 171.69 175.38 171.69 181.18 172.81 181.18 172.81 169.58 171.69 169.58 171.69 174.04"/>
          <path class="cls-12" d="M92.05,169.58l-4.33,11.55-.02.05h1.2l1.01-2.72h5.48l1.01,2.72h1.19l-4.35-11.6h-1.19ZM90.3,177.42l2.35-6.32,2.35,6.32h-4.71Z"/>
          <polygon class="cls-9" points="211.02 120.07 216.99 124.36 216.99 115.79 211.02 120.07"/>
          <polygon class="cls-9" points="121.48 98.25 125.76 92.29 117.19 92.29 121.48 98.25"/>
          <polygon class="cls-9" points="211.02 173.48 216.99 177.77 216.99 169.2 211.02 173.48"/>
          <polygon class="cls-9" points="56.07 205.63 50.1 209.91 50.1 201.34 56.07 205.63"/>
          <line class="cls-4" x1="331.48" y1="28.16" x2="331.48" y2="39.03"/>
          <polyline class="cls-4" points="335.87 31.59 331.48 28.16 327.09 31.59"/>
          <line class="cls-4" x1="331.48" y1="396.62" x2="331.48" y2="385.75"/>
          <polyline class="cls-4" points="335.87 393.19 331.48 396.62 327.09 393.19"/>
          <g>
            <path class="cls-8" d="M122.65,211.3l-1.17,1.63-1.17-1.63h2.34M125.76,209.7h-8.57l4.28,5.97,4.28-5.97h0Z"/>
            <line class="cls-5" x1="331.48" y1="145.57" x2="331.48" y2="156.44"/>
            <polyline class="cls-5" points="335.87 149 331.48 145.57 327.09 149"/>
          </g>
        </g>
      </g>
    </g>
  </g>
</svg>