<?xml version="1.0" encoding="utf-8"?>
<!-- Generator: Adobe Illustrator 28.1.0, SVG Export Plug-In . SVG Version: 6.00 Build 0)  -->
<svg version="1.1" id="_レイヤー_2" xmlns="http://www.w3.org/2000/svg" xmlns:xlink="http://www.w3.org/1999/xlink" x="0px"
	 y="0px" viewBox="0 0 600 763.6" style="enable-background:new 0 0 600 763.6;" xml:space="preserve">
<style type="text/css">
	.st0{fill:none;}
	.st1{clip-path:url(#SVGID_00000075880636947958174590000017632876161714671514_);}
	.st2{fill:#FFFFFF;}
	.st3{fill:none;stroke:#CCCDCC;stroke-width:12;stroke-miterlimit:10;}
	.st4{clip-path:url(#SVGID_00000061434939891682353870000006378150061165309067_);}
	.st5{fill:#FFFFFF;stroke:#160058;stroke-width:1.32;stroke-miterlimit:10;}
	.st6{fill:#F2F3F3;}
	.st7{clip-path:url(#SVGID_00000059278440473133549220000007221426980472647850_);}
	.st8{opacity:0.4;}
	.st9{clip-path:url(#SVGID_00000004545918878445389970000017183497495405337229_);}
	.st10{fill:url(#SVGID_00000095304262804836507990000014393856088355706009_);}
	.st11{fill:#DCDDDD;}
	.st12{fill:none;stroke:#160058;stroke-width:1.8;stroke-miterlimit:10;}
	.st13{clip-path:url(#SVGID_00000155127633255215134060000014208015182026568338_);}
	.st14{clip-path:url(#SVGID_00000142876123817845239960000018046309679819717253_);}
	.st15{fill:none;stroke:#160058;stroke-width:2.41;stroke-miterlimit:10;}
	.st16{clip-path:url(#SVGID_00000016053616292461940040000006814370495072959364_);}
	.st17{fill:#221815;}
	.st18{clip-path:url(#SVGID_00000150093794932046575050000010204197404094077333_);}
	.st19{fill:#160058;}
	.st20{clip-path:url(#SVGID_00000151542689578254195970000002531819654800013739_);}
	.st21{fill:none;stroke:#160058;stroke-width:1.32;stroke-miterlimit:10;}
	.st22{fill:#281575;}
	.st23{fill:none;stroke:#281575;stroke-width:2.64;stroke-miterlimit:10;}
</style>
<pattern  x="-311.9" y="789.8" width="45" height="45" patternUnits="userSpaceOnUse" id="Unnamed_Pattern" viewBox="0 -45 45 45" style="overflow:visible;">
	<g>
		<rect y="-45" class="st0" width="45" height="45"/>
		<g>
			<rect y="-45" class="st0" width="45" height="45"/>
			<g>
				<defs>
					<rect id="SVGID_1_" y="-45" width="45" height="45"/>
				</defs>
				<clipPath id="SVGID_00000150067727420552535500000005251290634626818200_">
					<use xlink:href="#SVGID_1_"  style="overflow:visible;"/>
				</clipPath>
				<g style="clip-path:url(#SVGID_00000150067727420552535500000005251290634626818200_);">
					<rect y="-45" class="st2" width="45" height="45"/>
					<line class="st3" x1="0" y1="-22.5" x2="45" y2="-22.5"/>
				</g>
			</g>
		</g>
	</g>
</pattern>
<g id="_レイヤー_1-2">
	<g>
		<g>
			<defs>
				<path id="SVGID_00000065050311264170385610000010612940673811544474_" d="M52.8,0h494.3C576.4,0,600,23.7,600,52.8v658
					c0,29.2-23.7,52.8-52.8,52.8H52.8C23.7,763.6,0,740,0,710.8v-658C0,23.7,23.7,0,52.8,0z"/>
			</defs>
			<clipPath id="SVGID_00000021798638610617955340000016219629132712839043_">
				<use xlink:href="#SVGID_00000065050311264170385610000010612940673811544474_"  style="overflow:visible;"/>
			</clipPath>
			<g style="clip-path:url(#SVGID_00000021798638610617955340000016219629132712839043_);">
				<g>
					<rect x="0" class="st5" width="600" height="763.6"/>
					<rect x="124.1" y="57.7" class="st6" width="475.9" height="706"/>
					<rect x="482.5" class="st6" width="117.5" height="58.9"/>
					<rect x="491.6" y="189.8" class="st2" width="51.4" height="21.2"/>
					<polygon class="st2" points="0,21.5 0,538.2 60.3,538.2 60.3,571 0,571 0,601.1 40.8,601.1 45.3,655.5 123.4,655.5 
						123.4,607.7 218.1,607.7 246.2,607.7 246.2,655.5 482.5,655.5 482.5,58.9 199.6,21.5 					"/>
					<g>
						<defs>
							<rect id="SVGID_00000059277990424142680470000014644100618303740844_" x="0" width="600" height="763.6"/>
						</defs>
						<clipPath id="SVGID_00000110460467293781354580000003292524878813317556_">
							<use xlink:href="#SVGID_00000059277990424142680470000014644100618303740844_"  style="overflow:visible;"/>
						</clipPath>
						<g style="clip-path:url(#SVGID_00000110460467293781354580000003292524878813317556_);">
							<g class="st8">
								<g>
									<defs>
										<rect id="SVGID_00000056429511873566376080000016675706584716287365_" x="-234.5" y="21.5" width="717" height="633.9"/>
									</defs>
									<clipPath id="SVGID_00000178905559130032296030000005926804979337101459_">
										<use xlink:href="#SVGID_00000056429511873566376080000016675706584716287365_"  style="overflow:visible;"/>
									</clipPath>
									<g style="clip-path:url(#SVGID_00000178905559130032296030000005926804979337101459_);">
										
											<pattern  id="SVGID_00000141446557708791718520000006166880638808707516_" xlink:href="#Unnamed_Pattern" patternTransform="matrix(0.1061 -0.1061 0.1061 0.1061 -13031.4619 1742.9409)">
										</pattern>
										<polygon style="fill:url(#SVGID_00000141446557708791718520000006166880638808707516_);" points="482.5,58.9 199.6,21.5 
											-130.3,21.5 -4.6,419.5 -234.5,419.5 -234.5,538.2 60.3,538.2 60.3,571 -234.5,571 -234.5,601.1 40.8,601.1 45.3,655.5 
											123.4,655.5 123.4,607.7 218.1,607.7 246.2,607.7 246.2,655.5 482.5,655.5 										"/>
									</g>
								</g>
							</g>
						</g>
					</g>
					<polygon class="st11" points="123.6,592.7 123.6,683.4 46.7,671.4 40.8,601.1 					"/>
					<polygon class="st12" points="123.6,592.7 123.6,683.4 46.7,671.4 40.8,601.1 					"/>
					<polygon class="st11" points="482.5,592.7 482.5,655.5 246.2,657.1 246.2,607.7 218.1,607.7 218.1,592 					"/>
					<polygon class="st12" points="482.5,592.7 482.5,655.5 246.2,657.1 246.2,607.7 218.1,607.7 218.1,592 					"/>
					<polygon class="st11" points="402.4,524 482.5,524 482.5,286.9 424.1,286.9 424.1,310.9 398.4,310.9 398.4,391 404,391 					
						"/>
					<polygon class="st12" points="402.4,524 482.5,524 482.5,286.9 424.1,286.9 424.1,310.9 398.4,310.9 398.4,391 404,391 					
						"/>
					<polygon class="st11" points="52.3,21.1 52.3,33.1 94.7,33.1 94.7,20.8 					"/>
					<polygon class="st12" points="52.3,21.1 52.3,33.1 94.7,33.1 94.7,20.8 					"/>
					<polygon class="st11" points="115.3,406.1 115.3,417.2 160.4,417.2 160.4,439 115.7,439 115.7,501.4 211.2,529.9 334.4,529.9 
						334.4,443.3 300.2,443.3 300.2,424 333.9,424 333.9,406.8 					"/>
					<polygon class="st12" points="115.3,406.1 115.3,417.2 160.4,417.2 160.4,439 115.7,439 115.7,501.4 211.2,529.9 334.4,529.9 
						334.4,443.3 300.2,443.3 300.2,424 333.9,424 333.9,406.8 					"/>
					<polygon class="st11" points="123.6,683.9 123.6,763.6 512.4,763.6 512.4,720.9 352.4,720.9 352.4,745.3 273,745.3 273,702.9 
						188.2,702.9 176.1,683.9 					"/>
					<g>
						<defs>
							<rect id="SVGID_00000114045521702633809800000001350423624006831275_" x="0" width="600" height="763.6"/>
						</defs>
						<clipPath id="SVGID_00000029021554223455769520000012353813356079732368_">
							<use xlink:href="#SVGID_00000114045521702633809800000001350423624006831275_"  style="overflow:visible;"/>
						</clipPath>
						<g style="clip-path:url(#SVGID_00000029021554223455769520000012353813356079732368_);">
							<polygon class="st12" points="512.4,793.7 512.4,720.9 352.4,720.9 352.4,745.3 273,745.3 273,702.9 188.2,702.9 
								176.1,683.9 123.6,683.9 123.6,793.7 							"/>
						</g>
					</g>
					<polyline class="st12" points="149.4,511.3 149.4,450.8 275.1,450.8 275.1,530.2 					"/>
					<polygon class="st11" points="199.6,21.5 482.4,58.9 481.6,112.9 464.1,112.9 464.1,87.5 313.7,64.1 313.7,86.9 241.2,86.9 
						241.2,58.8 199.5,58.8 					"/>
					<polygon class="st12" points="199.6,21.5 482.4,58.9 481.6,112.9 464.1,112.9 464.1,87.5 313.7,64.1 313.7,86.9 241.2,86.9 
						241.2,58.8 199.5,58.8 					"/>
					<line class="st12" x1="482.5" y1="539.8" x2="465" y2="539.8"/>
					<line class="st12" x1="482.5" y1="552.6" x2="465" y2="552.6"/>
					<line class="st12" x1="482.5" y1="565.5" x2="465" y2="565.5"/>
					<line class="st12" x1="482.5" y1="578.4" x2="465" y2="578.4"/>
					<line class="st12" x1="482.5" y1="123.5" x2="465" y2="123.5"/>
					<line class="st12" x1="482.5" y1="135.9" x2="465" y2="135.9"/>
					<line class="st12" x1="482.5" y1="148.4" x2="465" y2="148.4"/>
					<line class="st12" x1="482.5" y1="160.8" x2="465" y2="160.8"/>
					<line class="st12" x1="482.5" y1="173.2" x2="465" y2="173.2"/>
					<line class="st12" x1="482.5" y1="225.6" x2="465" y2="225.6"/>
					<line class="st12" x1="482.5" y1="238" x2="465" y2="238"/>
					<line class="st12" x1="482.5" y1="250.5" x2="465" y2="250.5"/>
					<line class="st12" x1="482.5" y1="262.9" x2="465" y2="262.9"/>
					<line class="st12" x1="482.5" y1="275.3" x2="465" y2="275.3"/>
					<line class="st12" x1="137.8" y1="590.6" x2="137.8" y2="608"/>
					<line class="st12" x1="151.4" y1="590.6" x2="151.4" y2="608"/>
					<line class="st12" x1="165" y1="590.6" x2="165" y2="608"/>
					<line class="st12" x1="178.6" y1="590.6" x2="178.6" y2="608"/>
					<line class="st12" x1="192.2" y1="590.6" x2="192.2" y2="608"/>
					<line class="st12" x1="205.8" y1="590.6" x2="205.8" y2="608"/>
					<g>
						<defs>
							<rect id="SVGID_00000036219982384739695030000013516614619609102249_" x="0" width="600" height="763.6"/>
						</defs>
						<clipPath id="SVGID_00000121963716028670815260000004690002261068516784_">
							<use xlink:href="#SVGID_00000036219982384739695030000013516614619609102249_"  style="overflow:visible;"/>
						</clipPath>
						<g style="clip-path:url(#SVGID_00000121963716028670815260000004690002261068516784_);">
							<polyline class="st15" points="-134.5,8.2 -4.6,419.5 -221.1,419.5 							"/>
							<polyline class="st15" points="-199.5,538.2 60.3,538.2 60.3,571 -47.9,571 							"/>
							<line class="st15" x1="40.7" y1="601.4" x2="-47.9" y2="601.4"/>
						</g>
					</g>
					<rect x="540.7" y="720.9" class="st11" width="36.3" height="42.7"/>
					<g>
						<defs>
							<rect id="SVGID_00000166674156091849937970000003929979673047578301_" x="0" width="600" height="763.6"/>
						</defs>
						<clipPath id="SVGID_00000020363176857826871130000004351950235947853727_">
							<use xlink:href="#SVGID_00000166674156091849937970000003929979673047578301_"  style="overflow:visible;"/>
						</clipPath>
						<g style="clip-path:url(#SVGID_00000020363176857826871130000004351950235947853727_);">
							<rect x="540.7" y="720.9" class="st12" width="36.3" height="72.7"/>
						</g>
					</g>
					<polygon class="st11" points="94.7,20.8 94.7,52.4 129.7,52.4 129.7,82.1 199.6,82.1 199.6,21.5 					"/>
					<polygon class="st12" points="94.7,20.8 94.7,52.4 129.7,52.4 129.7,82.1 199.6,82.1 199.6,21.5 					"/>
					<g>
						<path class="st17" d="M539.3,380.6c-2.4-1.2-3.8-2.2-5.5-4.1v4.5h-2.3v-4.5c-1,1.1-2.5,2.7-5.6,4.2l-1.7-1.5
							c2.1-0.8,3.5-1.6,5.8-3.9h-3.5v-6.3h5v-1h-7V366h7v-1.6l2.3,0.2c0.2,0,0.3,0.1,0.3,0.2c0,0.1-0.1,0.1-0.1,0.2
							c-0.2,0.1-0.2,0.2-0.2,0.3v0.8h7v1.8h-7v1h5.1v6.3h-3.7c1.3,1.3,2.6,2.3,5.7,3.8L539.3,380.6L539.3,380.6z M531.4,370.2h-2.8
							v0.9h2.8V370.2z M531.4,372.7h-2.8v0.9h2.8V372.7z M536.6,370.2h-2.9v0.9h2.9V370.2z M536.6,372.7h-2.9v0.9h2.9V372.7z"/>
						<path class="st17" d="M554.5,366.9v2.3h4.7v11.5h-2.1V380h-10.5v0.8h-2.1v-11.6h4.5v-2.3h-5.3v-2h16.5v2H554.5L554.5,366.9z
							 M557.1,374.3c-0.3,1.1-1.1,1.5-1.7,1.5h-1.7c-1,0-1.3-0.9-1.3-1.6v-3.1h-1.3c0,1-0.1,2.1-0.7,3.5c-0.5,1.1-1.1,1.6-1.7,2.2
							l-2-1.3c0.6-0.4,1.2-0.8,1.7-1.7c0.6-1,0.6-1.9,0.6-2.7h-2.4v6.9h10.5V374.3L557.1,374.3z M552.4,366.9H551v2.3h1.3V366.9z
							 M557.1,371.2h-2.6v2.3c0,0.3,0.1,0.4,0.4,0.4c0.4,0,0.5-0.2,0.7-1.3l1.4,0.7L557.1,371.2L557.1,371.2z"/>
					</g>
					<g>
						<path class="st17" d="M517.7,404.8v-1h-8.2v1h-2.2v-14.2h3.6c0.5-1,0.6-1.8,0.7-2.2l2.6,0.2c0.2,0,0.3,0.1,0.3,0.2
							s-0.1,0.2-0.2,0.2c-0.3,0.2-0.4,0.2-0.5,0.4c0,0.1-0.4,1-0.5,1.2h6.7v14.2H517.7L517.7,404.8z M517.7,392.6h-8.2v1.7h8.2
							V392.6z M517.7,396.2h-8.2v1.9h8.2V396.2z M517.7,399.9h-8.2v2.1h8.2V399.9z"/>
						<path class="st17" d="M537.1,404.8v-0.7h-10.8v0.7h-2.1v-13h6.4v-3.4l2.3,0.1c0.2,0,0.4,0.1,0.4,0.3c0,0.1,0,0.2-0.2,0.3
							c-0.2,0.1-0.3,0.2-0.3,0.4v2.4h6.4v13L537.1,404.8L537.1,404.8z M530.6,393.9h-4.2v3h4.2V393.9z M530.6,399h-4.2v3.3h4.2V399z
							 M537.1,393.9h-4.2v3h4.2V393.9z M537.1,399h-4.2v3.3h4.2V399z"/>
						<path class="st17" d="M558.9,404.6h-8.6c-3,0-3.9-1.1-4.6-1.9c-0.6,0.7-1,1-1.9,1.8c-0.1,0.2-0.2,0.5-0.3,0.5
							c-0.1,0-0.2-0.1-0.2-0.2l-1-2c0.7-0.3,1.7-0.8,2.4-1.3v-4.1h-1.9v-1.9h3.9v5.6c0,1.9,2.8,1.9,4.3,1.9c2.9,0,5.8-0.1,8.7-0.4
							L558.9,404.6L558.9,404.6z M545.7,392.5c-0.5-0.6-1.4-1.5-2.7-2.3l1.3-1.5c1,0.6,1.8,1.3,2.7,2.3L545.7,392.5z M556.4,402.2
							h-1l-0.7-1.6c1.2,0,1.3,0,1.3-0.5v-0.7h-2v2.4h-2v-2.4h-1.9v2.6h-2v-9h3.9c-0.8-0.5-1.6-0.9-2.5-1.3l0.6-1h-2v-1.8h8.8
							l0.6,0.8c-0.4,0.5-1.2,1.3-2.8,2.7c0.1,0,0.5,0.3,0.6,0.3l-0.3,0.4h2.7v7.6C558.1,401.4,557.5,402.2,556.4,402.2L556.4,402.2z
							 M552.1,394.6h-1.9v1h1.9V394.6z M552.1,396.9h-1.9v1h1.9V396.9z M551.7,390.7c0.2,0.1,1.3,0.6,1.5,0.7
							c0.3-0.3,0.5-0.6,0.6-0.7H551.7L551.7,390.7z M556.1,394.6h-2v1h2V394.6z M556.1,396.9h-2v1h2V396.9z"/>
						<path class="st17" d="M577.9,399.1c-0.2-0.1-0.3-0.1-0.7-0.3v6h-2.1v-0.4H572v0.6h-2.1v-5.8c-0.1,0-0.1,0-0.2,0.1l-1.2-1.2
							v0.9h-1.9v2.5c1.5-0.4,1.9-0.5,2.4-0.7l-0.1,2c-1.1,0.4-2.8,0.9-4.2,1.4c-0.2,0.1-1.4,0.4-1.7,0.4c-0.3,0.1-0.7,0.2-0.8,0.3
							c-0.2,0.3-0.2,0.3-0.3,0.3s-0.2-0.1-0.3-0.5l-0.4-2c0.2,0,0.7-0.2,0.8-0.2v-6.8l1.9,0.1c0.3,0,0.5,0.1,0.5,0.2
							c0,0.1-0.1,0.2-0.2,0.2c-0.2,0.1-0.2,0.2-0.2,0.2v5.6c0.2,0,0.2-0.1,0.6-0.2V395h-2.2v-6.3h6.1v4.4c1.3-1.3,2.1-3,2.7-4.8
							l1.9,0.3c0.2,0,0.5,0.1,0.5,0.3c0,0.1,0,0.1-0.1,0.1c0,0-0.2,0.1-0.2,0.1c-0.1,0-0.1,0.1-0.2,0.4h3.8l0.8,0.8
							c-0.8,2.2-2,3.8-2.6,4.6c0.7,0.6,1.9,1.5,4.5,2.2L577.9,399.1L577.9,399.1z M566.4,390.5h-1.9v2.7h1.9V390.5z M571.1,393.2
							c-0.7,1.2-1,1.4-1.3,1.7l-1.2-0.9v1h-1.9v1.9h1.9v0.6c1.4-0.7,2.5-1.3,3.8-2.5C571.8,394.5,571.4,393.9,571.1,393.2
							L571.1,393.2z M573.6,396.5c-0.5,0.5-1,1-1.9,1.7h4.3C575.1,397.6,574.5,397.2,573.6,396.5z M575.1,400.1H572v2.5h3.1V400.1z
							 M572.5,391.5c0.3,1.1,0.7,1.6,1.1,2.1c0.2-0.3,0.7-0.9,1.1-2.1H572.5L572.5,391.5z"/>
					</g>
					<g>
						<path class="st17" d="M44.6,377.9v-0.8h-4.4v5.5h-2.2v-5.5h-4.4v0.8h-2.2v-8.6h6.6v-3.3l2.4,0.2c0.1,0,0.3,0,0.3,0.2
							c0,0.1-0.1,0.2-0.2,0.3c-0.1,0.1-0.3,0.2-0.3,0.3v2.3h6.6v8.6L44.6,377.9L44.6,377.9z M37.9,371.5h-4.4v3.6h4.4V371.5z
							 M44.6,371.5h-4.4v3.6h4.4V371.5z"/>
						<path class="st17" d="M65.1,383c-5-1.7-6.3-4.6-6.8-5.7c-0.6,1.5-1.8,4.2-6.9,5.6l-1.5-2.1c1.4-0.2,2.9-0.6,4.1-1.3
							c1.5-1,2.1-2.3,2.3-2.8h-6.4v-2h1.4v-5.6h5.7c0-1.6-0.1-2.2-0.1-3l2.2,0.1c0.4,0,0.7,0.1,0.7,0.3c0,0.2-0.1,0.2-0.2,0.3
							c-0.2,0.1-0.2,0.2-0.2,0.3c0,0.6,0,1.4,0,2h5.8v5.6h1.4v2h-6.2c1,2.2,3.4,3.9,6.6,4.4L65.1,383L65.1,383z M53.5,371v3.8h3.4
							c0.2-1.4,0.2-2.1,0.2-3.8H53.5z M63,371h-3.7c0,0.7,0,2.3-0.2,3.8H63L63,371L63,371z"/>
					</g>
					<g>
						<path class="st17" d="M47.1,406.3h-8.6c-3,0-3.9-1.1-4.6-1.9c-0.6,0.7-1,1-1.9,1.8c-0.1,0.2-0.2,0.5-0.3,0.5
							c-0.1,0-0.2-0.1-0.2-0.2l-1-2c0.7-0.3,1.7-0.8,2.4-1.3V399h-1.9v-1.9h3.9v5.6c0,1.9,2.8,1.9,4.3,1.9c2.9,0,5.8-0.1,8.7-0.4
							L47.1,406.3L47.1,406.3z M33.9,394.2c-0.5-0.6-1.4-1.5-2.6-2.3l1.3-1.5c1,0.6,1.8,1.3,2.7,2.3L33.9,394.2z M44.6,403.9h-1
							l-0.7-1.6c1.2,0,1.3,0,1.3-0.5v-0.7h-2v2.4h-2v-2.4h-1.9v2.6h-2v-9h3.9c-0.8-0.5-1.6-0.9-2.5-1.3l0.6-1h-2v-1.8h8.9l0.6,0.8
							c-0.4,0.5-1.2,1.3-2.8,2.7c0.1,0,0.5,0.3,0.6,0.3l-0.3,0.4h2.7v7.6C46.3,403.1,45.7,404,44.6,403.9L44.6,403.9z M40.3,396.3
							h-1.9v1h1.9V396.3z M40.3,398.7h-1.9v1h1.9V398.7z M39.9,392.5c0.2,0.1,1.3,0.6,1.5,0.7c0.3-0.3,0.5-0.6,0.6-0.7H39.9
							L39.9,392.5z M44.3,396.3h-2v1h2V396.3z M44.3,398.7h-2v1h2V398.7z"/>
						<path class="st17" d="M66.1,400.9c-0.2-0.1-0.3-0.1-0.7-0.3v6h-2.1v-0.4h-3.1v0.6h-2.1v-5.8c-0.1,0-0.1,0-0.2,0.1l-1.2-1.2
							v0.9h-1.9v2.5c1.5-0.4,1.9-0.5,2.4-0.7l-0.1,2c-1.1,0.4-2.8,0.9-4.2,1.4c-0.2,0.1-1.4,0.4-1.7,0.4c-0.3,0.1-0.6,0.2-0.8,0.3
							c-0.2,0.3-0.2,0.3-0.3,0.3s-0.2-0.1-0.4-0.5l-0.4-2c0.2,0,0.7-0.2,0.9-0.2v-6.8l1.9,0.1c0.3,0,0.5,0.1,0.5,0.2
							c0,0.1-0.1,0.2-0.2,0.2c-0.2,0.1-0.2,0.2-0.2,0.2v5.6c0.2,0,0.2-0.1,0.6-0.2v-6.9h-2.2v-6.3h6.1v4.4c1.3-1.3,2.1-3,2.7-4.8
							l1.9,0.3c0.2,0,0.5,0.1,0.5,0.3c0,0.1,0,0.1-0.1,0.1c0,0-0.2,0.1-0.2,0.1c-0.1,0-0.1,0.1-0.2,0.4H65l0.8,0.8
							c-0.9,2.2-2,3.8-2.6,4.6c0.7,0.6,1.9,1.5,4.5,2.2L66.1,400.9L66.1,400.9z M54.6,392.3h-1.9v2.7h1.9V392.3z M59.3,395
							c-0.7,1.2-1,1.4-1.3,1.7l-1.2-0.9v1h-1.9v1.9h1.9v0.6c1.4-0.7,2.5-1.3,3.8-2.5C59.9,396.2,59.6,395.7,59.3,395L59.3,395z
							 M61.8,398.2c-0.5,0.5-1,1-1.9,1.7h4.3C63.3,399.4,62.7,398.9,61.8,398.2z M63.3,401.8h-3.1v2.5h3.1V401.8z M60.7,393.2
							c0.4,1.1,0.6,1.6,1.1,2.1c0.2-0.3,0.6-0.9,1.1-2.1H60.7L60.7,393.2z"/>
					</g>
					<g>
						<path class="st17" d="M183.8,491.8c-0.2,0.7-0.4,1.4-0.7,2.1c0.2-0.1,0.3-0.1,0.5-0.2v1.9c-2.5,0.8-4.1,1.2-6.4,1.8
							c-0.1,0-0.1,0.1-0.2,0.1c-0.2,0.2-0.2,0.2-0.3,0.2c-0.2,0-0.3-0.4-0.3-0.5l-0.2-1.8c1,0,2.1-0.2,2.8-0.4v-4.3h-2.6v-1.9h2.6
							v-0.9h-1.3v-1.4c-0.2,0.1-0.2,0.1-0.5,0.4l-1.6-1.4c0.7-0.4,1.3-0.7,2.2-1.6c1-1,1.3-1.7,1.5-2.3l2,0.6
							c0.1,0.1,0.3,0.2,0.3,0.3c0,0.1,0,0.2-0.1,0.2c0.6,0.7,1.6,1.4,2.4,1.8l-1.3,1.4c-1-0.7-1.7-1.3-2.2-2c-0.9,1.1-1.3,1.6-2,2.2
							h4.5v1.9h-1.7v0.9h2.1v1.9h-2.1v3.8c0.6-0.2,1-0.3,1.6-0.5l-1.5-0.6c0.4-0.7,0.6-1.5,0.9-2.6l1.8,0.4c0.3,0.1,0.3,0.2,0.3,0.2
							C184.2,491.7,184,491.7,183.8,491.8L183.8,491.8z M177.1,494.6c-0.1-0.9-0.4-1.8-0.9-3.1l1.8-0.4c0.4,1,0.7,2,0.9,3
							L177.1,494.6L177.1,494.6z M191.9,498c-1.5-1.4-2.8-3.1-3.6-5.1c-0.6,1.4-1.6,3.1-3.9,5.1l-2.2-1.5c2.7-1.1,4.2-3.4,4.8-5.9
							h-3.4v-2h3.5c0-0.8,0-1.1,0-1.9h-1.5c-0.1,0.5-0.4,1.2-0.8,1.9l-2-0.8c0.6-1,1.3-2.3,1.4-5.5l1.9,0.4c0.1,0,0.5,0.1,0.5,0.3
							c0,0.1-0.1,0.1-0.2,0.2c0,0-0.1,0.1-0.2,0.2c0,0.6-0.1,0.9-0.1,1.2h1.1c0-0.8,0-2.2,0-3.3l2.1,0.2c0.1,0,0.5,0.1,0.5,0.3
							c0,0.1,0,0.1-0.3,0.3c-0.1,0.1-0.1,0.2-0.1,0.6c0,0.1,0,1.8,0,2h3.1v2h-3.2c0,0.4,0,1.6,0,1.9h3.7v2h-3.4
							c0.4,2,1.7,4.1,4.4,5.8L191.9,498L191.9,498z"/>
						<path class="st17" d="M211.7,497.5h-7.9c-1.2,0-2.5-0.1-3.4-0.4c-1-0.4-1.4-1-1.6-1.3c-0.2,0.2-0.7,0.7-1.4,1.3
							c-0.6,0.5-0.6,0.5-0.7,0.7c-0.1,0.3-0.1,0.3-0.2,0.3c0,0-0.1-0.1-0.2-0.2l-1-2c1.6-0.6,2.1-0.9,2.4-1.2v-4.3h-2v-2.1h4.2v6
							c0,1.2,1.1,1.4,4,1.4s5.9-0.1,8.8-0.4L211.7,497.5L211.7,497.5z M198.4,485.6c-0.9-1.1-1.6-1.7-2.6-2.3l1.5-1.6
							c0.9,0.6,1.6,1.1,2.7,2.4L198.4,485.6L198.4,485.6z M207.2,485c-0.4,0.6-0.6,0.8-0.9,1.1h4.5v8.6h-2.1v-0.5h-4.7v0.5H202v-8.6
							h2.3c0.3-0.4,0.4-0.6,0.7-1.1h-4.2v-1.6h2.4c-0.4-0.8-0.7-1.2-1-1.6l1.8-0.8c0.6,0.7,0.9,1.3,1.2,2.1l-0.7,0.3h2.7
							c0.4-0.8,0.7-1.3,1-2.2l2.2,0.6c0.1,0,0.3,0.1,0.3,0.2c0,0,0,0.1-0.2,0.1c-0.2,0-0.2,0.1-0.2,0.1c-0.3,0.4-0.5,0.7-0.9,1.2
							h2.9v1.6L207.2,485L207.2,485z M208.7,487.5h-4.7v0.9h4.7V487.5z M208.7,489.7h-4.7v0.9h4.7V489.7z M208.7,491.9h-4.7v0.9h4.7
							V491.9z"/>
						<path class="st17" d="M230.2,483.9c-0.6,1.6-1.3,2.2-1.8,2.6c1.2,0.7,2.1,0.9,2.7,1.1l-1.2,1.6c-1.4-0.4-2.4-1.2-2.9-1.5
							c-1,0.5-1.4,0.7-2.4,1.1h3.9v1.1h-10.9v-1.1h6.6l-1-1.6c0.7-0.1,1.7-0.2,2.6-0.7c-0.4-0.6-0.6-1-0.6-1.2
							c-0.4,0.6-0.5,0.7-0.8,1l-1.2-0.5c-0.2,1.2-0.5,2.8-2.3,2.8l-0.6-1v0.7h-3.9v-2c-0.3,0.3-0.4,0.3-0.6,0.5l-1.4-0.9
							c0.8-0.7,1.4-1.4,2.1-2.5l0.9,0.5l0.1,0v-0.6h-2.5v-1.2h2.5v-0.8l1.5,0.1c0.4,0,0.6,0.1,0.6,0.2c0,0.1,0,0.1-0.2,0.2
							c-0.2,0.1-0.2,0.2-0.2,0.2h1v-0.7l1.5,0.1c0.2,0,0.4,0.1,0.4,0.2c0,0.1,0,0.1-0.2,0.2c-0.1,0.1-0.1,0.1-0.1,0.2h1.9v1.2h-1.9
							v0.6h1.4l0.3,0.4c0.6-0.6,1.1-1.4,1.6-3l1.6,0.3c0.3,0.1,0.5,0.1,0.5,0.3c0,0.1-0.1,0.2-0.2,0.2c-0.1,0-0.1,0.1-0.1,0.1
							c0,0.1-0.1,0.2-0.1,0.3h4.4v1.5L230.2,483.9L230.2,483.9z M215.1,491.3v-1.1h16.2v1.1H215.1z M227.2,497.9v-0.5h-8v0.5H217
							v-3.4h12.3v3.4H227.2z M217.7,484.9c-0.1,0.1-0.2,0.2-0.4,0.5h3.1v1.2c0.1,0.1,0.2,0.1,0.3,0.1c0.9,0,0.9-1.3,0.9-1.8
							L217.7,484.9L217.7,484.9z M217.5,492.6v-0.9h11.1v0.9H217.5z M217.5,494v-0.9h11.1v0.9H217.5z M219.2,486.4h-1.4v0.8h1.4
							V486.4z M227.2,495.6h-8v0.7h8V495.6z M220.3,483.2h-1v0.6h1V483.2z M226.3,483.9c0.2,0.8,0.8,1.4,1,1.6
							c0.5-0.5,0.9-1,1.1-1.6H226.3z"/>
						<path class="st17" d="M245,485.5h3.2v-1.3h-11.6v1.9h-2v-3.6h6.7v-1.3l2.3,0.1c0.3,0,0.5,0.1,0.5,0.2c0,0.2-0.2,0.3-0.4,0.5
							v0.5h6.6v3.4h-1.1l0.4,0.4c-0.4,0.7-0.8,1.1-2,2.9c0.9,0.6,1.8,1.2,3.5,1.7l-1.5,1.7c-0.4-0.2-0.6-0.3-1.1-0.5v1.5h-4.8v3.1
							c0,0.9-0.9,1.1-3,1.3l-1-2.2c1,0,1.1,0.1,1.2,0.1c0.5,0,0.6-0.1,0.6-0.5v-1.8h-5.1v-1.3c-0.6,0.3-0.9,0.4-1.1,0.4l-1.4-1.7
							c0.9-0.2,1.7-0.3,2.8-0.9c-0.2-0.2-0.5-0.5-0.9-0.9c-0.1,0.1-0.4,0.2-0.6,0.4l-1.3-1.4c2.5-1.4,3.2-2.5,3.8-3.8l1.1,0.3
							c0.3,0.1,0.9,0.3,0.9,0.5c0,0.2-0.2,0.2-0.4,0.3h2.5l0.4,0.5c-0.6,1.6-1.5,2.7-1.9,3.2h4.3c-0.9-1-1.6-2-2.6-4.2l1.8-0.8
							c0.4,1.3,0.9,2.2,1,2.3L245,485.5L245,485.5z M239.4,494.8c0.1,0,0.5,0.3,0.5,0.5c0,0.1-0.1,0.1-0.3,0.1
							c-0.3,0-0.3,0.1-0.6,0.4c-1.1,1.3-1.9,1.9-2.4,2.3l-1.6-1.4c1.6-1.1,2.2-1.7,3.1-2.8L239.4,494.8L239.4,494.8z M237.2,488.1
							c-0.3,0.2-0.3,0.3-0.4,0.4c0.4,0.3,0.7,0.6,1.1,0.9c0.2-0.2,0.2-0.2,0.4-0.4C237.7,488.5,237.4,488.3,237.2,488.1L237.2,488.1
							z M239.5,490.3c-0.9,0.8-1.5,1.2-2.2,1.7h10.7c-0.9-0.5-1.6-1-2.6-2v1h-5.9L239.5,490.3L239.5,490.3z M238.2,487l-0.1,0.2
							c0.3,0.2,0.5,0.4,1.1,0.9c0.3-0.4,0.5-0.7,0.7-1.1L238.2,487L238.2,487z M247.8,497.8c-1.2-1.4-1.9-2-2.8-2.8l1.6-1.2
							c1.3,1.1,2.1,1.9,2.9,2.7L247.8,497.8L247.8,497.8z M245.2,487c0.3,0.5,0.5,0.7,0.8,0.9c0.3-0.3,0.4-0.5,0.6-0.9H245.2z"/>
					</g>
					<g>
						<path class="st17" d="M141.6,724.9c-0.1,0.1-0.1,0.2-0.1,0.2c0,3.6,0,3.9-0.1,4.7c-0.5,4-2.8,5.9-4.2,7l-2.1-1.6
							c1.9-1.1,4.1-2.7,4.1-7.5c0-1.8-0.1-3.1-0.2-3.6l2.3,0.2c0.4,0,0.6,0.1,0.6,0.3C141.9,724.7,141.8,724.7,141.6,724.9
							L141.6,724.9z M145.1,736.9l-1.6-1.3V724l2.2,0.3c0.2,0,0.5,0.1,0.5,0.2c0,0.1,0,0.1-0.2,0.3c0,0-0.2,0.2-0.2,0.2v8.4
							c1.7-0.9,3.9-3.1,5.1-4.9l1.3,1.9C150.3,733,147.5,735.6,145.1,736.9L145.1,736.9z"/>
						<path class="st17" d="M163.1,739.1c-2.9-1.9-5.9-3.3-9.5-4.3l0.6-2.1c4.5,1.2,7.4,2.7,9.6,4L163.1,739.1L163.1,739.1z
							 M162.4,727.3c-2.4-1.6-5.2-2.4-8-2.9l0.4-2.2c2.9,0.5,6,1.7,8.1,2.8L162.4,727.3L162.4,727.3z M161.7,732.4
							c-2.2-1.4-5.2-2.3-6.7-2.8l0.5-2.1c2.1,0.5,5.2,1.7,6.7,2.6L161.7,732.4z"/>
						<path class="st17" d="M177.2,728.7c-0.9,1-1.6,1.8-3.5,3.4v7h-2.2v-5.4c-1.6,1-2.7,1.6-4.7,2.2l-1.3-1.9
							c4.3-1.1,7.6-3.8,9-5.7h-7.3v-2h8.9c0.3,0,0.5-0.1,0.7-0.3l1.6,1.7C177.8,728.1,177.4,728.5,177.2,728.7L177.2,728.7z
							 M174,725.8c-1.1-0.7-2.1-1.3-4-2l0.9-1.9c1.4,0.5,2.8,1.2,4.1,2.1L174,725.8z M178.4,736c-1.1-1.3-2.1-2.1-3.7-3l1.3-1.5
							c2.1,1,3.1,2,3.9,2.8L178.4,736L178.4,736z"/>
						<path class="st17" d="M181.8,736.7v-2.2h5.9v-7.8h-4.4v-2.2h11.3v2.2h-4.5v7.8h5.9v2.2H181.8L181.8,736.7z"/>
						<path class="st17" d="M211.2,737.4c-1.8-2.2-3.1-3.5-4.7-4.8c-1.5,1.7-3,3.2-6.6,4.9l-1.7-1.8c1.2-0.5,3.7-1.6,6.1-4.2
							c2.1-2.2,2.8-4.2,3.3-5.2h-7.3v-2.2h8.3c0.4,0,0.6-0.2,1-0.4l1.5,1.6c-0.4,0.3-0.8,0.6-1,1.2c-0.6,1.5-1,2.4-2.2,4.3
							c1.9,1.4,3.5,3,5.1,4.8L211.2,737.4L211.2,737.4z"/>
						<path class="st17" d="M224.6,733.7c-1.4-1.3-3.4-2.9-5.7-3.8v8.3h-2.3v-15.2l2.3,0.4c0.1,0,0.5,0.1,0.5,0.3
							c0,0.1-0.5,0.4-0.5,0.5v5.1l0.9-1.4c1,0.4,1.6,0.7,3.3,1.8c1.5,1,2.2,1.6,3,2.3L224.6,733.7L224.6,733.7z"/>
						<path class="st17" d="M234,729.5v1.3h2.6v1.8H234c0.7,1,1.7,1.8,2.2,2.2l-1.2,1.4c-0.5-0.3-0.8-0.6-1-0.9v3.4h-2.1v-3.7
							c-0.6,0.9-1.4,1.9-2.1,2.6l-1.7-1.1c1.3-1.1,2.3-2.3,3.1-4h-2.3v-1.8h3v-1.3h-3.2v-1.8h2c-0.1-0.4-0.4-1.4-0.6-2.1h-0.9v-1.7
							h3v-1.7l2.1,0.2c0.3,0,0.4,0.1,0.4,0.2s-0.1,0.2-0.2,0.2c0,0-0.2,0.2-0.2,0.3v0.8h2.5v1.7h-0.6c-0.2,0.8-0.4,1.3-0.8,2.1h1.6
							v1.8L234,729.5L234,729.5z M232,725.6c0.2,0.6,0.5,1.4,0.7,2.1h0.7c0.1-0.4,0.4-1.3,0.6-2.1H232z M244.7,724.6
							c-0.2,0-0.6,0.1-0.9,0.2c-0.1,0-2.2,0.5-4.2,0.7c0,0.6,0,0.9,0,2.4h5.4v2.1h-1.7v8.9h-2v-8.9h-1.7c-0.2,4.7-0.7,6.6-2.3,9
							l-2-0.7c0.6-0.7,1-1.2,1.5-2.2c0.8-1.9,0.9-4.2,0.9-7.2c0-1.7,0-3.4-0.1-5.1l1.2,0.1c0.2,0,0.5,0,0.6,0
							c3.1-0.6,3.5-0.7,4.5-1.1l1.1,1.4c0.1,0.1,0.2,0.3,0.2,0.4C245.1,724.5,245,724.5,244.7,724.6L244.7,724.6z"/>
						<path class="st17" d="M259.6,729.2l-0.5,1h4.2v8.7h-2.2v-0.8h-4.9v0.8H254v-8.7h2.7l0.5-1h-4.4v-1.5c-0.6,1-0.8,1.3-1.1,1.8
							c0.4,0.2,0.6,0.3,0.6,0.5c0,0.2-0.1,0.3-0.2,0.4c-0.1,0.1-0.2,0.2-0.2,0.3v8.2h-2.1v-6.8c-0.1,0.2-0.3,0.5-0.8,0.9l-1.8-1.4
							c1.5-1.6,2.9-3.3,4-5.8l1.7,0.6c0.2,0.1,0.6,0.2,0.6,0.4c0,0.2-0.2,0.2-0.2,0.2c-0.2,0.1-0.2,0.1-0.4,0.3h10.9v1.8
							L259.6,729.2L259.6,729.2z M261.9,726.9v-1.1h-11.6v1.3h-2.2v-3h6.7v-1.7l1.6,0.1c0.2,0,1.2,0,1.2,0.3c0,0.2-0.1,0.3-0.3,0.5
							v0.9h6.7v2.9L261.9,726.9L261.9,726.9z M261.1,732h-4.9v1.3h4.9V732z M261.1,735h-4.9v1.3h4.9V735z"/>
					</g>
					<g>
						<path class="st17" d="M505.1,196.7v1.8h3.5v8.7H507v-0.5h-7.8v0.6h-1.6v-8.7h3.4v-1.8h-4v-1.5h12.4v1.5H505.1L505.1,196.7z
							 M507,202.3c-0.2,0.8-0.8,1.2-1.3,1.2h-1.2c-0.8,0-1-0.7-1-1.2v-2.3h-1c0,0.8,0,1.6-0.5,2.6c-0.4,0.8-0.8,1.2-1.3,1.6l-1.5-1
							c0.4-0.3,0.9-0.6,1.3-1.2c0.4-0.8,0.5-1.4,0.5-2h-1.8v5.2h7.8V202.3L507,202.3z M503.5,196.7h-1v1.8h1V196.7z M507,199.9h-1.9
							v1.8c0,0.2,0.1,0.3,0.3,0.3c0.3,0,0.4-0.2,0.5-1l1.1,0.5L507,199.9L507,199.9z"/>
						<path class="st17" d="M522.9,207.2c-1.3-0.7-2-1.2-3-2.2c-1.1,1.1-2,1.6-3.4,2.3l-1.3-1.2c1.5-0.5,2.5-1.1,3.8-2.4
							c-0.6-1-0.8-1.8-1.1-2.8c-0.2,0.2-0.4,0.6-0.5,0.7l-1.5-0.6c0.2-0.2,0.3-0.3,0.4-0.5h-3.2v2.6c0,0.5,0.1,0.7,0.5,0.7h1.4
							c0.3,0,0.5-0.1,0.6-0.4c0.1-0.4,0.2-0.5,0.2-1l1.3,0.6c-0.4,1.7-0.8,2.4-2.1,2.4h-2.1c-0.8,0-1.5-0.6-1.5-1.7V199h3.4v-1.8
							h-3.4v-1.5h5v4.2c0.4-0.6,0.7-1.2,1.1-2.6c0.3-1.1,0.4-1.9,0.5-2.5l1.7,0.4c0.2,0,0.2,0.1,0.2,0.2c0,0.1,0,0.1-0.2,0.2
							c-0.2,0.1-0.2,0.1-0.2,0.2c-0.1,0.6-0.2,0.7-0.3,1.2h4.2v1.5h-1c-0.4,2.7-0.9,3.9-1.8,5.3c1,1.2,2.4,2,3.1,2.3L522.9,207.2
							L522.9,207.2z M519,198.5c0.1,1.4,0.3,2.7,1,3.9c0.8-1.3,1.1-2.6,1.2-3.9H519L519,198.5z"/>
						<path class="st17" d="M531.1,203.1c-0.5-0.4-0.8-0.8-1.2-1.4v5.5h-1.6v-4.8c-0.4,1-0.9,1.7-1.7,2.6l-1.4-1
							c1.5-1.7,2.2-3.9,2.6-5.3h-2v-1.8h2.5v-2.2l1.6,0.1c0.3,0,0.4,0.1,0.4,0.2c0,0.1,0,0.1-0.1,0.1c-0.2,0.1-0.2,0.1-0.2,0.2v1.5
							h2.2v1.8h-2.2c0.3,0.9,1,2.1,2.2,3.1L531.1,203.1L531.1,203.1z M536.8,207.2h-2.8c-1.3,0-1.3-1.2-1.3-1.6v-10.8l1.6,0.1
							c0.2,0,0.4,0.1,0.4,0.2c0,0.1,0,0.1-0.1,0.1c-0.2,0.1-0.2,0.1-0.2,0.2v9.4c0,0.5,0.1,0.7,0.6,0.7h1.2c0.5,0,0.8-0.3,0.9-1.7
							l1.5,0.7C538.5,206.9,537.9,207.2,536.8,207.2L536.8,207.2z"/>
					</g>
					<g>
						<path class="st17" d="M534.7,72v2.3h4.7v11.5h-2.1v-0.7h-10.5v0.8h-2.1V74.3h4.5V72h-5.3v-2h16.5v2H534.7L534.7,72z
							 M537.3,79.4c-0.3,1.1-1.1,1.5-1.7,1.5h-1.7c-1,0-1.3-0.9-1.3-1.6v-3.1h-1.3c0,1-0.1,2.1-0.7,3.5c-0.5,1.1-1.1,1.6-1.7,2.2
							l-2-1.3c0.6-0.4,1.2-0.8,1.7-1.7c0.6-1,0.6-1.9,0.6-2.7h-2.4v6.9h10.5V79.4L537.3,79.4z M532.6,72h-1.3v2.3h1.3V72z
							 M537.3,76.3h-2.6v2.3c0,0.3,0.1,0.4,0.4,0.4c0.4,0,0.5-0.2,0.7-1.3l1.4,0.7L537.3,76.3L537.3,76.3z"/>
						<path class="st17" d="M555.9,84.4v-1.1h-9.6v1.2h-2.3V71.4h14.4v12.9L555.9,84.4L555.9,84.4z M555.9,73.6h-9.6v7.5h9.6V73.6z"
							/>
					</g>
					<g>
						<path class="st17" d="M538.7,629.7c-2.4-1.2-3.8-2.2-5.5-4.1v4.5h-2.3v-4.5c-1,1.1-2.5,2.7-5.6,4.2l-1.7-1.5
							c2.1-0.8,3.5-1.6,5.8-3.9h-3.5v-6.3h5v-1h-7v-1.8h7v-1.6l2.3,0.2c0.2,0,0.3,0.1,0.3,0.2c0,0.1-0.1,0.1-0.1,0.2
							c-0.2,0.1-0.2,0.2-0.2,0.3v0.8h7v1.8h-7v1h5.1v6.3h-3.7c1.3,1.3,2.6,2.3,5.7,3.8L538.7,629.7L538.7,629.7z M530.9,619.4h-2.8
							v0.9h2.8V619.4z M530.9,621.8h-2.8v0.9h2.8V621.8z M536,619.4h-2.9v0.9h2.9V619.4z M536,621.8h-2.9v0.9h2.9V621.8z"/>
						<path class="st17" d="M555.9,628.4v-1.1h-9.6v1.2h-2.3v-13.1h14.4v12.9L555.9,628.4L555.9,628.4z M555.9,617.6h-9.6v7.5h9.6
							V617.6z"/>
					</g>
					<rect x="491.6" y="552.5" class="st2" width="51.4" height="21.2"/>
					<rect x="142.7" y="620.1" class="st2" width="81.8" height="21.2"/>
					<g>
						<path class="st17" d="M508.1,569.7c-1.8-0.9-2.8-1.6-4.1-3.1v3.3h-1.7v-3.4c-0.8,0.8-1.9,2-4.2,3.2l-1.2-1.2
							c1.6-0.6,2.6-1.2,4.3-3h-2.6v-4.8h3.8v-0.8H497v-1.4h5.3v-1.2l1.8,0.1c0.2,0,0.2,0.1,0.2,0.1c0,0-0.1,0.1-0.1,0.1
							c-0.1,0.1-0.2,0.1-0.2,0.2v0.6h5.3v1.4H504v0.8h3.8v4.8H505c1,1,1.9,1.7,4.3,2.8L508.1,569.7L508.1,569.7z M502.3,562h-2.1
							v0.7h2.1V562z M502.3,563.8h-2.1v0.7h2.1V563.8z M506.1,562H504v0.7h2.2V562z M506.1,563.8H504v0.7h2.2V563.8z"/>
						<path class="st17" d="M522.9,570c-1.3-0.7-2-1.2-3-2.2c-1.1,1.1-2,1.6-3.4,2.3l-1.3-1.2c1.5-0.5,2.5-1.1,3.8-2.4
							c-0.6-1-0.8-1.8-1.1-2.8c-0.2,0.2-0.4,0.6-0.5,0.7l-1.5-0.6c0.2-0.2,0.3-0.3,0.4-0.5h-3.2v2.6c0,0.5,0.1,0.7,0.5,0.7h1.4
							c0.3,0,0.5-0.1,0.6-0.4c0.1-0.4,0.2-0.6,0.2-1l1.3,0.6c-0.4,1.7-0.8,2.4-2.1,2.4h-2.1c-0.8,0-1.5-0.6-1.5-1.7v-4.5h3.4V560
							h-3.4v-1.5h5v4.2c0.4-0.6,0.7-1.2,1.1-2.6c0.3-1.1,0.4-1.9,0.5-2.6l1.7,0.4c0.2,0,0.2,0.1,0.2,0.2c0,0.1,0,0.1-0.2,0.2
							c-0.2,0.1-0.2,0.1-0.2,0.2c-0.1,0.6-0.2,0.7-0.3,1.2h4.2v1.5h-1c-0.4,2.7-0.9,3.9-1.8,5.3c1,1.2,2.4,1.9,3.1,2.3L522.9,570
							L522.9,570z M519,561.2c0.1,1.4,0.3,2.7,1,3.9c0.8-1.3,1.1-2.6,1.2-3.9H519L519,561.2z"/>
						<path class="st17" d="M531.1,565.8c-0.5-0.4-0.8-0.8-1.2-1.4v5.5h-1.6v-4.8c-0.4,0.9-0.9,1.7-1.7,2.6l-1.4-1
							c1.5-1.7,2.2-3.9,2.6-5.3h-2v-1.8h2.5v-2.2l1.6,0.1c0.3,0,0.4,0.1,0.4,0.2c0,0.1,0,0.1-0.1,0.1c-0.2,0.1-0.2,0.1-0.2,0.2v1.5
							h2.2v1.8h-2.2c0.3,0.9,1,2.1,2.2,3.1L531.1,565.8L531.1,565.8z M536.8,569.9h-2.8c-1.3,0-1.3-1.2-1.3-1.6v-10.8l1.6,0.1
							c0.2,0,0.4,0.1,0.4,0.2c0,0.1,0,0.1-0.1,0.1c-0.2,0.1-0.2,0.1-0.2,0.2v9.4c0,0.5,0.1,0.7,0.6,0.7h1.2c0.5,0,0.8-0.3,0.9-1.7
							l1.5,0.7C538.5,569.6,537.9,569.9,536.8,569.9L536.8,569.9z"/>
					</g>
					<g>
						<path class="st17" d="M158.8,633.3v-0.6h-3.3v4.1h-1.7v-4.1h-3.3v0.6h-1.7v-6.5h5v-2.4l1.8,0.2c0.1,0,0.2,0,0.2,0.2
							c0,0.1-0.1,0.2-0.2,0.2c-0.1,0.1-0.2,0.1-0.2,0.2v1.7h5v6.4L158.8,633.3L158.8,633.3z M153.8,628.4h-3.3v2.7h3.3V628.4z
							 M158.8,628.4h-3.3v2.7h3.3V628.4z"/>
						<path class="st17" d="M174.2,637c-3.8-1.3-4.7-3.4-5.1-4.3c-0.4,1.1-1.3,3.2-5.1,4.2l-1.1-1.5c1.1-0.1,2.1-0.4,3-1
							c1.1-0.8,1.6-1.7,1.7-2.1h-4.8v-1.5h1.1v-4.2h4.3c0-1.2,0-1.7-0.1-2.3l1.6,0.1c0.3,0,0.5,0,0.5,0.2c0,0.1-0.1,0.2-0.2,0.2
							c-0.2,0.1-0.2,0.2-0.2,0.2c0,0.4,0,1.1,0,1.5h4.4v4.2h1v1.5h-4.7c0.8,1.7,2.6,2.9,4.9,3.3L174.2,637L174.2,637z M165.5,628.1
							v2.8h2.5c0.2-1,0.2-1.6,0.2-2.8H165.5L165.5,628.1z M172.6,628.1h-2.8c0,0.5,0,1.7-0.2,2.8h2.9V628.1z"/>
						<path class="st17" d="M188.4,636.5c-1.8-0.9-2.8-1.6-4.1-3.1v3.3h-1.7v-3.4c-0.8,0.8-1.9,2-4.2,3.2l-1.2-1.2
							c1.6-0.6,2.6-1.2,4.3-3h-2.6v-4.8h3.8v-0.8h-5.3v-1.4h5.3v-1.2l1.8,0.1c0.2,0,0.2,0.1,0.2,0.1c0,0-0.1,0.1-0.1,0.1
							c-0.1,0.1-0.2,0.1-0.2,0.2v0.6h5.3v1.4h-5.3v0.8h3.8v4.8h-2.8c1,1,1.9,1.7,4.3,2.8L188.4,636.5L188.4,636.5z M182.6,628.8
							h-2.1v0.7h2.1V628.8z M182.6,630.6h-2.1v0.7h2.1V630.6z M186.5,628.8h-2.1v0.7h2.1V628.8z M186.5,630.6h-2.1v0.7h2.1V630.6z"
							/>
						<path class="st17" d="M203.2,636.8c-1.3-0.7-2-1.2-3-2.2c-1.1,1.1-2,1.6-3.4,2.3l-1.3-1.2c1.5-0.5,2.5-1.1,3.8-2.4
							c-0.6-1-0.9-1.8-1.1-2.8c-0.2,0.2-0.4,0.6-0.5,0.7l-1.5-0.6c0.2-0.2,0.3-0.3,0.4-0.5h-3.1v2.6c0,0.5,0.1,0.7,0.5,0.7h1.4
							c0.4,0,0.5-0.1,0.6-0.4c0.1-0.4,0.2-0.6,0.2-1l1.3,0.6c-0.4,1.7-0.8,2.4-2.1,2.4h-2.1c-0.8,0-1.5-0.6-1.5-1.7v-4.5h3.4v-1.8
							h-3.4v-1.5h5v4.2c0.4-0.6,0.7-1.2,1.1-2.6c0.3-1.1,0.4-1.9,0.5-2.6l1.6,0.4c0.2,0,0.2,0.1,0.2,0.2c0,0.1,0,0.1-0.2,0.2
							c-0.2,0.1-0.2,0.1-0.2,0.2c-0.1,0.6-0.2,0.7-0.3,1.2h4.2v1.5h-1c-0.4,2.7-0.9,3.9-1.8,5.3c1,1.2,2.4,1.9,3.1,2.3L203.2,636.8
							L203.2,636.8z M199.3,628c0.1,1.4,0.3,2.7,1,3.9c0.8-1.3,1.1-2.6,1.2-3.9H199.3z"/>
						<path class="st17" d="M211.4,632.6c-0.5-0.4-0.8-0.8-1.2-1.4v5.5h-1.6V632c-0.4,0.9-0.9,1.7-1.6,2.6l-1.4-1
							c1.5-1.7,2.2-3.9,2.6-5.3h-2v-1.8h2.5v-2.2l1.6,0.1c0.3,0,0.4,0.1,0.4,0.2c0,0.1,0,0.1-0.1,0.1c-0.2,0.1-0.2,0.1-0.2,0.2v1.5
							h2.2v1.8h-2.2c0.3,0.9,1,2.1,2.2,3.1L211.4,632.6L211.4,632.6z M217.2,636.7h-2.8c-1.3,0-1.3-1.2-1.3-1.6v-10.8l1.6,0.1
							c0.2,0,0.4,0.1,0.4,0.2c0,0.1,0,0.1-0.1,0.1c-0.2,0.1-0.2,0.1-0.2,0.2v9.4c0,0.5,0.1,0.7,0.6,0.7h1.2c0.5,0,0.8-0.3,0.9-1.7
							l1.5,0.7C218.8,636.5,218.2,636.7,217.2,636.7L217.2,636.7z"/>
					</g>
					<g>
						<defs>
							<rect id="SVGID_00000033357395909133134870000002544458599350864518_" x="0" width="600" height="763.6"/>
						</defs>
						<clipPath id="SVGID_00000015330896073033569330000017567301287444015539_">
							<use xlink:href="#SVGID_00000033357395909133134870000002544458599350864518_"  style="overflow:visible;"/>
						</clipPath>
						<g style="clip-path:url(#SVGID_00000015330896073033569330000017567301287444015539_);">
							<line class="st12" x1="52.3" y1="21.1" x2="-50.2" y2="21.1"/>
							<polyline class="st12" points="352.4,745.3 365.6,745.3 365.6,793.7 							"/>
						</g>
					</g>
					<line class="st15" x1="152.4" y1="418" x2="152.4" y2="438.8"/>
					<line class="st15" x1="144.5" y1="418" x2="144.5" y2="438.8"/>
					<line class="st15" x1="136.6" y1="418" x2="136.6" y2="438.8"/>
					<line class="st15" x1="128.8" y1="418" x2="128.8" y2="438.8"/>
					<line class="st15" x1="120.9" y1="418" x2="120.9" y2="438.8"/>
					<line class="st12" x1="123.1" y1="61.9" x2="123.1" y2="82.7"/>
					<line class="st12" x1="116.1" y1="61.9" x2="116.1" y2="82.7"/>
					<line class="st12" x1="109.2" y1="61.9" x2="109.2" y2="82.7"/>
					<line class="st12" x1="300.5" y1="433.3" x2="335.1" y2="433.3"/>
					<line class="st12" x1="103.8" y1="82.1" x2="129.7" y2="82.1"/>
					<line class="st12" x1="93.4" y1="62" x2="129.7" y2="62"/>
					<polygon class="st11" points="464.4,215.3 481.6,215.3 481.6,182.8 464.1,182.8 					"/>
					<polygon class="st12" points="464.4,215.3 481.6,215.3 481.6,182.8 464.1,182.8 					"/>
					<line class="st12" x1="457.1" y1="190.7" x2="457.1" y2="207.8"/>
					<line class="st12" x1="449.3" y1="190.7" x2="449.3" y2="207.8"/>
					<line class="st12" x1="441.4" y1="190.7" x2="441.4" y2="207.8"/>
					<line class="st12" x1="433.5" y1="190.7" x2="433.5" y2="207.8"/>
					<line class="st12" x1="425.7" y1="190.7" x2="425.7" y2="207.8"/>
					<line class="st12" x1="418.9" y1="191.4" x2="464" y2="191.4"/>
					<line class="st12" x1="418.9" y1="208.5" x2="464" y2="208.5"/>
					<line class="st12" x1="456.4" y1="92.5" x2="456.4" y2="109.6"/>
					<line class="st12" x1="448.5" y1="92.5" x2="448.5" y2="109.6"/>
					<line class="st12" x1="440.7" y1="92.5" x2="440.7" y2="109.6"/>
					<line class="st12" x1="432.8" y1="92.5" x2="432.8" y2="109.6"/>
					<line class="st12" x1="424.9" y1="92.5" x2="424.9" y2="109.6"/>
					<line class="st12" x1="418.1" y1="93.2" x2="463.2" y2="93.2"/>
					<line class="st12" x1="418.1" y1="110.2" x2="463.2" y2="110.2"/>
					<rect x="135.7" y="147.5" class="st19" width="39.2" height="34.9"/>
					<rect x="135.7" y="147.5" class="st12" width="39.2" height="34.9"/>
					<rect x="280.5" y="147.5" class="st19" width="53.5" height="59.1"/>
					<rect x="280.5" y="147.5" class="st12" width="53.5" height="59.1"/>
					<line class="st12" x1="311" y1="333.3" x2="311" y2="357"/>
					<line class="st12" x1="303.1" y1="333.3" x2="303.1" y2="357"/>
					<line class="st12" x1="295.3" y1="333.3" x2="295.3" y2="357"/>
					<line class="st12" x1="287.4" y1="333.3" x2="287.4" y2="357"/>
					<line class="st12" x1="279.5" y1="333.3" x2="279.5" y2="357"/>
					<line class="st12" x1="128.9" y1="147.6" x2="128.9" y2="163.4"/>
					<line class="st12" x1="121.6" y1="147.6" x2="121.6" y2="163.4"/>
					<line class="st12" x1="114.3" y1="147.6" x2="114.3" y2="163.4"/>
					<line class="st12" x1="109.1" y1="147.5" x2="135.7" y2="147.5"/>
					<line class="st12" x1="97.7" y1="162.5" x2="135.7" y2="162.5"/>
					<line class="st12" x1="273.6" y1="147.6" x2="273.6" y2="163.4"/>
					<line class="st12" x1="266.3" y1="147.6" x2="266.3" y2="163.4"/>
					<line class="st12" x1="259" y1="147.6" x2="259" y2="163.4"/>
					<line class="st12" x1="253.9" y1="147.5" x2="280.5" y2="147.5"/>
					<line class="st12" x1="242.5" y1="162.5" x2="280.5" y2="162.5"/>
					<line class="st12" x1="321" y1="226.2" x2="321" y2="243.2"/>
					<line class="st12" x1="313.2" y1="226.2" x2="313.2" y2="243.2"/>
					<line class="st12" x1="305.3" y1="226.2" x2="305.3" y2="243.2"/>
					<line class="st12" x1="297.4" y1="226.2" x2="297.4" y2="243.2"/>
					<line class="st12" x1="289.6" y1="226.2" x2="289.6" y2="243.2"/>
					<line class="st12" x1="121.2" y1="226.2" x2="121.2" y2="243.2"/>
					<line class="st12" x1="113.3" y1="226.2" x2="113.3" y2="243.2"/>
					<line class="st12" x1="105.5" y1="226.2" x2="105.5" y2="243.2"/>
					<line class="st12" x1="97.6" y1="226.2" x2="97.6" y2="243.2"/>
					<line class="st12" x1="89.7" y1="226.2" x2="89.7" y2="243.2"/>
					<line class="st12" x1="272.1" y1="357.2" x2="335.5" y2="357.2"/>
					<polygon class="st19" points="297.6,243 297.6,226.2 333.9,226.2 333.9,171.7 48.4,171.7 64,226.2 121.2,226.2 121.2,243 
						68.7,243 115.2,406.1 333.9,406.1 333.9,364.9 271.2,364.9 271.2,334.2 333.9,334.2 333.9,243 					"/>
					<polygon class="st12" points="297.6,243 297.6,226.2 333.9,226.2 333.9,171.7 48.4,171.7 64,226.2 121.2,226.2 121.2,243 
						68.7,243 115.2,406.1 333.9,406.1 333.9,364.9 271.2,364.9 271.2,334.2 333.9,334.2 333.9,243 					"/>
					<rect x="272.1" y="357.2" class="st19" width="22" height="7.3"/>
					<rect x="272.1" y="357.2" class="st15" width="22" height="7.3"/>
					<rect x="123.9" y="308.9" class="st2" width="171.6" height="1.8"/>
					<polygon class="st2" points="295.4,268.7 295.4,266.9 253.6,253.4 253.6,238.7 168.3,266.3 168.3,254.4 168.4,254.4 211,240.6 
						211,238.7 123.9,266.9 123.9,268.7 166.5,255 166.5,268.7 209.1,255 209.1,268.7 211,268.7 211,254.4 211,254.4 251.7,241.2 
						251.7,268.7 253.6,268.7 253.6,255.2 253.7,255.3 					"/>
					<g>
						<defs>
							<rect id="SVGID_00000137116423542391357950000013133421076071343242_" x="0" width="600" height="763.6"/>
						</defs>
						<clipPath id="SVGID_00000048502443888967302630000002023346044432999566_">
							<use xlink:href="#SVGID_00000137116423542391357950000013133421076071343242_"  style="overflow:visible;"/>
						</clipPath>
						<g style="clip-path:url(#SVGID_00000048502443888967302630000002023346044432999566_);">
							<path class="st2" d="M177,287c-3.3,0-5.9,2.7-5.9,5.9s2.7,5.9,5.9,5.9s5.9-2.7,5.9-5.9S180.3,287,177,287 M177,297.1
								c-2.3,0-4.2-1.9-4.2-4.2s1.9-4.2,4.2-4.2s4.2,1.9,4.2,4.2S179.3,297.1,177,297.1"/>
							<polygon class="st2" points="295.4,281 295.4,279.2 286.2,279.2 286.2,298.4 295.4,298.4 295.4,296.7 288.1,296.7 288.1,289 
								294.6,289 294.6,287.2 288.1,287.2 288.1,281 							"/>
							<polygon class="st2" points="123.9,298.4 133,298.4 133,296.7 125.7,296.7 125.7,289 132.2,289 132.2,287.2 125.7,287.2 
								125.7,281 133,281 133,279.2 123.9,279.2 							"/>
							<polygon class="st2" points="157,281 161.8,281 161.8,298.4 163.7,298.4 163.7,281 168.4,281 168.4,279.2 157,279.2 							
								"/>
							<polygon class="st2" points="198.3,279.2 196.4,279.2 196.4,298.4 205.6,298.4 205.6,296.7 198.3,296.7 							"/>
							<rect x="255.4" y="279.2" class="st2" width="1.9" height="19.2"/>
							<polygon class="st2" points="239.8,285.7 233.8,279.2 233.7,279.2 231.8,279.2 231.8,298.4 233.6,298.4 233.6,281.7 
								239.8,288.2 245.9,281.7 245.9,298.4 247.8,298.4 247.8,279.2 245.8,279.2 							"/>
							<path class="st2" d="M222.4,292.4c0,2.6-2.1,4.6-4.7,4.6l0,0c-2.6,0-4.7-2-4.7-4.6v-13.2h-1.9v13.1c0,3.6,2.9,6.5,6.6,6.5
								l0,0c3.7,0,6.6-2.8,6.6-6.5v-13.1h-1.9V292.4z"/>
							<polygon class="st2" points="276.8,286.6 266.7,279.2 264.9,279.2 264.9,298.4 266.7,298.4 266.7,281.4 276.8,288.8 
								276.8,298.4 278.7,298.4 278.7,279.2 276.8,279.2 							"/>
							<path class="st2" d="M145.1,279.2l-7.2,19.1l0,0.1h2l1.7-4.5h9.1l1.7,4.5h2l-7.2-19.2H145.1L145.1,279.2z M142.2,292.2
								l3.9-10.5l3.9,10.5H142.2L142.2,292.2z"/>
							<line class="st12" x1="482.5" y1="58.9" x2="482.5" y2="-363.4"/>
							<polygon class="st19" points="341.9,197.4 351.7,204.4 351.7,190.3 							"/>
							<polygon class="st19" points="193.8,161.3 200.9,151.4 186.7,151.4 							"/>
							<polygon class="st19" points="341.9,285.7 351.7,292.8 351.7,278.6 							"/>
							<polygon class="st19" points="85.6,338.8 75.7,345.9 75.7,331.8 							"/>
							<line class="st15" x1="541.1" y1="45.3" x2="541.1" y2="63.3"/>
							<polyline class="st15" points="548.3,51 541.1,45.3 533.8,51 							"/>
							<line class="st15" x1="541.1" y1="654.7" x2="541.1" y2="636.7"/>
							<polyline class="st15" points="548.3,649 541.1,654.7 533.8,649 							"/>
						</g>
					</g>
					<g>
						<path class="st17" d="M11.1-39.9c-0.3,0-0.3,0.1-0.6,0.3c-1,1.1-2,2.1-3.2,3v10.3H4.9v-8.5c-1.3,0.9-2.6,1.7-4.9,2.7l-1.7-1.7
							c4-1.6,8.2-4.7,11.2-8.2l1.7,1.4c0.1,0.1,0.3,0.3,0.3,0.5C11.6-39.9,11.5-39.9,11.1-39.9L11.1-39.9z"/>
						<path class="st17" d="M26.8-39.9c-0.3,0-0.3,0.1-0.6,0.3c-1,1.1-2,2.1-3.2,3v10.3h-2.4v-8.5c-1.3,0.9-2.6,1.7-4.9,2.7
							l-1.7-1.7c4-1.6,8.3-4.7,11.2-8.2l1.7,1.4c0.1,0.1,0.3,0.3,0.3,0.5C27.2-39.9,27.1-39.9,26.8-39.9L26.8-39.9z"/>
						<path class="st17" d="M39.4-30.8c-1.4-1.3-3.4-2.9-5.7-3.8v8.3h-2.3v-15.2l2.3,0.4c0.1,0,0.5,0.1,0.5,0.3
							c0,0.1-0.5,0.4-0.5,0.5v5.1l0.9-1.4c1,0.4,1.6,0.7,3.3,1.8c1.5,1,2.2,1.6,3,2.3L39.4-30.8L39.4-30.8z"/>
						<path class="st17" d="M49.1-39.6c-0.1,0.1-0.1,0.2-0.1,0.2c0,3.6,0,3.9-0.1,4.7c-0.5,4-2.8,5.9-4.2,7l-2.1-1.6
							c1.9-1.1,4.1-2.7,4.1-7.5c0-1.8-0.1-3.1-0.2-3.6l2.3,0.2c0.4,0,0.6,0.1,0.6,0.3C49.3-39.8,49.3-39.8,49.1-39.6L49.1-39.6z
							 M52.6-27.6L51-28.8v-11.7l2.2,0.3c0.2,0,0.5,0.1,0.5,0.2c0,0.1,0,0.1-0.2,0.3c0,0-0.2,0.2-0.2,0.2v8.4
							c1.7-0.9,3.9-3.1,5.1-4.9l1.3,1.9C57.8-31.5,54.9-28.9,52.6-27.6L52.6-27.6z"/>
						<path class="st17" d="M70.6-25.4c-2.9-1.9-5.9-3.3-9.5-4.3l0.6-2.1c4.5,1.2,7.4,2.7,9.6,4L70.6-25.4L70.6-25.4z M69.9-37.2
							c-2.4-1.6-5.2-2.4-8-2.9l0.4-2.2c2.9,0.5,6,1.7,8.1,2.8L69.9-37.2L69.9-37.2z M69.2-32.1c-2.2-1.4-5.2-2.3-6.7-2.8l0.5-2.1
							c2.1,0.5,5.2,1.7,6.7,2.6L69.2-32.1z"/>
						<path class="st17" d="M84.7-35.8c-0.9,1-1.6,1.8-3.5,3.4v7H79v-5.4c-1.6,1-2.7,1.6-4.7,2.2L73-30.5c4.3-1.1,7.6-3.8,9-5.7
							h-7.3v-2h8.9c0.3,0,0.5-0.1,0.7-0.3l1.6,1.7C85.3-36.4,84.9-36,84.7-35.8L84.7-35.8z M81.5-38.7c-1.1-0.7-2.1-1.3-4-2l0.9-1.9
							c1.4,0.5,2.8,1.2,4.1,2.1L81.5-38.7z M85.9-28.5c-1.1-1.3-2.1-2.1-3.7-3l1.3-1.5c2.1,1,3.1,2,3.9,2.8L85.9-28.5L85.9-28.5z"/>
						<path class="st17" d="M101.6-25.6l-0.7-2.2h-5v0.9h-2.1V-33h7.6v5.1h0.6c0.5,0,0.7-0.2,0.7-0.7V-40h-10v5.5
							c0,3.8-0.4,5.3-0.7,6.6c-0.2,0.9-0.6,1.5-1,2.2l-2.3-0.5c1.3-2.3,1.8-3.9,1.8-9.3c0-2.1,0-4.3-0.1-6.4H105v14.7
							C105-25.8,103.4-25.7,101.6-25.6L101.6-25.6z M93.4-33.9v-1.7h3.2v-1.3h-2.5v-1.7h2.5v-1.2l2.1,0.2c0.1,0,0.4,0,0.4,0.2
							c0,0.1-0.2,0.2-0.4,0.2v0.6h2.5v1.7h-2.5v1.3h3.1v1.7H93.4L93.4-33.9z M99.3-31.3H96v1.8h3.4V-31.3z"/>
						<path class="st17" d="M124.9-25.8h-8.3c-3,0-3.9-0.9-4.9-1.9c-1,0.9-1.3,1.1-1.7,1.5c-0.1,0.1-0.1,0.1-0.2,0.3
							c-0.1,0.2-0.1,0.2-0.2,0.2c-0.2,0-0.3-0.2-0.4-0.3l-1-1.9c0.9-0.4,2-0.9,2.8-1.4v-4.1h-2.4v-2.1h4.6v5.1c3-2.2,3.8-4,3.8-9.1
							h-3.4v-2.2h11.4c0,2.5,0,8.1-0.9,10.9c-0.5,1.7-1.5,1.9-4.4,1.9l-0.9-2.4c1.2,0.2,2,0.2,2.2,0.2c0.6,0,1-0.2,1.3-1.7
							c0.4-2.3,0.4-5.5,0.4-6.7h-3.4c0,1.6-0.1,3.2-0.6,5.2c-0.7,2.6-1.9,3.9-3.4,5.2l-2.1-1.3v0.3c0,1.5,0.3,2.2,4.7,2.2
							c2.2,0,6-0.2,8.1-0.6L124.9-25.8L124.9-25.8z M111.3-37.8c-0.7-1.1-1.9-2.2-2.6-2.7l1.6-1.6c1.1,0.8,2,1.8,2.7,2.9L111.3-37.8
							z"/>
						<path class="st17" d="M130-41.3h2l3.7,9.4l3.9-9.4h2l2.4,14.8h-2.8l-1.3-9.1l-3.8,9.1h-0.9l-3.6-9.1l-1.4,9.1h-2.8L130-41.3z"
							/>
						<path class="st17" d="M154.7-29.7H149l-1.2,3.1h-3l6-14.8h2.1l5.9,14.8h-2.9L154.7-29.7L154.7-29.7z M153.9-32l-2-5.3l-2,5.3
							H153.9L153.9-32z"/>
						<path class="st17" d="M164.6-41.3c1.6,0,2.7,0.2,3.7,1.1c1.1,1.1,1.4,2.5,1.4,3.6c0,0.6-0.1,2.2-1.1,3.3
							c-0.8,0.8-1.9,1.3-3.5,1.3h-1.8v5.5h-2.7v-14.8L164.6-41.3L164.6-41.3z M163.2-34.5h1.1c0.5,0,1.2,0,1.8-0.5
							c0.5-0.4,0.8-1.1,0.8-1.7c0-0.8-0.4-1.4-0.8-1.7c-0.6-0.4-1.3-0.5-1.9-0.5h-1V-34.5L163.2-34.5z"/>
					</g>
					<path class="st21" d="M52.8,0h494.3C576.4,0,600,23.7,600,52.8v658c0,29.2-23.7,52.8-52.8,52.8H52.8C23.7,763.6,0,740,0,710.8
						v-658C0,23.7,23.7,0,52.8,0z"/>
				</g>
				<path class="st2" d="M177,287c-3.3,0-5.9,2.7-5.9,5.9s2.7,5.9,5.9,5.9s5.9-2.7,5.9-5.9S180.3,287,177,287 M177,297.1
					c-2.3,0-4.2-1.9-4.2-4.2s1.9-4.2,4.2-4.2s4.2,1.9,4.2,4.2S179.3,297.1,177,297.1"/>
				<polygon class="st2" points="295.4,281 295.4,279.2 286.2,279.2 286.2,298.4 295.4,298.4 295.4,296.7 288.1,296.7 288.1,289 
					294.6,289 294.6,287.2 288.1,287.2 288.1,281 				"/>
				<polygon class="st2" points="123.9,298.4 133,298.4 133,296.7 125.7,296.7 125.7,289 132.2,289 132.2,287.2 125.7,287.2 
					125.7,281 133,281 133,279.2 123.9,279.2 				"/>
				<polygon class="st2" points="157,281 161.8,281 161.8,298.4 163.7,298.4 163.7,281 168.4,281 168.4,279.2 157,279.2 				"/>
				<polygon class="st2" points="198.3,279.2 196.4,279.2 196.4,298.4 205.6,298.4 205.6,296.7 198.3,296.7 				"/>
				<rect x="255.4" y="279.2" class="st2" width="1.9" height="19.2"/>
				<polygon class="st2" points="239.8,285.7 233.8,279.2 233.7,279.2 231.8,279.2 231.8,298.4 233.6,298.4 233.6,281.7 
					239.8,288.2 245.9,281.7 245.9,298.4 247.8,298.4 247.8,279.2 245.8,279.2 				"/>
				<path class="st2" d="M222.4,292.4c0,2.6-2.1,4.6-4.7,4.6l0,0c-2.6,0-4.7-2-4.7-4.6v-13.2h-1.9v13.1c0,3.6,2.9,6.5,6.6,6.5l0,0
					c3.7,0,6.6-2.8,6.6-6.5v-13.1h-1.9V292.4z"/>
				<polygon class="st2" points="276.8,286.6 266.7,279.2 264.9,279.2 264.9,298.4 266.7,298.4 266.7,281.4 276.8,288.8 
					276.8,298.4 278.7,298.4 278.7,279.2 276.8,279.2 				"/>
				<path class="st2" d="M145.1,279.2l-7.2,19.1l0,0.1h2l1.7-4.5h9.1l1.7,4.5h2l-7.2-19.2H145.1L145.1,279.2z M142.2,292.2l3.9-10.5
					l3.9,10.5H142.2L142.2,292.2z"/>
				<line class="st12" x1="482.5" y1="58.9" x2="482.5" y2="-557.5"/>
				<polygon class="st19" points="341.9,197.4 351.7,204.4 351.7,190.3 				"/>
				<polygon class="st19" points="193.8,161.3 200.9,151.4 186.7,151.4 				"/>
				<polygon class="st19" points="341.9,285.7 351.7,292.8 351.7,278.6 				"/>
				<polygon class="st19" points="85.6,338.8 75.7,345.9 75.7,331.8 				"/>
				<line class="st15" x1="541.1" y1="45.3" x2="541.1" y2="63.3"/>
				<polyline class="st15" points="548.3,51 541.1,45.3 533.8,51 				"/>
				<line class="st15" x1="541.1" y1="654.7" x2="541.1" y2="636.7"/>
				<polyline class="st15" points="548.3,649 541.1,654.7 533.8,649 				"/>
			</g>
		</g>
		<g>
			<path class="st22" d="M195.7,348.2l-1.9,2.7l-1.9-2.7H195.7 M200.9,345.6h-14.2l7.1,9.9L200.9,345.6L200.9,345.6L200.9,345.6z"/>
			<line class="st23" x1="541.1" y1="239.5" x2="541.1" y2="257.5"/>
			<polyline class="st23" points="548.3,245.2 541.1,239.5 533.8,245.2 			"/>
		</g>
		<path class="st22" d="M547.2,2.6c27.7,0,50.2,22.5,50.2,50.2v658c0,27.7-22.5,50.2-50.2,50.2H52.8c-27.7,0-50.2-22.5-50.2-50.2
			v-658c0-27.7,22.5-50.2,50.2-50.2L547.2,2.6 M547.2,0H52.8C23.7,0,0,23.7,0,52.8v658c0,29.2,23.7,52.8,52.8,52.8h494.3
			c29.2,0,52.8-23.7,52.8-52.8v-658C600,23.7,576.4,0,547.2,0L547.2,0L547.2,0z"/>
	</g>
</g>
</svg>
