<?xml version="1.0" encoding="UTF-8"?><svg id="_レイヤー_2" xmlns="http://www.w3.org/2000/svg" xmlns:xlink="http://www.w3.org/1999/xlink" viewBox="0 0 454.228 578.1096"><defs><style>.cls-1,.cls-2,.cls-3,.cls-4,.cls-5,.cls-6{fill:none;}.cls-2{stroke:#cbcbcb;stroke-width:12px;}.cls-2,.cls-3,.cls-4,.cls-5,.cls-6,.cls-7,.cls-8{stroke-miterlimit:10;}.cls-9{clip-path:url(#clippath);}.cls-10{fill:url(#_新規パターンスウォッチ_8);opacity:.4;}.cls-11{fill:#f2f2f2;}.cls-12{fill:#fff;}.cls-13{fill:#231815;}.cls-14,.cls-8{fill:#150058;}.cls-3{stroke:#231815;}.cls-3,.cls-4,.cls-5{stroke-width:1.8209px;}.cls-4,.cls-8{stroke:#150058;}.cls-5,.cls-6,.cls-7{stroke:#160058;}.cls-15{clip-path:url(#clippath-1);}.cls-6,.cls-7,.cls-8{stroke-width:1.3657px;}.cls-7{fill:#dbdcdc;}</style><clipPath id="clippath"><rect class="cls-1" x="0" y=".0007" width="454.2279" height="578.1082" rx="40" ry="40"/></clipPath><clipPath id="clippath-1"><rect class="cls-1" x="0" y=".0007" width="454.2279" height="578.1082"/></clipPath><pattern id="_新規パターンスウォッチ_8" x="0" y="0" width="45" height="45" patternTransform="translate(-4793.2905 -9103.4193) rotate(-45) scale(.1107)" patternUnits="userSpaceOnUse" viewBox="0 0 45 45"><g><rect class="cls-1" width="45" height="45"/><rect class="cls-12" width="45" height="45"/><line class="cls-2" y1="22.5" x2="45" y2="22.5"/></g></pattern></defs><g id="_饑1"><g><rect class="cls-12" x="0" width="454.2279" height="578.1096" rx="40" ry="40"/><g><g class="cls-9"><g><g class="cls-15"><rect class="cls-11" x="93.9625" y="43.6595" width="374.2252" height="579.8232"/><rect class="cls-11" x="365.3091" y="-3.6859" width="102.8787" height="48.2942"/><rect class="cls-12" x="372.1708" y="143.6997" width="38.9379" height="16.0619"/><polygon class="cls-12" points="365.3091 44.6083 151.0909 16.3048 -98.6396 16.3048 -3.5012 317.5763 -177.5161 317.5763 -177.5161 407.4128 45.6638 407.4128 45.6638 432.2947 -177.5161 432.2947 -177.5161 455.0281 30.9212 455.0281 34.3307 496.2074 93.4521 496.2074 93.4521 460.0681 165.1256 460.0681 165.1256 460.0681 186.3571 460.0681 186.3571 496.2074 365.3091 496.2074 365.3091 44.6083"/><polygon class="cls-10" points="365.3091 44.6083 151.0909 16.3048 -98.6396 16.3048 -3.5012 317.5763 -177.5161 317.5763 -177.5161 407.4128 45.6638 407.4128 45.6638 432.2947 -177.5161 432.2947 -177.5161 455.0281 30.9212 455.0281 34.3307 496.2074 93.4521 496.2074 93.4521 460.0681 165.1256 460.0681 165.1256 460.0681 186.3571 460.0681 186.3571 496.2074 365.3091 496.2074 365.3091 44.6083"/><polygon class="cls-7" points="93.5962 448.683 93.5962 517.3932 35.3268 508.2379 30.9213 455.0281 93.5962 448.683"/><polygon class="cls-7" points="365.309 448.683 365.309 496.2074 186.3572 497.4206 186.3572 460.0682 165.1256 460.0682 165.1256 448.1958 365.309 448.683"/><polygon class="cls-7" points="304.6474 396.7223 365.309 396.7223 365.309 217.1638 321.026 217.1638 321.026 235.3623 301.6143 235.3623 301.6143 296.024 305.8606 296.024 304.6474 396.7223"/><polygon class="cls-7" points="39.5657 15.939 39.5657 25.0382 71.7163 25.0382 71.7163 15.7549 39.5657 15.939"/><polygon class="cls-7" points="387.884 600.8751 387.884 545.7797 266.801 545.7797 266.801 564.2228 206.6604 564.2228 206.6604 532.1478 142.5105 532.1478 133.2889 517.7646 93.5962 517.7646 93.5962 600.8751 387.884 600.8751"/><polygon class="cls-7" points="151.0909 16.2703 365.1913 44.6083 364.5899 85.432 351.359 85.432 351.359 66.2589 237.4929 48.5458 237.4929 65.7861 182.5645 65.7861 182.5645 44.5364 151.0341 44.5364 151.0909 16.2703"/><g><line class="cls-6" x1="365.2867" y1="408.6207" x2="352.0558" y2="408.6207"/><line class="cls-6" x1="365.2867" y1="418.3632" x2="352.0558" y2="418.3632"/><line class="cls-6" x1="365.2867" y1="428.1057" x2="352.0558" y2="428.1057"/><line class="cls-6" x1="365.2867" y1="437.8482" x2="352.0558" y2="437.8482"/></g><g><line class="cls-6" x1="365.2535" y1="93.4793" x2="352.0226" y2="93.4793"/><line class="cls-6" x1="365.2535" y1="102.8939" x2="352.0226" y2="102.8939"/><line class="cls-6" x1="365.2535" y1="112.3085" x2="352.0226" y2="112.3085"/><line class="cls-6" x1="365.2535" y1="121.7231" x2="352.0226" y2="121.7231"/><line class="cls-6" x1="365.2535" y1="131.1377" x2="352.0226" y2="131.1377"/></g><g><line class="cls-6" x1="365.2915" y1="170.7776" x2="352.0606" y2="170.7776"/><line class="cls-6" x1="365.2915" y1="180.1922" x2="352.0606" y2="180.1922"/><line class="cls-6" x1="365.2915" y1="189.6068" x2="352.0606" y2="189.6068"/><line class="cls-6" x1="365.2915" y1="199.0214" x2="352.0606" y2="199.0214"/><line class="cls-6" x1="365.2915" y1="208.436" x2="352.0606" y2="208.436"/></g><g><line class="cls-6" x1="104.3022" y1="447.0834" x2="104.3022" y2="460.3143"/><line class="cls-6" x1="114.5953" y1="447.0834" x2="114.5953" y2="460.3143"/><line class="cls-6" x1="124.8885" y1="447.0834" x2="124.8885" y2="460.3143"/><line class="cls-6" x1="135.1816" y1="447.0834" x2="135.1816" y2="460.3143"/><line class="cls-6" x1="145.4747" y1="447.0834" x2="145.4747" y2="460.3143"/><line class="cls-6" x1="155.7679" y1="447.0834" x2="155.7679" y2="460.3143"/></g><polyline class="cls-5" points="-150.9962 407.4128 45.6638 407.4128 45.6638 432.2947 -36.2778 432.2947"/><line class="cls-5" x1="30.824" y1="455.2642" x2="-36.2778" y2="455.2642"/><rect class="cls-7" x="409.3497" y="545.7797" width="27.4512" height="55.0687"/><polygon class="cls-7" points="71.7163 15.7549 71.7163 39.636 98.1745 39.636 98.1745 62.1427 151.0909 62.1427 151.0909 16.2703 71.7163 15.7549"/><g><path class="cls-13" d="M408.2335,288.1007c-1.8067-.9034-2.8399-1.6458-4.1789-3.1013v3.3778h-1.7338v-3.4365c-.7558,.8304-1.9063,2.053-4.2642,3.2177l-1.2679-1.1648c1.588-.5682,2.6656-1.1941,4.3834-2.9848h-2.6496v-4.8048h3.7983v-.7709h-5.3134v-1.3835h5.3134v-1.2083l1.7622,.1165c.1743,.0142,.2187,.0871,.2187,.1458,0,.0436-.0587,.1014-.0871,.1307-.1316,.1022-.16,.1307-.16,.2036v.6117h5.3134v1.3835h-5.3134v.7709h3.8428v4.8048h-2.8239c.9603,.9905,1.9507,1.7178,4.3087,2.839l-1.1487,1.2528Zm-5.9127-7.8038h-2.1392v.6695h2.1392v-.6695Zm0,1.8343h-2.1392v.6989h2.1392v-.6989Zm3.9033-1.8343h-2.1695v.6695h2.1695v-.6695Zm0,1.8343h-2.1695v.6989h2.1695v-.6989Z"/><path class="cls-13" d="M419.7726,277.7628v1.7622h3.5512v8.7356h-1.6146v-.553h-7.9203v.5815h-1.6164v-8.7641h3.4071v-1.7622h-4.0473v-1.4848h12.4904v1.4848h-4.25Zm1.9365,5.6202c-.2045,.8447-.8447,1.1648-1.2963,1.1648h-1.2661c-.7878,0-.9763-.6989-.9763-1.2225v-2.3295h-1.0047c-.0142,.7709-.0427,1.6155-.5388,2.6638-.393,.8447-.8304,1.2377-1.3106,1.6458l-1.4991-.9905c.4214-.2765,.9034-.5673,1.2963-1.2519,.4357-.7718,.4659-1.4564,.4801-2.0672h-1.8049v5.212h7.9203v-2.8247Zm-3.5387-5.6202h-1.0047v1.7622h1.0047v-1.7622Zm3.5387,3.2329h-1.9365v1.7756c0,.2045,.0729,.2916,.3201,.2916,.3343,0,.393-.16,.5228-.9611l1.0936,.553v-1.6591Z"/><path class="cls-13" d="M391.9163,306.47v-.7575h-6.2452v.7575h-1.6894v-10.7744h2.7225c.3503-.7718,.4517-1.339,.5104-1.6742l1.9792,.1894c.1316,.0142,.2187,.0729,.2187,.16s-.0871,.1316-.1298,.16c-.2632,.1458-.3059,.16-.3788,.2765-.0302,.0436-.3361,.7575-.409,.8882h5.0965v10.7744h-1.6751Zm0-9.2896h-6.2452v1.3106h6.2452v-1.3106Zm0,2.7234h-6.2452v1.4413h6.2452v-1.4413Zm0,2.839h-6.2452v1.5577h6.2452v-1.5577Z"/><path class="cls-13" d="M406.5566,306.4842v-.553h-8.139v.5388h-1.6022v-9.799h4.8191v-2.606l1.748,.0871c.1298,0,.3343,.0445,.3343,.2187,0,.0729-.0285,.1165-.1601,.2036-.16,.1022-.2187,.1752-.2187,.2765v1.82h4.8635v9.8133h-1.6449Zm-4.9222-8.284h-3.2169v2.2859h3.2169v-2.2859Zm0,3.8286h-3.2169v2.4753h3.2169v-2.4753Zm4.9222-3.8286h-3.2186v2.2859h3.2186v-2.2859Zm0,3.8286h-3.2186v2.4753h3.2186v-2.4753Z"/><path class="cls-13" d="M423.0463,306.2806h-6.4924c-2.2726,0-2.9857-.8447-3.4516-1.427-.4801,.5095-.786,.7575-1.4706,1.3248-.0871,.1894-.1458,.3788-.2187,.3788-.0871,0-.1298-.1022-.1743-.1743l-.786-1.5293c.553-.233,1.2661-.6117,1.7907-.9611v-3.1297h-1.4262v-1.4564h2.9839v4.2082c0,1.4555,2.0823,1.4555,3.2471,1.4555,2.1979,0,4.3958-.1022,6.5813-.3059l-.5833,1.6164Zm-9.9724-9.1438c-.393-.4366-1.0776-1.1354-2.0094-1.7178l.9745-1.1212c.7575,.481,1.3835,.9905,2.0539,1.7329l-1.0189,1.1061Zm8.139,7.3237h-.7718l-.5104-1.2377c.9034,.0142,1.0047,.0142,1.0047-.3494v-.5095h-1.4706v1.7907h-1.4991v-1.7907h-1.4422v1.9365h-1.5133v-6.7991h2.9839c-.6117-.3494-1.2234-.6695-1.8636-.9611l.4232-.7575h-1.4866v-1.3977h6.6986l.4499,.5682c-.3343,.3494-.946,.9754-2.0966,2.0236,.0729,.0293,.393,.2036,.4659,.2481l-.2027,.2765h2.0663v5.7357c0,.5975-.4214,1.2234-1.2359,1.2234Zm-3.2471-5.7509h-1.4422v.7566h1.4422v-.7566Zm0,1.7765h-1.4422v.786h1.4422v-.786Zm-.3201-4.7035c.1885,.0729,.9887,.4517,1.1648,.5246,.233-.233,.377-.4223,.4499-.5246h-1.6146Zm3.2898,2.927h-1.4706v.7566h1.4706v-.7566Zm0,1.7765h-1.4706v.786h1.4706v-.786Z"/><path class="cls-13" d="M437.4821,302.1453c-.1885-.0729-.2169-.0871-.5388-.2178v4.499h-1.6146v-.2765h-2.3153v.4214h-1.588v-4.3967c-.0569,.0151-.0729,.0151-.1885,.0729l-.9034-.9025v.6837h-1.4262v1.8787c1.1203-.2916,1.4706-.4081,1.7907-.5095l-.0587,1.5284c-.8002,.3059-2.125,.7131-3.1884,1.0483-.1743,.0578-1.0474,.2765-1.2519,.3352-.233,.0578-.4944,.1307-.5815,.2614-.176,.2187-.176,.233-.233,.233-.0587,0-.1903-.0436-.2632-.3779l-.3343-1.5293c.1316-.0293,.553-.1165,.6402-.1307v-5.1836l1.4422,.1022c.233,.0142,.3788,.0436,.3788,.1752,0,.072-.0445,.1156-.1458,.1743-.1743,.1022-.1743,.1165-.1743,.1458v4.2367c.144-.0293,.1743-.0436,.4801-.1165v-5.2414h-1.6609v-4.7755h4.6163v3.3191c1.0047-.9896,1.572-2.3002,2.0094-3.625l1.4404,.2472c.1903,.0293,.3503,.088,.3503,.233,0,.0445-.016,.0729-.0587,.1022-.0142,.0142-.16,.0729-.1885,.0871-.0587,.0293-.0587,.0436-.1618,.2916h2.8541l.5833,.5673c-.6419,1.66-1.5008,2.839-1.9667,3.48,.5246,.4223,1.4279,1.1505,3.3644,1.6884l-1.1078,1.4706Zm-8.7348-6.4933h-1.4564v2.0672h1.4564v-2.0672Zm3.5369,2.0388c-.553,.8731-.7558,1.0767-.9745,1.2955l-.946-.6695v.7424h-1.4564v1.427h1.4262v.4659c1.0349-.5246,1.8636-.9763,2.8399-1.8636-.3788-.4659-.6544-.874-.8891-1.3977Zm1.9365,2.4602c-.3628,.3788-.7558,.786-1.4546,1.2812h3.2453c-.6686-.4072-1.1487-.7424-1.7907-1.2812Zm1.1078,2.7225h-2.3153v1.9072h2.3153v-1.9072Zm-1.9365-6.5226c.2614,.8153,.4944,1.1941,.8144,1.5871,.1903-.2623,.4961-.6846,.8162-1.5871h-1.6307Z"/></g><g><path class="cls-13" d="M33.7353,286.1197v-.5815h-3.3484v4.1344h-1.6751v-4.1344h-3.32v.6402h-1.6733v-6.5368h4.9933v-2.4753l1.8209,.16c.0871,.0142,.2187,.0293,.2187,.16,0,.1022-.1031,.16-.1618,.2036-.1156,.0729-.2027,.1316-.2027,.2187v1.7329h5.0236v6.4782h-1.6751Zm-5.0236-4.892h-3.32v2.7376h3.32v-2.7376Zm5.0236,0h-3.3484v2.7376h3.3484v-2.7376Z"/><path class="cls-13" d="M49.3074,289.9492c-3.7859-1.3106-4.7764-3.4507-5.1551-4.2954-.4214,1.107-1.3532,3.2177-5.196,4.2376l-1.1505-1.5577c1.0776-.1316,2.1535-.4223,3.071-1.0198,1.1648-.7566,1.5737-1.7471,1.7338-2.1543h-4.8048v-1.5142h1.0776v-4.2367h4.3087c-.0285-1.2377-.0427-1.66-.0729-2.3011l1.6307,.0587c.3343,.0142,.5246,.0436,.5246,.233,0,.1165-.0729,.1894-.16,.2472-.16,.1022-.1903,.16-.1903,.2481,0,.4223,.016,1.0918,.016,1.5142h4.3958v4.2367h1.0492v1.5142h-4.7319c.7718,1.6884,2.5909,2.9261,4.9649,3.3049l-1.3106,1.4848Zm-8.8094-9.07v2.839h2.5482c.1743-1.0341,.1743-1.6022,.16-2.839h-2.7083Zm7.2072,0h-2.7954c0,.5237-.0142,1.7178-.1743,2.839h2.9697v-2.839Z"/><path class="cls-13" d="M35.6132,307.6054h-6.4942c-2.2708,0-2.9839-.8447-3.4498-1.427-.4801,.5095-.786,.7575-1.4706,1.3248-.0871,.1894-.1458,.3788-.2187,.3788-.0871,0-.1298-.1022-.1743-.1743l-.786-1.5293c.553-.233,1.2661-.6117,1.7907-.9611v-3.1297h-1.4262v-1.4564h2.9839v4.2082c0,1.4555,2.0823,1.4555,3.2471,1.4555,2.1979,0,4.3976-.1022,6.5813-.3059l-.5833,1.6164Zm-9.9724-9.1438c-.393-.4366-1.0776-1.1354-2.0094-1.7178l.9745-1.1212c.7575,.481,1.3835,.9905,2.0539,1.7329l-1.0189,1.1061Zm8.1373,7.3237h-.77l-.5104-1.2377c.9034,.0142,1.0047,.0142,1.0047-.3494v-.5095h-1.4706v1.7907h-1.4991v-1.7907h-1.4422v1.9365h-1.5133v-6.7991h2.9839c-.6117-.3494-1.2234-.6695-1.8636-.9611l.4214-.7575h-1.4848v-1.3977h6.6987l.4499,.5682c-.3343,.3494-.946,.9754-2.0966,2.0236,.0729,.0293,.3948,.2036,.4659,.2481l-.2027,.2765h2.0663v5.7357c0,.5975-.4214,1.2234-1.2377,1.2234Zm-3.2453-5.7509h-1.4422v.7566h1.4422v-.7566Zm0,1.7765h-1.4422v.786h1.4422v-.786Zm-.3201-4.7035c.1885,.0729,.9887,.4517,1.1648,.5246,.233-.233,.377-.4223,.4499-.5246h-1.6146Zm3.2898,2.927h-1.4706v.7566h1.4706v-.7566Zm0,1.7765h-1.4706v.786h1.4706v-.786Z"/><path class="cls-13" d="M50.049,303.4701c-.1885-.0729-.2169-.0871-.537-.2178v4.499h-1.6164v-.2765h-2.3153v.4214h-1.588v-4.3967c-.0569,.0151-.0711,.0151-.1885,.0729l-.9034-.9025v.6837h-1.4262v1.8787c1.1203-.2916,1.4706-.4081,1.7907-.5095l-.0587,1.5284c-.8002,.3059-2.125,.7131-3.1884,1.0483-.1743,.0578-1.0474,.2765-1.2519,.3352-.233,.0578-.4944,.1307-.5815,.2614-.176,.2187-.176,.233-.233,.233-.0587,0-.1903-.0436-.2632-.3779l-.3343-1.5293c.1316-.0293,.553-.1165,.6402-.1307v-5.1836l1.4422,.1022c.233,.0142,.3788,.0436,.3788,.1752,0,.072-.0445,.1156-.1458,.1743-.176,.1022-.176,.1165-.176,.1458v4.2367c.1458-.0293,.176-.0436,.4819-.1165v-5.2414h-1.6609v-4.7755h4.6163v3.3191c1.0047-.9896,1.572-2.3002,2.0094-3.625l1.4404,.2472c.1903,.0293,.3503,.088,.3503,.233,0,.0445-.0142,.0729-.0587,.1022-.0142,.0142-.16,.0729-.1903,.0871-.0569,.0293-.0569,.0436-.16,.2916h2.8541l.5833,.5673c-.6419,1.66-1.5008,2.839-1.9667,3.48,.5246,.4223,1.4279,1.1505,3.3644,1.6884l-1.1078,1.4706Zm-8.7348-6.4933h-1.4564v2.0672h1.4564v-2.0672Zm3.5387,2.0388c-.5548,.8731-.7575,1.0767-.9763,1.2955l-.946-.6695v.7424h-1.4564v1.427h1.4262v.4659c1.0349-.5246,1.8636-.9763,2.8399-1.8636-.3788-.4659-.6562-.874-.8873-1.3977Zm1.9347,2.4602c-.3628,.3788-.7558,.786-1.4546,1.2812h3.2471c-.6704-.4072-1.1505-.7424-1.7925-1.2812Zm1.1078,2.7225h-2.3153v1.9072h2.3153v-1.9072Zm-1.9365-6.5226c.2614,.8153,.4944,1.1941,.8144,1.5871,.1903-.2623,.4961-.6846,.8162-1.5871h-1.6307Z"/></g><g><path class="cls-13" d="M107.193,548.8034c-.1014,.0871-.1014,.1156-.1014,.1885,0,2.7225,0,2.9412-.0729,3.5814-.3503,3.0141-2.0823,4.4421-3.1457,5.285l-1.6164-1.179c1.3977-.8144,3.1155-2.0521,3.1155-5.6779,0-1.3532-.1014-2.3153-.16-2.751l1.7622,.1156c.2614,.0142,.4232,.0587,.4232,.2187,0,.0587-.0302,.0729-.2045,.2187Zm2.694,9.0708l-1.2377-.962v-8.8379l1.6876,.2045c.1316,.0142,.409,.0445,.409,.1903,0,.0569-.0302,.1014-.16,.2169,0,.016-.176,.16-.176,.176v6.3626c1.2519-.6846,2.9128-2.3153,3.8446-3.7272l.9905,1.4688c-1.4279,1.9223-3.6116,3.9317-5.3579,4.908Z"/><path class="cls-13" d="M123.4479,559.5334c-2.1695-1.4119-4.4563-2.4753-7.1646-3.2613l.4374-1.6164c3.3929,.8891,5.5624,2.0379,7.2499,3.0586l-.5228,1.8191Zm-.4961-8.9393c-1.8049-1.179-3.9015-1.8209-6.0123-2.2139l.2756-1.6591c2.2139,.393,4.5577,1.2963,6.1599,2.141l-.4232,1.732Zm-.553,3.8588c-1.7036-1.0634-3.9317-1.7765-5.0378-2.0823l.3645-1.572c1.6004,.393,3.9299,1.2661,5.052,1.9792l-.3788,1.6751Z"/><path class="cls-13" d="M134.1672,551.6415c-.6686,.7575-1.2377,1.3835-2.6211,2.5482v5.285h-1.6733v-4.0757c-1.1932,.7415-2.0094,1.179-3.5387,1.6893l-1.0047-1.4422c3.2329-.8589,5.7811-2.8968,6.8142-4.3247h-5.5037v-1.4848h6.7556c.2187,0,.3645-.1014,.5246-.2027l1.2092,1.2946c-.5388,.3059-.8589,.5975-.962,.7131Zm-2.4309-2.1695c-.8162-.537-1.6307-1.0189-3.0141-1.5417l.7131-1.4137c1.0918,.393,2.141,.8749,3.1315,1.6022l-.8304,1.3532Zm3.304,7.7176c-.8287-.9763-1.572-1.5577-2.8239-2.3011l.9603-1.1061c1.5737,.7433,2.3455,1.4848,2.9715,2.125l-1.1078,1.2821Z"/><path class="cls-13" d="M137.6259,557.6982v-1.6449h4.4261v-5.8967h-3.2915v-1.6449h8.5178v1.6449h-3.3769v5.8967h4.4403v1.6449h-10.7157Z"/><path class="cls-13" d="M159.8949,558.253c-1.3248-1.6307-2.358-2.6798-3.5512-3.6401-1.1648,1.2946-2.2424,2.4024-4.9809,3.7414l-1.2803-1.3248c.946-.4072,2.7954-1.179,4.6448-3.1457,1.572-1.6733,2.1392-3.1439,2.4753-3.9744h-5.5481v-1.6893h6.2754c.2774,0,.4944-.1458,.7575-.3201l1.1203,1.2377c-.2916,.2045-.6117,.4517-.786,.8731-.4944,1.1648-.7718,1.8352-1.6893,3.2613,1.4137,1.0634,2.6656,2.3011,3.8588,3.5974l-1.2963,1.3835Z"/><path class="cls-13" d="M169.974,555.4274c-1.0758-1.0047-2.5322-2.1837-4.2802-2.911v6.2897h-1.7178v-11.5319l1.748,.3059c.0427,.0142,.3485,.0587,.3485,.233,0,.0871-.3788,.3201-.3788,.393v3.8286l.6846-1.0758c.7433,.3201,1.2234,.5086,2.4753,1.3248,1.1505,.7558,1.6893,1.2377,2.2708,1.7462l-1.1505,1.3977Z"/><path class="cls-13" d="M177.1315,552.2675v1.0207h1.9365v1.3817h-1.9365c.5246,.7291,1.2537,1.355,1.6751,1.6893l-.9318,1.0776c-.3645-.2472-.5673-.4517-.7433-.6846v2.5927h-1.572v-2.767c-.4214,.6704-1.0189,1.4564-1.572,1.9792l-1.2963-.8429c.9763-.8162,1.748-1.7338,2.3153-3.0444h-1.7178v-1.3817h2.2708v-1.0207h-2.4611v-1.339h1.5008c-.0871-.3059-.2916-1.0776-.4961-1.6004h-.7131v-1.2963h2.2708v-1.2519l1.6022,.1458c.2187,.0142,.3059,.0569,.3059,.1298s-.0729,.1458-.1316,.1903c-.0285,.0285-.1458,.1298-.1458,.2187v.5673h1.8938v1.2963h-.4659c-.16,.5957-.3059,1.0189-.5833,1.6004h1.195v1.339h-2.1997Zm-1.5275-2.9394c.1885,.4801,.3628,1.0332,.5086,1.6004h.5388c.1174-.3343,.3361-.9603,.4659-1.6004h-1.5133Zm9.5652-.802c-.1316,0-.4801,.0871-.6402,.1316-.0729,.0142-1.6893,.393-3.2044,.5104,.016,.4659,0,.6828-.0142,1.8049h4.0633v1.5577h-1.3106v6.7253h-1.5151v-6.7253h-1.2661c-.16,3.5814-.5388,4.9649-1.7622,6.8427l-1.5435-.5104c.4801-.5388,.786-.9016,1.1061-1.6876,.5833-1.4564,.7149-3.1742,.7149-5.445,0-1.2963-.0142-2.5927-.0729-3.889l.9016,.0587c.16,.0142,.3788-.0285,.4374-.0285,2.3437-.4517,2.6069-.5104,3.4213-.8162l.8731,1.0492c.0445,.0587,.1458,.2027,.1458,.3059,0,.1156-.0871,.1156-.3343,.1156Z"/><path class="cls-13" d="M196.4753,552.0345l-.3645,.7718h3.2026v6.5528h-1.6591v-.569h-3.6828v.6117h-1.6893v-6.5955h2.0094l.3788-.7718h-3.2915v-1.1061c-.4659,.7575-.6259,1.0047-.8731,1.3693,.2774,.1156,.4944,.233,.4944,.4072,0,.1174-.1014,.2045-.1743,.2774-.0729,.0569-.16,.1458-.16,.2169v6.1883h-1.5862v-5.1107c-.0889,.1174-.249,.3503-.569,.6846l-1.339-1.0634c1.1363-1.179,2.1695-2.5038,3.0568-4.3958l1.2537,.4801c.16,.0587,.4944,.1885,.4944,.3343,0,.1174-.1316,.16-.1903,.1903-.16,.0587-.1885,.0871-.2614,.2027h8.212v1.3248h-3.2613Zm1.732-1.7747v-.8589h-8.765v.9603h-1.6591v-2.2868h5.0965v-1.2946l1.2359,.0587c.1458,0,.9034-.016,.9034,.233,0,.16-.1014,.2027-.2472,.3485v.6544h5.0965v2.1855h-1.6609Zm-.553,3.8873h-3.6828v1.0047h3.6828v-1.0047Zm0,2.2993h-3.6828v1.0047h3.6828v-1.0047Z"/></g><g><path class="cls-13" d="M382.3956,148.9216v1.3212h2.6638v6.552h-1.2128v-.4152h-5.9393v.4366h-1.2128v-6.5733h2.5553v-1.3212h-3.0355v-1.1141h9.3696v1.1141h-3.1884Zm1.4511,4.2153c-.1529,.6331-.6331,.8731-.9709,.8731h-.9496c-.5904,0-.7326-.5237-.7326-.9176v-1.7471h-.7522c-.0124,.5788-.0338,1.2128-.4054,1.9988-.2934,.6331-.6224,.9282-.9816,1.2341l-1.1256-.7424c.3165-.2081,.6775-.4259,.9727-.9398,.3272-.5788,.3485-1.0918,.3592-1.5506h-1.3532v3.9095h5.9393v-2.1179Zm-2.6531-4.2153h-.7522v1.3212h.7522v-1.3212Zm2.6531,2.4238h-1.4511v1.3328c0,.1529,.0533,.2178,.2401,.2178,.2507,0,.2952-.12,.393-.7202l.818,.4152v-1.2457Z"/><path class="cls-13" d="M395.832,156.882c-.9709-.513-1.54-.9389-2.2388-1.7036-.818,.8189-1.4742,1.2341-2.5447,1.7365l-1.0029-.9282c1.1345-.393,1.8992-.8296,2.8381-1.7907-.4481-.786-.6437-1.3435-.8411-2.1401-.1298,.1858-.3272,.4588-.3823,.5237l-1.1239-.4695c.1423-.1529,.2187-.2507,.3165-.393h-2.3811v1.9765c0,.3717,.0996,.5024,.4037,.5024h1.0812c.2632,0,.3503-.0551,.4374-.3059,.0871-.273,.1316-.4152,.1849-.786l.9727,.4366c-.2845,1.299-.601,1.8014-1.5613,1.8014h-1.5844c-.5779,0-1.1132-.4472-1.1132-1.2661v-3.3965h2.5767v-1.3426h-2.5767v-1.1247h3.7788v3.1777c.2721-.4703,.5459-.9505,.8518-1.9659,.2507-.8411,.3272-1.4084,.393-1.933l1.2448,.273c.1191,.0222,.1849,.0765,.1849,.1423,0,.0542-.032,.0871-.1191,.1307-.1316,.0658-.1423,.1094-.1636,.1752-.0889,.4259-.1209,.5353-.2294,.8731h3.1991v1.1576h-.7433c-.2721,2.053-.6989,2.9812-1.3426,3.9966,.7433,.906,1.8458,1.4742,2.3686,1.7471l-.8838,.8953Zm-2.9483-6.6391c.0765,1.0376,.2507,2.0743,.7646,2.9812,.601-.9825,.8411-1.9543,.9176-2.9812h-1.6822Z"/><path class="cls-13" d="M402.0399,153.7371c-.3379-.2836-.6117-.6117-.8945-1.026v4.1602h-1.2448v-3.6472c-.3165,.7202-.6668,1.2883-1.2448,1.965l-1.0598-.7309c1.1363-1.2777,1.7036-2.9812,1.965-4.0402h-1.5382v-1.3328h1.8778v-1.6484l1.1896,.0765c.2294,.0107,.2952,.0542,.2952,.1414,0,.0445-.0213,.0658-.0871,.1094-.1209,.0765-.1529,.0987-.1529,.1636v1.1576h1.6484v1.3328h-1.6484c.1956,.6873,.7415,1.572,1.7036,2.3695l-.8091,.9496Zm4.3692,3.0906h-2.0859c-.9514,0-.9834-.9069-.9834-1.2128v-8.1782l1.179,.0649c.1743,.0116,.2952,.0445,.2952,.1423,0,.0436-.0213,.0765-.0871,.1094-.1316,.0978-.1423,.1094-.1423,.1636v7.1085c0,.393,.1085,.5024,.4481,.5024h.9282c.4037,0,.5779-.2178,.6651-1.2661l1.147,.5024c-.1423,1.8556-.5779,2.0637-1.3639,2.0637Z"/></g><g><path class="cls-13" d="M404.7873,54.5207v1.7622h3.5512v8.7356h-1.6146v-.553h-7.9203v.5815h-1.6164v-8.7641h3.4071v-1.7622h-4.0491v-1.4848h12.4922v1.4848h-4.25Zm1.9365,5.6202c-.2045,.8447-.8447,1.1648-1.2963,1.1648h-1.2661c-.7878,0-.9763-.6989-.9763-1.2225v-2.3295h-1.0047c-.0142,.7709-.0445,1.6155-.5388,2.6638-.393,.8447-.8304,1.2377-1.3106,1.6458l-1.4991-.9905c.4214-.2765,.9034-.5673,1.2963-1.2519,.4357-.7718,.4659-1.4564,.4801-2.0672h-1.8049v5.212h7.9203v-2.8247Zm-3.5387-5.6202h-1.0047v1.7622h1.0047v-1.7622Zm3.5387,3.2329h-1.9365v1.7756c0,.2045,.0729,.2916,.3201,.2916,.3343,0,.393-.16,.5246-.9611l1.0918,.553v-1.6591Z"/><path class="cls-13" d="M420.8235,63.8538v-.8153h-7.2944v.9167h-1.7462v-9.8853h10.8758v9.7839h-1.8352Zm0-8.139h-7.2944v5.6779h7.2944v-5.6779Z"/></g><g><path class="cls-13" d="M407.8156,476.7044c-1.8067-.9034-2.8399-1.6467-4.1789-3.1013v3.3769h-1.732v-3.4356c-.7575,.8304-1.9081,2.0521-4.266,3.2169l-1.2679-1.1648c1.588-.5673,2.6656-1.1932,4.3834-2.9839h-2.6496v-4.8048h3.8001v-.7718h-5.3152v-1.3835h5.3152v-1.2074l1.7605,.1156c.1743,.0142,.2187,.0871,.2187,.1458,0,.0445-.0587,.1014-.0871,.1316-.1316,.1014-.16,.1298-.16,.2027v.6117h5.3134v1.3835h-5.3134v.7718h3.8428v4.8048h-2.8239c.9603,.9905,1.9507,1.7178,4.3087,2.8381l-1.1487,1.2537Zm-5.9109-7.8047h-2.141v.6704h2.141v-.6704Zm0,1.8352h-2.141v.6989h2.141v-.6989Zm3.9015-1.8352h-2.1695v.6704h2.1695v-.6704Zm0,1.8352h-2.1695v.6989h2.1695v-.6989Z"/><path class="cls-13" d="M420.8235,475.6996v-.8162h-7.2944v.9176h-1.7462v-9.8853h10.8758v9.7839h-1.8352Zm0-8.139h-7.2944v5.6779h7.2944v-5.6779Z"/></g><rect class="cls-12" x="372.1708" y="418.3089" width="38.9379" height="16.0619"/><rect class="cls-12" x="108.0471" y="469.4284" width="61.9402" height="16.0619"/><g><path class="cls-13" d="M384.6664,431.2826c-1.3532-.6757-2.1286-1.2341-3.1333-2.3259v2.534h-1.2999v-2.5767c-.5673,.6224-1.4315,1.54-3.1991,2.4131l-.9514-.8731c1.1914-.4268,1.9988-.8962,3.288-2.2388h-1.9881v-3.6045h2.8505v-.5779h-3.9851v-1.0367h3.9851v-.9069l1.3212,.0871c.1316,.0107,.1636,.0658,.1636,.1085,0,.0338-.0445,.0765-.0658,.0996-.0978,.0765-.1191,.0978-.1191,.1529v.4588h3.9851v1.0367h-3.9851v.5779h2.8825v3.6045h-2.1197c.722,.7415,1.4635,1.2875,3.2329,2.1286l-.8625,.9389Zm-4.4332-5.8522h-1.6058v.5015h1.6058v-.5015Zm0,1.3764h-1.6058v.5228h1.6058v-.5228Zm2.927-1.3764h-1.6271v.5015h1.6271v-.5015Zm0,1.3764h-1.6271v.5228h1.6271v-.5228Z"/><path class="cls-13" d="M395.832,431.4906c-.9709-.5139-1.54-.9389-2.2388-1.7036-.818,.8198-1.4742,1.2341-2.5447,1.7356l-1.0029-.9265c1.1345-.3948,1.8992-.8304,2.8381-1.7925-.4481-.786-.6437-1.3426-.8411-2.1392-.1298,.1849-.3272,.4588-.3823,.5246l-1.1239-.4695c.1423-.1529,.2187-.2525,.3165-.393h-2.3811v1.9756c0,.3717,.0996,.5015,.4037,.5015h1.0812c.2632,0,.3503-.0533,.4374-.3059,.0871-.2721,.1316-.4143,.1849-.786l.9727,.4374c-.2845,1.2999-.601,1.8014-1.5613,1.8014h-1.5844c-.5779,0-1.1132-.4481-1.1132-1.2661v-3.3965h2.5767v-1.3426h-2.5767v-1.1256h3.7788v3.1777c.2721-.4695,.5459-.9496,.8518-1.965,.2507-.8411,.3272-1.4084,.393-1.933l1.2448,.2739c.1191,.0213,.1849,.0765,.1849,.1405,0,.0551-.032,.0889-.1191,.1316-.1316,.0658-.1423,.1103-.1636,.1743-.0889,.4268-.1209,.5353-.2294,.8749h3.1991v1.1576h-.7433c-.2721,2.0521-.6989,2.9803-1.3426,3.9957,.7433,.9069,1.8458,1.4742,2.3686,1.748l-.8838,.8945Zm-2.9483-6.6382c.0765,1.0367,.2507,2.0734,.7646,2.9803,.601-.9834,.8411-1.9543,.9176-2.9803h-1.6822Z"/><path class="cls-13" d="M402.0399,428.3467c-.3379-.2845-.6117-.6117-.8945-1.0278v4.1611h-1.2448v-3.6472c-.3165,.7202-.6668,1.2892-1.2448,1.965l-1.0598-.7309c1.1363-1.2786,1.7036-2.9821,1.965-4.0402h-1.5382v-1.3319h1.8778v-1.6502l1.1896,.0765c.2294,.0124,.2952,.0551,.2952,.1423,0,.0445-.0213,.0658-.0871,.1103-.1209,.0765-.1529,.0978-.1529,.1636v1.1576h1.6484v1.3319h-1.6484c.1956,.6882,.7415,1.572,1.7036,2.3686l-.8091,.9514Zm4.3692,3.0888h-2.0859c-.9514,0-.9834-.9051-.9834-1.211v-8.1799l1.179,.0658c.1743,.0107,.2952,.0445,.2952,.1423,0,.0445-.0213,.0765-.0871,.1085-.1316,.0996-.1423,.1103-.1423,.1654v7.1077c0,.393,.1085,.5032,.4481,.5032h.9282c.4037,0,.5779-.2187,.6651-1.2679l1.147,.5032c-.1423,1.8565-.5779,2.0628-1.3639,2.0628Z"/></g><g><path class="cls-13" d="M120.1769,479.3948v-.4357h-2.5118v3.1013h-1.2554v-3.1013h-2.4895v.4801h-1.2563v-4.9026h3.7459v-1.8565l1.3648,.1209c.0658,.0107,.1636,.0213,.1636,.1191,0,.0765-.0765,.1209-.12,.1529-.0871,.0551-.1529,.0978-.1529,.1636v1.2999h3.7672v4.8582h-1.2554Zm-3.7672-3.6685h-2.4895v2.0539h2.4895v-2.0539Zm3.7672,0h-2.5118v2.0539h2.5118v-2.0539Z"/><path class="cls-13" d="M131.8555,482.2667c-2.839-.9816-3.5814-2.5874-3.865-3.2204-.3165,.8304-1.0154,2.4131-3.8988,3.1777l-.8625-1.1683c.8082-.0978,1.6164-.3165,2.3037-.7646,.874-.5673,1.1799-1.3106,1.2999-1.6164h-3.6036v-1.1345h.8082v-3.1777h3.232c-.0213-.9282-.0329-1.2448-.0542-1.7267l1.2225,.0445c.2516,.0107,.393,.032,.393,.1743,0,.0871-.0542,.1423-.12,.1867-.12,.0765-.1414,.1191-.1414,.1849,0,.3165,.0107,.8198,.0107,1.1363h3.2978v3.1777h.786v1.1345h-3.5485c.5788,1.2661,1.9436,2.1944,3.7237,2.4789l-.9834,1.1132Zm-6.6062-6.8018v2.1286h1.9107c.1316-.7753,.1316-1.2003,.12-2.1286h-2.0308Zm5.405,0h-2.0966c0,.393-.0107,1.2875-.1307,2.1286h2.2273v-2.1286Z"/><path class="cls-13" d="M142.6504,481.8737c-1.3541-.6757-2.1295-1.2341-3.1342-2.3259v2.534h-1.299v-2.5767c-.5682,.6224-1.4306,1.54-3.2,2.4131l-.9496-.8731c1.1905-.4268,1.9979-.8962,3.2871-2.2388h-1.9881v-3.6045h2.8505v-.5779h-3.9859v-1.0367h3.9859v-.9069l1.3212,.0871c.1307,.0107,.1636,.0658,.1636,.1085,0,.0338-.0436,.0765-.0658,.0996-.0978,.0765-.12,.0978-.12,.1529v.4588h3.9859v1.0367h-3.9859v.5779h2.8825v3.6045h-2.1179c.7202,.7415,1.4635,1.2875,3.232,2.1286l-.8625,.9389Zm-4.4332-5.8522h-1.6058v.5015h1.6058v-.5015Zm0,1.3764h-1.6058v.5228h1.6058v-.5228Zm2.9261-1.3764h-1.6271v.5015h1.6271v-.5015Zm0,1.3764h-1.6271v.5228h1.6271v-.5228Z"/><path class="cls-13" d="M153.816,482.0818c-.9718-.5139-1.54-.9389-2.2388-1.7036-.8189,.8198-1.4742,1.2341-2.5438,1.7356l-1.0047-.9265c1.1354-.3948,1.9001-.8304,2.839-1.7925-.4472-.786-.6437-1.3426-.8402-2.1392-.1316,.1849-.3281,.4588-.3823,.5246l-1.1247-.4695c.1414-.1529,.2178-.2525,.3165-.393h-2.3802v1.9756c0,.3717,.0978,.5015,.4037,.5015h1.0812c.2623,0,.3494-.0533,.4366-.3059,.0871-.2721,.1307-.4143,.1858-.786l.9718,.4374c-.2836,1.2999-.601,1.8014-1.5613,1.8014h-1.5835c-.5788,0-1.1141-.4481-1.1141-1.2661v-3.3965h2.5776v-1.3426h-2.5776v-1.1256h3.7788v3.1777c.273-.4695,.5459-.9496,.8509-1.965,.2516-.8411,.3281-1.4084,.3939-1.933l1.2448,.2739c.12,.0213,.1849,.0765,.1849,.1405,0,.0551-.032,.0889-.12,.1316-.1307,.0658-.1414,.1103-.1636,.1743-.0871,.4268-.12,.5353-.2294,.8749h3.2v1.1576h-.7433c-.273,2.0521-.6989,2.9803-1.3426,3.9957,.7424,.9069,1.8449,1.4742,2.3695,1.748l-.8847,.8945Zm-2.9483-6.6382c.0765,1.0367,.2516,2.0734,.7646,2.9803,.6002-.9834,.8411-1.9543,.9176-2.9803h-1.6822Z"/><path class="cls-13" d="M160.0247,478.9378c-.3388-.2845-.6117-.6117-.8953-1.0278v4.1611h-1.2448v-3.6472c-.3174,.7202-.6668,1.2892-1.2457,1.965l-1.0589-.7309c1.1354-1.2786,1.7036-2.9821,1.9659-4.0402h-1.54v-1.3319h1.8787v-1.6502l1.1896,.0765c.2294,.0124,.2952,.0551,.2952,.1423,0,.0445-.0222,.0658-.0871,.1103-.1209,.0765-.1529,.0978-.1529,.1636v1.1576h1.6484v1.3319h-1.6484c.1965,.6882,.7424,1.572,1.7027,2.3686l-.8073,.9514Zm4.3674,3.0888h-2.0859c-.9496,0-.9825-.9051-.9825-1.211v-8.1799l1.179,.0658c.1752,.0107,.2952,.0445,.2952,.1423,0,.0445-.0213,.0765-.0871,.1085-.1316,.0996-.1423,.1103-.1423,.1654v7.1077c0,.393,.1094,.5032,.4481,.5032h.9282c.4037,0,.5779-.2187,.666-1.2679l1.1461,.5032c-.1414,1.8565-.5788,2.0628-1.3648,2.0628Z"/></g><line class="cls-6" x1="39.5657" y1="15.939" x2="-37.99" y2="15.939"/><polyline class="cls-6" points="266.801 564.2228 276.7522 564.2228 276.7522 600.8818"/><g><line class="cls-5" x1="115.3411" y1="316.446" x2="115.3411" y2="332.188"/><line class="cls-5" x1="109.3874" y1="316.446" x2="109.3874" y2="332.188"/><line class="cls-5" x1="103.4337" y1="316.446" x2="103.4337" y2="332.188"/><line class="cls-5" x1="97.48" y1="316.446" x2="97.48" y2="332.188"/><line class="cls-5" x1="91.5264" y1="316.446" x2="91.5264" y2="332.188"/></g><g><line class="cls-6" x1="93.1651" y1="46.8393" x2="93.1651" y2="62.5812"/><line class="cls-6" x1="87.9065" y1="46.8393" x2="87.9065" y2="62.5812"/><line class="cls-6" x1="82.6478" y1="46.8393" x2="82.6478" y2="62.5812"/></g><line class="cls-6" x1="227.4848" y1="328.0157" x2="253.6861" y2="328.0157"/><line class="cls-8" x1="78.6129" y1="62.1427" x2="98.1745" y2="62.1427"/><line class="cls-8" x1="70.7135" y1="46.9157" x2="98.1745" y2="46.9157"/><polygon class="cls-7" points="351.5431 162.9708 364.5899 162.9708 364.5899 138.4062 351.359 138.4062 351.5431 162.9708"/><g><g><line class="cls-6" x1="346.0689" y1="144.3823" x2="346.0689" y2="157.2775"/><line class="cls-6" x1="340.1152" y1="144.3823" x2="340.1152" y2="157.2775"/><line class="cls-6" x1="334.1615" y1="144.3823" x2="334.1615" y2="157.2775"/><line class="cls-6" x1="328.2078" y1="144.3823" x2="328.2078" y2="157.2775"/><line class="cls-6" x1="322.2541" y1="144.3823" x2="322.2541" y2="157.2775"/></g><line class="cls-8" x1="317.0966" y1="144.8753" x2="351.2303" y2="144.8753"/><line class="cls-8" x1="317.0966" y1="157.8077" x2="351.2303" y2="157.8077"/></g><g><g><line class="cls-6" x1="345.4985" y1="70.041" x2="345.4985" y2="82.9362"/><line class="cls-6" x1="339.5448" y1="70.041" x2="339.5448" y2="82.9362"/><line class="cls-6" x1="333.5911" y1="70.041" x2="333.5911" y2="82.9362"/><line class="cls-6" x1="327.6374" y1="70.041" x2="327.6374" y2="82.9362"/><line class="cls-6" x1="321.6837" y1="70.041" x2="321.6837" y2="82.9362"/></g><line class="cls-8" x1="316.5262" y1="70.5341" x2="350.6599" y2="70.5341"/><line class="cls-8" x1="316.5262" y1="83.4665" x2="350.6599" y2="83.4665"/></g><g><line class="cls-6" x1="235.4359" y1="252.3111" x2="235.4359" y2="270.2543"/><line class="cls-6" x1="229.4822" y1="252.3111" x2="229.4822" y2="270.2543"/><line class="cls-6" x1="223.5285" y1="252.3111" x2="223.5285" y2="270.2543"/><line class="cls-6" x1="217.5748" y1="252.3111" x2="217.5748" y2="270.2543"/><line class="cls-6" x1="211.6212" y1="252.3111" x2="211.6212" y2="270.2543"/></g><g><line class="cls-6" x1="97.5803" y1="111.7074" x2="97.5803" y2="123.7149"/><line class="cls-6" x1="92.0462" y1="111.7074" x2="92.0462" y2="123.7149"/><line class="cls-6" x1="86.512" y1="111.7074" x2="86.512" y2="123.7149"/></g><line class="cls-8" x1="82.6292" y1="111.6704" x2="102.7417" y2="111.6704"/><line class="cls-8" x1="73.9679" y1="123.029" x2="102.7417" y2="123.029"/><g><line class="cls-6" x1="207.1603" y1="111.7074" x2="207.1603" y2="123.7247"/><line class="cls-6" x1="201.6261" y1="111.7074" x2="201.6261" y2="123.7247"/><line class="cls-6" x1="196.092" y1="111.7074" x2="196.092" y2="123.7247"/></g><line class="cls-8" x1="192.2092" y1="111.6802" x2="212.3217" y2="111.6802"/><line class="cls-8" x1="183.5479" y1="123.0389" x2="212.3217" y2="123.0389"/><g><line class="cls-6" x1="243.041" y1="171.2447" x2="243.041" y2="184.1399"/><line class="cls-6" x1="237.0873" y1="171.2447" x2="237.0873" y2="184.1399"/><line class="cls-6" x1="231.1336" y1="171.2447" x2="231.1336" y2="184.1399"/><line class="cls-6" x1="225.1799" y1="171.2447" x2="225.1799" y2="184.1399"/><line class="cls-6" x1="219.2262" y1="171.2447" x2="219.2262" y2="184.1399"/></g><g><line class="cls-6" x1="91.7436" y1="171.2447" x2="91.7436" y2="184.1399"/><line class="cls-6" x1="85.7899" y1="171.2447" x2="85.7899" y2="184.1399"/><line class="cls-6" x1="79.8362" y1="171.2447" x2="79.8362" y2="184.1399"/><line class="cls-6" x1="73.8826" y1="171.2447" x2="73.8826" y2="184.1399"/><line class="cls-6" x1="67.9289" y1="171.2447" x2="67.9289" y2="184.1399"/></g><line class="cls-8" x1="205.9656" y1="270.4256" x2="253.9515" y2="270.4256"/><line class="cls-6" x1="365.3091" y1="44.6083" x2="365.3091" y2="-422.0824"/><polygon class="cls-14" points="258.8034 149.4017 266.2735 154.7659 266.2735 144.0375 258.8034 149.4017"/><polygon class="cls-14" points="146.69 122.0853 152.0542 114.6152 141.3258 114.6152 146.69 122.0853"/><polygon class="cls-14" points="258.8034 221.7322 266.2735 227.0964 266.2735 216.3681 258.8034 221.7322"/><polygon class="cls-14" points="60.3633 241.2839 52.8932 246.6481 52.8932 235.9198 60.3633 241.2839"/><g><line class="cls-4" x1="409.6115" y1="34.3249" x2="409.6115" y2="47.9329"/><polyline class="cls-4" points="415.1044 38.6179 409.6115 34.3249 404.1186 38.6179"/></g><g><line class="cls-4" x1="409.6115" y1="495.6423" x2="409.6115" y2="482.0342"/><polyline class="cls-4" points="415.1044 491.3492 409.6115 495.6423 404.1186 491.3492"/></g><g><rect class="cls-8" x="102.7417" y="111.6704" width="29.6947" height="26.4048"/><rect class="cls-8" x="212.3217" y="111.6802" width="40.4816" height="44.7325"/><g><polyline class="cls-7" points="252.8048 307.964 252.8045 284.9186 231.6732 284.9186 231.6732 276.6299 222.6419 276.6299 222.6419 270.4256 205.3297 270.4256 205.3297 253.0131 71.6923 253.0131 87.3042 307.4024 87.3042 315.8251 121.4372 315.8251 121.4372 332.3042 87.5888 332.3042 87.5888 379.5443 159.8885 401.1503 253.1661 401.1503 253.1661 335.6 227.2698 335.6 227.2698 320.9519 252.8048 320.9519 252.8048 307.964"/><polygon class="cls-8" points="252.8044 253.0131 252.8037 183.9741 225.3147 183.9741 225.3147 171.273 252.8036 171.273 252.8033 130.0078 36.6631 130.0078 48.4145 171.273 91.7789 171.273 91.7789 183.9741 52.0315 183.9741 71.6923 253.0131 205.3297 253.0131 252.8044 253.0131"/></g><rect class="cls-8" x="231.6638" y="284.9186" width="21.1411" height="22.692"/><rect class="cls-8" x="99.7555" y="250.0371" width="24.7495" height="15.0742"/></g><g><rect class="cls-12" x="97.0116" y="211.8023" width="123.396" height="1.2586"/><polygon class="cls-12" points="220.408 182.9335 220.408 181.5939 190.3102 171.8682 190.3102 161.3505 129.0105 181.1577 129.0105 172.5937 129.0583 172.5785 159.6604 162.6908 159.6604 161.3505 97.012 181.5939 97.012 182.9335 127.6619 173.0299 127.6619 182.9335 158.3117 173.0299 158.3117 182.9335 159.6604 182.9335 159.6604 172.5937 159.7081 172.5785 188.9615 163.1263 188.9615 182.9335 190.3102 182.9335 190.3102 173.2086 190.3996 173.2374 220.408 182.9335"/><path class="cls-12" d="M135.2259,196.0324c-2.3529,0-4.2665,1.9136-4.2665,4.2665s1.9136,4.2657,4.2665,4.2657,4.2665-1.9136,4.2665-4.2657-1.9144-4.2665-4.2665-4.2665m0,7.2675c-1.6554,0-3.0018-1.3464-3.0018-3.0011s1.3464-3.0011,3.0018-3.0011,3.0011,1.3464,3.0011,3.0011-1.3457,3.0011-3.0011,3.0011"/><polygon class="cls-12" points="220.4088 191.7138 220.4088 190.4711 213.8001 190.4711 213.8001 204.2648 220.4088 204.2648 220.4088 203.0222 215.1442 203.0222 215.1442 197.4661 219.7969 197.4661 219.7969 196.2241 215.1442 196.2241 215.1442 191.7138 220.4088 191.7138"/><polygon class="cls-12" points="97.0118 204.2647 103.6205 204.2647 103.6205 203.022 98.3552 203.022 98.3552 197.4659 103.0086 197.4659 103.0086 196.224 98.3552 196.224 98.3552 191.7137 103.6205 191.7137 103.6205 190.471 97.0118 190.471 97.0118 204.2647"/><polygon class="cls-12" points="120.8681 191.7138 124.294 191.7138 124.294 204.2648 125.6382 204.2648 125.6382 191.7138 129.0649 191.7138 129.0649 190.4711 120.8681 190.4711 120.8681 191.7138"/><polygon class="cls-12" points="150.5267 190.471 149.1841 190.471 149.1841 204.2648 155.8102 204.2648 155.8102 203.0221 150.5267 203.0221 150.5267 190.471"/><rect class="cls-12" x="191.6048" y="190.4707" width="1.3434" height="13.7937"/><polygon class="cls-12" points="180.3806 195.1097 176.0497 190.4843 176.0406 190.4714 174.6132 190.4714 174.6132 204.2644 175.9558 204.2644 175.9558 192.2253 180.3813 196.9643 184.8061 192.2616 184.8061 204.2644 186.1487 204.2644 186.1487 190.4714 184.7213 190.4714 180.3806 195.1097"/><path class="cls-12" d="M167.9174,199.9581c0,1.8659-1.4941,3.3275-3.3994,3.3275h-.0008c-1.9068,0-3.3994-1.4615-3.3994-3.3275v-9.4863h-1.3457v9.4477c0,2.605,2.084,4.6451,4.7451,4.6451h.0008c2.6603,0,4.7443-2.0401,4.7443-4.6451v-9.4477h-1.3449v9.4863Z"/><polygon class="cls-12" points="207.0108 195.7775 199.7523 190.4713 198.4135 190.4713 198.4135 204.265 199.7478 204.265 199.7478 192.0336 207.0108 197.3708 207.0108 204.265 208.3444 204.265 208.3444 190.4713 207.0108 190.4713 207.0108 195.7775"/><path class="cls-12" d="M112.2972,190.4711l-5.1532,13.7369-.0197,.0568h1.4214l1.2018-3.2298h6.5209l1.2025,3.2298h1.4191l-5.1729-13.7937h-1.4199Zm-2.087,9.3213l2.7974-7.5167,2.7981,7.5167h-5.5955Z"/></g><polyline class="cls-6" points="113.1322 387.0687 113.1322 341.2987 208.2272 341.2987 208.2272 401.4092"/><g><path class="cls-13" d="M139.1659,372.2981c-.16,.5388-.3343,1.0776-.553,1.6022,.1316-.0587,.2187-.0889,.393-.16v1.4262c-1.8778,.5975-3.1297,.9176-4.8048,1.3248-.0871,.0142-.1156,.0445-.144,.0871-.1316,.1316-.1316,.1458-.2045,.1458-.16,0-.2187-.2916-.233-.393l-.1743-1.3835c.7718-.0142,1.6146-.16,2.1392-.2756v-3.2471h-1.965v-1.4422h1.965v-.6989h-.9745v-1.0918c-.1316,.0871-.1458,.1014-.3788,.2774l-1.179-1.0918c.5228-.2916,1.0047-.5548,1.6591-1.2234,.7718-.786,.9745-1.2963,1.1505-1.7765l1.4991,.4659c.1174,.0445,.2045,.1316,.2045,.2187,0,.0587-.0302,.1156-.0587,.1743,.4374,.553,1.179,1.0492,1.7907,1.3835l-.9603,1.0776c-.7718-.4961-1.3106-1.0189-1.7036-1.5151-.6419,.8304-1.0047,1.179-1.5293,1.6307h3.3627v1.4706h-1.3106v.6989h1.5737v1.4422h-1.5737v2.8968c.4374-.1156,.7433-.2045,1.2092-.3485l-1.1505-.4232c.2774-.553,.4961-1.1061,.6704-1.965l1.339,.3343c.233,.0587,.233,.1743,.233,.1903,0,.0871-.1458,.1298-.2916,.1885Zm-5.0662,2.1552c-.1156-.6704-.2916-1.3835-.6704-2.3295l1.3693-.2916c.3201,.7718,.5246,1.4991,.6562,2.3011l-1.355,.3201Zm11.1959,2.5767c-1.1648-1.0776-2.125-2.374-2.7225-3.8446-.4659,1.0349-1.179,2.374-2.9839,3.873l-1.6449-1.1061c2.0076-.8589,3.1439-2.6069,3.6241-4.4403h-2.5322v-1.5293h2.6638c.0285-.6402,.0285-.8144,.0285-1.4706h-1.1487c-.1031,.3503-.2774,.9318-.5833,1.4279l-1.5435-.569c.4517-.7718,.9905-1.7605,1.0332-4.1629l1.4137,.3059c.0871,.0142,.377,.0871,.377,.2472,0,.0587-.0427,.1014-.1298,.1743-.0302,.0142-.1014,.1014-.1316,.1743-.0285,.4517-.0729,.6989-.1014,.8749h.8144c0-.6277,0-1.6467-.0285-2.4753l1.572,.1156c.0729,0,.393,.0587,.393,.2045,0,.0587-.0142,.0587-.2027,.2472-.0871,.1014-.0871,.1316-.0871,.4214,0,.0445-.0302,1.3248-.0302,1.4866h2.374v1.5275h-2.4166c0,.3361-.0302,1.195-.016,1.4706h2.767v1.5293h-2.5482c.3361,1.5293,1.3106,3.1297,3.3058,4.3958l-1.5151,1.1221Z"/><path class="cls-13" d="M160.3004,376.6512h-5.9554c-.9176,0-1.8636-.0729-2.5909-.3343-.786-.2916-1.0776-.7575-1.2377-1.0189-.1903,.1885-.5104,.5228-1.0776,.9603-.4517,.3645-.4801,.393-.5246,.5104-.0587,.2027-.0729,.233-.1298,.233-.0302,0-.1174-.0445-.1903-.176l-.7575-1.5275c1.195-.4659,1.588-.7149,1.8494-.8749v-3.2453h-1.4991v-1.5595h3.1599v4.5434c0,.9034,.8287,1.0918,3.0124,1.0918,2.2281,0,4.4563-.0729,6.6542-.3343l-.7131,1.732Zm-10.1342-9.0406c-.6544-.8304-1.2217-1.3106-1.965-1.748l1.1648-1.179c.6562,.4214,1.2234,.8589,2.0094,1.7907l-1.2092,1.1363Zm6.6987-.4232c-.2916,.4232-.4517,.6402-.6562,.8589h3.4071v6.5226h-1.6022v-.3485h-3.5227v.3485h-1.5862v-6.5226h1.7605c.2187-.2756,.3361-.4801,.5104-.8589h-3.2186v-1.2234h1.8067c-.2916-.5957-.5388-.9158-.7433-1.179l1.3693-.6117c.4214,.553,.6989,.9763,.9318,1.5577l-.5246,.233h2.0236c.3343-.6099,.5246-1.0047,.7575-1.6449l1.6449,.4374c.0445,.0142,.233,.0587,.233,.16,0,.0285-.0142,.0729-.1316,.1014-.1298,.0302-.1458,.0445-.1743,.0729-.233,.3201-.3645,.4961-.6846,.8731h2.1695v1.2234h-3.7699Zm1.1487,1.8778h-3.5227v.6704h3.5227v-.6704Zm0,1.6893h-3.5227v.6704h3.5227v-.6704Zm0,1.6307h-3.5227v.6989h3.5227v-.6989Z"/><path class="cls-13" d="M174.2703,366.3c-.4214,1.2074-.9745,1.6591-1.339,1.965,.9176,.5388,1.5577,.6989,2.0094,.8002l-.8731,1.195c-1.0349-.2774-1.8067-.8749-2.1695-1.1505-.7291,.4072-1.0207,.5086-1.8352,.8002h2.9697v.8162h-8.2689v-.8162h5.0075l-.7718-1.1932c.5104-.0445,1.2519-.1458,1.981-.5388-.3059-.4374-.4374-.7718-.4961-.9034-.2899,.4374-.393,.553-.5673,.7575l-.8731-.3645c-.1316,.9034-.3645,2.0823-1.7178,2.1126l-.4374-.7575v.553h-2.9554v-1.5151c-.2045,.2045-.2614,.2632-.4214,.3788l-1.0918-.7131c.6099-.4944,1.0918-1.0332,1.5577-1.8778l.6686,.393,.1031,.0142v-.4659h-1.8938v-.946h1.8938v-.5673l1.1203,.0729c.2774,.0142,.4374,.0427,.4374,.16,0,.0569-.0302,.0871-.16,.16-.1316,.0871-.1316,.1458-.1316,.1743h.7273v-.553l1.1648,.0729c.1903,.0142,.2916,.0427,.2916,.1298,0,.0587-.0285,.0729-.1458,.1618-.0587,.0427-.0587,.0569-.0587,.1885h1.4564v.946h-1.4564v.4659h1.0349l.2187,.3201c.4214-.4659,.8002-1.0474,1.2217-2.2993l1.179,.2472c.249,.0587,.3948,.1014,.3948,.2187,0,.1014-.0445,.1156-.1903,.1743-.0445,.0142-.0729,.0427-.0871,.0729q-.0445,.1014-.0871,.2027h3.3484v1.1078h-.7575Zm-11.4288,5.6335v-.8589h12.229v.8589h-12.229Zm9.158,5.0093v-.3645h-6.0709v.3645h-1.6164v-2.5927h9.318v2.5927h-1.6307Zm-7.1788-9.8284c-.0711,.0871-.1298,.1458-.2899,.3503h2.358v.9016c.1174,.0587,.1458,.0729,.233,.0729,.6562,0,.6846-.9887,.6846-1.3248h-2.9857Zm-.144,5.838v-.6686h8.3862v.6686h-8.3862Zm0,1.0349v-.6846h8.3702v.6846h-8.3702Zm1.2661-5.7811h-1.0189v.6117h1.0189v-.6117Zm6.0567,6.9885h-6.0709v.4961h6.0709v-.4961Zm-5.2565-9.4052h-.7273v.4659h.7273v-.4659Zm4.5577,.5104c.1316,.5673,.5673,1.0474,.7433,1.2377,.3628-.3645,.6544-.7718,.8429-1.2377h-1.5862Z"/><path class="cls-13" d="M185.4893,367.5804h2.4166v-.9603h-8.8077v1.4262h-1.5151v-2.7083h5.0662v-.9603l1.7338,.0729c.2027,.0142,.3485,.0427,.3485,.1458,0,.1298-.16,.2472-.3201,.3788v.3628h5.0093v2.5927h-.8447l.3059,.3201c-.3361,.4944-.569,.8447-1.5151,2.1695,.6846,.4801,1.3835,.9318,2.6656,1.3106l-1.1363,1.3106c-.3059-.1316-.4944-.233-.8162-.409v1.1363h-3.5956v2.3295c0,.7131-.6686,.8144-2.3011,.9905l-.7273-1.6467c.7273,.0302,.8002,.0445,.946,.0445,.3645,0,.4961-.0587,.4961-.393v-1.3248h-3.8303v-.9905c-.4499,.2045-.6828,.2774-.8429,.3201l-1.0492-1.2519c.6989-.1156,1.2661-.2472,2.0823-.7131-.16-.1743-.3645-.4072-.7131-.6989-.0889,.0587-.2632,.1885-.4374,.3059l-.9603-1.0776c1.8778-1.0332,2.4024-1.8636,2.8825-2.8683l.8447,.233c.2027,.0587,.6989,.2187,.6989,.3645,0,.1298-.1316,.1743-.2632,.2027h1.8778l.2774,.393c-.4517,1.1808-1.1203,2.0397-1.4564,2.4611h3.2755c-.6402-.7575-1.2217-1.4991-1.9507-3.2169l1.3693-.569c.2916,.9905,.7131,1.6307,.786,1.7622v-.8447Zm-4.2376,6.9743c.0445,.0285,.3948,.2472,.3948,.393,0,.1014-.1174,.1014-.249,.1014-.2169,0-.233,.0445-.4357,.2774-.8162,.9905-1.3977,1.4119-1.8352,1.7622l-1.2377-1.0634c1.179-.8162,1.6449-1.2661,2.3153-2.1108l1.0474,.6402Zm-1.6449-5.0236c-.2027,.1903-.2472,.233-.3343,.3201,.2916,.233,.5388,.4517,.8162,.6989,.144-.1156,.1885-.1743,.3201-.2899-.4374-.4374-.6562-.5975-.802-.7291Zm1.7338,1.6751c-.6562,.6117-1.1221,.9318-1.6751,1.2661h8.1248c-.6419-.393-1.2092-.7718-1.9952-1.4848v.7575h-4.4545v-.5388Zm-.9905-2.5038l-.1174,.1298c.233,.1903,.3503,.2774,.8162,.6846,.2472-.3201,.3645-.5246,.5388-.8144h-1.2377Zm7.2072,8.1373c-.9176-1.0332-1.4422-1.5417-2.1268-2.1108l1.1808-.8873c.9745,.8304,1.5862,1.4119,2.1677,2.0379l-1.2217,.9603Zm-1.8938-8.1675c.233,.3503,.393,.5246,.569,.7131,.2169-.2472,.3201-.4072,.4944-.7131h-1.0634Z"/></g></g><rect class="cls-1" x="0" y=".0007" width="454.2279" height="578.1082" rx="40" ry="40"/><g><g><path class="cls-13" d="M14.9837,37.8024h5.7206c2.8843,0,3.6223,1.8031,3.6223,3.0159,0,1.6893-.9496,2.1641-1.4422,2.4095,1.4422,.5424,1.8191,1.6893,1.8191,2.8523,0,.9354-.393,1.8209-1.0154,2.4273-.6722,.6562-1.3123,1.0652-3.7219,1.0652h-4.9827v-11.7702Zm2.3597,4.6057h2.8861c.9674,0,1.7373-.377,1.7373-1.3106,0-.9674-.6882-1.2626-1.8031-1.2626h-2.8203v2.5731Zm0,5.132h3.0159c1.1968,0,1.8867-.5246,1.8867-1.7213,0-1.0332-.8856-1.4262-1.7711-1.4262h-3.1315v3.1475Z"/><path class="cls-13" d="M26.7006,39.9506h.3272c2.2139,0,2.8043-1.1487,2.8541-2.0165h1.8849v11.6386h-2.2957v-8.0163h-2.7705v-1.6058Z"/><path class="cls-13" d="M42.4968,43.8289c.2774-.6989,.3343-.9034,.4232-1.2234-.7878,.2774-1.1221,.393-1.9525,.7131-.0729,.176-.1743,.3201-.2899,.3201-.1174,0-.1903-.1885-.2187-.2756l-.4374-1.4991c.393-.1031,.553-.1316,.9318-.233v-3.4516h-.0285c-.5104,1.0189-.7433,1.4706-1.6609,3.3058,.8447,1.3675,1.2377,2.0521,1.2377,3.1297,0,2.0681-1.5435,2.374-2.3722,2.534l-.6259-1.4848h-.0302v4.1202h-1.4848v-12.478h4.1647l.8002,.7415v-1.0332l1.5577,.0142c.2045,0,.3788,.0302,.3788,.16,0,.1174-.1743,.2632-.3343,.4232v.8731h1.5577v1.3835h-1.5577v1.3693c.4517-.1174,.9176-.233,1.3675-.3503v1.3693c-.16,.0569-.3201,.1014-.4801,.16v.0285l1.0918,.3201c-.0142-.0587-.0427-.1156-.0427-.233v-5.6335l1.2519,.0285c.4374,.0142,.6402,.0587,.6402,.1743,0,.1174-.1458,.233-.3059,.409v1.4404c.3788-.3201,.6259-.5673,1.195-1.3106l1.2217,.6704c.1458,.0729,.2774,.16,.2774,.2756,0,.1458-.1458,.176-.5246,.233-.6117,.5104-1.5133,1.3977-2.1695,1.9365v.5388c0,.2916,.0729,.4961,.3201,.4961h.409c.4214,0,.4499-.5104,.5086-1.3248l1.4119,.5815c-.2756,1.6164-.4517,2.1108-1.4119,2.1108h-2.1695c-.233,0-.3628-.0569-.4801-.16-.233,.3788-.3788,.6117-.4801,.8304h3.6543v5.9393h-1.5293v-.4944h-4.1344v.5673h-1.5435v-6.0123h1.8636Zm-5.0236-5.0805v6.6524c.9763-.0142,1.5008-.0729,1.5008-.8589,0-1.5577-.9763-2.518-1.3408-2.8683l1.195-2.9252h-1.355Zm8.8379,7.2197v-.9158h-4.1344v.9158h4.1344Zm0,1.0349h-4.1344v1.0474h4.1344v-1.0474Z"/></g><rect class="cls-3" x="11.4333" y="33.3022" width="41.368" height="19.9121"/></g></g></g><path class="cls-14" d="M414.228,2.0007c20.9533,0,38,17.0468,38,38v498.1083c0,20.9534-17.0467,38-38,38H40c-20.9533,0-38-17.0466-38-38V40.0007C2,19.0475,19.0467,2.0007,40,2.0007H414.228M414.228,.0007H40C17.9086,.0007,0,17.9093,0,40.0007v498.1083c0,22.0913,17.9086,40,40,40H414.228c22.0914,0,40-17.9087,40-40V40.0007C454.228,17.9093,436.3193,.0007,414.228,.0007h0Z"/></g></g></g></svg>