<?xml version="1.0" encoding="UTF-8"?>
<svg id="_レイヤー_2" data-name="レイヤー 2" xmlns="http://www.w3.org/2000/svg" viewBox="0 0 575.55 28.58">
  <defs>
    <style>
      .cls-1 {
        fill: #281575;
        stroke-width: 0px;
      }
    </style>
  </defs>
  <g id="_レイヤー_1-2" data-name="レイヤー 1">
    <g>
      <path class="cls-1" d="M0,27.96L4.39.61h5.25l6.81,16.36L23.25.61h5.25l4.39,27.35h-6.31l-2.17-16.32-6.85,16.32h-2.21l-6.85-16.32-2.17,16.32H0Z"/>
      <path class="cls-1" d="M61.62,3.98c2.58,2.5,4.26,6.11,4.26,10.33,0,3.65-1.31,7.38-4.26,10.25-2.54,2.46-5.99,4.02-10.58,4.02-5.12,0-8.61-2.05-10.66-4.02-2.62-2.46-4.26-6.15-4.26-10.17s1.76-7.91,4.22-10.37c1.84-1.84,5.25-4.02,10.7-4.02,4.26,0,7.83,1.31,10.58,3.98ZM45.02,8.16c-1.19,1.15-2.42,3.16-2.42,6.19,0,2.5.82,4.51,2.5,6.15,1.76,1.68,3.73,2.25,5.86,2.25,2.79,0,4.76-1.03,6.07-2.34,1.07-1.03,2.38-2.95,2.38-6.11,0-2.83-1.15-4.92-2.38-6.15-1.35-1.31-3.53-2.34-6.03-2.34s-4.51.86-5.99,2.34Z"/>
      <path class="cls-1" d="M79.99.61c3.49,0,5.66,1.15,6.97,2.38,1.15,1.11,2.38,3.07,2.38,6.11,0,1.72-.37,3.85-2.13,5.58-.94.9-2.3,1.72-3.81,2.09l8.41,11.19h-7.71l-7.38-10.78v10.78h-6.31V.61h9.59ZM76.71,13.04h1.44c1.15,0,2.71-.12,3.77-1.19.45-.45,1.03-1.31,1.03-2.67,0-1.56-.74-2.38-1.27-2.79-1.03-.78-2.67-.86-3.49-.86h-1.48v7.5Z"/>
      <path class="cls-1" d="M110.54,5.94h-9.14v5.29h8.69v5.33h-8.69v6.07h9.14v5.33h-15.46V.61h15.46v5.33Z"/>
      <path class="cls-1" d="M133.45.61c3.61,0,7.42.53,10.78,3.77,2.42,2.34,3.94,5.54,3.94,9.8s-1.48,7.42-3.73,9.68c-3.77,3.81-8.49,4.1-10.78,4.1h-8.86V.61h8.65ZM131.12,22.63h1.68c1.31,0,4.18-.12,6.23-1.84,1.48-1.23,2.67-3.57,2.67-6.6s-1.19-4.84-2.25-5.9c-2.05-2.05-4.71-2.34-6.64-2.34h-1.68v16.69Z"/>
      <path class="cls-1" d="M168.14,5.94h-9.14v5.29h8.69v5.33h-8.69v6.07h9.14v5.33h-15.46V.61h15.46v5.33Z"/>
      <path class="cls-1" d="M182.65,5.94v22.02h-6.31V5.94h-5.95V.61h18.2v5.33h-5.95Z"/>
      <path class="cls-1" d="M207.79,22.8h-10.33l-2.09,5.17h-6.56L199.83.61h5.78l10.78,27.35h-6.56l-2.05-5.17ZM206.06,17.96l-3.36-9.18-3.4,9.18h6.76Z"/>
      <path class="cls-1" d="M225.7.61v27.35h-6.31V.61h6.31Z"/>
      <path class="cls-1" d="M237.92.61v22.02h8.49v5.33h-14.8V.61h6.31Z"/>
      <path class="cls-1" d="M263.87,7.3c-2.05-1.84-3.81-1.97-4.59-1.97-.86,0-1.93.12-2.67.94-.41.41-.7,1.03-.7,1.72,0,.66.2,1.15.61,1.52.66.62,1.6.86,3.44,1.56l2.05.78c1.19.45,2.67,1.07,3.73,2.09,1.6,1.52,2.01,3.49,2.01,5.08,0,2.83-.98,5.29-2.42,6.77-2.42,2.54-5.95,2.79-7.75,2.79-1.97,0-3.69-.29-5.41-1.15-1.39-.7-2.99-1.97-4.02-2.99l3.28-4.51c.7.7,1.8,1.64,2.54,2.09,1.07.66,2.17.98,3.44.98.82,0,1.97-.16,2.87-.94.53-.45.98-1.19.98-2.21,0-.9-.37-1.48-.94-1.97-.74-.62-2.42-1.23-3.2-1.52l-2.25-.78c-1.27-.45-2.75-1.03-3.81-2.17-1.43-1.52-1.64-3.44-1.64-4.76,0-2.42.74-4.47,2.38-6.15,1.93-1.97,4.22-2.5,6.76-2.5,1.89,0,4.92.33,8.12,2.71l-2.83,4.59Z"/>
      <path class="cls-1" d="M301.22,27.1c-2.42,1.23-4.39,1.48-6.03,1.48-5.04,0-8.45-1.72-10.74-3.98-2.46-2.38-4.26-5.99-4.26-10.37s1.8-7.91,4.26-10.29c2.42-2.34,5.94-3.94,10.21-3.94,1.8,0,3.89.37,6.56,1.52v7.3c-1.39-1.48-3.48-2.91-6.4-2.91-2.3,0-4.14.74-5.58,2.13-1.52,1.48-2.58,3.69-2.58,6.31,0,2.83,1.15,4.84,2.38,6.03.57.57,2.54,2.3,5.9,2.3,1.64,0,3.85-.45,6.27-2.83v7.26Z"/>
      <path class="cls-1" d="M330.29,3.98c2.58,2.5,4.26,6.11,4.26,10.33,0,3.65-1.31,7.38-4.26,10.25-2.54,2.46-5.99,4.02-10.58,4.02-5.12,0-8.61-2.05-10.66-4.02-2.62-2.46-4.26-6.15-4.26-10.17s1.76-7.91,4.22-10.37c1.84-1.84,5.25-4.02,10.7-4.02,4.26,0,7.83,1.31,10.58,3.98ZM313.69,8.16c-1.19,1.15-2.42,3.16-2.42,6.19,0,2.5.82,4.51,2.5,6.15,1.76,1.68,3.73,2.25,5.86,2.25,2.79,0,4.76-1.03,6.07-2.34,1.07-1.03,2.38-2.95,2.38-6.11,0-2.83-1.15-4.92-2.38-6.15-1.35-1.31-3.53-2.34-6.03-2.34s-4.51.86-5.99,2.34Z"/>
      <path class="cls-1" d="M337.8,27.96l4.39-27.35h5.25l6.81,16.36,6.81-16.36h5.25l4.39,27.35h-6.31l-2.17-16.32-6.85,16.32h-2.21l-6.85-16.32-2.17,16.32h-6.31Z"/>
      <path class="cls-1" d="M381.62.61v27.35h-6.31V.61h6.31Z"/>
      <path class="cls-1" d="M387.53,27.96V.61h5.49l14.84,17.63V.61h6.31v27.35h-5.49l-14.84-17.71v17.71h-6.31Z"/>
      <path class="cls-1" d="M433.12,13.04h13.57v.29c0,3.32-1.19,8.36-4.22,11.52s-6.52,3.73-9.76,3.73-6.81-.53-10-3.81c-1.6-1.64-4.02-4.96-4.02-10.41,0-4.47,1.64-8.04,3.94-10.37,3.36-3.49,7.5-3.98,10.74-3.98,2.25,0,5.12.37,7.67,2.05,1.84,1.23,3.44,3.16,4.43,4.88l-5.7,3.08c-.53-1.07-1.35-2.17-2.42-2.95-1.23-.9-2.62-1.31-4.18-1.31-2.5,0-4.35.82-5.66,2.21-1.52,1.6-2.34,3.94-2.34,6.48,0,3.12,1.15,5.12,2.3,6.27,1.6,1.64,3.44,2.13,5.54,2.13,2.71,0,4.14-.94,4.76-1.48.21-.16,1.44-1.23,1.97-3.24h-6.6v-5.08Z"/>
      <path class="cls-1" d="M474.65,7.3c-2.05-1.84-3.81-1.97-4.59-1.97-.86,0-1.93.12-2.67.94-.41.41-.7,1.03-.7,1.72,0,.66.2,1.15.61,1.52.66.62,1.6.86,3.44,1.56l2.05.78c1.19.45,2.67,1.07,3.73,2.09,1.6,1.52,2.01,3.49,2.01,5.08,0,2.83-.98,5.29-2.42,6.77-2.42,2.54-5.95,2.79-7.75,2.79-1.97,0-3.69-.29-5.41-1.15-1.39-.7-2.99-1.97-4.02-2.99l3.28-4.51c.7.7,1.8,1.64,2.54,2.09,1.07.66,2.17.98,3.44.98.82,0,1.97-.16,2.87-.94.53-.45.98-1.19.98-2.21,0-.9-.37-1.48-.94-1.97-.74-.62-2.42-1.23-3.2-1.52l-2.25-.78c-1.27-.45-2.75-1.03-3.81-2.17-1.43-1.52-1.64-3.44-1.64-4.76,0-2.42.74-4.47,2.38-6.15,1.93-1.97,4.22-2.5,6.76-2.5,1.89,0,4.92.33,8.12,2.71l-2.83,4.59Z"/>
      <path class="cls-1" d="M507.13,3.98c2.58,2.5,4.26,6.11,4.26,10.33,0,3.65-1.31,7.38-4.26,10.25-2.54,2.46-5.99,4.02-10.58,4.02-5.12,0-8.61-2.05-10.66-4.02-2.62-2.46-4.26-6.15-4.26-10.17s1.76-7.91,4.22-10.37c1.84-1.84,5.25-4.02,10.7-4.02,4.26,0,7.83,1.31,10.58,3.98ZM490.52,8.16c-1.19,1.15-2.42,3.16-2.42,6.19,0,2.5.82,4.51,2.5,6.15,1.76,1.68,3.73,2.25,5.86,2.25,2.79,0,4.76-1.03,6.07-2.34,1.07-1.03,2.38-2.95,2.38-6.11,0-2.83-1.15-4.92-2.38-6.15-1.35-1.31-3.53-2.34-6.03-2.34s-4.51.86-5.99,2.34Z"/>
      <path class="cls-1" d="M540.13,3.98c2.58,2.5,4.26,6.11,4.26,10.33,0,3.65-1.31,7.38-4.26,10.25-2.54,2.46-5.99,4.02-10.58,4.02-5.12,0-8.61-2.05-10.66-4.02-2.62-2.46-4.26-6.15-4.26-10.17s1.76-7.91,4.22-10.37c1.84-1.84,5.25-4.02,10.7-4.02,4.26,0,7.83,1.31,10.58,3.98ZM523.53,8.16c-1.19,1.15-2.42,3.16-2.42,6.19,0,2.5.82,4.51,2.5,6.15,1.76,1.68,3.73,2.25,5.86,2.25,2.79,0,4.76-1.03,6.07-2.34,1.07-1.03,2.38-2.95,2.38-6.11,0-2.83-1.15-4.92-2.38-6.15-1.35-1.31-3.53-2.34-6.03-2.34s-4.51.86-5.99,2.34Z"/>
      <path class="cls-1" d="M548.9,27.96V.61h5.49l14.84,17.63V.61h6.31v27.35h-5.49l-14.84-17.71v17.71h-6.31Z"/>
    </g>
  </g>
</svg>